<svg xmlns="http://www.w3.org/2000/svg" width="31" height="30" viewBox="0 0 31 30">
    <path d="M28.921 20.526v-.79c0-2.178-1.768-3.947-3.947-3.947-2.18 0-3.948 1.769-3.948 3.948v.79c-.868 0-1.579.71-1.579 1.578v6.316c0 .868.71 1.579 1.58 1.579h7.894c.868 0 1.579-.71 1.579-1.579v-6.316c0-.868-.71-1.579-1.579-1.579m-1.579 0h-4.737v-.79c0-1.31 1.058-2.368 2.369-2.368 1.31 0 2.368 1.058 2.368 2.369v.79M16.29 25.262H.5v-4.737c0-4.215 8.416-6.315 12.632-6.315 1.705 0 4.105.347 6.315 1.042-.615.773-1.058 1.705-1.326 2.715-1.532-.442-3.268-.757-4.99-.757-4.689 0-9.631 2.305-9.631 3.315v1.737h12.79v3m-3.158-12.631c3.49 0 6.315-2.827 6.315-6.316 0-3.49-2.826-6.316-6.315-6.316-3.49 0-6.316 2.826-6.316 6.316 0 3.49 2.826 6.316 6.316 6.316m0-9.474c1.752 0 3.157 1.42 3.157 3.158 0 1.737-1.405 3.158-3.157 3.158-1.753 0-3.158-1.406-3.158-3.158 0-1.753 1.42-3.158 3.158-3.158z"/>
</svg>
