<svg xmlns="http://www.w3.org/2000/svg" width="30" height="30" viewBox="0 0 30 30">
    <g fill="none" fill-rule="evenodd">
        <path d="M0 0H30V29.992H0z"/>
        <g>
            <path fill="#FBBC04" d="M18.727 7.468c1.354-2.316.55-5.276-1.794-6.613C14.588-.481 11.59.31 10.237 2.627c-.06.103-.116.21-.169.317l-4.575 7.825c-.101.156-.195.316-.28.481L.462 19.448l8.49 4.758 4.726-8.129c.103-.154.197-.315.281-.48l4.575-7.827c.066-.098.133-.198.193-.302" transform="translate(0 1.385)"/>
            <path fill="#34A853" d="M9.06 24.037c-1.33 2.325-4.328 3.18-6.63 1.84C.126 24.533-.691 21.622.64 19.298c1.33-2.324 4.301-3.184 6.604-1.842 2.304 1.342 3.145 4.256 1.816 6.58" transform="translate(0 1.385)"/>
            <path fill="#4285F4" d="M27.615 9.622c-2.28-1.332-5.193-.543-6.514 1.764l-4.77 8.353c-1.313 2.303-.537 5.249 1.734 6.58l.012.008c2.28 1.333 5.195.543 6.516-1.765l4.768-8.352c1.314-2.303.537-5.25-1.735-6.582l-.01-.006" transform="translate(0 1.385)"/>
        </g>
    </g>
</svg>
