<svg xmlns="http://www.w3.org/2000/svg" width="118" height="45" viewBox="0 0 118 45">
    <g fill="none" fill-rule="evenodd">
        <path fill="#F68D11" fill-rule="nonzero" d="M32.52 28.828L25.72 31.103 25.72 40.966 32.528 38.943 32.52 28.828M34.293 38.943L41.101 40.966 41.078 31.11 34.293 28.828 34.293 38.943M39.714 42.033L33.369 44 27.107 42.033 33.378 40.347 39.714 42.033M49.666 28.828L42.866 31.103 42.866 40.966 49.675 38.943 49.666 28.828M51.44 38.943L58.248 40.966 58.224 31.11 51.44 28.828 51.44 38.943M56.861 42.033L50.516 44 44.253 42.033 50.525 40.347 56.861 42.033M6.808 24.529L0 26.552 0 16.69 6.8 14.414 6.808 24.529M8.573 24.529L15.381 26.552 15.358 16.696 8.573 14.414 8.573 24.529M13.995 27.62L7.649 29.586 1.387 27.62 7.659 25.934 13.995 27.62M23.946 14.414L17.147 16.69 17.147 26.552 23.955 24.529 23.946 14.414M25.72 24.529L32.528 26.552 32.504 16.696 25.72 14.414 25.72 24.529M31.141 27.62L24.796 29.586 18.533 27.62 24.805 25.934 31.141 27.62M15.373 0L8.573 2.276 8.573 12.138 15.381 10.115 15.373 0M17.147 10.115L23.955 12.138 23.931 2.282 17.147 0 17.147 10.115M22.568 13.206L16.223 15.172 9.96 13.206 16.232 11.52 22.568 13.206" transform="matrix(1 0 0 -1 .96 44.72)"/>
        <path fill="#100F0D" fill-rule="nonzero" d="M45.486 8.718l-.5-.002c-.184 0-.418-.124-.475-.326l-1.518-5.362-1.5 5.35c-.046.168-.204.338-.418.338h-.592c-.214 0-.37-.172-.412-.341L38.674 3.08l-1.443 5.311c-.057.195-.296.325-.484.325l-.72.001c-.154 0-.297-.066-.374-.173-.052-.072-.066-.154-.042-.225L37.84.405c.05-.167.193-.334.403-.334h.716c.193 0 .363.141.412.342l1.372 5.271L42.236.407c.045-.162.19-.336.4-.336h.705c.196 0 .36.136.409.336l2.146 7.908c.025.077.01.161-.041.233-.075.105-.217.17-.369.17M51.676 5.358h-3.782c.087 1.064.776 2.168 1.944 2.21 1.242-.04 1.81-1.119 1.838-2.21zm-1.84 3.416c-2.555 0-3.719-2.264-3.719-4.369 0-2.626 1.447-4.323 3.685-4.323 1.602 0 2.823.812 3.35 2.23.029.081.02.17-.024.248-.054.096-.156.168-.276.195l-.71.136c-.19.03-.408-.083-.48-.247-.344-.788-.972-1.235-1.76-1.259-.758.024-1.455.476-1.774 1.15-.259.552-.297 1.095-.301 1.648l5.134.002c.107 0 .219.047.297.127.066.066.102.149.101.231-.012 2.046-.945 4.231-3.524 4.231M59.676 4.393c0-.485-.088-2.904-1.802-2.966-.574.022-1.155.36-1.479.861-.239.379-.378.902-.414 1.55V5.26c.028 1.09.793 2.287 1.888 2.334 1.72-.068 1.807-2.68 1.807-3.202zm-1.533 4.455h-.136c-.848 0-1.514-.353-2.026-1.077v3.336c0 .187-.194.358-.407.358h-.738c-.193 0-.409-.153-.41-.358V.692c.001-.189.194-.36.407-.36h.217c.205 0 .35.166.4.32l.23.735C56.218.623 57.026.174 57.89.174h.133c2.278 0 3.298 2.222 3.298 4.424 0 1.096-.27 2.145-.74 2.876-.543.847-1.477 1.374-2.438 1.374M69.405 4.627c-.48.346-1.057.462-1.636.577l-1.108.207c-.796.13-1.256.345-1.256 1.049 0 .744.769 1.028 1.42 1.046.797-.02 1.396-.376 1.687-1.003.069-.148.222-.247.381-.247.027 0 .055.003.081.009l.692.153c.113.025.219.103.275.204.045.08.055.167.028.245-.423 1.237-1.498 1.89-3.124 1.89-1.47-.003-3.04-.658-3.04-2.488 0-1.25.784-2.045 2.331-2.36l1.241-.238c.681-.13 1.378-.363 1.378-1.097 0-1.086-1.26-1.197-1.641-1.205-.855.019-1.823.401-2.058 1.21-.047.179-.27.305-.466.264l-.724-.15c-.109-.023-.208-.094-.266-.19-.05-.08-.063-.17-.04-.25C63.932.908 65.225.097 67.02.084h.039c1.601 0 3.312.687 3.312 2.616 0 .785-.352 1.487-.966 1.926M76.725 5.35h-3.783c.086 1.065.775 2.17 1.943 2.21 1.242-.04 1.81-1.118 1.84-2.21zm-1.842 3.417c-2.555 0-3.719-2.265-3.719-4.369 0-2.626 1.447-4.322 3.685-4.322 1.602 0 2.824.811 3.352 2.23.028.08.019.169-.026.248-.053.096-.155.168-.276.194l-.71.136c-.166.027-.398-.06-.48-.247-.344-.788-.972-1.235-1.76-1.26-.758.025-1.454.477-1.772 1.151-.26.55-.298 1.094-.302 1.648l5.133.001c.107 0 .218.047.297.127.066.066.102.149.1.232-.011 2.045-.942 4.231-3.522 4.231M83.254 8.67c-.1.012-.197.017-.29.017-.862 0-1.562-.47-2.047-1.367l.002.786c-.001.19-.19.357-.406.357h-.64c-.211 0-.397-.167-.398-.36L79.474.468c0-.192.185-.36.397-.36h.748c.195 0 .414.153.416.36v3.849c0 .635.06 1.113.362 1.679.432.806 1.035 1.2 1.844 1.207.202.002.38.18.38.38v.714c0 .187-.161.351-.367.374M91.109 8.82h-.591c-.185 0-.422-.133-.48-.328l-1.915-6.037-1.956 6.03c-.058.2-.295.335-.481.335l-.844.001c-.155 0-.305-.069-.381-.176-.052-.072-.066-.153-.04-.229L87.097.454c.052-.158.188-.342.404-.342h1.02c.188 0 .342.128.412.342l2.596 7.96c.026.075.012.157-.039.229-.077.108-.226.178-.381.178M93.05 11.881c-.544 0-.987-.444-.987-.992 0-.547.443-.992.987-.992s.987.445.987.992c0 .548-.443.992-.987.992M93.456 8.87h-.81c-.22 0-.421-.179-.421-.375L92.22.388c0-.098.05-.195.137-.267.08-.066.182-.104.285-.104l.816-.001c.224.002.42.176.42.372v8.107c0 .2-.198.374-.423.374M101.027 3.372l-.676-.003c-.189 0-.347-.114-.418-.311-.247-1.07-.807-1.623-1.655-1.648-1.653.05-1.782 2.36-1.782 3.067 0 1.41.487 2.932 1.847 2.972.82-.025 1.417-.615 1.596-1.577.034-.196.184-.344.39-.37l.723-.007c.217.023.386.187.385.39-.256 1.738-1.457 2.861-3.061 2.861l-.056-.001-.063.001c-2.333 0-3.378-2.184-3.378-4.348 0-1.984.881-4.301 3.365-4.301h.12c1.564 0 2.744 1.1 3.083 2.882.007.085-.022.17-.082.24-.078.089-.202.146-.338.153M107.71 5.35h-3.784c.086 1.066.776 2.17 1.944 2.21 1.242-.04 1.81-1.118 1.84-2.21zm-1.843 3.417c-2.554 0-3.718-2.265-3.718-4.369 0-2.626 1.447-4.322 3.685-4.322 1.602 0 2.822.81 3.351 2.229.027.082.018.17-.026.249-.054.096-.153.167-.276.194l-.709.136c-.167.027-.398-.06-.48-.247-.345-.788-.973-1.235-1.76-1.26-.76.025-1.455.477-1.772 1.151-.26.551-.299 1.095-.303 1.648h5.134c.108 0 .22.048.298.129.066.067.101.15.1.23-.012 2.046-.944 4.232-3.524 4.232M115.823 4.627c-.481.346-1.06.462-1.636.577l-1.109.207c-.795.13-1.255.345-1.255 1.049 0 .96 1.188 1.04 1.42 1.046.797-.02 1.396-.376 1.686-1.003.07-.148.223-.247.382-.247.028 0 .055.003.082.009l.691.153c.113.025.219.103.275.204.045.08.055.167.028.245-.423 1.237-1.498 1.89-3.125 1.89-1.469-.003-3.039-.658-3.039-2.488 0-1.25.784-2.045 2.33-2.36l1.242-.238c.682-.13 1.378-.363 1.378-1.097 0-1.086-1.26-1.197-1.64-1.205-.793.017-1.808.346-2.058 1.21-.046.179-.27.305-.469.264l-.722-.15c-.11-.023-.21-.095-.267-.19-.049-.08-.062-.17-.04-.25.373-1.344 1.666-2.155 3.459-2.168h.04c1.601 0 3.312.687 3.312 2.616 0 .786-.352 1.488-.965 1.926" transform="matrix(1 0 0 -1 .96 44.72)"/>
        <path fill="#100F0D" d="M82.887 24.478v1.84c.001.28.213.467.466.467h8.224c.263 0 .475-.192.475-.464v-1.58c-.003-.263-.226-.609-.62-1.158l-4.26-6.1c1.58.039 3.254-.199 4.69-1.009.325-.182.411-.453.438-.717v-1.965c0-.27-.296-.584-.606-.42-2.531 1.33-5.89 1.475-8.69-.016-.286-.153-.586.155-.586.426v1.867c0 .297.006.809.306 1.265l4.936 7.1h-4.297c-.263 0-.473.189-.476.464M52.888 12.984h-2.502c-.238.016-.429.196-.447.425l.001 12.878c0 .258.217.464.483.464l2.33.001c.244-.014.44-.198.456-.432v-1.683h.046c.607 1.627 1.752 2.384 3.293 2.384 1.564 0 2.546-.757 3.246-2.384.608 1.627 1.986 2.384 3.458 2.384 1.051 0 2.194-.433 2.895-1.408.794-1.084.63-2.655.63-4.038l-.001-8.127c0-.257-.216-.464-.482-.464h-2.5c-.25.016-.449.217-.449.463v6.828c0 .541.046 1.897-.07 2.411-.188.868-.748 1.11-1.471 1.11-.608 0-1.24-.406-1.496-1.055-.257-.651-.233-1.735-.233-2.466v-6.827c0-.257-.216-.464-.483-.464h-2.499c-.25.016-.449.217-.449.463l-.003 6.828c0 1.436.234 3.549-1.54 3.549-1.799 0-1.729-2.06-1.729-3.55l-.001-6.826c0-.257-.216-.464-.483-.464M99.155 24.394c-1.846 0-1.963-2.52-1.963-4.093 0-1.571-.023-4.931 1.94-4.931 1.939 0 2.032 2.71 2.032 4.363 0 1.083-.046 2.384-.373 3.414-.281.894-.841 1.247-1.636 1.247zm-.023 2.627c3.713 0 5.722-3.197 5.722-7.26 0-3.93-2.22-7.047-5.722-7.047-3.644 0-5.63 3.198-5.63 7.181 0 4.01 2.009 7.126 5.63 7.126M109.67 12.984h-2.493c-.25.016-.449.217-.449.463l-.003 12.884c.02.235.228.42.48.42l2.32.001c.22-.012.4-.161.445-.36V24.42h.048c.7 1.761 1.68 2.6 3.408 2.6 1.122 0 2.22-.405 2.92-1.516.654-1.03.654-2.764.654-4.01V13.39c-.028-.228-.231-.406-.478-.406h-2.51c-.231.015-.417.187-.445.406v6.993c0 1.41.164 3.47-1.565 3.47-.607 0-1.167-.408-1.448-1.03-.35-.786-.397-1.572-.397-2.44v-6.935c-.004-.257-.22-.464-.487-.464M78.854 13.017c-.166-.149-.404-.159-.59-.059-.832.693-.981 1.014-1.435 1.673-1.374-1.403-2.346-1.824-4.125-1.824-2.107 0-3.745 1.304-3.745 3.911 0 2.036 1.1 3.422 2.668 4.1 1.358.599 3.254.707 4.705.87v.326c0 .597.046 1.304-.305 1.82-.304.461-.889.651-1.404.651-.955 0-1.803-.49-2.012-1.507-.042-.226-.207-.45-.434-.46l-2.425.263c-.205.046-.432.21-.373.523.557 2.951 3.214 3.843 5.595 3.843 1.217 0 2.81-.326 3.769-1.249 1.216-1.141 1.1-2.662 1.1-4.319V17.67c0-1.176.487-1.692.945-2.325.158-.229.194-.5-.01-.667-.51-.43-1.418-1.22-1.917-1.667l-.007.006zm-2.522 6.118c0-.978.023-1.793-.469-2.662-.398-.706-1.03-1.14-1.732-1.14-.96 0-1.52.733-1.52 1.82 0 2.136 1.911 2.525 3.72 2.525v-.543M46.055 13.017c-.166-.149-.405-.159-.592-.059-.83.693-.98 1.014-1.434 1.673-1.373-1.403-2.346-1.824-4.125-1.824-2.107 0-3.745 1.304-3.745 3.911 0 2.036 1.1 3.422 2.668 4.1 1.358.599 3.254.707 4.705.87v.326c0 .597.047 1.304-.304 1.82-.304.461-.89.651-1.404.651-.955 0-1.804-.49-2.012-1.507-.043-.226-.208-.45-.434-.46l-2.426.263c-.204.046-.432.21-.373.523.557 2.951 3.214 3.843 5.595 3.843 1.218 0 2.809-.326 3.769-1.249 1.217-1.141 1.1-2.662 1.1-4.319V17.67c0-1.176.487-1.692.944-2.325.16-.229.196-.5-.008-.667-.511-.43-1.42-1.22-1.918-1.667l-.006.006zm-2.523 6.118c0-.978.023-1.793-.468-2.662-.397-.706-1.03-1.14-1.731-1.14-.961 0-1.522.733-1.522 1.82 0 2.136 1.91 2.525 3.721 2.525v-.543" transform="matrix(1 0 0 -1 .96 44.72)"/>
    </g>
</svg>
