<svg xmlns="http://www.w3.org/2000/svg" width="30" height="35" viewBox="0 0 30 35">
    <path d="M30 26.375V7.625c0-4.065-6.868-7.5-15-7.5S0 3.56 0 7.625v18.75c0 4.065 6.868 7.5 15 7.5s15-3.435 15-7.5zM15 3.027c7.602 0 12.215 3.412 12.357 4.514-.142 1.13-4.755 4.542-12.357 4.542-7.602 0-12.215-3.412-12.357-4.514C2.785 6.439 7.398 3.027 15 3.027zM2.643 11.583C5.689 13.5 10.133 14.736 15 14.736c4.867 0 9.311-1.236 12.357-3.153v5.403c-.142 1.13-4.755 4.542-12.357 4.542-7.602 0-12.215-3.412-12.357-4.528v-5.417zm0 14.862v-5.417C5.689 22.945 10.133 24.18 15 24.18c4.867 0 9.311-1.236 12.357-3.153v5.403c-.142 1.13-4.755 4.542-12.357 4.542-7.602 0-12.215-3.412-12.357-4.528z"/>
</svg>
