<svg height="35" viewBox="0 0 30 35" width="30" xmlns="http://www.w3.org/2000/svg"><path d="m30 26.375v-18.75c0-4.065-6.868-7.5-15-7.5s-15 3.435-15 7.5v18.75c0 4.065 6.868 7.5 15 7.5s15-3.435 15-7.5zm-15-23.348c7.602 0 12.215 3.412 12.357 4.514-.142 1.13-4.755 4.542-12.357 4.542s-12.215-3.412-12.357-4.514c.142-1.13 4.755-4.542 12.357-4.542zm-12.357 8.556c3.046 1.917 7.49 3.153 12.357 3.153s9.311-1.236 12.357-3.153v5.403c-.142 1.13-4.755 4.542-12.357 4.542s-12.215-3.412-12.357-4.528zm0 14.862v-5.417c3.046 1.917 7.49 3.152 12.357 3.152s9.311-1.236 12.357-3.153v5.403c-.142 1.13-4.755 4.542-12.357 4.542s-12.215-3.412-12.357-4.528z"/></svg>