<svg height="32" viewBox="0 0 33 32" width="33" xmlns="http://www.w3.org/2000/svg"><g fill="none" fill-rule="evenodd" transform="translate(1.5 1)"><rect height="27.692" rx="3" stroke="#000" stroke-linejoin="round" stroke-width="2" width="30" y="2.308"/><g fill="#000" fill-rule="nonzero"><path d="m25.227 2.308h-20.454c-2.633 0-4.773 2.174-4.773 4.846v4.384h1.154c0-1.153 1.154-2.307 2.308-2.307h23.076c1.154 0 2.308 1.154 2.308 2.307h1.154v-4.384c0-2.672-2.141-4.846-4.773-4.846z"/><circle cx="17.885" cy="13.269" r="1.731"/><circle cx="23.654" cy="13.269" r="1.731"/><circle cx="17.885" cy="19.038" r="1.731"/><circle cx="23.654" cy="19.038" r="1.731"/><circle cx="6.346" cy="19.038" r="1.731"/><circle cx="12.115" cy="19.038" r="1.731"/><circle cx="6.346" cy="24.808" r="1.731"/><circle cx="12.115" cy="24.808" r="1.731"/><circle cx="17.885" cy="24.808" r="1.731"/></g><path d="m5.783 0v2.308m18.462-2.308v2.308" stroke="#000" stroke-linecap="round" stroke-linejoin="round" stroke-width="2"/></g></svg>