<svg height="23" viewBox="0 0 33 23" width="33" xmlns="http://www.w3.org/2000/svg" xmlns:xlink="http://www.w3.org/1999/xlink"><linearGradient id="a"><stop offset="0" stop-color="#fff"/><stop offset="1" stop-color="#fff" stop-opacity="0"/></linearGradient><linearGradient id="b" x1="100%" x2="12.670482%" xlink:href="#a" y1="48.611111%" y2="55.677457%"/><linearGradient id="c" x1="100%" x2="0%" xlink:href="#a" y1="46.875%" y2="59.413543%"/><linearGradient id="d" x1="87.374926%" x2="-5.058242%" xlink:href="#a" y1="33.385079%" y2="72.376641%"/><g fill="none" transform="translate(.500254)"><path d="m9.999746 11h12v2h-12z" fill="url(#b)"/><path d="m9.999746 15h8v2h-8z" fill="url(#c)"/><path d="m15.9997458 2c3.8370893.0053602 7.1332865 2.72680058 7.8649 6.4935l.2591 1.346 1.3488.244c2.8014513.5050539 4.7550677 3.0636283 4.5043578 5.8991799-.2507099 2.8355517-2.6229499 5.0116485-5.4695578 5.0173201h-17.01219997c-2.84742136-.0034674-5.22174027-2.1789248-5.47363001-5.015185-.25188973-2.8362602 1.7018852-5.3960978 4.50413001-5.901315l1.3488-.244.2591-1.346c.73253438-3.76668732 4.02894737-6.48785605 7.86619997-6.4935m0-2c-4.7961816.0052493-8.91668766 3.40707704-9.82999997 8.1155-3.82004634.68949394-6.48319511 4.1792736-6.14001069 8.0458457.34318442 3.8665722 3.57934291 6.8327484 7.46111069 6.8386543h17.01649997c3.8818057-.0058033 7.1180609-2.9719498 7.4613002-6.8385549.3432393-3.8666052-2.3199169-7.35644361-6.1400002-8.0459451-.9135332-4.71265795-5.0402158-8.11591514-9.8406-8.1155z" fill="url(#d)"/></g></svg>