<svg xmlns="http://www.w3.org/2000/svg" width="118" height="74" viewBox="0 0 118 74">
    <g fill="#32343A">
        <path d="M79.191 35.405c2.388-1.227 5.22-1.227 7.607 0 .122.055.264.042.374-.036.109-.077.169-.207.157-.34v-1.72c-.01-.259-.152-.495-.377-.624-1.29-.669-2.737-.972-4.187-.877l3.8-5.372c.264-.287.451-.636.542-1.016v-1.388c0-.222-.18-.403-.403-.403h-7.208c-.222 0-.402.18-.402.403v1.61c-.001.108.04.211.116.287.076.077.179.12.286.12h3.762l-4.304 6.188c-.2.341-.291.735-.263 1.129v1.621c-.015.279.252.542.5.418zM61.92 27.256c.052.703.052 1.408 0 2.11v5.956c.006.21.167.382.376.403h2.193c.225 0 .41-.178.418-.403v-7.107c.176-1.203-.017-2.432-.553-3.525-.721-.91-1.876-1.365-3.024-1.19-1.149.175-2.116.952-2.533 2.037-.406-1.235-1.559-2.07-2.859-2.07s-2.453.835-2.86 2.07v-1.46c-.02-.209-.192-.37-.402-.376h-2.042c-.225 0-.408.178-.414.403v11.26c.016.2.175.36.376.376h2.193c.226.002.412-.177.418-.403v-5.97c0-1.306 0-3.097 1.505-3.097 1.504 0 1.388 1.844 1.388 3.097v5.955c.006.21.167.382.376.403h2.193c.225 0 .41-.178.418-.403v-5.955c-.045-.724.026-1.45.21-2.152.196-.55.718-.919 1.302-.918.304-.055.616.016.866.197.249.181.413.457.455.762zM93.299 35.962c3.07 0 5.011-2.78 5.011-6.151s-1.75-6.347-5.011-6.347c-3.262 0-4.928 2.776-4.928 6.219 0 3.442 1.745 6.279 4.928 6.279zm0-10.192c.663-.019 1.246.436 1.388 1.084.256.972.369 1.977.335 2.983 0 1.388-.083 3.803-1.78 3.803-1.696 0-1.692-2.927-1.692-4.303 0-1.377.154-3.567 1.764-3.567H93.3zM102.96 35.322v-6.11c-.04-.725.078-1.45.346-2.125.2-.535.708-.893 1.28-.903 1.504 0 1.387 1.806 1.387 3.028v6.11c.02.199.178.356.377.376h2.193c.214 0 .393-.163.414-.376v-7.08c.109-1.196-.087-2.4-.568-3.499-.537-.892-1.515-1.423-2.555-1.388-1.402-.044-2.644.896-2.983 2.257v-1.591c-.042-.178-.195-.307-.376-.32h-2.028c-.216-.003-.398.161-.418.376v11.23c.007.21.168.382.377.402h2.178c.204-.018.364-.183.376-.387zM73.36 28.129c-1.416.056-2.818.31-4.164.752-1.455.583-2.388 2.016-2.333 3.582-.083.82.164 1.64.686 2.28.522.638 1.277 1.043 2.098 1.124.164.016.329.016.493 0 1.38.08 2.717-.504 3.596-1.572.336.553.768 1.043 1.276 1.445.155.105.36.105.515 0 .536-.491 1.096-.954 1.678-1.389.158-.162.158-.42 0-.583-.517-.55-.808-1.273-.816-2.028v-3.525c0-1.388.094-2.776-.96-3.762-.932-.752-2.105-1.142-3.303-1.098-2.084 0-4.416.779-4.89 3.348-.022.101-.002.207.057.292.058.086.149.143.251.16h.023l2.125.221c.202-.034.356-.199.376-.402.174-.82.93-1.384 1.765-1.317.482-.038.95.177 1.234.568.243.49.336 1.041.267 1.584l.026.32zm-.402 4.556c-.283.581-.86.963-1.505.997-.847 0-1.388-.636-1.388-1.58 0-1.881 1.662-2.209 3.261-2.209v.47c.093.794-.037 1.598-.376 2.322h.008zM46.3 35.74c.155.105.36.105.515 0 .536-.491 1.096-.954 1.678-1.389.158-.162.158-.42 0-.583-.517-.55-.808-1.273-.816-2.028v-3.525c0-1.388.094-2.776-.96-3.762-.932-.752-2.105-1.142-3.303-1.098-2.084 0-4.417.779-4.89 3.348-.023.101-.002.207.056.292.059.086.15.143.252.16h.023l2.125.221c.201-.035.354-.2.376-.402.17-.82.926-1.386 1.76-1.317.482-.026.945.187 1.239.568.24.491.332 1.042.263 1.584v.279c-1.417.054-2.819.307-4.165.752-1.454.583-2.387 2.015-2.332 3.581-.162 1.703 1.082 3.216 2.784 3.386.164.012.329.012.493 0 1.39.079 2.732-.516 3.607-1.599.333.587.772 1.106 1.295 1.532zm-2.096-3.067c-.283.582-.859.964-1.505.997-.846 0-1.388-.635-1.388-1.58 0-1.88 1.678-2.208 3.262-2.208v.47c.105.79-.011 1.593-.335 2.321h-.034zM42.383 44.054c.794.09 1.534.447 2.1 1.012 0 0 .082 0 .124-.124l.459-.832v-.154c-.724-.763-1.725-1.204-2.777-1.223-2.43 0-4.014 2.017-4.014 5.32 0 2.889 1.388 4.721 3.72 4.721 1.127.013 2.225-.349 3.123-1.027v-.154l-.33-.832c0-.033-.012-.066-.036-.09-.023-.024-.055-.037-.089-.037-.764.469-1.633.742-2.528.793-1.915 0-2.257-1.903-2.257-3.694 0-2.235.575-3.68 2.505-3.68zM48.87 52.816c.752 0 1.677-.279 1.677-.5.011-.047.011-.094 0-.14l-.248-.752c-.001-.036-.017-.07-.043-.093-.026-.023-.061-.035-.096-.032-.328.137-.674.226-1.028.264-.401.005-.742-.294-.79-.692V38.456c0-.098 0-.267-.139-.267h-.237l-.985.237c-.083 0-.14.097-.14.237v10.259c-.045.961.049 1.924.279 2.859.33.657 1.014 1.061 1.75 1.035zM67.905 50.035v-7.05c0-.098 0-.263-.14-.263h-.236l-.986.237c-.082 0-.139.094-.139.233v7.193c-.653.525-1.43.874-2.257 1.012-.753.142-1.48-.353-1.622-1.106-.028-.162-.028-.327 0-.489v-6.817c0-.098 0-.263-.139-.263h-.233l-.986.237c-.082 0-.139.094-.139.233v6.569c0 1.388.222 2.972 2.886 2.972 1.029-.076 2.005-.485 2.78-1.166.222.455.429 1.166.752 1.166.051.007.103.007.154 0l.775-.474c.088-.003.162-.065.181-.15-.1-.263-.226-.515-.376-.753-.196-.412-.29-.865-.275-1.32zM77.013 49.358v-10.91c0-.094 0-.263-.154-.263h-.237l-.97.237c-.084 0-.14.098-.14.237v4.706c-.722-.467-1.57-.7-2.43-.666-2.291 0-3.303 2.374-3.303 5.218 0 2.46.97 4.82 3.08 4.82 1.071-.052 2.093-.463 2.901-1.167.087.32.433 1.167.711 1.167.05.01.101.01.15 0l.78-.474c.087-.005.16-.066.18-.151-.108-.26-.233-.51-.376-.752-.2-.648-.265-1.329-.192-2.002zm-1.505.903c-.66.612-1.486 1.017-2.374 1.166-1.595 0-1.734-1.88-1.734-3.54 0-1.918.15-3.86 1.859-3.86.797.007 1.578.232 2.257.651l-.008 5.583zM83.078 38.181c-2.442 0-2.777 1.806-2.777 3.277V43h-1.388c-.14 0-.14.094-.14.234v.752c0 .094 0 .233.14.233H80.3v8.025c-.016.114.063.22.177.237h1.087c.055.008.111-.006.156-.039.044-.033.074-.083.081-.138.004-.02.004-.04 0-.06v-8.025h2.525c.119.005.227-.068.267-.18l.263-.775v-.14c-.039-.087-.126-.142-.222-.139h-2.776v-1.527c0-1.151.082-1.971 1.177-1.971.588.078 1.165.218 1.723.417.07-.007.126-.059.14-.128l.278-.65c.037-.091.068-.184.094-.279-.011-.278-1.276-.666-2.193-.666zM90.73 42.722c-1.155 0-1.863 1.129-2.374 1.667-.083-.433-.418-1.667-.78-1.667-.072.015-.139.05-.195.098l-.752.455c-.075.04-.126.112-.14.196.042.18.117.349.223.5.228.468.341.984.33 1.505v6.771c-.015.115.064.22.178.237h1.087c.055.01.112-.003.156-.037.045-.033.074-.084.08-.14.005-.02.005-.04 0-.06V45.74c.475-.515 1.167-1.542 1.882-1.542.226.022.446.083.65.18.083 0 .098-.098.125-.139l.432-1.012c.004-.051.004-.103 0-.154.068-.185-.443-.35-.902-.35zM96.282 42.722c-2.859 0-4.014 2.332-4.014 5.052 0 2.72 1.238 5.042 3.875 5.042 2.89 0 4.056-2.322 4.056-5.083s-1.14-5.011-3.917-5.011zm0 8.814c-1.817 0-2.332-1.677-2.332-3.927 0-1.96.527-3.653 2.317-3.653 1.791 0 2.321 1.78 2.321 3.72-.022 2.265-.556 3.864-2.306 3.864v-.004zM106.737 42.722c-1.19.07-2.318.562-3.179 1.388 0-.154-.263-1.388-.613-1.388 0 0-.124 0-.15.083l-.888.5c-.087 0-.098.098-.098.14.121.27.228.548.32.83.082.384.11.776.082 1.167v6.817c-.008.055.006.11.039.155s.083.074.138.082c.02.004.04.004.06 0h1.027c.055.007.11-.007.154-.04.043-.033.072-.083.08-.137.003-.02.003-.04 0-.06v-6.941c.682-.724 1.617-1.156 2.61-1.208 1.069 0 1.29.753 1.29 1.595v6.588c-.015.114.064.22.178.237h1.087c.114.015.22-.063.237-.177.004-.02.004-.04 0-.06v-6.599c-.011-1.433-.18-2.972-2.374-2.972zM116.929 51.758l-.222-.752c-.008-.072-.068-.126-.14-.128-.6.282-1.243.462-1.903.53-1.182 0-1.182-.805-1.182-1.598v-5.534h2.611c.118.003.224-.07.264-.18l.267-.78v-.135c-.04-.088-.13-.143-.226-.14h-2.9v-3.084c0-.124 0-.222-.098-.222h-.14l-1.038.293c-.06.002-.118.028-.16.073-.042.044-.064.103-.062.164v2.705h-1.486c-.139 0-.139.098-.139.237v.753c0 .097 0 .237.14.237H112v5.552c-.102.79.101 1.59.568 2.235.493.485 1.169.738 1.859.696 1.072 0 2.554-.557 2.554-.805-.015-.041-.034-.079-.052-.117z" transform="translate(.96)"/>
        <path d="M55.061 42.722c-2.859 0-4.014 2.332-4.014 5.052 0 2.72 1.001 4.68 3.292 4.944 0 5.267-.82 7.72-6.94 10.108-.551-.988-1.647-1.544-2.77-1.405-1.123.14-2.049.948-2.34 2.041-7.25-1.027-11.734-5.079-13.4-8.747 1.333-.768 1.81-2.458 1.077-3.81-.734-1.353-2.412-1.873-3.782-1.174-2.987-5.267-1.388-16.298.846-22.546 1.305.375 2.69-.248 3.274-1.473.584-1.225.197-2.693-.915-3.47 4.236-6.64 12.286-9.769 19.894-7.732v.264c.02 1.533 1.28 2.759 2.814 2.738 1.533-.02 2.759-1.28 2.738-2.814-.02-1.533-1.28-2.76-2.813-2.738-.14 0-.28.013-.418.037-2.902-4.963-7.506-8.705-12.956-10.534C32.584-.788 25.855-.402 20.089 2.528c-.817-1.206-2.428-1.575-3.69-.845-1.26.73-1.742 2.312-1.102 3.622C8.149 9.887 5.579 17.23 6.967 29.1c-1.45.501-2.22 2.081-1.723 3.532.048.13.104.255.17.376C2.04 36.608.134 41.34.068 46.273c-.43 5.794 1.192 11.553 4.582 16.271-.875 1.078-.82 2.636.13 3.648.949 1.013 2.5 1.17 3.632.366 4.027 4.027 9.428 6.383 15.12 6.595h1.388c6.696-.002 13.195-2.274 18.434-6.444.855.652 2.01.752 2.964.256.955-.496 1.537-1.499 1.494-2.574.008-.111.008-.223 0-.334 6.395-2.498 7.693-5.343 7.761-11.287 2.374-.346 3.348-2.498 3.348-5.026-.015-2.844-1.15-5.022-3.86-5.022zm-29.795 7.844c-.157.212-.283.445-.376.692-4.71-.914-8.989-3.353-12.174-6.941-2.39-2.707-3.85-6.109-4.165-9.706 1.06-.191 1.915-.979 2.191-2.02.276-1.041-.075-2.149-.9-2.84 1.846-2.554 4.45-4.462 7.44-5.452 2.409-.845 5.014-.953 7.484-.308-.2 1.066.241 2.151 1.128 2.776-2.317 6.43-4.04 18.107-.654 23.799h.026zM20.714 3.638C26.17.884 32.529.527 38.26 2.652c5.125 1.726 9.458 5.24 12.204 9.898-.328.237-.603.54-.805.892-3.736-.89-7.643-.76-11.312.376-4.233 1.282-7.833 4.1-10.094 7.9h-.098c-.222-2.04-.729-4.04-1.505-5.94-1.449-3.598-3.568-6.888-6.245-9.695.455-.704.568-1.576.309-2.374v-.071zM15.91 6.414c.914 1.07 2.484 1.285 3.653.5 3.942 4.012 6.499 9.177 7.298 14.744-.681.152-1.28.555-1.678 1.129-2.74-.754-5.645-.657-8.329.278-3.247 1.11-6.061 3.216-8.04 6.02-.194-.062-.395-.101-.598-.117-1.388-11.414.945-18.246 7.679-22.573l.015.02zm7.69 65.573c-5.364-.211-10.455-2.42-14.274-6.192.763-.67 1.1-1.703.88-2.694-.22-.991-.964-1.783-1.94-2.066-.975-.283-2.027-.011-2.743.708-3.156-4.476-4.658-9.91-4.248-15.372.057-4.58 1.798-8.977 4.891-12.354.33.264.716.449 1.129.541.308 3.912 1.883 7.616 4.484 10.553 3.384 3.817 7.936 6.408 12.945 7.37.096 1.462 1.311 2.599 2.777 2.596h.124c1.764 4.164 6.553 8.566 14.51 9.65.048.36.166.71.346 1.026-5.352 4.255-12.049 6.456-18.882 6.208v.026zm31.405-20.42c-1.817 0-2.332-1.682-2.332-3.932 0-1.956.526-3.649 2.317-3.649 1.79 0 2.321 1.776 2.321 3.72 0 2.235-.557 3.83-2.321 3.83l.015.03zM111.311 24.894h.296l.213.485h.262l-.246-.512c.143-.038.238-.16.23-.293 0-.346-.292-.376-.538-.376h-.446v1.192h.246l-.017-.496zm0-.512h.296c.138 0 .23 0 .23.165 0 .166-.092.155-.2.155h-.292l-.034-.32z" transform="translate(.96)"/>
        <path d="M111.556 25.958c.624 0 1.129-.505 1.129-1.128 0-.624-.505-1.129-1.129-1.129-.623 0-1.128.505-1.128 1.129 0 .623.505 1.128 1.128 1.128zm0-2.11c.534.002.966.435.967.97 0 .533-.43.967-.964.97-.534.004-.97-.424-.977-.958.008-.533.442-.96.974-.96v-.022z" transform="translate(.96)"/>
    </g>
</svg>
