<svg height="173" viewBox="0 0 204 173" width="204" xmlns="http://www.w3.org/2000/svg" xmlns:xlink="http://www.w3.org/1999/xlink"><filter id="a" height="235%" width="131.8%" x="-15.9%" y="-67.5%"><feOffset dx="2" dy="4" in="SourceAlpha" result="shadowOffsetOuter1"/><feGaussianBlur in="shadowOffsetOuter1" result="shadowBlurOuter1" stdDeviation="5"/><feColorMatrix in="shadowBlurOuter1" result="shadowMatrixOuter1" type="matrix" values="0 0 0 0 0   0 0 0 0 0   0 0 0 0 0  0 0 0 0.2 0"/><feMerge><feMergeNode in="shadowMatrixOuter1"/><feMergeNode in="SourceGraphic"/></feMerge></filter><filter id="b" height="235%" width="131.8%" x="-15.9%" y="-67.5%"><feOffset dx="2" dy="4" in="SourceAlpha" result="shadowOffsetOuter1"/><feGaussianBlur in="shadowOffsetOuter1" result="shadowBlurOuter1" stdDeviation="5"/><feColorMatrix in="shadowBlurOuter1" result="shadowMatrixOuter1" type="matrix" values="0 0 0 0 0   0 0 0 0 0   0 0 0 0 0  0 0 0 0.2 0"/><feMerge><feMergeNode in="shadowMatrixOuter1"/><feMergeNode in="SourceGraphic"/></feMerge></filter><filter id="c" height="235%" width="131.8%" x="-15.9%" y="-67.5%"><feOffset dx="2" dy="4" in="SourceAlpha" result="shadowOffsetOuter1"/><feGaussianBlur in="shadowOffsetOuter1" result="shadowBlurOuter1" stdDeviation="5"/><feColorMatrix in="shadowBlurOuter1" result="shadowMatrixOuter1" type="matrix" values="0 0 0 0 0   0 0 0 0 0   0 0 0 0 0  0 0 0 0.2 0"/><feMerge><feMergeNode in="shadowMatrixOuter1"/><feMergeNode in="SourceGraphic"/></feMerge></filter><g fill="none" fill-rule="evenodd" transform="translate(5 5)"><g filter="url(#a)" transform="matrix(.93969262 -.34202014 .34202014 .93969262 .285724 58.27786)"><path d="m4 0h162c2.209139 0 4 1.790861 4 4v32c0 2.209139-1.790861 4-4 4h-162c-2.209139 0-4-1.790861-4-4v-32c0-2.209139 1.790861-4 4-4z" fill="#fff"/><path d="m4 0h3v40h-3c-2.209139 0-4-1.790861-4-4v-32c0-2.209139 1.790861-4 4-4z" fill="#ffa324"/><path d="m22.808 25.668c.8053333 0 1.5386667-.1306667 2.2-.392s1.2293333-.6373333 1.704-1.128.8426667-1.0853333 1.104-1.784.392-1.4853333.392-2.36c0-.8693333-.1306667-1.6533333-.392-2.352s-.6293333-1.2933333-1.104-1.784-1.0426667-.8666667-1.704-1.128-1.3946667-.392-2.2-.392h-4.128v11.32zm0-.664h-3.304v-9.992h3.304c.6826667 0 1.304.112 1.864.336s1.0386667.5493333 1.436.976.7053333.9493333.924 1.568.328 1.3226667.328 2.112c0 .7946667-.1093333 1.5013333-.328 2.12s-.5266667 1.1413333-.924 1.568-.876.752-1.436.976-1.1813333.336-1.864.336zm8.408.664v-5.176c.24-.704.5533333-1.2426667.94-1.616s.8813333-.56 1.484-.56c.1653333 0 .312.0106667.44.032s.236.0453333.324.072.1613333.0506667.22.072.104.032.136.032c.0906667 0 .144-.0426667.16-.128l.104-.528c-.1813333-.096-.3733333-.1693333-.576-.22s-.424-.076-.664-.076c-.624 0-1.1493333.1826667-1.576.548s-.768.8706667-1.024 1.516l-.064-1.68c-.0053333-.0906667-.028-.1546667-.068-.192s-.1053333-.056-.196-.056h-.4v7.96zm7.28.128c.3253333 0 .624-.0306667.896-.092s.5253333-.1506667.76-.268.46-.2613333.676-.432.4333333-.3626667.652-.576l.112 1.016c.0373333.1493333.136.224.296.224h.304v-5.184c0-.4426667-.0533333-.844-.16-1.204s-.2653333-.6666667-.476-.92-.476-.448-.796-.584-.6933333-.204-1.12-.204c-.5813333 0-1.1013333.1066667-1.56.32s-.896.528-1.312.944l.136.232c.0533333.096.1333333.144.24.144.08 0 .1786667-.0533333.296-.16s.2693333-.224.456-.352.4146667-.2453333.684-.352.596-.16.98-.16c.624 0 1.0946667.1986667 1.412.596s.476.964.476 1.7v.832c-.9013333.0213333-1.6733333.096-2.316.224s-1.168.2986667-1.576.512-.708.464-.9.752-.288.6-.288.936c0 .3626667.06.6733333.18.932s.2786667.4706667.476.636.424.288.68.368.52.12.792.12zm.192-.552c-.208 0-.408-.0293333-.6-.088s-.36-.1506667-.504-.276-.26-.2853333-.348-.48-.132-.4253333-.132-.692c0-.2826667.084-.5346667.252-.756s.4293333-.412.784-.572.8053333-.2866667 1.352-.38 1.1986667-.1506667 1.956-.172v2.072c-.1866667.192-.376.3706667-.568.536s-.3986667.308-.62.428-.4613333.2133333-.72.28-.5426667.1-.852.1zm6.96.424v-7.144h2.568v-.568h-2.584v-.984c0-.4.044-.7373333.132-1.012s.212-.4973333.372-.668.3506667-.2946667.572-.372.4626667-.116.724-.116c.16 0 .2946667.008.404.024s.196.024.26.024c.096 0 .1466667-.0373333.152-.112l.024-.368c-.128-.0533333-.276-.0946667-.444-.124s-.3346667-.044-.5-.044c-.3626667 0-.6946667.0573333-.996.172s-.5586667.2866667-.772.516-.3786667.516-.496.86-.176.7426667-.176 1.196v1.008h-1.352v.312c0 .1226667.0773333.1893333.232.2l1.12.072v7.128zm6.272.128c.336 0 .66-.068.972-.204s.5693333-.316.772-.54l-.208-.336c-.0426667-.0533333-.0853333-.08-.128-.08-.0373333 0-.088.028-.152.084s-.1466667.1173333-.248.184-.2213333.128-.36.184-.304.084-.496.084c-.1546667 0-.2986667-.024-.432-.072s-.2493333-.1226667-.348-.224-.176-.2306667-.232-.388-.084-.3453333-.084-.564v-5.4h2.504v-.568h-2.504v-3.04h-.36c-.0586667 0-.1053333.0186667-.14.056s-.0546667.08-.06.128l-.192 2.848-1.36.096v.296c0 .0586667.0186667.104.056.136s.0853333.048.144.048h1.144v5.44c0 .624.1506667 1.0853333.452 1.384s.7213333.448 1.26.448z" fill="#000" fill-rule="nonzero"/></g><g filter="url(#b)" transform="matrix(.98480775 -.17364818 .17364818 .98480775 11.603285 84.79805)"><path d="m4 0h162c2.209139 0 4 1.790861 4 4v32c0 2.209139-1.790861 4-4 4h-162c-2.209139 0-4-1.790861-4-4v-32c0-2.209139 1.790861-4 4-4z" fill="#fff"/><path d="m4 0h3v40h-3c-2.209139 0-4-1.790861-4-4v-32c0-2.209139 1.790861-4 4-4z" fill="#2b8bf2"/><path d="m19.504 25.756v-5.2h5.16v-.68h-5.16v-4.76h5.96v-.68h-6.784v11.32zm10.976.104c.5706667 0 1.0813333-.096 1.532-.288s.8306667-.4666667 1.14-.824.5453333-.7866667.708-1.288.244-1.064.244-1.688-.0813333-1.188-.244-1.692-.3986667-.9346667-.708-1.292-.6893333-.6333333-1.14-.828-.9613333-.292-1.532-.292-1.0813333.0973333-1.532.292-.832.4706667-1.144.828-.5493333.788-.712 1.292-.244 1.068-.244 1.692.0813333 1.1866667.244 1.688.4.9306667.712 1.288.6933333.632 1.144.824.9613333.288 1.532.288zm0-.6c-.4746667 0-.8893333-.0813333-1.244-.244s-.6506667-.396-.888-.7-.416-.6706667-.536-1.1-.18-.9106667-.18-1.444c0-.528.06-1.008.18-1.44s.2986667-.8013333.536-1.108.5333333-.5426667.888-.708.7693333-.248 1.244-.248.8893333.0826667 1.244.248.6506667.4013333.888.708.4146667.676.532 1.108.176.912.176 1.44c0 .5333333-.0586667 1.0146667-.176 1.444s-.2946667.796-.532 1.1-.5333333.5373333-.888.7-.7693333.244-1.244.244zm6.384.496v-5.176c.24-.704.5533333-1.2426667.94-1.616s.8813333-.56 1.484-.56c.1653333 0 .312.0106667.44.032s.236.0453333.324.072.1613333.0506667.22.072.104.032.136.032c.0906667 0 .144-.0426667.16-.128l.104-.528c-.1813333-.096-.3733333-.1693333-.576-.22s-.424-.076-.664-.076c-.624 0-1.1493333.1826667-1.576.548s-.768.8706667-1.024 1.516l-.064-1.68c-.0053333-.0906667-.028-.1546667-.068-.192s-.1053333-.056-.196-.056h-.4v7.96zm15.848 0v-.68h-5.96v-4.72h4.96v-.664h-4.96v-4.576h5.96v-.68h-6.784v11.32zm4.792.104c.5866667 0 1.116-.1413333 1.588-.424s.884-.664 1.236-1.144l.08 1.256c.0213333.1386667.0986667.208.232.208h.424v-11.64h-.768v4.72c-.288-.384-.6293333-.676-1.024-.876s-.8613333-.3-1.4-.3c-.56 0-1.0546667.1066667-1.484.32s-.792.5053333-1.088.876-.52.808-.672 1.312-.228 1.0466667-.228 1.628c0 1.3546667.2733333 2.3706667.82 3.048s1.308 1.016 2.284 1.016zm.216-.616c-.816 0-1.4426667-.2786667-1.88-.836s-.656-1.428-.656-2.612c0-.5226667.06-1.0013333.18-1.436s.2986667-.808.536-1.12.532-.5533333.884-.724.7626667-.256 1.232-.256.8893333.0933333 1.26.28.7106667.5066667 1.02.96v4.2c-.336.4853333-.7173333.864-1.144 1.136s-.904.408-1.432.408zm6.624-9.496c.096 0 .1866667-.0186667.272-.056s.16-.088.224-.152.116-.1373333.156-.22.06-.172.06-.268-.02-.188-.06-.276-.092-.164-.156-.228-.1386667-.1146667-.224-.152-.176-.056-.272-.056-.1866667.0186667-.272.056-.16.088-.224.152-.1146667.14-.152.228-.056.18-.056.276.0186667.1853333.056.268.088.156.152.22.1386667.1146667.224.152.176.056.272.056zm.376 10.008v-7.96h-.76v7.96zm4.992.128c.336 0 .66-.068.972-.204s.5693333-.316.772-.54l-.208-.336c-.0426667-.0533333-.0853333-.08-.128-.08-.0373333 0-.088.028-.152.084s-.1466667.1173333-.248.184-.2213333.128-.36.184-.304.084-.496.084c-.1546667 0-.2986667-.024-.432-.072s-.2493333-.1226667-.348-.224-.176-.2306667-.232-.388-.084-.3453333-.084-.564v-5.4h2.504v-.568h-2.504v-3.04h-.36c-.0586667 0-.1053333.0186667-.14.056s-.0546667.08-.06.128l-.192 2.848-1.36.096v.296c0 .0586667.0186667.104.056.136s.0853333.048.144.048h1.144v5.44c0 .624.1506667 1.0853333.452 1.384s.7213333.448 1.26.448zm6.56-.024c.5706667 0 1.0813333-.096 1.532-.288s.8306667-.4666667 1.14-.824.5453333-.7866667.708-1.288.244-1.064.244-1.688-.0813333-1.188-.244-1.692-.3986667-.9346667-.708-1.292-.6893333-.6333333-1.14-.828-.9613333-.292-1.532-.292-1.0813333.0973333-1.532.292-.832.4706667-1.144.828-.5493333.788-.712 1.292-.244 1.068-.244 1.692.0813333 1.1866667.244 1.688.4.9306667.712 1.288.6933333.632 1.144.824.9613333.288 1.532.288zm0-.6c-.4746667 0-.8893333-.0813333-1.244-.244s-.6506667-.396-.888-.7-.416-.6706667-.536-1.1-.18-.9106667-.18-1.444c0-.528.06-1.008.18-1.44s.2986667-.8013333.536-1.108.5333333-.5426667.888-.708.7693333-.248 1.244-.248.8893333.0826667 1.244.248.6506667.4013333.888.708.4146667.676.532 1.108.176.912.176 1.44c0 .5333333-.0586667 1.0146667-.176 1.444s-.2946667.796-.532 1.1-.5333333.5373333-.888.7-.7693333.244-1.244.244zm6.384.496v-5.176c.24-.704.5533333-1.2426667.94-1.616s.8813333-.56 1.484-.56c.1653333 0 .312.0106667.44.032s.236.0453333.324.072.1613333.0506667.22.072.104.032.136.032c.0906667 0 .144-.0426667.16-.128l.104-.528c-.1813333-.096-.3733333-.1693333-.576-.22s-.424-.076-.664-.076c-.624 0-1.1493333.1826667-1.576.548s-.768.8706667-1.024 1.516l-.064-1.68c-.0053333-.0906667-.028-.1546667-.068-.192s-.1053333-.056-.196-.056h-.4v7.96zm10.12 0v-5.12h1.48c.2186667 0 .38.024.484.072s.2013333.1306667.292.248l3.624 4.592c.0586667.0746667.1186667.128.18.16s.1346667.048.22.048h.712l-3.896-4.896c-.1013333-.1333333-.216-.24-.344-.32.496-.0533333.9413333-.1666667 1.336-.34s.732-.3946667 1.012-.664.4946667-.5826667.644-.94.224-.752.224-1.184c0-.976-.3226667-1.716-.968-2.22s-1.6213333-.756-2.928-.756h-2.888v11.32zm1.968-5.728h-1.968v-4.944h2.072c1.008 0 1.776.1946667 2.304.584s.792.9866667.792 1.792c0 .3946667-.072.7493333-.216 1.064s-.3533333.584-.628.808-.6106667.396-1.008.516-.8466667.18-1.348.18zm9.736 5.832c.298667 0 .596-.0293333.892-.088s.573333-.1373333.832-.236.493333-.2173333.704-.356.38-.288.508-.448l-.208-.256c-.037333-.0533333-.090667-.08-.16-.08-.053333 0-.138667.044-.256.132s-.276.1866667-.476.296-.446667.208-.74.296-.64.132-1.04.132c-.448 0-.853333-.0773333-1.216-.232s-.672-.3853333-.928-.692-.453333-.6866667-.592-1.14-.208-.9786667-.208-1.576v-.152h5.752c.074667 0 .129333-.0213333.164-.064s.052-.1226667.052-.24c0-.56-.078667-1.056-.236-1.488s-.376-.796-.656-1.092-.610667-.5213333-.992-.676-.796-.232-1.244-.232c-.565333 0-1.070667.0986667-1.516.296s-.821333.4706667-1.128.82-.541333.7653333-.704 1.248-.244 1.0093333-.244 1.58c0 .6773333.086667 1.2786667.26 1.804s.42.9693333.74 1.332.704.6386667 1.152.828.944.284 1.488.284zm2.392-4.888h-5.248c.048-.416.145333-.792.292-1.128s.338667-.624.576-.864.518667-.424.844-.552.693333-.192 1.104-.192c.362667 0 .693333.0626667.992.188s.554667.3053333.768.54.378667.5213333.496.86.176.7213333.176 1.148zm5.672 4.784 3.36-7.96h-.576c-.064 0-.118667.0173333-.164.052s-.081333.0813333-.108.14l-2.64 6.28c-.048.1173333-.086667.2333333-.116.348s-.057333.228-.084.34l-.08-.336c-.026667-.112-.066667-.2293333-.12-.352l-2.624-6.28c-.021333-.048-.054667-.092-.1-.132s-.105333-.06-.18-.06h-.6l3.36 7.96zm5.464-10.008c.096 0 .186667-.0186667.272-.056s.16-.088.224-.152.116-.1373333.156-.22.06-.172.06-.268-.02-.188-.06-.276-.092-.164-.156-.228-.138667-.1146667-.224-.152-.176-.056-.272-.056-.186667.0186667-.272.056-.16.088-.224.152-.114667.14-.152.228-.056.18-.056.276.018667.1853333.056.268.088.156.152.22.138667.1146667.224.152.176.056.272.056zm.376 10.008v-7.96h-.76v7.96zm5.864.104c.298667 0 .596-.0293333.892-.088s.573333-.1373333.832-.236.493333-.2173333.704-.356.38-.288.508-.448l-.208-.256c-.037333-.0533333-.090667-.08-.16-.08-.053333 0-.138667.044-.256.132s-.276.1866667-.476.296-.446667.208-.74.296-.64.132-1.04.132c-.448 0-.853333-.0773333-1.216-.232s-.672-.3853333-.928-.692-.453333-.6866667-.592-1.14-.208-.9786667-.208-1.576v-.152h5.752c.074667 0 .129333-.0213333.164-.064s.052-.1226667.052-.24c0-.56-.078667-1.056-.236-1.488s-.376-.796-.656-1.092-.610667-.5213333-.992-.676-.796-.232-1.244-.232c-.565333 0-1.070667.0986667-1.516.296s-.821333.4706667-1.128.82-.541333.7653333-.704 1.248-.244 1.0093333-.244 1.58c0 .6773333.086667 1.2786667.26 1.804s.42.9693333.74 1.332.704.6386667 1.152.828.944.284 1.488.284zm2.392-4.888h-5.248c.048-.416.145333-.792.292-1.128s.338667-.624.576-.864.518667-.424.844-.552.693333-.192 1.104-.192c.362667 0 .693333.0626667.992.188s.554667.3053333.768.54.378667.5213333.496.86.176.7213333.176 1.148zm4.816 4.784c.096 0 .16-.056.192-.168l2.208-6.464c.026667-.08.049333-.16.068-.24s.036-.16.052-.24c.016.08.034667.16.056.24s.045333.16.072.24l2.184 6.464c.037333.112.098667.168.184.168h.56l2.664-7.96h-.56c-.138667 0-.229333.064-.272.192l-2.016 6.28c-.042667.1226667-.076.2413333-.1.356s-.046667.228-.068.34c-.048-.224-.112-.456-.192-.696l-2.104-6.336c-.037333-.1173333-.114667-.176-.232-.176h-.312c-.112 0-.186667.0586667-.224.176l-2.136 6.336c-.042667.1226667-.08.24-.112.352s-.061333.224-.088.336l-.064-.336c-.021333-.112-.050667-.2293333-.088-.352l-2.008-6.28c-.016-.048-.048-.092-.096-.132s-.109333-.06-.184-.06h-.584l2.664 7.96z" fill="#000" fill-rule="nonzero"/></g><g filter="url(#c)" transform="translate(16.96653 113.868545)"><path d="m4 0h162c2.209139 0 4 1.790861 4 4v32c0 2.209139-1.790861 4-4 4h-162c-2.209139 0-4-1.790861-4-4v-32c0-2.209139 1.790861-4 4-4z" fill="#fff"/><path d="m4 0h3v40h-3c-2.209139 0-4-1.790861-4-4v-32c0-2.209139 1.790861-4 4-4z" fill="#44a604"/><path d="m19.736 25.484v-5.12h1.48c.2186667 0 .38.024.484.072s.2013333.1306667.292.248l3.624 4.592c.0586667.0746667.1186667.128.18.16s.1346667.048.22.048h.712l-3.896-4.896c-.1013333-.1333333-.216-.24-.344-.32.496-.0533333.9413333-.1666667 1.336-.34s.732-.3946667 1.012-.664.4946667-.5826667.644-.94.224-.752.224-1.184c0-.976-.3226667-1.716-.968-2.22s-1.6213333-.756-2.928-.756h-2.888v11.32zm1.968-5.728h-1.968v-4.944h2.072c1.008 0 1.776.1946667 2.304.584s.792.9866667.792 1.792c0 .3946667-.072.7493333-.216 1.064s-.3533333.584-.628.808-.6106667.396-1.008.516-.8466667.18-1.348.18zm9.736 5.832c.2986667 0 .596-.0293333.892-.088s.5733333-.1373333.832-.236.4933333-.2173333.704-.356.38-.288.508-.448l-.208-.256c-.0373333-.0533333-.0906667-.08-.16-.08-.0533333 0-.1386667.044-.256.132s-.276.1866667-.476.296-.4466667.208-.74.296-.64.132-1.04.132c-.448 0-.8533333-.0773333-1.216-.232s-.672-.3853333-.928-.692-.4533333-.6866667-.592-1.14-.208-.9786667-.208-1.576v-.152h5.752c.0746667 0 .1293333-.0213333.164-.064s.052-.1226667.052-.24c0-.56-.0786667-1.056-.236-1.488s-.376-.796-.656-1.092-.6106667-.5213333-.992-.676-.796-.232-1.244-.232c-.5653333 0-1.0706667.0986667-1.516.296s-.8213333.4706667-1.128.82-.5413333.7653333-.704 1.248-.244 1.0093333-.244 1.58c0 .6773333.0866667 1.2786667.26 1.804s.42.9693333.74 1.332.704.6386667 1.152.828.944.284 1.488.284zm2.392-4.888h-5.248c.048-.416.1453333-.792.292-1.128s.3386667-.624.576-.864.5186667-.424.844-.552.6933333-.192 1.104-.192c.3626667 0 .6933333.0626667.992.188s.5546667.3053333.768.54.3786667.5213333.496.86.176.7213333.176 1.148zm5.672 4.784 3.36-7.96h-.576c-.064 0-.1186667.0173333-.164.052s-.0813333.0813333-.108.14l-2.64 6.28c-.048.1173333-.0866667.2333333-.116.348s-.0573333.228-.084.34l-.08-.336c-.0266667-.112-.0666667-.2293333-.12-.352l-2.624-6.28c-.0213333-.048-.0546667-.092-.1-.132s-.1053333-.06-.18-.06h-.6l3.36 7.96zm5.464-10.008c.096 0 .1866667-.0186667.272-.056s.16-.088.224-.152.116-.1373333.156-.22.06-.172.06-.268-.02-.188-.06-.276-.092-.164-.156-.228-.1386667-.1146667-.224-.152-.176-.056-.272-.056-.1866667.0186667-.272.056-.16.088-.224.152-.1146667.14-.152.228-.056.18-.056.276.0186667.1853333.056.268.088.156.152.22.1386667.1146667.224.152.176.056.272.056zm.376 10.008v-7.96h-.76v7.96zm5.864.104c.2986667 0 .596-.0293333.892-.088s.5733333-.1373333.832-.236.4933333-.2173333.704-.356.38-.288.508-.448l-.208-.256c-.0373333-.0533333-.0906667-.08-.16-.08-.0533333 0-.1386667.044-.256.132s-.276.1866667-.476.296-.4466667.208-.74.296-.64.132-1.04.132c-.448 0-.8533333-.0773333-1.216-.232s-.672-.3853333-.928-.692-.4533333-.6866667-.592-1.14-.208-.9786667-.208-1.576v-.152h5.752c.0746667 0 .1293333-.0213333.164-.064s.052-.1226667.052-.24c0-.56-.0786667-1.056-.236-1.488s-.376-.796-.656-1.092-.6106667-.5213333-.992-.676-.796-.232-1.244-.232c-.5653333 0-1.0706667.0986667-1.516.296s-.8213333.4706667-1.128.82-.5413333.7653333-.704 1.248-.244 1.0093333-.244 1.58c0 .6773333.0866667 1.2786667.26 1.804s.42.9693333.74 1.332.704.6386667 1.152.828.944.284 1.488.284zm2.392-4.888h-5.248c.048-.416.1453333-.792.292-1.128s.3386667-.624.576-.864.5186667-.424.844-.552.6933333-.192 1.104-.192c.3626667 0 .6933333.0626667.992.188s.5546667.3053333.768.54.3786667.5213333.496.86.176.7213333.176 1.148zm4.816 4.784c.096 0 .16-.056.192-.168l2.208-6.464c.0266667-.08.0493333-.16.068-.24s.036-.16.052-.24c.016.08.0346667.16.056.24s.0453333.16.072.24l2.184 6.464c.0373333.112.0986667.168.184.168h.56l2.664-7.96h-.56c-.1386667 0-.2293333.064-.272.192l-2.016 6.28c-.0426667.1226667-.076.2413333-.1.356s-.0466667.228-.068.34c-.048-.224-.112-.456-.192-.696l-2.104-6.336c-.0373333-.1173333-.1146667-.176-.232-.176h-.312c-.112 0-.1866667.0586667-.224.176l-2.136 6.336c-.0426667.1226667-.08.24-.112.352s-.0613333.224-.088.336l-.064-.336c-.0213333-.112-.0506667-.2293333-.088-.352l-2.008-6.28c-.016-.048-.048-.092-.096-.132s-.1093333-.06-.184-.06h-.584l2.664 7.96zm12.76.104c.2986667 0 .596-.0293333.892-.088s.5733333-.1373333.832-.236.4933333-.2173333.704-.356.38-.288.508-.448l-.208-.256c-.0373333-.0533333-.0906667-.08-.16-.08-.0533333 0-.1386667.044-.256.132s-.276.1866667-.476.296-.4466667.208-.74.296-.64.132-1.04.132c-.448 0-.8533333-.0773333-1.216-.232s-.672-.3853333-.928-.692-.4533333-.6866667-.592-1.14-.208-.9786667-.208-1.576v-.152h5.752c.0746667 0 .1293333-.0213333.164-.064s.052-.1226667.052-.24c0-.56-.0786667-1.056-.236-1.488s-.376-.796-.656-1.092-.6106667-.5213333-.992-.676-.796-.232-1.244-.232c-.5653333 0-1.0706667.0986667-1.516.296s-.8213333.4706667-1.128.82-.5413333.7653333-.704 1.248-.244 1.0093333-.244 1.58c0 .6773333.0866667 1.2786667.26 1.804s.42.9693333.74 1.332.704.6386667 1.152.828.944.284 1.488.284zm2.392-4.888h-5.248c.048-.416.1453333-.792.292-1.128s.3386667-.624.576-.864.5186667-.424.844-.552.6933333-.192 1.104-.192c.3626667 0 .6933333.0626667.992.188s.5546667.3053333.768.54.3786667.5213333.496.86.176.7213333.176 1.148zm5.24 4.888c.5866667 0 1.116-.1413333 1.588-.424s.884-.664 1.236-1.144l.08 1.256c.0213333.1386667.0986667.208.232.208h.424v-11.64h-.768v4.72c-.288-.384-.6293333-.676-1.024-.876s-.8613333-.3-1.4-.3c-.56 0-1.0546667.1066667-1.484.32s-.792.5053333-1.088.876-.52.808-.672 1.312-.228 1.0466667-.228 1.628c0 1.3546667.2733333 2.3706667.82 3.048s1.308 1.016 2.284 1.016zm.216-.616c-.816 0-1.4426667-.2786667-1.88-.836s-.656-1.428-.656-2.612c0-.5226667.06-1.0013333.18-1.436s.2986667-.808.536-1.12.532-.5533333.884-.724.7626667-.256 1.232-.256.8893333.0933333 1.26.28.7106667.5066667 1.02.96v4.2c-.336.4853333-.7173333.864-1.144 1.136s-.904.408-1.432.408zm4.992 1.184c.0906667 0 .1786667-.0253333.264-.076s.1493333-.1293333.192-.236l4.968-12h-.328c-.208 0-.352.0986667-.432.296l-4.976 12.016zm8.168-.672v-4.56h2.104c.624 0 1.184-.084 1.68-.252s.9173333-.4026667 1.264-.704.612-.66.796-1.076.276-.872.276-1.368c0-1.0773333-.3373333-1.9066667-1.012-2.488s-1.676-.872-3.004-.872h-2.92v11.32zm2.104-5.216h-2.104v-5.456h2.104c1.0613333 0 1.86.2346667 2.396.704s.804 1.1386667.804 2.008c0 .3946667-.0733333.7586667-.22 1.092s-.3573333.6226667-.632.868-.6093333.4373333-1.004.576-.8426667.208-1.344.208zm8.4 5.344c.592 0 1.129333-.1386667 1.612-.416s.908-.6453333 1.276-1.104l.072 1.184c.005333.1386667.082667.208.232.208h.424v-7.96h-.768v5.984c-.357333.4693333-.76.836-1.208 1.1s-.930667.396-1.448.396c-.698667 0-1.218667-.212-1.56-.636s-.512-1.0093333-.512-1.756v-5.088h-.768v5.088c0 .464.056.88.168 1.248s.277333.6826667.496.944.493333.4613333.824.6.717333.208 1.16.208zm9.48-.024c.56 0 1.054667-.1066667 1.484-.32s.792-.5053333 1.088-.876.52-.808.672-1.312.228-1.0466667.228-1.628c0-1.3546667-.273333-2.3693333-.82-3.044s-1.308-1.012-2.284-1.012c-.581333 0-1.104.136-1.568.408s-.872.6426667-1.224 1.112v-5.072h-.768v11.64h.464c.128 0 .2-.0666667.216-.2l.048-.976c.288.4213333.632.74 1.032.956s.877333.324 1.432.324zm-.144-.6c-.48 0-.904-.092-1.272-.276s-.704-.5053333-1.008-.964v-4.2c.336-.4853333.717333-.864 1.144-1.136s.904-.408 1.432-.408c.816 0 1.442667.2786667 1.88.836s.656 1.428.656 2.612c0 .5226667-.06 1.0013333-.18 1.436s-.298667.808-.536 1.12-.532.5533333-.884.724-.762667.256-1.232.256zm6.592.496v-11.64h-.76v11.64zm3.424-10.008c.096 0 .186667-.0186667.272-.056s.16-.088.224-.152.116-.1373333.156-.22.06-.172.06-.268-.02-.188-.06-.276-.092-.164-.156-.228-.138667-.1146667-.224-.152-.176-.056-.272-.056-.186667.0186667-.272.056-.16.088-.224.152-.114667.14-.152.228-.056.18-.056.276.018667.1853333.056.268.088.156.152.22.138667.1146667.224.152.176.056.272.056zm.376 10.008v-7.96h-.76v7.96zm4.768.128c.442667 0 .837333-.064 1.184-.192s.638667-.3013333.876-.52.418667-.4773333.544-.776.188-.6213333.188-.968c0-.32-.064-.592-.192-.816s-.296-.4133333-.504-.568-.444-.284-.708-.388-.534667-.1986667-.812-.284-.548-.1706667-.812-.256-.5-.1866667-.708-.304-.376-.2586667-.504-.424-.192-.3733333-.192-.624c0-.2026667.046667-.396.14-.58s.224-.3453333.392-.484.370667-.2493333.608-.332.5-.124.788-.124c.32 0 .590667.0333333.812.1s.408.1413333.56.224.274667.1573333.368.224.169333.1.228.1c.08 0 .138667-.0373333.176-.112l.168-.264c-.314667-.288-.66-.5013333-1.036-.64s-.806667-.208-1.292-.208c-.405333 0-.770667.0586667-1.096.176s-.601333.2746667-.828.472-.401333.4266667-.524.688-.184.5333333-.184.816c0 .3306667.064.6066667.192.828s.296.4093333.504.564.444.2826667.708.384.536.1946667.816.28.552.1706667.816.256.5.1893333.708.312.376.272.504.448.192.3973333.192.664c0 .24-.044.468-.132.684s-.217333.404-.388.564-.384.2866667-.64.38-.552.14-.888.14c-.357333 0-.657333-.0426667-.9-.128s-.445333-.1773333-.608-.276-.294667-.1906667-.396-.276-.186667-.128-.256-.128c-.058667 0-.104.0106667-.136.032s-.061333.0533333-.088.096l-.184.272c.32.288.682667.5213333 1.088.7s.888.268 1.448.268zm5.688-.128v-5.968c.352-.4693333.752-.8386667 1.2-1.108s.933333-.404 1.456-.404c.704 0 1.226667.212 1.568.636s.512 1.0093333.512 1.756v5.088h.76v-5.088c0-.464-.056-.88-.168-1.248s-.277333-.6826667-.496-.944-.494667-.4613333-.828-.6-.718667-.208-1.156-.208c-.586667 0-1.116.1346667-1.588.404s-.892.6306667-1.26 1.084v-5.04h-.76v11.64zm10.944.104c.298667 0 .596-.0293333.892-.088s.573333-.1373333.832-.236.493333-.2173333.704-.356.38-.288.508-.448l-.208-.256c-.037333-.0533333-.090667-.08-.16-.08-.053333 0-.138667.044-.256.132s-.276.1866667-.476.296-.446667.208-.74.296-.64.132-1.04.132c-.448 0-.853333-.0773333-1.216-.232s-.672-.3853333-.928-.692-.453333-.6866667-.592-1.14-.208-.9786667-.208-1.576v-.152h5.752c.074667 0 .129333-.0213333.164-.064s.052-.1226667.052-.24c0-.56-.078667-1.056-.236-1.488s-.376-.796-.656-1.092-.610667-.5213333-.992-.676-.796-.232-1.244-.232c-.565333 0-1.070667.0986667-1.516.296s-.821333.4706667-1.128.82-.541333.7653333-.704 1.248-.244 1.0093333-.244 1.58c0 .6773333.086667 1.2786667.26 1.804s.42.9693333.74 1.332.704.6386667 1.152.828.944.284 1.488.284zm2.392-4.888h-5.248c.048-.416.145333-.792.292-1.128s.338667-.624.576-.864.518667-.424.844-.552.693333-.192 1.104-.192c.362667 0 .693333.0626667.992.188s.554667.3053333.768.54.378667.5213333.496.86.176.7213333.176 1.148zm5.24 4.888c.586667 0 1.116-.1413333 1.588-.424s.884-.664 1.236-1.144l.08 1.256c.021333.1386667.098667.208.232.208h.424v-11.64h-.768v4.72c-.288-.384-.629333-.676-1.024-.876s-.861333-.3-1.4-.3c-.56 0-1.054667.1066667-1.484.32s-.792.5053333-1.088.876-.52.808-.672 1.312-.228 1.0466667-.228 1.628c0 1.3546667.273333 2.3706667.82 3.048s1.308 1.016 2.284 1.016zm.216-.616c-.816 0-1.442667-.2786667-1.88-.836s-.656-1.428-.656-2.612c0-.5226667.06-1.0013333.18-1.436s.298667-.808.536-1.12.532-.5533333.884-.724.762667-.256 1.232-.256.889333.0933333 1.26.28.710667.5066667 1.02.96v4.2c-.336.4853333-.717333.864-1.144 1.136s-.904.408-1.432.408z" fill="#000" fill-rule="nonzero"/></g></g></svg>