<?xml version="1.0" encoding="UTF-8"?>
<svg width="204px" height="173px" viewBox="0 0 204 173" version="1.1" xmlns="http://www.w3.org/2000/svg" xmlns:xlink="http://www.w3.org/1999/xlink">
    <title>Artboard</title>
    <defs>
        <filter x="-15.9%" y="-67.5%" width="131.8%" height="235.0%" filterUnits="objectBoundingBox" id="filter-1">
            <feOffset dx="2" dy="4" in="SourceAlpha" result="shadowOffsetOuter1"></feOffset>
            <feGaussianBlur stdDeviation="5" in="shadowOffsetOuter1" result="shadowBlurOuter1"></feGaussianBlur>
            <feColorMatrix values="0 0 0 0 0   0 0 0 0 0   0 0 0 0 0  0 0 0 0.2 0" type="matrix" in="shadowBlurOuter1" result="shadowMatrixOuter1"></feColorMatrix>
            <feMerge>
                <feMergeNode in="shadowMatrixOuter1"></feMergeNode>
                <feMergeNode in="SourceGraphic"></feMergeNode>
            </feMerge>
        </filter>
        <filter x="-15.9%" y="-67.5%" width="131.8%" height="235.0%" filterUnits="objectBoundingBox" id="filter-2">
            <feOffset dx="2" dy="4" in="SourceAlpha" result="shadowOffsetOuter1"></feOffset>
            <feGaussianBlur stdDeviation="5" in="shadowOffsetOuter1" result="shadowBlurOuter1"></feGaussianBlur>
            <feColorMatrix values="0 0 0 0 0   0 0 0 0 0   0 0 0 0 0  0 0 0 0.2 0" type="matrix" in="shadowBlurOuter1" result="shadowMatrixOuter1"></feColorMatrix>
            <feMerge>
                <feMergeNode in="shadowMatrixOuter1"></feMergeNode>
                <feMergeNode in="SourceGraphic"></feMergeNode>
            </feMerge>
        </filter>
        <filter x="-15.9%" y="-67.5%" width="131.8%" height="235.0%" filterUnits="objectBoundingBox" id="filter-3">
            <feOffset dx="2" dy="4" in="SourceAlpha" result="shadowOffsetOuter1"></feOffset>
            <feGaussianBlur stdDeviation="5" in="shadowOffsetOuter1" result="shadowBlurOuter1"></feGaussianBlur>
            <feColorMatrix values="0 0 0 0 0   0 0 0 0 0   0 0 0 0 0  0 0 0 0.2 0" type="matrix" in="shadowBlurOuter1" result="shadowMatrixOuter1"></feColorMatrix>
            <feMerge>
                <feMergeNode in="shadowMatrixOuter1"></feMergeNode>
                <feMergeNode in="SourceGraphic"></feMergeNode>
            </feMerge>
        </filter>
    </defs>
    <g id="Artboard" stroke="none" stroke-width="1" fill="none" fill-rule="evenodd">
        <g id="Group" transform="translate(5.000000, 5.000000)">
            <g id="Group-2" filter="url(#filter-1)" transform="translate(87.000000, 48.000000) rotate(-20.000000) translate(-87.000000, -48.000000) translate(2.000000, 28.000000)">
                <path d="M4,0 L166,0 C168.209139,1.48469752e-14 170,1.790861 170,4 L170,36 C170,38.209139 168.209139,40 166,40 L4,40 C1.790861,40 -1.73547709e-16,38.209139 0,36 L0,4 C-7.1463071e-16,1.790861 1.790861,-3.82769592e-17 4,0 Z" id="Rectangle" fill="#FFFFFF"></path>
                <path d="M4,0 L7,0 L7,0 L7,40 L4,40 C1.790861,40 2.705415e-16,38.209139 0,36 L0,4 C-2.705415e-16,1.790861 1.790861,4.05812251e-16 4,0 Z" id="Rectangle" fill="#FFA324"></path>
                <path d="M22.808,25.668 C23.6133333,25.668 24.3466667,25.5373333 25.008,25.276 C25.6693333,25.0146667 26.2373333,24.6386667 26.712,24.148 C27.1866667,23.6573333 27.5546667,23.0626667 27.816,22.364 C28.0773333,21.6653333 28.208,20.8786667 28.208,20.004 C28.208,19.1346667 28.0773333,18.3506667 27.816,17.652 C27.5546667,16.9533333 27.1866667,16.3586667 26.712,15.868 C26.2373333,15.3773333 25.6693333,15.0013333 25.008,14.74 C24.3466667,14.4786667 23.6133333,14.348 22.808,14.348 L22.808,14.348 L18.68,14.348 L18.68,25.668 L22.808,25.668 Z M22.808,25.004 L19.504,25.004 L19.504,15.012 L22.808,15.012 C23.4906667,15.012 24.112,15.124 24.672,15.348 C25.232,15.572 25.7106667,15.8973333 26.108,16.324 C26.5053333,16.7506667 26.8133333,17.2733333 27.032,17.892 C27.2506667,18.5106667 27.36,19.2146667 27.36,20.004 C27.36,20.7986667 27.2506667,21.5053333 27.032,22.124 C26.8133333,22.7426667 26.5053333,23.2653333 26.108,23.692 C25.7106667,24.1186667 25.232,24.444 24.672,24.668 C24.112,24.892 23.4906667,25.004 22.808,25.004 L22.808,25.004 Z M31.216,25.668 L31.216,20.492 C31.456,19.788 31.7693333,19.2493333 32.156,18.876 C32.5426667,18.5026667 33.0373333,18.316 33.64,18.316 C33.8053333,18.316 33.952,18.3266667 34.08,18.348 C34.208,18.3693333 34.316,18.3933333 34.404,18.42 C34.492,18.4466667 34.5653333,18.4706667 34.624,18.492 C34.6826667,18.5133333 34.728,18.524 34.76,18.524 C34.8506667,18.524 34.904,18.4813333 34.92,18.396 L34.92,18.396 L35.024,17.868 C34.8426667,17.772 34.6506667,17.6986667 34.448,17.648 C34.2453333,17.5973333 34.024,17.572 33.784,17.572 C33.16,17.572 32.6346667,17.7546667 32.208,18.12 C31.7813333,18.4853333 31.44,18.9906667 31.184,19.636 L31.184,19.636 L31.12,17.956 C31.1146667,17.8653333 31.092,17.8013333 31.052,17.764 C31.012,17.7266667 30.9466667,17.708 30.856,17.708 L30.856,17.708 L30.456,17.708 L30.456,25.668 L31.216,25.668 Z M38.496,25.796 C38.8213333,25.796 39.12,25.7653333 39.392,25.704 C39.664,25.6426667 39.9173333,25.5533333 40.152,25.436 C40.3866667,25.3186667 40.612,25.1746667 40.828,25.004 C41.044,24.8333333 41.2613333,24.6413333 41.48,24.428 L41.48,24.428 L41.592,25.444 C41.6293333,25.5933333 41.728,25.668 41.888,25.668 L41.888,25.668 L42.192,25.668 L42.192,20.484 C42.192,20.0413333 42.1386667,19.64 42.032,19.28 C41.9253333,18.92 41.7666667,18.6133333 41.556,18.36 C41.3453333,18.1066667 41.08,17.912 40.76,17.776 C40.44,17.64 40.0666667,17.572 39.64,17.572 C39.0586667,17.572 38.5386667,17.6786667 38.08,17.892 C37.6213333,18.1053333 37.184,18.42 36.768,18.836 L36.768,18.836 L36.904,19.068 C36.9573333,19.164 37.0373333,19.212 37.144,19.212 C37.224,19.212 37.3226667,19.1586667 37.44,19.052 C37.5573333,18.9453333 37.7093333,18.828 37.896,18.7 C38.0826667,18.572 38.3106667,18.4546667 38.58,18.348 C38.8493333,18.2413333 39.176,18.188 39.56,18.188 C40.184,18.188 40.6546667,18.3866667 40.972,18.784 C41.2893333,19.1813333 41.448,19.748 41.448,20.484 L41.448,20.484 L41.448,21.316 C40.5466667,21.3373333 39.7746667,21.412 39.132,21.54 C38.4893333,21.668 37.964,21.8386667 37.556,22.052 C37.148,22.2653333 36.848,22.516 36.656,22.804 C36.464,23.092 36.368,23.404 36.368,23.74 C36.368,24.1026667 36.428,24.4133333 36.548,24.672 C36.668,24.9306667 36.8266667,25.1426667 37.024,25.308 C37.2213333,25.4733333 37.448,25.596 37.704,25.676 C37.96,25.756 38.224,25.796 38.496,25.796 Z M38.688,25.244 C38.48,25.244 38.28,25.2146667 38.088,25.156 C37.896,25.0973333 37.728,25.0053333 37.584,24.88 C37.44,24.7546667 37.324,24.5946667 37.236,24.4 C37.148,24.2053333 37.104,23.9746667 37.104,23.708 C37.104,23.4253333 37.188,23.1733333 37.356,22.952 C37.524,22.7306667 37.7853333,22.54 38.14,22.38 C38.4946667,22.22 38.9453333,22.0933333 39.492,22 C40.0386667,21.9066667 40.6906667,21.8493333 41.448,21.828 L41.448,21.828 L41.448,23.9 C41.2613333,24.092 41.072,24.2706667 40.88,24.436 C40.688,24.6013333 40.4813333,24.744 40.26,24.864 C40.0386667,24.984 39.7986667,25.0773333 39.54,25.144 C39.2813333,25.2106667 38.9973333,25.244 38.688,25.244 Z M45.648,25.668 L45.648,18.524 L48.216,18.524 L48.216,17.956 L45.632,17.956 L45.632,16.972 C45.632,16.572 45.676,16.2346667 45.764,15.96 C45.852,15.6853333 45.976,15.4626667 46.136,15.292 C46.296,15.1213333 46.4866667,14.9973333 46.708,14.92 C46.9293333,14.8426667 47.1706667,14.804 47.432,14.804 C47.592,14.804 47.7266667,14.812 47.836,14.828 C47.9453333,14.844 48.032,14.852 48.096,14.852 C48.192,14.852 48.2426667,14.8146667 48.248,14.74 L48.248,14.74 L48.272,14.372 C48.144,14.3186667 47.996,14.2773333 47.828,14.248 C47.66,14.2186667 47.4933333,14.204 47.328,14.204 C46.9653333,14.204 46.6333333,14.2613333 46.332,14.376 C46.0306667,14.4906667 45.7733333,14.6626667 45.56,14.892 C45.3466667,15.1213333 45.1813333,15.408 45.064,15.752 C44.9466667,16.096 44.888,16.4946667 44.888,16.948 L44.888,16.948 L44.888,17.956 L43.536,17.956 L43.536,18.268 C43.536,18.3906667 43.6133333,18.4573333 43.768,18.468 L43.768,18.468 L44.888,18.54 L44.888,25.668 L45.648,25.668 Z M51.92,25.796 C52.256,25.796 52.58,25.728 52.892,25.592 C53.204,25.456 53.4613333,25.276 53.664,25.052 L53.664,25.052 L53.456,24.716 C53.4133333,24.6626667 53.3706667,24.636 53.328,24.636 C53.2906667,24.636 53.24,24.664 53.176,24.72 C53.112,24.776 53.0293333,24.8373333 52.928,24.904 C52.8266667,24.9706667 52.7066667,25.032 52.568,25.088 C52.4293333,25.144 52.264,25.172 52.072,25.172 C51.9173333,25.172 51.7733333,25.148 51.64,25.1 C51.5066667,25.052 51.3906667,24.9773333 51.292,24.876 C51.1933333,24.7746667 51.116,24.6453333 51.06,24.488 C51.004,24.3306667 50.976,24.1426667 50.976,23.924 L50.976,23.924 L50.976,18.524 L53.48,18.524 L53.48,17.956 L50.976,17.956 L50.976,14.916 L50.616,14.916 C50.5573333,14.916 50.5106667,14.9346667 50.476,14.972 C50.4413333,15.0093333 50.4213333,15.052 50.416,15.1 L50.416,15.1 L50.224,17.948 L48.864,18.044 L48.864,18.34 C48.864,18.3986667 48.8826667,18.444 48.92,18.476 C48.9573333,18.508 49.0053333,18.524 49.064,18.524 L49.064,18.524 L50.208,18.524 L50.208,23.964 C50.208,24.588 50.3586667,25.0493333 50.66,25.348 C50.9613333,25.6466667 51.3813333,25.796 51.92,25.796 Z" id="Draft" fill="#000000" fill-rule="nonzero"></path>
            </g>
            <g id="Group-2" filter="url(#filter-2)" transform="translate(98.784908, 89.734110) rotate(-10.000000) translate(-98.784908, -89.734110) translate(13.784908, 69.734110)">
                <path d="M4,0 L166,0 C168.209139,1.48469752e-14 170,1.790861 170,4 L170,36 C170,38.209139 168.209139,40 166,40 L4,40 C1.790861,40 -1.73547709e-16,38.209139 0,36 L0,4 C-7.1463071e-16,1.790861 1.790861,-3.82769592e-17 4,0 Z" id="Rectangle" fill="#FFFFFF"></path>
                <path d="M4,0 L7,0 L7,0 L7,40 L4,40 C1.790861,40 2.705415e-16,38.209139 0,36 L0,4 C-2.705415e-16,1.790861 1.790861,4.05812251e-16 4,0 Z" id="Rectangle" fill="#2B8BF2"></path>
                <path d="M19.504,25.756 L19.504,20.556 L24.664,20.556 L24.664,19.876 L19.504,19.876 L19.504,15.116 L25.464,15.116 L25.464,14.436 L18.68,14.436 L18.68,25.756 L19.504,25.756 Z M30.48,25.86 C31.0506667,25.86 31.5613333,25.764 32.012,25.572 C32.4626667,25.38 32.8426667,25.1053333 33.152,24.748 C33.4613333,24.3906667 33.6973333,23.9613333 33.86,23.46 C34.0226667,22.9586667 34.104,22.396 34.104,21.772 C34.104,21.148 34.0226667,20.584 33.86,20.08 C33.6973333,19.576 33.4613333,19.1453333 33.152,18.788 C32.8426667,18.4306667 32.4626667,18.1546667 32.012,17.96 C31.5613333,17.7653333 31.0506667,17.668 30.48,17.668 C29.9093333,17.668 29.3986667,17.7653333 28.948,17.96 C28.4973333,18.1546667 28.116,18.4306667 27.804,18.788 C27.492,19.1453333 27.2546667,19.576 27.092,20.08 C26.9293333,20.584 26.848,21.148 26.848,21.772 C26.848,22.396 26.9293333,22.9586667 27.092,23.46 C27.2546667,23.9613333 27.492,24.3906667 27.804,24.748 C28.116,25.1053333 28.4973333,25.38 28.948,25.572 C29.3986667,25.764 29.9093333,25.86 30.48,25.86 Z M30.48,25.26 C30.0053333,25.26 29.5906667,25.1786667 29.236,25.016 C28.8813333,24.8533333 28.5853333,24.62 28.348,24.316 C28.1106667,24.012 27.932,23.6453333 27.812,23.216 C27.692,22.7866667 27.632,22.3053333 27.632,21.772 C27.632,21.244 27.692,20.764 27.812,20.332 C27.932,19.9 28.1106667,19.5306667 28.348,19.224 C28.5853333,18.9173333 28.8813333,18.6813333 29.236,18.516 C29.5906667,18.3506667 30.0053333,18.268 30.48,18.268 C30.9546667,18.268 31.3693333,18.3506667 31.724,18.516 C32.0786667,18.6813333 32.3746667,18.9173333 32.612,19.224 C32.8493333,19.5306667 33.0266667,19.9 33.144,20.332 C33.2613333,20.764 33.32,21.244 33.32,21.772 C33.32,22.3053333 33.2613333,22.7866667 33.144,23.216 C33.0266667,23.6453333 32.8493333,24.012 32.612,24.316 C32.3746667,24.62 32.0786667,24.8533333 31.724,25.016 C31.3693333,25.1786667 30.9546667,25.26 30.48,25.26 Z M36.864,25.756 L36.864,20.58 C37.104,19.876 37.4173333,19.3373333 37.804,18.964 C38.1906667,18.5906667 38.6853333,18.404 39.288,18.404 C39.4533333,18.404 39.6,18.4146667 39.728,18.436 C39.856,18.4573333 39.964,18.4813333 40.052,18.508 C40.14,18.5346667 40.2133333,18.5586667 40.272,18.58 C40.3306667,18.6013333 40.376,18.612 40.408,18.612 C40.4986667,18.612 40.552,18.5693333 40.568,18.484 L40.568,18.484 L40.672,17.956 C40.4906667,17.86 40.2986667,17.7866667 40.096,17.736 C39.8933333,17.6853333 39.672,17.66 39.432,17.66 C38.808,17.66 38.2826667,17.8426667 37.856,18.208 C37.4293333,18.5733333 37.088,19.0786667 36.832,19.724 L36.832,19.724 L36.768,18.044 C36.7626667,17.9533333 36.74,17.8893333 36.7,17.852 C36.66,17.8146667 36.5946667,17.796 36.504,17.796 L36.504,17.796 L36.104,17.796 L36.104,25.756 L36.864,25.756 Z M52.712,25.756 L52.712,25.076 L46.752,25.076 L46.752,20.356 L51.712,20.356 L51.712,19.692 L46.752,19.692 L46.752,15.116 L52.712,15.116 L52.712,14.436 L45.928,14.436 L45.928,25.756 L52.712,25.756 Z M57.504,25.86 C58.0906667,25.86 58.62,25.7186667 59.092,25.436 C59.564,25.1533333 59.976,24.772 60.328,24.292 L60.328,24.292 L60.408,25.548 C60.4293333,25.6866667 60.5066667,25.756 60.64,25.756 L60.64,25.756 L61.064,25.756 L61.064,14.116 L60.296,14.116 L60.296,18.836 C60.008,18.452 59.6666667,18.16 59.272,17.96 C58.8773333,17.76 58.4106667,17.66 57.872,17.66 C57.312,17.66 56.8173333,17.7666667 56.388,17.98 C55.9586667,18.1933333 55.596,18.4853333 55.3,18.856 C55.004,19.2266667 54.78,19.664 54.628,20.168 C54.476,20.672 54.4,21.2146667 54.4,21.796 C54.4,23.1506667 54.6733333,24.1666667 55.22,24.844 C55.7666667,25.5213333 56.528,25.86 57.504,25.86 Z M57.72,25.244 C56.904,25.244 56.2773333,24.9653333 55.84,24.408 C55.4026667,23.8506667 55.184,22.98 55.184,21.796 C55.184,21.2733333 55.244,20.7946667 55.364,20.36 C55.484,19.9253333 55.6626667,19.552 55.9,19.24 C56.1373333,18.928 56.432,18.6866667 56.784,18.516 C57.136,18.3453333 57.5466667,18.26 58.016,18.26 C58.4853333,18.26 58.9053333,18.3533333 59.276,18.54 C59.6466667,18.7266667 59.9866667,19.0466667 60.296,19.5 L60.296,19.5 L60.296,23.7 C59.96,24.1853333 59.5786667,24.564 59.152,24.836 C58.7253333,25.108 58.248,25.244 57.72,25.244 Z M64.344,15.748 C64.44,15.748 64.5306667,15.7293333 64.616,15.692 C64.7013333,15.6546667 64.776,15.604 64.84,15.54 C64.904,15.476 64.956,15.4026667 64.996,15.32 C65.036,15.2373333 65.056,15.148 65.056,15.052 C65.056,14.956 65.036,14.864 64.996,14.776 C64.956,14.688 64.904,14.612 64.84,14.548 C64.776,14.484 64.7013333,14.4333333 64.616,14.396 C64.5306667,14.3586667 64.44,14.34 64.344,14.34 C64.248,14.34 64.1573333,14.3586667 64.072,14.396 C63.9866667,14.4333333 63.912,14.484 63.848,14.548 C63.784,14.612 63.7333333,14.688 63.696,14.776 C63.6586667,14.864 63.64,14.956 63.64,15.052 C63.64,15.148 63.6586667,15.2373333 63.696,15.32 C63.7333333,15.4026667 63.784,15.476 63.848,15.54 C63.912,15.604 63.9866667,15.6546667 64.072,15.692 C64.1573333,15.7293333 64.248,15.748 64.344,15.748 Z M64.72,25.756 L64.72,17.796 L63.96,17.796 L63.96,25.756 L64.72,25.756 Z M69.712,25.884 C70.048,25.884 70.372,25.816 70.684,25.68 C70.996,25.544 71.2533333,25.364 71.456,25.14 L71.456,25.14 L71.248,24.804 C71.2053333,24.7506667 71.1626667,24.724 71.12,24.724 C71.0826667,24.724 71.032,24.752 70.968,24.808 C70.904,24.864 70.8213333,24.9253333 70.72,24.992 C70.6186667,25.0586667 70.4986667,25.12 70.36,25.176 C70.2213333,25.232 70.056,25.26 69.864,25.26 C69.7093333,25.26 69.5653333,25.236 69.432,25.188 C69.2986667,25.14 69.1826667,25.0653333 69.084,24.964 C68.9853333,24.8626667 68.908,24.7333333 68.852,24.576 C68.796,24.4186667 68.768,24.2306667 68.768,24.012 L68.768,24.012 L68.768,18.612 L71.272,18.612 L71.272,18.044 L68.768,18.044 L68.768,15.004 L68.408,15.004 C68.3493333,15.004 68.3026667,15.0226667 68.268,15.06 C68.2333333,15.0973333 68.2133333,15.14 68.208,15.188 L68.208,15.188 L68.016,18.036 L66.656,18.132 L66.656,18.428 C66.656,18.4866667 66.6746667,18.532 66.712,18.564 C66.7493333,18.596 66.7973333,18.612 66.856,18.612 L66.856,18.612 L68,18.612 L68,24.052 C68,24.676 68.1506667,25.1373333 68.452,25.436 C68.7533333,25.7346667 69.1733333,25.884 69.712,25.884 Z M76.272,25.86 C76.8426667,25.86 77.3533333,25.764 77.804,25.572 C78.2546667,25.38 78.6346667,25.1053333 78.944,24.748 C79.2533333,24.3906667 79.4893333,23.9613333 79.652,23.46 C79.8146667,22.9586667 79.896,22.396 79.896,21.772 C79.896,21.148 79.8146667,20.584 79.652,20.08 C79.4893333,19.576 79.2533333,19.1453333 78.944,18.788 C78.6346667,18.4306667 78.2546667,18.1546667 77.804,17.96 C77.3533333,17.7653333 76.8426667,17.668 76.272,17.668 C75.7013333,17.668 75.1906667,17.7653333 74.74,17.96 C74.2893333,18.1546667 73.908,18.4306667 73.596,18.788 C73.284,19.1453333 73.0466667,19.576 72.884,20.08 C72.7213333,20.584 72.64,21.148 72.64,21.772 C72.64,22.396 72.7213333,22.9586667 72.884,23.46 C73.0466667,23.9613333 73.284,24.3906667 73.596,24.748 C73.908,25.1053333 74.2893333,25.38 74.74,25.572 C75.1906667,25.764 75.7013333,25.86 76.272,25.86 Z M76.272,25.26 C75.7973333,25.26 75.3826667,25.1786667 75.028,25.016 C74.6733333,24.8533333 74.3773333,24.62 74.14,24.316 C73.9026667,24.012 73.724,23.6453333 73.604,23.216 C73.484,22.7866667 73.424,22.3053333 73.424,21.772 C73.424,21.244 73.484,20.764 73.604,20.332 C73.724,19.9 73.9026667,19.5306667 74.14,19.224 C74.3773333,18.9173333 74.6733333,18.6813333 75.028,18.516 C75.3826667,18.3506667 75.7973333,18.268 76.272,18.268 C76.7466667,18.268 77.1613333,18.3506667 77.516,18.516 C77.8706667,18.6813333 78.1666667,18.9173333 78.404,19.224 C78.6413333,19.5306667 78.8186667,19.9 78.936,20.332 C79.0533333,20.764 79.112,21.244 79.112,21.772 C79.112,22.3053333 79.0533333,22.7866667 78.936,23.216 C78.8186667,23.6453333 78.6413333,24.012 78.404,24.316 C78.1666667,24.62 77.8706667,24.8533333 77.516,25.016 C77.1613333,25.1786667 76.7466667,25.26 76.272,25.26 Z M82.656,25.756 L82.656,20.58 C82.896,19.876 83.2093333,19.3373333 83.596,18.964 C83.9826667,18.5906667 84.4773333,18.404 85.08,18.404 C85.2453333,18.404 85.392,18.4146667 85.52,18.436 C85.648,18.4573333 85.756,18.4813333 85.844,18.508 C85.932,18.5346667 86.0053333,18.5586667 86.064,18.58 C86.1226667,18.6013333 86.168,18.612 86.2,18.612 C86.2906667,18.612 86.344,18.5693333 86.36,18.484 L86.36,18.484 L86.464,17.956 C86.2826667,17.86 86.0906667,17.7866667 85.888,17.736 C85.6853333,17.6853333 85.464,17.66 85.224,17.66 C84.6,17.66 84.0746667,17.8426667 83.648,18.208 C83.2213333,18.5733333 82.88,19.0786667 82.624,19.724 L82.624,19.724 L82.56,18.044 C82.5546667,17.9533333 82.532,17.8893333 82.492,17.852 C82.452,17.8146667 82.3866667,17.796 82.296,17.796 L82.296,17.796 L81.896,17.796 L81.896,25.756 L82.656,25.756 Z M92.776,25.756 L92.776,20.636 L94.256,20.636 C94.4746667,20.636 94.636,20.66 94.74,20.708 C94.844,20.756 94.9413333,20.8386667 95.032,20.956 L95.032,20.956 L98.656,25.548 C98.7146667,25.6226667 98.7746667,25.676 98.836,25.708 C98.8973333,25.74 98.9706667,25.756 99.056,25.756 L99.056,25.756 L99.768,25.756 L95.872,20.86 C95.7706667,20.7266667 95.656,20.62 95.528,20.54 C96.024,20.4866667 96.4693333,20.3733333 96.864,20.2 C97.2586667,20.0266667 97.596,19.8053333 97.876,19.536 C98.156,19.2666667 98.3706667,18.9533333 98.52,18.596 C98.6693333,18.2386667 98.744,17.844 98.744,17.412 C98.744,16.436 98.4213333,15.696 97.776,15.192 C97.1306667,14.688 96.1546667,14.436 94.848,14.436 L94.848,14.436 L91.96,14.436 L91.96,25.756 L92.776,25.756 Z M94.744,20.028 L92.776,20.028 L92.776,15.084 L94.848,15.084 C95.856,15.084 96.624,15.2786667 97.152,15.668 C97.68,16.0573333 97.944,16.6546667 97.944,17.46 C97.944,17.8546667 97.872,18.2093333 97.728,18.524 C97.584,18.8386667 97.3746667,19.108 97.1,19.332 C96.8253333,19.556 96.4893333,19.728 96.092,19.848 C95.6946667,19.968 95.2453333,20.028 94.744,20.028 L94.744,20.028 Z M104.48,25.86 C104.778667,25.86 105.076,25.8306667 105.372,25.772 C105.668,25.7133333 105.945333,25.6346667 106.204,25.536 C106.462667,25.4373333 106.697333,25.3186667 106.908,25.18 C107.118667,25.0413333 107.288,24.892 107.416,24.732 L107.416,24.732 L107.208,24.476 C107.170667,24.4226667 107.117333,24.396 107.048,24.396 C106.994667,24.396 106.909333,24.44 106.792,24.528 C106.674667,24.616 106.516,24.7146667 106.316,24.824 C106.116,24.9333333 105.869333,25.032 105.576,25.12 C105.282667,25.208 104.936,25.252 104.536,25.252 C104.088,25.252 103.682667,25.1746667 103.32,25.02 C102.957333,24.8653333 102.648,24.6346667 102.392,24.328 C102.136,24.0213333 101.938667,23.6413333 101.8,23.188 C101.661333,22.7346667 101.592,22.2093333 101.592,21.612 L101.592,21.612 L101.592,21.46 L107.344,21.46 C107.418667,21.46 107.473333,21.4386667 107.508,21.396 C107.542667,21.3533333 107.56,21.2733333 107.56,21.156 C107.56,20.596 107.481333,20.1 107.324,19.668 C107.166667,19.236 106.948,18.872 106.668,18.576 C106.388,18.28 106.057333,18.0546667 105.676,17.9 C105.294667,17.7453333 104.88,17.668 104.432,17.668 C103.866667,17.668 103.361333,17.7666667 102.916,17.964 C102.470667,18.1613333 102.094667,18.4346667 101.788,18.784 C101.481333,19.1333333 101.246667,19.5493333 101.084,20.032 C100.921333,20.5146667 100.84,21.0413333 100.84,21.612 C100.84,22.2893333 100.926667,22.8906667 101.1,23.416 C101.273333,23.9413333 101.52,24.3853333 101.84,24.748 C102.16,25.1106667 102.544,25.3866667 102.992,25.576 C103.44,25.7653333 103.936,25.86 104.48,25.86 Z M106.872,20.972 L101.624,20.972 C101.672,20.556 101.769333,20.18 101.916,19.844 C102.062667,19.508 102.254667,19.22 102.492,18.98 C102.729333,18.74 103.010667,18.556 103.336,18.428 C103.661333,18.3 104.029333,18.236 104.44,18.236 C104.802667,18.236 105.133333,18.2986667 105.432,18.424 C105.730667,18.5493333 105.986667,18.7293333 106.2,18.964 C106.413333,19.1986667 106.578667,19.4853333 106.696,19.824 C106.813333,20.1626667 106.872,20.5453333 106.872,20.972 L106.872,20.972 Z M112.544,25.756 L115.904,17.796 L115.328,17.796 C115.264,17.796 115.209333,17.8133333 115.164,17.848 C115.118667,17.8826667 115.082667,17.9293333 115.056,17.988 L115.056,17.988 L112.416,24.268 C112.368,24.3853333 112.329333,24.5013333 112.3,24.616 C112.270667,24.7306667 112.242667,24.844 112.216,24.956 L112.216,24.956 L112.136,24.62 C112.109333,24.508 112.069333,24.3906667 112.016,24.268 L112.016,24.268 L109.392,17.988 C109.370667,17.94 109.337333,17.896 109.292,17.856 C109.246667,17.816 109.186667,17.796 109.112,17.796 L109.112,17.796 L108.512,17.796 L111.872,25.756 L112.544,25.756 Z M118.008,15.748 C118.104,15.748 118.194667,15.7293333 118.28,15.692 C118.365333,15.6546667 118.44,15.604 118.504,15.54 C118.568,15.476 118.62,15.4026667 118.66,15.32 C118.7,15.2373333 118.72,15.148 118.72,15.052 C118.72,14.956 118.7,14.864 118.66,14.776 C118.62,14.688 118.568,14.612 118.504,14.548 C118.44,14.484 118.365333,14.4333333 118.28,14.396 C118.194667,14.3586667 118.104,14.34 118.008,14.34 C117.912,14.34 117.821333,14.3586667 117.736,14.396 C117.650667,14.4333333 117.576,14.484 117.512,14.548 C117.448,14.612 117.397333,14.688 117.36,14.776 C117.322667,14.864 117.304,14.956 117.304,15.052 C117.304,15.148 117.322667,15.2373333 117.36,15.32 C117.397333,15.4026667 117.448,15.476 117.512,15.54 C117.576,15.604 117.650667,15.6546667 117.736,15.692 C117.821333,15.7293333 117.912,15.748 118.008,15.748 Z M118.384,25.756 L118.384,17.796 L117.624,17.796 L117.624,25.756 L118.384,25.756 Z M124.248,25.86 C124.546667,25.86 124.844,25.8306667 125.14,25.772 C125.436,25.7133333 125.713333,25.6346667 125.972,25.536 C126.230667,25.4373333 126.465333,25.3186667 126.676,25.18 C126.886667,25.0413333 127.056,24.892 127.184,24.732 L127.184,24.732 L126.976,24.476 C126.938667,24.4226667 126.885333,24.396 126.816,24.396 C126.762667,24.396 126.677333,24.44 126.56,24.528 C126.442667,24.616 126.284,24.7146667 126.084,24.824 C125.884,24.9333333 125.637333,25.032 125.344,25.12 C125.050667,25.208 124.704,25.252 124.304,25.252 C123.856,25.252 123.450667,25.1746667 123.088,25.02 C122.725333,24.8653333 122.416,24.6346667 122.16,24.328 C121.904,24.0213333 121.706667,23.6413333 121.568,23.188 C121.429333,22.7346667 121.36,22.2093333 121.36,21.612 L121.36,21.612 L121.36,21.46 L127.112,21.46 C127.186667,21.46 127.241333,21.4386667 127.276,21.396 C127.310667,21.3533333 127.328,21.2733333 127.328,21.156 C127.328,20.596 127.249333,20.1 127.092,19.668 C126.934667,19.236 126.716,18.872 126.436,18.576 C126.156,18.28 125.825333,18.0546667 125.444,17.9 C125.062667,17.7453333 124.648,17.668 124.2,17.668 C123.634667,17.668 123.129333,17.7666667 122.684,17.964 C122.238667,18.1613333 121.862667,18.4346667 121.556,18.784 C121.249333,19.1333333 121.014667,19.5493333 120.852,20.032 C120.689333,20.5146667 120.608,21.0413333 120.608,21.612 C120.608,22.2893333 120.694667,22.8906667 120.868,23.416 C121.041333,23.9413333 121.288,24.3853333 121.608,24.748 C121.928,25.1106667 122.312,25.3866667 122.76,25.576 C123.208,25.7653333 123.704,25.86 124.248,25.86 Z M126.64,20.972 L121.392,20.972 C121.44,20.556 121.537333,20.18 121.684,19.844 C121.830667,19.508 122.022667,19.22 122.26,18.98 C122.497333,18.74 122.778667,18.556 123.104,18.428 C123.429333,18.3 123.797333,18.236 124.208,18.236 C124.570667,18.236 124.901333,18.2986667 125.2,18.424 C125.498667,18.5493333 125.754667,18.7293333 125.968,18.964 C126.181333,19.1986667 126.346667,19.4853333 126.464,19.824 C126.581333,20.1626667 126.64,20.5453333 126.64,20.972 L126.64,20.972 Z M131.456,25.756 C131.552,25.756 131.616,25.7 131.648,25.588 L131.648,25.588 L133.856,19.124 C133.882667,19.044 133.905333,18.964 133.924,18.884 C133.942667,18.804 133.96,18.724 133.976,18.644 C133.992,18.724 134.010667,18.804 134.032,18.884 C134.053333,18.964 134.077333,19.044 134.104,19.124 L134.104,19.124 L136.288,25.588 C136.325333,25.7 136.386667,25.756 136.472,25.756 L136.472,25.756 L137.032,25.756 L139.696,17.796 L139.136,17.796 C138.997333,17.796 138.906667,17.86 138.864,17.988 L138.864,17.988 L136.848,24.268 C136.805333,24.3906667 136.772,24.5093333 136.748,24.624 C136.724,24.7386667 136.701333,24.852 136.68,24.964 C136.632,24.74 136.568,24.508 136.488,24.268 L136.488,24.268 L134.384,17.932 C134.346667,17.8146667 134.269333,17.756 134.152,17.756 L134.152,17.756 L133.84,17.756 C133.728,17.756 133.653333,17.8146667 133.616,17.932 L133.616,17.932 L131.48,24.268 C131.437333,24.3906667 131.4,24.508 131.368,24.62 C131.336,24.732 131.306667,24.844 131.28,24.956 L131.28,24.956 L131.216,24.62 C131.194667,24.508 131.165333,24.3906667 131.128,24.268 L131.128,24.268 L129.12,17.988 C129.104,17.94 129.072,17.896 129.024,17.856 C128.976,17.816 128.914667,17.796 128.84,17.796 L128.84,17.796 L128.256,17.796 L130.92,25.756 L131.456,25.756 Z" id="ForEditorReview" fill="#000000" fill-rule="nonzero"></path>
            </g>
            <g id="Article" filter="url(#filter-3)" transform="translate(16.966530, 113.868545)">
                <path d="M4,0 L166,0 C168.209139,1.48469752e-14 170,1.790861 170,4 L170,36 C170,38.209139 168.209139,40 166,40 L4,40 C1.790861,40 -1.73547709e-16,38.209139 0,36 L0,4 C-7.1463071e-16,1.790861 1.790861,-3.82769592e-17 4,0 Z" id="Rectangle" fill="#FFFFFF"></path>
                <path d="M4,0 L7,0 L7,0 L7,40 L4,40 C1.790861,40 2.705415e-16,38.209139 0,36 L0,4 C-2.705415e-16,1.790861 1.790861,4.05812251e-16 4,0 Z" id="Rectangle" fill="#44A604"></path>
                <path d="M19.736,25.484 L19.736,20.364 L21.216,20.364 C21.4346667,20.364 21.596,20.388 21.7,20.436 C21.804,20.484 21.9013333,20.5666667 21.992,20.684 L21.992,20.684 L25.616,25.276 C25.6746667,25.3506667 25.7346667,25.404 25.796,25.436 C25.8573333,25.468 25.9306667,25.484 26.016,25.484 L26.016,25.484 L26.728,25.484 L22.832,20.588 C22.7306667,20.4546667 22.616,20.348 22.488,20.268 C22.984,20.2146667 23.4293333,20.1013333 23.824,19.928 C24.2186667,19.7546667 24.556,19.5333333 24.836,19.264 C25.116,18.9946667 25.3306667,18.6813333 25.48,18.324 C25.6293333,17.9666667 25.704,17.572 25.704,17.14 C25.704,16.164 25.3813333,15.424 24.736,14.92 C24.0906667,14.416 23.1146667,14.164 21.808,14.164 L21.808,14.164 L18.92,14.164 L18.92,25.484 L19.736,25.484 Z M21.704,19.756 L19.736,19.756 L19.736,14.812 L21.808,14.812 C22.816,14.812 23.584,15.0066667 24.112,15.396 C24.64,15.7853333 24.904,16.3826667 24.904,17.188 C24.904,17.5826667 24.832,17.9373333 24.688,18.252 C24.544,18.5666667 24.3346667,18.836 24.06,19.06 C23.7853333,19.284 23.4493333,19.456 23.052,19.576 C22.6546667,19.696 22.2053333,19.756 21.704,19.756 L21.704,19.756 Z M31.44,25.588 C31.7386667,25.588 32.036,25.5586667 32.332,25.5 C32.628,25.4413333 32.9053333,25.3626667 33.164,25.264 C33.4226667,25.1653333 33.6573333,25.0466667 33.868,24.908 C34.0786667,24.7693333 34.248,24.62 34.376,24.46 L34.376,24.46 L34.168,24.204 C34.1306667,24.1506667 34.0773333,24.124 34.008,24.124 C33.9546667,24.124 33.8693333,24.168 33.752,24.256 C33.6346667,24.344 33.476,24.4426667 33.276,24.552 C33.076,24.6613333 32.8293333,24.76 32.536,24.848 C32.2426667,24.936 31.896,24.98 31.496,24.98 C31.048,24.98 30.6426667,24.9026667 30.28,24.748 C29.9173333,24.5933333 29.608,24.3626667 29.352,24.056 C29.096,23.7493333 28.8986667,23.3693333 28.76,22.916 C28.6213333,22.4626667 28.552,21.9373333 28.552,21.34 L28.552,21.34 L28.552,21.188 L34.304,21.188 C34.3786667,21.188 34.4333333,21.1666667 34.468,21.124 C34.5026667,21.0813333 34.52,21.0013333 34.52,20.884 C34.52,20.324 34.4413333,19.828 34.284,19.396 C34.1266667,18.964 33.908,18.6 33.628,18.304 C33.348,18.008 33.0173333,17.7826667 32.636,17.628 C32.2546667,17.4733333 31.84,17.396 31.392,17.396 C30.8266667,17.396 30.3213333,17.4946667 29.876,17.692 C29.4306667,17.8893333 29.0546667,18.1626667 28.748,18.512 C28.4413333,18.8613333 28.2066667,19.2773333 28.044,19.76 C27.8813333,20.2426667 27.8,20.7693333 27.8,21.34 C27.8,22.0173333 27.8866667,22.6186667 28.06,23.144 C28.2333333,23.6693333 28.48,24.1133333 28.8,24.476 C29.12,24.8386667 29.504,25.1146667 29.952,25.304 C30.4,25.4933333 30.896,25.588 31.44,25.588 Z M33.832,20.7 L28.584,20.7 C28.632,20.284 28.7293333,19.908 28.876,19.572 C29.0226667,19.236 29.2146667,18.948 29.452,18.708 C29.6893333,18.468 29.9706667,18.284 30.296,18.156 C30.6213333,18.028 30.9893333,17.964 31.4,17.964 C31.7626667,17.964 32.0933333,18.0266667 32.392,18.152 C32.6906667,18.2773333 32.9466667,18.4573333 33.16,18.692 C33.3733333,18.9266667 33.5386667,19.2133333 33.656,19.552 C33.7733333,19.8906667 33.832,20.2733333 33.832,20.7 L33.832,20.7 Z M39.504,25.484 L42.864,17.524 L42.288,17.524 C42.224,17.524 42.1693333,17.5413333 42.124,17.576 C42.0786667,17.6106667 42.0426667,17.6573333 42.016,17.716 L42.016,17.716 L39.376,23.996 C39.328,24.1133333 39.2893333,24.2293333 39.26,24.344 C39.2306667,24.4586667 39.2026667,24.572 39.176,24.684 L39.176,24.684 L39.096,24.348 C39.0693333,24.236 39.0293333,24.1186667 38.976,23.996 L38.976,23.996 L36.352,17.716 C36.3306667,17.668 36.2973333,17.624 36.252,17.584 C36.2066667,17.544 36.1466667,17.524 36.072,17.524 L36.072,17.524 L35.472,17.524 L38.832,25.484 L39.504,25.484 Z M44.968,15.476 C45.064,15.476 45.1546667,15.4573333 45.24,15.42 C45.3253333,15.3826667 45.4,15.332 45.464,15.268 C45.528,15.204 45.58,15.1306667 45.62,15.048 C45.66,14.9653333 45.68,14.876 45.68,14.78 C45.68,14.684 45.66,14.592 45.62,14.504 C45.58,14.416 45.528,14.34 45.464,14.276 C45.4,14.212 45.3253333,14.1613333 45.24,14.124 C45.1546667,14.0866667 45.064,14.068 44.968,14.068 C44.872,14.068 44.7813333,14.0866667 44.696,14.124 C44.6106667,14.1613333 44.536,14.212 44.472,14.276 C44.408,14.34 44.3573333,14.416 44.32,14.504 C44.2826667,14.592 44.264,14.684 44.264,14.78 C44.264,14.876 44.2826667,14.9653333 44.32,15.048 C44.3573333,15.1306667 44.408,15.204 44.472,15.268 C44.536,15.332 44.6106667,15.3826667 44.696,15.42 C44.7813333,15.4573333 44.872,15.476 44.968,15.476 Z M45.344,25.484 L45.344,17.524 L44.584,17.524 L44.584,25.484 L45.344,25.484 Z M51.208,25.588 C51.5066667,25.588 51.804,25.5586667 52.1,25.5 C52.396,25.4413333 52.6733333,25.3626667 52.932,25.264 C53.1906667,25.1653333 53.4253333,25.0466667 53.636,24.908 C53.8466667,24.7693333 54.016,24.62 54.144,24.46 L54.144,24.46 L53.936,24.204 C53.8986667,24.1506667 53.8453333,24.124 53.776,24.124 C53.7226667,24.124 53.6373333,24.168 53.52,24.256 C53.4026667,24.344 53.244,24.4426667 53.044,24.552 C52.844,24.6613333 52.5973333,24.76 52.304,24.848 C52.0106667,24.936 51.664,24.98 51.264,24.98 C50.816,24.98 50.4106667,24.9026667 50.048,24.748 C49.6853333,24.5933333 49.376,24.3626667 49.12,24.056 C48.864,23.7493333 48.6666667,23.3693333 48.528,22.916 C48.3893333,22.4626667 48.32,21.9373333 48.32,21.34 L48.32,21.34 L48.32,21.188 L54.072,21.188 C54.1466667,21.188 54.2013333,21.1666667 54.236,21.124 C54.2706667,21.0813333 54.288,21.0013333 54.288,20.884 C54.288,20.324 54.2093333,19.828 54.052,19.396 C53.8946667,18.964 53.676,18.6 53.396,18.304 C53.116,18.008 52.7853333,17.7826667 52.404,17.628 C52.0226667,17.4733333 51.608,17.396 51.16,17.396 C50.5946667,17.396 50.0893333,17.4946667 49.644,17.692 C49.1986667,17.8893333 48.8226667,18.1626667 48.516,18.512 C48.2093333,18.8613333 47.9746667,19.2773333 47.812,19.76 C47.6493333,20.2426667 47.568,20.7693333 47.568,21.34 C47.568,22.0173333 47.6546667,22.6186667 47.828,23.144 C48.0013333,23.6693333 48.248,24.1133333 48.568,24.476 C48.888,24.8386667 49.272,25.1146667 49.72,25.304 C50.168,25.4933333 50.664,25.588 51.208,25.588 Z M53.6,20.7 L48.352,20.7 C48.4,20.284 48.4973333,19.908 48.644,19.572 C48.7906667,19.236 48.9826667,18.948 49.22,18.708 C49.4573333,18.468 49.7386667,18.284 50.064,18.156 C50.3893333,18.028 50.7573333,17.964 51.168,17.964 C51.5306667,17.964 51.8613333,18.0266667 52.16,18.152 C52.4586667,18.2773333 52.7146667,18.4573333 52.928,18.692 C53.1413333,18.9266667 53.3066667,19.2133333 53.424,19.552 C53.5413333,19.8906667 53.6,20.2733333 53.6,20.7 L53.6,20.7 Z M58.416,25.484 C58.512,25.484 58.576,25.428 58.608,25.316 L58.608,25.316 L60.816,18.852 C60.8426667,18.772 60.8653333,18.692 60.884,18.612 C60.9026667,18.532 60.92,18.452 60.936,18.372 C60.952,18.452 60.9706667,18.532 60.992,18.612 C61.0133333,18.692 61.0373333,18.772 61.064,18.852 L61.064,18.852 L63.248,25.316 C63.2853333,25.428 63.3466667,25.484 63.432,25.484 L63.432,25.484 L63.992,25.484 L66.656,17.524 L66.096,17.524 C65.9573333,17.524 65.8666667,17.588 65.824,17.716 L65.824,17.716 L63.808,23.996 C63.7653333,24.1186667 63.732,24.2373333 63.708,24.352 C63.684,24.4666667 63.6613333,24.58 63.64,24.692 C63.592,24.468 63.528,24.236 63.448,23.996 L63.448,23.996 L61.344,17.66 C61.3066667,17.5426667 61.2293333,17.484 61.112,17.484 L61.112,17.484 L60.8,17.484 C60.688,17.484 60.6133333,17.5426667 60.576,17.66 L60.576,17.66 L58.44,23.996 C58.3973333,24.1186667 58.36,24.236 58.328,24.348 C58.296,24.46 58.2666667,24.572 58.24,24.684 L58.24,24.684 L58.176,24.348 C58.1546667,24.236 58.1253333,24.1186667 58.088,23.996 L58.088,23.996 L56.08,17.716 C56.064,17.668 56.032,17.624 55.984,17.584 C55.936,17.544 55.8746667,17.524 55.8,17.524 L55.8,17.524 L55.216,17.524 L57.88,25.484 L58.416,25.484 Z M71.176,25.588 C71.4746667,25.588 71.772,25.5586667 72.068,25.5 C72.364,25.4413333 72.6413333,25.3626667 72.9,25.264 C73.1586667,25.1653333 73.3933333,25.0466667 73.604,24.908 C73.8146667,24.7693333 73.984,24.62 74.112,24.46 L74.112,24.46 L73.904,24.204 C73.8666667,24.1506667 73.8133333,24.124 73.744,24.124 C73.6906667,24.124 73.6053333,24.168 73.488,24.256 C73.3706667,24.344 73.212,24.4426667 73.012,24.552 C72.812,24.6613333 72.5653333,24.76 72.272,24.848 C71.9786667,24.936 71.632,24.98 71.232,24.98 C70.784,24.98 70.3786667,24.9026667 70.016,24.748 C69.6533333,24.5933333 69.344,24.3626667 69.088,24.056 C68.832,23.7493333 68.6346667,23.3693333 68.496,22.916 C68.3573333,22.4626667 68.288,21.9373333 68.288,21.34 L68.288,21.34 L68.288,21.188 L74.04,21.188 C74.1146667,21.188 74.1693333,21.1666667 74.204,21.124 C74.2386667,21.0813333 74.256,21.0013333 74.256,20.884 C74.256,20.324 74.1773333,19.828 74.02,19.396 C73.8626667,18.964 73.644,18.6 73.364,18.304 C73.084,18.008 72.7533333,17.7826667 72.372,17.628 C71.9906667,17.4733333 71.576,17.396 71.128,17.396 C70.5626667,17.396 70.0573333,17.4946667 69.612,17.692 C69.1666667,17.8893333 68.7906667,18.1626667 68.484,18.512 C68.1773333,18.8613333 67.9426667,19.2773333 67.78,19.76 C67.6173333,20.2426667 67.536,20.7693333 67.536,21.34 C67.536,22.0173333 67.6226667,22.6186667 67.796,23.144 C67.9693333,23.6693333 68.216,24.1133333 68.536,24.476 C68.856,24.8386667 69.24,25.1146667 69.688,25.304 C70.136,25.4933333 70.632,25.588 71.176,25.588 Z M73.568,20.7 L68.32,20.7 C68.368,20.284 68.4653333,19.908 68.612,19.572 C68.7586667,19.236 68.9506667,18.948 69.188,18.708 C69.4253333,18.468 69.7066667,18.284 70.032,18.156 C70.3573333,18.028 70.7253333,17.964 71.136,17.964 C71.4986667,17.964 71.8293333,18.0266667 72.128,18.152 C72.4266667,18.2773333 72.6826667,18.4573333 72.896,18.692 C73.1093333,18.9266667 73.2746667,19.2133333 73.392,19.552 C73.5093333,19.8906667 73.568,20.2733333 73.568,20.7 L73.568,20.7 Z M78.808,25.588 C79.3946667,25.588 79.924,25.4466667 80.396,25.164 C80.868,24.8813333 81.28,24.5 81.632,24.02 L81.632,24.02 L81.712,25.276 C81.7333333,25.4146667 81.8106667,25.484 81.944,25.484 L81.944,25.484 L82.368,25.484 L82.368,13.844 L81.6,13.844 L81.6,18.564 C81.312,18.18 80.9706667,17.888 80.576,17.688 C80.1813333,17.488 79.7146667,17.388 79.176,17.388 C78.616,17.388 78.1213333,17.4946667 77.692,17.708 C77.2626667,17.9213333 76.9,18.2133333 76.604,18.584 C76.308,18.9546667 76.084,19.392 75.932,19.896 C75.78,20.4 75.704,20.9426667 75.704,21.524 C75.704,22.8786667 75.9773333,23.8946667 76.524,24.572 C77.0706667,25.2493333 77.832,25.588 78.808,25.588 Z M79.024,24.972 C78.208,24.972 77.5813333,24.6933333 77.144,24.136 C76.7066667,23.5786667 76.488,22.708 76.488,21.524 C76.488,21.0013333 76.548,20.5226667 76.668,20.088 C76.788,19.6533333 76.9666667,19.28 77.204,18.968 C77.4413333,18.656 77.736,18.4146667 78.088,18.244 C78.44,18.0733333 78.8506667,17.988 79.32,17.988 C79.7893333,17.988 80.2093333,18.0813333 80.58,18.268 C80.9506667,18.4546667 81.2906667,18.7746667 81.6,19.228 L81.6,19.228 L81.6,23.428 C81.264,23.9133333 80.8826667,24.292 80.456,24.564 C80.0293333,24.836 79.552,24.972 79.024,24.972 Z M84.016,26.156 C84.1066667,26.156 84.1946667,26.1306667 84.28,26.08 C84.3653333,26.0293333 84.4293333,25.9506667 84.472,25.844 L84.472,25.844 L89.44,13.844 L89.112,13.844 C88.904,13.844 88.76,13.9426667 88.68,14.14 L88.68,14.14 L83.704,26.156 L84.016,26.156 Z M92.184,25.484 L92.184,20.924 L94.288,20.924 C94.912,20.924 95.472,20.84 95.968,20.672 C96.464,20.504 96.8853333,20.2693333 97.232,19.968 C97.5786667,19.6666667 97.844,19.308 98.028,18.892 C98.212,18.476 98.304,18.02 98.304,17.524 C98.304,16.4466667 97.9666667,15.6173333 97.292,15.036 C96.6173333,14.4546667 95.616,14.164 94.288,14.164 L94.288,14.164 L91.368,14.164 L91.368,25.484 L92.184,25.484 Z M94.288,20.268 L92.184,20.268 L92.184,14.812 L94.288,14.812 C95.3493333,14.812 96.148,15.0466667 96.684,15.516 C97.22,15.9853333 97.488,16.6546667 97.488,17.524 C97.488,17.9186667 97.4146667,18.2826667 97.268,18.616 C97.1213333,18.9493333 96.9106667,19.2386667 96.636,19.484 C96.3613333,19.7293333 96.0266667,19.9213333 95.632,20.06 C95.2373333,20.1986667 94.7893333,20.268 94.288,20.268 L94.288,20.268 Z M102.688,25.612 C103.28,25.612 103.817333,25.4733333 104.3,25.196 C104.782667,24.9186667 105.208,24.5506667 105.576,24.092 L105.576,24.092 L105.648,25.276 C105.653333,25.4146667 105.730667,25.484 105.88,25.484 L105.88,25.484 L106.304,25.484 L106.304,17.524 L105.536,17.524 L105.536,23.508 C105.178667,23.9773333 104.776,24.344 104.328,24.608 C103.88,24.872 103.397333,25.004 102.88,25.004 C102.181333,25.004 101.661333,24.792 101.32,24.368 C100.978667,23.944 100.808,23.3586667 100.808,22.612 L100.808,22.612 L100.808,17.524 L100.04,17.524 L100.04,22.612 C100.04,23.076 100.096,23.492 100.208,23.86 C100.32,24.228 100.485333,24.5426667 100.704,24.804 C100.922667,25.0653333 101.197333,25.2653333 101.528,25.404 C101.858667,25.5426667 102.245333,25.612 102.688,25.612 Z M112.168,25.588 C112.728,25.588 113.222667,25.4813333 113.652,25.268 C114.081333,25.0546667 114.444,24.7626667 114.74,24.392 C115.036,24.0213333 115.26,23.584 115.412,23.08 C115.564,22.576 115.64,22.0333333 115.64,21.452 C115.64,20.0973333 115.366667,19.0826667 114.82,18.408 C114.273333,17.7333333 113.512,17.396 112.536,17.396 C111.954667,17.396 111.432,17.532 110.968,17.804 C110.504,18.076 110.096,18.4466667 109.744,18.916 L109.744,18.916 L109.744,13.844 L108.976,13.844 L108.976,25.484 L109.44,25.484 C109.568,25.484 109.64,25.4173333 109.656,25.284 L109.656,25.284 L109.704,24.308 C109.992,24.7293333 110.336,25.048 110.736,25.264 C111.136,25.48 111.613333,25.588 112.168,25.588 Z M112.024,24.988 C111.544,24.988 111.12,24.896 110.752,24.712 C110.384,24.528 110.048,24.2066667 109.744,23.748 L109.744,23.748 L109.744,19.548 C110.08,19.0626667 110.461333,18.684 110.888,18.412 C111.314667,18.14 111.792,18.004 112.32,18.004 C113.136,18.004 113.762667,18.2826667 114.2,18.84 C114.637333,19.3973333 114.856,20.268 114.856,21.452 C114.856,21.9746667 114.796,22.4533333 114.676,22.888 C114.556,23.3226667 114.377333,23.696 114.14,24.008 C113.902667,24.32 113.608,24.5613333 113.256,24.732 C112.904,24.9026667 112.493333,24.988 112.024,24.988 Z M118.616,25.484 L118.616,13.844 L117.856,13.844 L117.856,25.484 L118.616,25.484 Z M122.04,15.476 C122.136,15.476 122.226667,15.4573333 122.312,15.42 C122.397333,15.3826667 122.472,15.332 122.536,15.268 C122.6,15.204 122.652,15.1306667 122.692,15.048 C122.732,14.9653333 122.752,14.876 122.752,14.78 C122.752,14.684 122.732,14.592 122.692,14.504 C122.652,14.416 122.6,14.34 122.536,14.276 C122.472,14.212 122.397333,14.1613333 122.312,14.124 C122.226667,14.0866667 122.136,14.068 122.04,14.068 C121.944,14.068 121.853333,14.0866667 121.768,14.124 C121.682667,14.1613333 121.608,14.212 121.544,14.276 C121.48,14.34 121.429333,14.416 121.392,14.504 C121.354667,14.592 121.336,14.684 121.336,14.78 C121.336,14.876 121.354667,14.9653333 121.392,15.048 C121.429333,15.1306667 121.48,15.204 121.544,15.268 C121.608,15.332 121.682667,15.3826667 121.768,15.42 C121.853333,15.4573333 121.944,15.476 122.04,15.476 Z M122.416,25.484 L122.416,17.524 L121.656,17.524 L121.656,25.484 L122.416,25.484 Z M127.184,25.612 C127.626667,25.612 128.021333,25.548 128.368,25.42 C128.714667,25.292 129.006667,25.1186667 129.244,24.9 C129.481333,24.6813333 129.662667,24.4226667 129.788,24.124 C129.913333,23.8253333 129.976,23.5026667 129.976,23.156 C129.976,22.836 129.912,22.564 129.784,22.34 C129.656,22.116 129.488,21.9266667 129.28,21.772 C129.072,21.6173333 128.836,21.488 128.572,21.384 C128.308,21.28 128.037333,21.1853333 127.76,21.1 C127.482667,21.0146667 127.212,20.9293333 126.948,20.844 C126.684,20.7586667 126.448,20.6573333 126.24,20.54 C126.032,20.4226667 125.864,20.2813333 125.736,20.116 C125.608,19.9506667 125.544,19.7426667 125.544,19.492 C125.544,19.2893333 125.590667,19.096 125.684,18.912 C125.777333,18.728 125.908,18.5666667 126.076,18.428 C126.244,18.2893333 126.446667,18.1786667 126.684,18.096 C126.921333,18.0133333 127.184,17.972 127.472,17.972 C127.792,17.972 128.062667,18.0053333 128.284,18.072 C128.505333,18.1386667 128.692,18.2133333 128.844,18.296 C128.996,18.3786667 129.118667,18.4533333 129.212,18.52 C129.305333,18.5866667 129.381333,18.62 129.44,18.62 C129.52,18.62 129.578667,18.5826667 129.616,18.508 L129.616,18.508 L129.784,18.244 C129.469333,17.956 129.124,17.7426667 128.748,17.604 C128.372,17.4653333 127.941333,17.396 127.456,17.396 C127.050667,17.396 126.685333,17.4546667 126.36,17.572 C126.034667,17.6893333 125.758667,17.8466667 125.532,18.044 C125.305333,18.2413333 125.130667,18.4706667 125.008,18.732 C124.885333,18.9933333 124.824,19.2653333 124.824,19.548 C124.824,19.8786667 124.888,20.1546667 125.016,20.376 C125.144,20.5973333 125.312,20.7853333 125.52,20.94 C125.728,21.0946667 125.964,21.2226667 126.228,21.324 C126.492,21.4253333 126.764,21.5186667 127.044,21.604 C127.324,21.6893333 127.596,21.7746667 127.86,21.86 C128.124,21.9453333 128.36,22.0493333 128.568,22.172 C128.776,22.2946667 128.944,22.444 129.072,22.62 C129.2,22.796 129.264,23.0173333 129.264,23.284 C129.264,23.524 129.22,23.752 129.132,23.968 C129.044,24.184 128.914667,24.372 128.744,24.532 C128.573333,24.692 128.36,24.8186667 128.104,24.912 C127.848,25.0053333 127.552,25.052 127.216,25.052 C126.858667,25.052 126.558667,25.0093333 126.316,24.924 C126.073333,24.8386667 125.870667,24.7466667 125.708,24.648 C125.545333,24.5493333 125.413333,24.4573333 125.312,24.372 C125.210667,24.2866667 125.125333,24.244 125.056,24.244 C124.997333,24.244 124.952,24.2546667 124.92,24.276 C124.888,24.2973333 124.858667,24.3293333 124.832,24.372 L124.832,24.372 L124.648,24.644 C124.968,24.932 125.330667,25.1653333 125.736,25.344 C126.141333,25.5226667 126.624,25.612 127.184,25.612 Z M132.872,25.484 L132.872,19.516 C133.224,19.0466667 133.624,18.6773333 134.072,18.408 C134.52,18.1386667 135.005333,18.004 135.528,18.004 C136.232,18.004 136.754667,18.216 137.096,18.64 C137.437333,19.064 137.608,19.6493333 137.608,20.396 L137.608,20.396 L137.608,25.484 L138.368,25.484 L138.368,20.396 C138.368,19.932 138.312,19.516 138.2,19.148 C138.088,18.78 137.922667,18.4653333 137.704,18.204 C137.485333,17.9426667 137.209333,17.7426667 136.876,17.604 C136.542667,17.4653333 136.157333,17.396 135.72,17.396 C135.133333,17.396 134.604,17.5306667 134.132,17.8 C133.66,18.0693333 133.24,18.4306667 132.872,18.884 L132.872,18.884 L132.872,13.844 L132.112,13.844 L132.112,25.484 L132.872,25.484 Z M143.816,25.588 C144.114667,25.588 144.412,25.5586667 144.708,25.5 C145.004,25.4413333 145.281333,25.3626667 145.54,25.264 C145.798667,25.1653333 146.033333,25.0466667 146.244,24.908 C146.454667,24.7693333 146.624,24.62 146.752,24.46 L146.752,24.46 L146.544,24.204 C146.506667,24.1506667 146.453333,24.124 146.384,24.124 C146.330667,24.124 146.245333,24.168 146.128,24.256 C146.010667,24.344 145.852,24.4426667 145.652,24.552 C145.452,24.6613333 145.205333,24.76 144.912,24.848 C144.618667,24.936 144.272,24.98 143.872,24.98 C143.424,24.98 143.018667,24.9026667 142.656,24.748 C142.293333,24.5933333 141.984,24.3626667 141.728,24.056 C141.472,23.7493333 141.274667,23.3693333 141.136,22.916 C140.997333,22.4626667 140.928,21.9373333 140.928,21.34 L140.928,21.34 L140.928,21.188 L146.68,21.188 C146.754667,21.188 146.809333,21.1666667 146.844,21.124 C146.878667,21.0813333 146.896,21.0013333 146.896,20.884 C146.896,20.324 146.817333,19.828 146.66,19.396 C146.502667,18.964 146.284,18.6 146.004,18.304 C145.724,18.008 145.393333,17.7826667 145.012,17.628 C144.630667,17.4733333 144.216,17.396 143.768,17.396 C143.202667,17.396 142.697333,17.4946667 142.252,17.692 C141.806667,17.8893333 141.430667,18.1626667 141.124,18.512 C140.817333,18.8613333 140.582667,19.2773333 140.42,19.76 C140.257333,20.2426667 140.176,20.7693333 140.176,21.34 C140.176,22.0173333 140.262667,22.6186667 140.436,23.144 C140.609333,23.6693333 140.856,24.1133333 141.176,24.476 C141.496,24.8386667 141.88,25.1146667 142.328,25.304 C142.776,25.4933333 143.272,25.588 143.816,25.588 Z M146.208,20.7 L140.96,20.7 C141.008,20.284 141.105333,19.908 141.252,19.572 C141.398667,19.236 141.590667,18.948 141.828,18.708 C142.065333,18.468 142.346667,18.284 142.672,18.156 C142.997333,18.028 143.365333,17.964 143.776,17.964 C144.138667,17.964 144.469333,18.0266667 144.768,18.152 C145.066667,18.2773333 145.322667,18.4573333 145.536,18.692 C145.749333,18.9266667 145.914667,19.2133333 146.032,19.552 C146.149333,19.8906667 146.208,20.2733333 146.208,20.7 L146.208,20.7 Z M151.448,25.588 C152.034667,25.588 152.564,25.4466667 153.036,25.164 C153.508,24.8813333 153.92,24.5 154.272,24.02 L154.272,24.02 L154.352,25.276 C154.373333,25.4146667 154.450667,25.484 154.584,25.484 L154.584,25.484 L155.008,25.484 L155.008,13.844 L154.24,13.844 L154.24,18.564 C153.952,18.18 153.610667,17.888 153.216,17.688 C152.821333,17.488 152.354667,17.388 151.816,17.388 C151.256,17.388 150.761333,17.4946667 150.332,17.708 C149.902667,17.9213333 149.54,18.2133333 149.244,18.584 C148.948,18.9546667 148.724,19.392 148.572,19.896 C148.42,20.4 148.344,20.9426667 148.344,21.524 C148.344,22.8786667 148.617333,23.8946667 149.164,24.572 C149.710667,25.2493333 150.472,25.588 151.448,25.588 Z M151.664,24.972 C150.848,24.972 150.221333,24.6933333 149.784,24.136 C149.346667,23.5786667 149.128,22.708 149.128,21.524 C149.128,21.0013333 149.188,20.5226667 149.308,20.088 C149.428,19.6533333 149.606667,19.28 149.844,18.968 C150.081333,18.656 150.376,18.4146667 150.728,18.244 C151.08,18.0733333 151.490667,17.988 151.96,17.988 C152.429333,17.988 152.849333,18.0813333 153.22,18.268 C153.590667,18.4546667 153.930667,18.7746667 154.24,19.228 L154.24,19.228 L154.24,23.428 C153.904,23.9133333 153.522667,24.292 153.096,24.564 C152.669333,24.836 152.192,24.972 151.664,24.972 Z" id="Reviewed/Published" fill="#000000" fill-rule="nonzero"></path>
            </g>
        </g>
    </g>
</svg>