<svg height="171" viewBox="0 0 443 171" width="443" xmlns="http://www.w3.org/2000/svg"><g fill="#f77160" transform="translate(.001884 .014871)"><path d="m168.360022 164.197174c0 2.862866-1.991768 4.37747-5.174189 4.37747h-5.843922v-15.268616h5.349268c3.182421 0 5.169793 1.4183 5.169793 4.154219 0 1.641552-.875494 2.832224-1.987372 3.230573 1.492546.517881 2.491433 1.926523 2.486422 3.506354zm-5.69073-4.473775c1.750988 0 2.709654-.67413 2.709654-2.114318s-.945533-2.066166-2.709654-2.066166h-2.810336v4.180484zm-2.814713 6.605603h3.283102c1.750988 0 2.68339-.875494 2.68339-2.241265 0-1.36577-.941157-2.236887-2.68339-2.236887h-3.283102z"/><path d="m181.995824 153.306028h2.731541l-5.546255 9.192688v6.093438h-2.56082v-6.110948l-5.524368-9.192688h2.810336l4.053538 6.837609z"/><path d="m157.079262 64.9073915c0-24.6582905 19.26087-44.1649025 43.669645-44.1649025 12.833765-.0673517 25.026913 5.6013785 33.246887 15.4574519.919762 1.0086424 1.442368 2.316714 1.470883 3.6814526-.031325 2.8718517-2.381098 5.1765875-5.253017 5.1522826-1.348261 0-2.819091-.8754941-4.17173-2.0880534-5.887697-7.3585277-14.717055-12.256917-25.271136-12.256917-18.385376 0-32.874802 15.0891403-32.874802 34.2274407 0 19.0113538 14.476294 34.1004941 32.874802 34.1004941 10.554081 0 19.383439-4.9071443 25.271136-12.1431028 1.352639-1.3482608 2.823469-2.0836759 4.17173-2.0836759 1.385581-.0331264 2.725618.495756 3.715089 1.4662617.98947.9705056 1.544184 2.300058 1.537928 3.6860209-.031772 1.3264047-.556092 2.5935106-1.470883 3.554506-8.170488 9.9351216-20.383867 15.6582836-33.246887 15.5802216-24.408775-.00956-43.669645-19.51119-43.669645-44.1694805z"/><path d="m243.687513 76.5602176c0-18.1577471 13.986018-32.5070949 32.393281-32.5070949s32.266334 14.3493478 32.266334 32.5070949c0 18.157747-13.863449 32.5070944-32.266334 32.5070944s-32.393281-14.3493474-32.393281-32.5070944zm54.71838 0c0-13.0054645-9.69172-23.4325988-22.325099-23.4325988-12.63338 0-22.447668 10.4271343-22.447668 23.4325988 0 12.8785178 9.814288 23.4325988 22.447668 23.4325988 12.633379 0 22.320721-10.554081 22.320721-23.4325988z"/><path d="m319.496545 70.5499508c0-15.8245554 10.068182-26.4969044 25.271136-26.4969044 1.204237-.0069122 2.361613.4662768 3.216022 1.3149347s1.335403 2.0028122 1.336547 3.2070685c-.028386 2.5024623-2.050106 4.5241831-4.552569 4.5525692-9.074496 0-15.456848 6.0146442-15.456848 17.422332v33.2425102c.022229 1.319451-.483686 2.593086-1.405232 3.537649-.921545.944564-2.182313 1.481741-3.501912 1.492209-1.326006.010082-2.598896-.520616-3.524915-1.469766-.92602-.949149-1.425159-2.234742-1.382229-3.560092z"/><path d="m406.595073 99.2530239c-5.931843 6.3426811-14.254144 9.9034831-22.937945 9.8142881-18.035178 0-31.776057-14.3493474-31.776057-32.5070944 0-18.1577471 13.740879-32.5073146 31.776057-32.5073146 8.671479-.0321703 16.971493 3.5175112 22.937945 9.8101308v-4.662006c.009604-2.7061524 2.200991-4.8975393 4.907144-4.9071442 1.306483-.01663 2.56432.4950293 3.488217 1.4189269.923898.9238976 1.435557 2.1817346 1.418927 3.4882173v54.5914332c.042931 1.32535-.456209 2.610943-1.382229 3.560092-.926019.94915-2.198909 1.479848-3.524915 1.469621-1.319226-.011497-2.579304-.549043-3.500596-1.493348-.921293-.944304-1.427595-2.217257-1.406548-3.536365zm0-21.712253v-1.9611067c-.490277-12.7603261-10.181996-22.4520454-22.325099-22.4520454-12.515188 0-22.452046 10.181996-22.452046 23.4325988 0 13.2506027 9.936858 23.4325988 22.452046 23.4325988 12.143103 0 21.834822-9.6917194 22.325099-22.4520455z"/><path d="m432.846762 25.8953757c-.015417-1.3037988.49571-2.5587011 1.417699-3.4806905.92199-.9219894 2.176892-1.433116 3.480691-1.4180378 2.707146.0075548 4.899928 2.2003368 4.907144 4.9074832v77.9189724c.013998 1.314181-.495567 2.579908-1.416222 3.51781s-2.176708 1.470868-3.490922 1.481406c-1.326007.010082-2.598896-.520616-3.524916-1.469766-.92602-.949149-1.425159-2.234742-1.382229-3.560092z"/><path d="m122.501624 84.6716701c-2.137189-.9012105-4.600584.0974631-5.506858 2.2325099-8.241222 19.535513-26.7311161 32.808271-47.876393 34.36752v-10.125089c.2289525-.54774.4876074-1.082586.7748123-1.602154 2.6264822-4.718913 7.5248715-7.40668 13.1980731-10.5059292 6.4567687-3.5457509 13.7758992-7.5642687 18.2452966-15.5225098 1.102785-2.019935.375727-4.5511389-1.6309166-5.6779281-2.0066436-1.1267891-4.5463359-.429961-5.696969 1.5631059-3.2918577 5.8614328-8.9606818 8.9781917-14.9621936 12.256917-3.4012945 1.8648024-6.8638736 3.7733795-9.9281028 6.2247629v-6.0452866c0-8.6411265 5.7213538-13.5701581 12.9616897-19.7992984 8.8249803-7.5992885 18.8231223-16.1966403 18.8231223-33.4745158 0-2.3209057-1.8814656-4.2023716-4.2023713-4.2023716s-4.2023715 1.8814659-4.2023715 4.2023716c0 8.5535771-3.1430237 14.3537253-7.5423815 19.2608695-4.2986758-5.9314723-7.2841106-13.6051778-7.2841106-19.2608695 0-2.3209057-1.8814659-4.2023716-4.2023716-4.2023716s-4.2023715 1.8814659-4.2023715 4.2023716c0 7.8094071 3.8259091 17.636828 9.5866601 25.1485672l-2.2500198 1.9611067c-4.2680336 3.6726976-8.6104842 7.4198123-11.6747134 12.0993281-3.0642293-4.6795158-7.4110573-8.4266305-11.6790909-12.0993281l-2.2631522-1.9611067c5.760751-7.5117392 9.5866601-17.3347826 9.5866601-25.1485672 0-2.3209057-1.8814659-4.2023716-4.2023716-4.2023716s-4.2023715 1.8814659-4.2023715 4.2023716c0 5.6644466-2.9854348 13.3337747-7.2797332 19.2608695-4.4037352-4.9115217-7.5467589-10.7116699-7.5467589-19.2608695 0-2.3209057-1.8814658-4.2023716-4.2023716-4.2023716-2.3209057 0-4.2023715 1.8814659-4.2023715 4.2023716 0 17.2603656 10.0025198 25.8752273 18.8231225 33.4745158 7.2359585 6.2335178 12.9573123 11.1581719 12.9573123 19.7992984v6.049664c-3.0642293-2.4557608-6.5311858-4.3774703-9.9368577-6.2291403-6.0015119-3.2962351-11.670336-6.412994-14.9621937-12.256917-.7350422-1.3082187-2.1121755-2.1249222-3.6126472-2.1424664-1.5004717-.0175441-2.8963245.7667365-3.661754 2.0574111-.7654295 1.2906745-.7841489 2.8916588-.0491067 4.1998775 4.4650198 7.9582411 11.7753953 11.959249 18.240919 15.505 5.6907114 3.116759 10.5759683 5.804526 13.1980731 10.505929.2909979.524952.5525905 1.065674.7835672 1.619664v10.107579c-22.0406416-1.628673-41.1081836-15.958845-48.8020849-36.6771057-7.69390132-20.718261-2.60145404-44.0204488 13.0337746-59.6403746 13.3017054-13.288383 32.3378877-19.09693456 50.7923418-15.49837745 18.454454 3.59855715 33.9136961 16.13360155 41.2483501 33.44600585.580214 1.3871966 1.856415 2.3594786 3.347869 2.5505967 1.491455.1911182 2.971576-.427963 3.882816-1.6240415.911241-1.1960785 1.115161-2.7874416.534947-4.1746382-10.168877-24.0261246-33.726468-39.6362551-59.8159435-39.6362551-26.0894754 0-49.6470664 15.6101305-59.81594363 39.6362551-12.08535967 28.606763-2.21812012 61.7661979 23.54118823 79.1115389 25.7593083 17.34534 60.1953306 14.01804 82.1572109-7.938248 5.939356-5.914334 10.671713-12.9273813 13.933488-20.648528.892202-2.1383794-.116805-4.5952619-2.254397-5.4893479z"/><path d="m231.675735 149.094901c-5.773253 0-10.4534 4.680147-10.4534 10.4534s4.680147 10.453399 10.4534 10.453399 10.453399-4.680146 10.453399-10.453399-4.680146-10.4534-10.453399-10.4534m0 15.631947c-2.735919 0-4.924654-2.337569-4.924654-5.178547 0-2.840979 2.188735-5.178548 4.929031-5.178548 2.777258.114217 4.969953 2.398942 4.969953 5.178548s-2.192695 5.06433-4.969953 5.178547"/><path d="m200.066021 149.506384 10.580346 20.394634 10.580346-20.394634h-6.167856l-4.351205 8.509802-4.351206-8.509802z"/><path d="m330.116288 149.510761h5.60754v20.110099h-5.60754z"/><path d="m306.114618 154.544852v-5.038468h-15.417451v20.110098h15.417451v-5.034091h-9.55164v-2.595839h8.846867v-4.84586h-8.846867v-2.59584z"/><path d="m317.386604 149.506384h-8.448518v20.110098h8.448518c3.714939.189928 7.231921-1.683932 9.146395-4.873232 1.914474-3.189299 1.914474-7.174335 0-10.363634-1.914474-3.1893-5.431456-5.06316-9.146395-4.873232m-.437747 15.014723h-2.328814v-9.91497h2.306927c1.806266-.05368 3.498779.879295 4.417764 2.435233.918986 1.555939.918986 3.488565 0 5.044503-.918985 1.555938-2.611498 2.488914-4.417764 2.435234"/><path d="m281.76275 158.405781v11.210701h5.668825v-20.110098h-7.021463l-4.351205 8.387233-4.351206-8.387233h-7.02584v20.110098h5.546255v-11.210701l5.769506 11.118775z"/><path d="m251.869005 164.324121 3.536996 5.292361h6.640623l-6.859496-10.050672 6.798211-10.059426h-6.518053l-3.536996 5.296739h.061285l-3.536996-5.296739h-6.579338l6.793834 10.059426-6.855119 10.050672h6.513676z"/><path d="m345.533739 162.63004 2.503913-7.183429 2.50829 7.183429zm5.86581-13.132411h-6.59247l-7.249091 20.110098h5.633804l.875494-2.587085h7.971374l.875494 2.587085h5.730108z"/><path d="m168.360022 164.197174c0 2.862866-1.991768 4.37747-5.174189 4.37747h-5.843922v-15.268616h5.349268c3.182421 0 5.169793 1.4183 5.169793 4.154219 0 1.641552-.875494 2.832224-1.987372 3.230573 1.492546.517881 2.491433 1.926523 2.486422 3.506354zm-5.69073-4.473775c1.750988 0 2.709654-.67413 2.709654-2.114318s-.945533-2.066166-2.709654-2.066166h-2.810336v4.180484zm-2.814713 6.605603h3.283102c1.750988 0 2.68339-.875494 2.68339-2.241265 0-1.36577-.941157-2.236887-2.68339-2.236887h-3.283102z"/><path d="m181.995824 153.306028h2.731541l-5.546255 9.192688v6.093438h-2.56082v-6.110948l-5.524368-9.192688h2.810336l4.053538 6.837609z"/><path d="m231.675735 149.094901c-5.773253 0-10.4534 4.680147-10.4534 10.4534s4.680147 10.453399 10.4534 10.453399 10.453399-4.680146 10.453399-10.453399-4.680146-10.4534-10.453399-10.4534m0 15.631947c-2.735919 0-4.924654-2.337569-4.924654-5.178547 0-2.840979 2.188735-5.178548 4.929031-5.178548 2.777258.114217 4.969953 2.398942 4.969953 5.178548s-2.192695 5.06433-4.969953 5.178547"/><path d="m200.066021 149.506384 10.580346 20.394634 10.580346-20.394634h-6.167856l-4.351205 8.509802-4.351206-8.509802z"/><path d="m330.116288 149.510761h5.60754v20.110099h-5.60754z"/><path d="m306.114618 154.544852v-5.038468h-15.417451v20.110098h15.417451v-5.034091h-9.55164v-2.595839h8.846867v-4.84586h-8.846867v-2.59584z"/><path d="m317.386604 149.506384h-8.448518v20.110098h8.448518c3.714939.189928 7.231921-1.683932 9.146395-4.873232 1.914474-3.189299 1.914474-7.174335 0-10.363634-1.914474-3.1893-5.431456-5.06316-9.146395-4.873232m-.437747 15.014723h-2.328814v-9.91497h2.306927c1.806266-.05368 3.498779.879295 4.417764 2.435233.918986 1.555939.918986 3.488565 0 5.044503-.918985 1.555938-2.611498 2.488914-4.417764 2.435234"/><path d="m281.76275 158.405781v11.210701h5.668825v-20.110098h-7.021463l-4.351205 8.387233-4.351206-8.387233h-7.02584v20.110098h5.546255v-11.210701l5.769506 11.118775z"/><path d="m251.869005 164.324121 3.536996 5.292361h6.640623l-6.859496-10.050672 6.798211-10.059426h-6.518053l-3.536996 5.296739h.061285l-3.536996-5.296739h-6.579338l6.793834 10.059426-6.855119 10.050672h6.513676z"/><path d="m345.533739 162.63004 2.503913-7.183429 2.50829 7.183429zm5.86581-13.132411h-6.59247l-7.249091 20.110098h5.633804l.875494-2.587085h7.971374l.875494 2.587085h5.730108z"/></g></svg>