<?xml version="1.0" encoding="UTF-8"?>
<svg width="443px" height="171px" viewBox="0 0 443 171" version="1.1" xmlns="http://www.w3.org/2000/svg" xmlns:xlink="http://www.w3.org/1999/xlink">
    <title>Group</title>
    <g id="✅-Manager" stroke="none" stroke-width="1" fill="none" fill-rule="evenodd">
        <g id="Artboard" transform="translate(0.000000, -9.000000)" fill="#F77160" fill-rule="nonzero">
            <g id="Group" transform="translate(0.001884, 9.014871)">
                <path d="M168.360022,164.197174 C168.360022,167.06004 166.368254,168.574644 163.185833,168.574644 L157.341911,168.574644 L157.341911,153.306028 L162.691179,153.306028 C165.8736,153.306028 167.860972,154.724328 167.860972,157.460247 C167.860972,159.101799 166.985478,160.292471 165.8736,160.69082 C167.366146,161.208701 168.365033,162.617343 168.360022,164.197174 Z M162.669292,159.723399 C164.42028,159.723399 165.378946,159.049269 165.378946,157.609081 C165.378946,156.168893 164.433413,155.542915 162.669292,155.542915 L159.858956,155.542915 L159.858956,159.723399 L162.669292,159.723399 Z M159.854579,166.329002 L163.137681,166.329002 C164.888669,166.329002 165.821071,165.453508 165.821071,164.087737 C165.821071,162.721967 164.879914,161.85085 163.137681,161.85085 L159.854579,161.85085 L159.854579,166.329002 Z" id="Shape"></path>
                <polygon id="Path" points="181.995824 153.306028 184.727365 153.306028 179.18111 162.498716 179.18111 168.592154 176.62029 168.592154 176.62029 162.481206 171.095922 153.288518 173.906258 153.288518 177.959796 160.126127"></polygon>
                <path d="M157.079262,64.9073915 C157.079262,40.249101 176.340132,20.742489 200.748907,20.742489 C213.582672,20.6751373 225.77582,26.3438675 233.995794,36.1999409 C234.915556,37.2085833 235.438162,38.5166549 235.466677,39.8813935 C235.435352,42.7532452 233.085579,45.057981 230.21366,45.0336761 C228.865399,45.0336761 227.394569,44.158182 226.04193,42.9456227 C220.154233,35.587095 211.324875,30.6887057 200.770794,30.6887057 C182.385418,30.6887057 167.895992,45.777846 167.895992,64.9161464 C167.895992,83.9275002 182.372286,99.0166405 200.770794,99.0166405 C211.324875,99.0166405 220.154233,94.1094962 226.04193,86.8735377 C227.394569,85.5252769 228.865399,84.7898618 230.21366,84.7898618 C231.599241,84.7567354 232.939278,85.2856178 233.928749,86.2561235 C234.918219,87.2266291 235.472933,88.5561815 235.466677,89.9421444 C235.434905,91.2685491 234.910585,92.535655 233.995794,93.4966504 C225.825306,103.431772 213.611927,109.154934 200.748907,109.076872 C176.340132,109.067312 157.079262,89.565682 157.079262,64.9073915 Z" id="Path"></path>
                <path d="M243.687513,76.5602176 C243.687513,58.4024705 257.673531,44.0531227 276.080794,44.0531227 C294.488057,44.0531227 308.347128,58.4024705 308.347128,76.5602176 C308.347128,94.7179646 294.483679,109.067312 276.080794,109.067312 C257.677909,109.067312 243.687513,94.7179646 243.687513,76.5602176 Z M298.405893,76.5602176 C298.405893,63.5547531 288.714173,53.1276188 276.080794,53.1276188 C263.447414,53.1276188 253.633126,63.5547531 253.633126,76.5602176 C253.633126,89.4387354 263.447414,99.9928164 276.080794,99.9928164 C288.714173,99.9928164 298.401515,89.4387354 298.401515,76.5602176 L298.405893,76.5602176 Z" id="Shape"></path>
                <path d="M319.496545,70.5499508 C319.496545,54.7253954 329.564727,44.0530464 344.767681,44.0530464 C345.971918,44.0461342 347.129294,44.5193232 347.983703,45.3679811 C348.838112,46.216639 349.319106,47.3707933 349.32025,48.5750496 C349.291864,51.0775119 347.270144,53.0992327 344.767681,53.1276188 C335.693185,53.1276188 329.310833,59.142263 329.310833,70.5499508 L329.310833,103.792461 C329.333062,105.111912 328.827147,106.385547 327.905601,107.33011 C326.984056,108.274674 325.723288,108.811851 324.403689,108.822319 C323.077683,108.832401 321.804793,108.301703 320.878774,107.352553 C319.952754,106.403404 319.453615,105.117811 319.496545,103.792461 L319.496545,70.5499508 Z" id="Path"></path>
                <path d="M406.595073,99.2530239 C400.66323,105.595705 392.340929,109.156507 383.657128,109.067312 C365.62195,109.067312 351.881071,94.7179646 351.881071,76.5602176 C351.881071,58.4024705 365.62195,44.052903 383.657128,44.052903 C392.328607,44.0207327 400.628621,47.5704142 406.595073,53.8630338 L406.595073,49.2010278 C406.604677,46.4948754 408.796064,44.3034885 411.502217,44.2938836 C412.8087,44.2772536 414.066537,44.7889129 414.990434,45.7128105 C415.914332,46.6367081 416.425991,47.8945451 416.409361,49.2010278 L416.409361,103.792461 C416.452292,105.117811 415.953152,106.403404 415.027132,107.352553 C414.101113,108.301703 412.828223,108.832401 411.502217,108.822174 C410.182991,108.810677 408.922913,108.273131 408.001621,107.328826 C407.080328,106.384522 406.574026,105.111569 406.595073,103.792461 L406.595073,99.2530239 Z M406.595073,77.5407709 L406.595073,75.5796642 C406.104796,62.8193381 396.413077,53.1276188 384.269974,53.1276188 C371.754786,53.1276188 361.817928,63.3096148 361.817928,76.5602176 C361.817928,89.8108203 371.754786,99.9928164 384.269974,99.9928164 C396.413077,99.9928164 406.104796,90.301097 406.595073,77.5407709 L406.595073,77.5407709 Z" id="Shape"></path>
                <path d="M432.846762,25.8953757 C432.831345,24.5915769 433.342472,23.3366746 434.264461,22.4146852 C435.186451,21.4926958 436.441353,20.9815692 437.745152,20.9966474 C440.452298,21.0042022 442.64508,23.1969842 442.652296,25.9041306 L442.652296,103.823103 C442.666294,105.137284 442.156729,106.403011 441.236074,107.340913 C440.315419,108.278815 439.059366,108.811781 437.745152,108.822319 C436.419145,108.832401 435.146256,108.301703 434.220236,107.352553 C433.294216,106.403404 432.795077,105.117811 432.838007,103.792461 L432.846762,25.8953757 Z" id="Path"></path>
                <path d="M122.501624,84.6716701 C120.364435,83.7704596 117.90104,84.7691332 116.994766,86.90418 C108.753544,106.439693 90.2636499,119.712451 69.118373,121.2717 L69.118373,111.146611 C69.3473255,110.598871 69.6059804,110.064025 69.8931853,109.544457 C72.5196675,104.825544 77.4180568,102.137777 83.0912584,99.0385278 C89.5480271,95.4927769 96.8671576,91.4742591 101.336555,83.516018 C102.43934,81.496083 101.712282,78.9648791 99.7056384,77.8380899 C97.6989948,76.7113008 95.1593025,77.4081289 94.0086694,79.4011958 C90.7168117,85.2626286 85.0479876,88.3793875 79.0464758,91.6581128 C75.6451813,93.5229152 72.1826022,95.4314923 69.118373,97.8828757 L69.118373,91.8375891 C69.118373,83.1964626 74.8397268,78.267431 82.0800627,72.0382907 C90.905043,64.4390022 100.903185,55.8416504 100.903185,38.5637749 C100.903185,36.2428692 99.0217194,34.3614033 96.7008137,34.3614033 C94.379908,34.3614033 92.4984422,36.2428692 92.4984422,38.5637749 C92.4984422,47.117352 89.3554185,52.9175002 84.9560607,57.8246444 C80.6573849,51.8931721 77.6719501,44.2194666 77.6719501,38.5637749 C77.6719501,36.2428692 75.7904842,34.3614033 73.4695785,34.3614033 C71.1486728,34.3614033 69.267207,36.2428692 69.267207,38.5637749 C69.267207,46.373182 73.0931161,56.2006029 78.8538671,63.7123421 L76.6038473,65.6734488 C72.3358137,69.3461464 67.9933631,73.0932611 64.9291339,77.7727769 C61.8649046,73.0932611 57.5180766,69.3461464 53.250043,65.6734488 L50.9868908,63.7123421 C56.7476418,56.2006029 60.5735509,46.3775595 60.5735509,38.5637749 C60.5735509,36.2428692 58.692085,34.3614033 56.3711793,34.3614033 C54.0502736,34.3614033 52.1688078,36.2428692 52.1688078,38.5637749 C52.1688078,44.2282215 49.183373,51.8975496 44.8890746,57.8246444 C40.4853394,52.9131227 37.3423157,47.1129745 37.3423157,38.5637749 C37.3423157,36.2428692 35.4608499,34.3614033 33.1399441,34.3614033 C30.8190384,34.3614033 28.9375726,36.2428692 28.9375726,38.5637749 C28.9375726,55.8241405 38.9400924,64.4390022 47.7606951,72.0382907 C54.9966536,78.2718085 60.7180074,83.1964626 60.7180074,91.8375891 L60.7180074,97.8872531 C57.6537781,95.4314923 54.1868216,93.5097828 50.7811497,91.6581128 C44.7796378,88.3618777 39.1108137,85.2451188 35.818956,79.4011958 C35.0839138,78.0929771 33.7067805,77.2762736 32.2063088,77.2587294 C30.7058371,77.2411853 29.3099843,78.0254659 28.5445548,79.3161405 C27.7791253,80.606815 27.7604059,82.2077993 28.4954481,83.516018 C32.9604679,91.4742591 40.2708434,95.475267 46.7363671,99.021018 C52.4270785,102.137777 57.3123354,104.825544 59.9344402,109.526947 C60.2254381,110.051899 60.4870307,110.592621 60.7180074,111.146611 L60.7180074,121.25419 C38.6773658,119.625517 19.6098238,105.295345 11.9159225,84.5770843 C4.22202118,63.8588233 9.31446846,40.5566355 24.9496971,24.9367097 C38.2514025,11.6483267 57.2875848,5.83977514 75.7420389,9.43833225 C94.1964929,13.0368894 109.655735,25.5719338 116.990389,42.8843381 C117.570603,44.2715347 118.846804,45.2438167 120.338258,45.4349348 C121.829713,45.626053 123.309834,45.0069718 124.221074,43.8108933 C125.132315,42.6148148 125.336235,41.0234517 124.756021,39.6362551 C114.587144,15.6101305 91.029553,-4.26325641e-14 64.9400775,-4.26325641e-14 C38.8506021,-4.26325641e-14 15.2930111,15.6101305 5.12413387,39.6362551 C-6.9612258,68.2430181 2.90601375,101.402453 28.6653221,118.747794 C54.4246304,136.093134 88.8606527,132.765834 110.822533,110.809546 C116.761889,104.895212 121.494246,97.8821647 124.756021,90.161018 C125.648223,88.0226386 124.639216,85.5657561 122.501624,84.6716701 Z" id="Path"></path>
                <path d="M231.675735,149.094901 C225.902482,149.094901 221.222335,153.775048 221.222335,159.548301 C221.222335,165.321554 225.902482,170.0017 231.675735,170.0017 C237.448988,170.0017 242.129134,165.321554 242.129134,159.548301 C242.129134,153.775048 237.448988,149.094901 231.675735,149.094901 M231.675735,164.726848 C228.939816,164.726848 226.751081,162.389279 226.751081,159.548301 C226.751081,156.707322 228.939816,154.369753 231.680112,154.369753 C234.45737,154.48397 236.650065,156.768695 236.650065,159.548301 C236.650065,162.327907 234.45737,164.612631 231.680112,164.726848" id="Shape"></path>
                <polygon id="Path" points="200.066021 149.506384 210.646367 169.901018 221.226713 149.506384 215.058857 149.506384 210.707652 158.016186 206.356446 149.506384"></polygon>
                <rect id="Rectangle" x="330.116288" y="149.510761" width="5.60753953" height="20.1100988"></rect>
                <polygon id="Path" points="306.114618 154.544852 306.114618 149.506384 290.697167 149.506384 290.697167 169.616482 306.114618 169.616482 306.114618 164.582391 296.562978 164.582391 296.562978 161.986552 305.409845 161.986552 305.409845 157.140692 296.562978 157.140692 296.562978 154.544852"></polygon>
                <path d="M317.386604,149.506384 L308.938086,149.506384 L308.938086,169.616482 L317.386604,169.616482 C321.101543,169.80641 324.618525,167.93255 326.532999,164.74325 C328.447473,161.553951 328.447473,157.568915 326.532999,154.379616 C324.618525,151.190316 321.101543,149.316456 317.386604,149.506384 M316.948857,164.521107 L314.620043,164.521107 L314.620043,154.606137 L316.92697,154.606137 C318.733236,154.552457 320.425749,155.485432 321.344734,157.04137 C322.26372,158.597309 322.26372,160.529935 321.344734,162.085873 C320.425749,163.641811 318.733236,164.574787 316.92697,164.521107" id="Shape"></path>
                <polygon id="Path" points="281.76275 158.405781 281.76275 169.616482 287.431575 169.616482 287.431575 149.506384 280.410112 149.506384 276.058907 157.893617 271.707701 149.506384 264.681861 149.506384 264.681861 169.616482 270.228116 169.616482 270.228116 158.405781 275.997622 169.524556"></polygon>
                <polygon id="Path" points="251.869005 164.324121 255.406001 169.616482 262.046624 169.616482 255.187128 159.56581 261.985339 149.506384 255.467286 149.506384 251.93029 154.803123 251.991575 154.803123 248.454579 149.506384 241.875241 149.506384 248.669075 159.56581 241.813956 169.616482 248.327632 169.616482"></polygon>
                <path d="M345.533739,162.63004 L348.037652,155.446611 L350.545942,162.63004 L345.533739,162.63004 Z M351.399549,149.497629 L344.807079,149.497629 L337.557988,169.607727 L343.191792,169.607727 L344.067286,167.020642 L352.03866,167.020642 L352.914154,169.607727 L358.644262,169.607727 L351.399549,149.497629 Z" id="Shape"></path>
                <path d="M168.360022,164.197174 C168.360022,167.06004 166.368254,168.574644 163.185833,168.574644 L157.341911,168.574644 L157.341911,153.306028 L162.691179,153.306028 C165.8736,153.306028 167.860972,154.724328 167.860972,157.460247 C167.860972,159.101799 166.985478,160.292471 165.8736,160.69082 C167.366146,161.208701 168.365033,162.617343 168.360022,164.197174 Z M162.669292,159.723399 C164.42028,159.723399 165.378946,159.049269 165.378946,157.609081 C165.378946,156.168893 164.433413,155.542915 162.669292,155.542915 L159.858956,155.542915 L159.858956,159.723399 L162.669292,159.723399 Z M159.854579,166.329002 L163.137681,166.329002 C164.888669,166.329002 165.821071,165.453508 165.821071,164.087737 C165.821071,162.721967 164.879914,161.85085 163.137681,161.85085 L159.854579,161.85085 L159.854579,166.329002 Z" id="Shape"></path>
                <polygon id="Path" points="181.995824 153.306028 184.727365 153.306028 179.18111 162.498716 179.18111 168.592154 176.62029 168.592154 176.62029 162.481206 171.095922 153.288518 173.906258 153.288518 177.959796 160.126127"></polygon>
                <path d="M231.675735,149.094901 C225.902482,149.094901 221.222335,153.775048 221.222335,159.548301 C221.222335,165.321554 225.902482,170.0017 231.675735,170.0017 C237.448988,170.0017 242.129134,165.321554 242.129134,159.548301 C242.129134,153.775048 237.448988,149.094901 231.675735,149.094901 M231.675735,164.726848 C228.939816,164.726848 226.751081,162.389279 226.751081,159.548301 C226.751081,156.707322 228.939816,154.369753 231.680112,154.369753 C234.45737,154.48397 236.650065,156.768695 236.650065,159.548301 C236.650065,162.327907 234.45737,164.612631 231.680112,164.726848" id="Shape"></path>
                <polygon id="Path" points="200.066021 149.506384 210.646367 169.901018 221.226713 149.506384 215.058857 149.506384 210.707652 158.016186 206.356446 149.506384"></polygon>
                <rect id="Rectangle" x="330.116288" y="149.510761" width="5.60753953" height="20.1100988"></rect>
                <polygon id="Path" points="306.114618 154.544852 306.114618 149.506384 290.697167 149.506384 290.697167 169.616482 306.114618 169.616482 306.114618 164.582391 296.562978 164.582391 296.562978 161.986552 305.409845 161.986552 305.409845 157.140692 296.562978 157.140692 296.562978 154.544852"></polygon>
                <path d="M317.386604,149.506384 L308.938086,149.506384 L308.938086,169.616482 L317.386604,169.616482 C321.101543,169.80641 324.618525,167.93255 326.532999,164.74325 C328.447473,161.553951 328.447473,157.568915 326.532999,154.379616 C324.618525,151.190316 321.101543,149.316456 317.386604,149.506384 M316.948857,164.521107 L314.620043,164.521107 L314.620043,154.606137 L316.92697,154.606137 C318.733236,154.552457 320.425749,155.485432 321.344734,157.04137 C322.26372,158.597309 322.26372,160.529935 321.344734,162.085873 C320.425749,163.641811 318.733236,164.574787 316.92697,164.521107" id="Shape"></path>
                <polygon id="Path" points="281.76275 158.405781 281.76275 169.616482 287.431575 169.616482 287.431575 149.506384 280.410112 149.506384 276.058907 157.893617 271.707701 149.506384 264.681861 149.506384 264.681861 169.616482 270.228116 169.616482 270.228116 158.405781 275.997622 169.524556"></polygon>
                <polygon id="Path" points="251.869005 164.324121 255.406001 169.616482 262.046624 169.616482 255.187128 159.56581 261.985339 149.506384 255.467286 149.506384 251.93029 154.803123 251.991575 154.803123 248.454579 149.506384 241.875241 149.506384 248.669075 159.56581 241.813956 169.616482 248.327632 169.616482"></polygon>
                <path d="M345.533739,162.63004 L348.037652,155.446611 L350.545942,162.63004 L345.533739,162.63004 Z M351.399549,149.497629 L344.807079,149.497629 L337.557988,169.607727 L343.191792,169.607727 L344.067286,167.020642 L352.03866,167.020642 L352.914154,169.607727 L358.644262,169.607727 L351.399549,149.497629 Z" id="Shape"></path>
            </g>
        </g>
    </g>
</svg>