<svg height="266" viewBox="0 0 758 266" width="758" xmlns="http://www.w3.org/2000/svg"><g fill="none"><path d="m0 133v-133h379 379v133 133h-379-379z" fill="#e81b25"/><g fill="#fffefe" transform="translate(100.3 44)"><path d="m463.1 199c-5.933333-.666667-10.566667-1.7-13.9-3.1l2.9-24.1 2.5.7c1.4.4 6.3.9 10.8 1.2 11.1.7 13.9-1 18.8-11.1 1.9-4 3.5-5.103094 3.5-9.4s-4.5-13-11-27.7c-2.533333-5.733333-12.533333-29.1-30-70.1l31.7-.1c2.266667 4.8666667 4.333333 9.7666667 6.2 14.7 11.8 30.6 18.5 47 19.1 47 .4 0 5.3-14.1 11.1-31.2l10.4-31.3h30.8l-9.4 25c-13.4 34-28.5 72.6-33.1 84.5-7.8 20-12.4 27.2-19.9 31.1-6.9 3.5-19.2 5.1-30.5 3.9z"/><path d="m63.2 154.1c-8.4-1.4-16.5-4-25.5-8.3-6.9-3.3-10-5.6-17-12.7-12.2-12.3-18.1-25.2-20.1-43.8-1.7-16.9.8-31.9 7.9-46.3 5-10.1 17.7-23.1 27.7-28.2 14.3-7.4 27.8-10.3 44-9.5 16.8.8 29.3 5.7 39.7 15.5 2.6 2.4 3.8 4.3666667 3.6 5.9l-22.6 19.3-3.3-3.2c-1.9-1.7-5.9-4.3-8.9-5.7-7.6-3.5-20.6-3.5-29.5-.1-7.6 2.9-18 13-21.7 21-8.6 18.5-5 42.7 8.4 56.1 8.9 8.9 18.9345146 10.9 31.5 10.9 11.5333333 0 20.3666667-4.466667 26.5-13.4l23.8 19c-1.933333 2.6-4.1 5-6.5 7.2-6.9 6.5-17.3 12.3-26.5 14.7-6.6 1.8-24.6 2.7-31.5 1.6z"/><path d="m395.2 153.3c-11.2-1.5-22.8-7.1-30.4-14.6-10.8-10.7-14.6-21.5-13.9-39.2.4-10.1.8-11.7 4.1-18.8 4.7-10.2 12.7-18.2 22.9-23.1 10-4.7 16.5-5.9 29-5.5 9.7.4 11 .7 18.1 4.2 11.866667 5.8666667 20.46248 24.4333333 25.787439 55.7h-69.800333c1.615664 6.755844 3.45683 11.167099 5.523497 13.233766 4.4 4.4 9.189397 5.166234 16.289397 5.266234 7.4 0 12.680364-.785338 17.897454-5.266234 1.691202-1.452554 3.225384-3.197142 4.602546-5.233766l19.4 14.9c-7.2 7.066667-12.966667 11.6-17.3 13.6-10.9 5-20.3 6.4-32.2 4.8zm25.209023-62c-1.311202-5.9865098-3.166803-10.0797647-5.566803-12.2797647-4.7-4.2-8.34222-5.4202353-16.04222-4.8202353-7.4.5-13.416366 4.3573072-16.716366 10.4573072-.988524 1.899007-1.59807 4.1132379-1.828637 6.6426928 4.663621.0813057 11.345288.0813057 20.045003 0 8.066667-.0666667 14.769674-.0666667 20.109023 0z"/><path d="m136.7 103v-49h15 15v7.2 7.1l5.5-6.1c7-7.7 13-10.2 24.4-10.2 6.3 0 8 .3 8.5 1.6.3.9.6 7.2.6 14.1v12.5l-5.2-.9c-15.8-2.5-27 1.8-31.4 12-1.6 3.7-1.9 7.7-2.2 32.5l-.3 28.2h-15-14.9z"/><path d="m259.7 76v-76h30v45.5c0 25 .3 45.5.8 45.4.266667 0 11.033333-12.3 32.3-36.9h18.6 18.7l-2.5 2.8c-1.4 1.5-33.1 37.7-34.2 38.9l-1.9 2.2 38.6 54.1h-38.6l-31-49.021298v48.821298h-16l-14.8.2z"/><path d="m217.123089 52.9h23.696292l8.980619 97.7h-40.006167z"/><path d="m220.5 40c-10.5-5.6-11.9-22.7-2.6-30.5 3.8-3.2 10.1-4.8 15.5-4 3.3.5 5.5 1.7 8.8 4.8 9.2 8.9 8.1 22.4-2.4 29.4-4.5 3-13.9 3.1-19.3.3z"/></g></g></svg>