<svg height="20" viewBox="0 0 29 20" width="29" xmlns="http://www.w3.org/2000/svg" xmlns:xlink="http://www.w3.org/1999/xlink"><linearGradient id="a" x1="0%" x2="83.153209%" y1="75.487875%" y2="38.256793%"><stop offset="0" stop-color="#fff" stop-opacity=".2"/><stop offset="1" stop-color="#fff"/></linearGradient><g fill="none" fill-rule="evenodd"><path d="m19 10c-.0061024-3.74014205-2.5997333-6.9782061-6.2483-7.8008.6851977-.55024174 1.4400977-1.00753274 2.2451-1.36 3.6456138 1.5869588 6.0032327 5.18455447 6.0032327 9.1606 0 3.9760455-2.3576189 7.5736412-6.0032327 9.1606-.8050023-.3524673-1.5599023-.8097583-2.2451-1.36 3.648421-.8225607 6.242011-4.0604077 6.2483-7.8004z"/><path d="m3.09352041 3.85955183c2.80951042-3.61143262 7.71178759-4.85534206 11.90327959-3.02035183-.8050023.35246726-1.5599023.80975826-2.2451 1.36-2.99837936-.681862-6.12221482.41515966-8.03590005 2.8220297-1.91368524 2.40687005-2.27849727 5.6975716-.93845948 8.4651542 1.34003778 2.7675825 4.1477382 4.522183 7.22265953 4.5136161.5894835-.0015701 1.1769746-.0685127 1.7517-.1996.6851977.5502417 1.4400977 1.0075327 2.2451 1.36-4.191492 1.8349902-9.09376917.5910808-11.90327959-3.0203518-2.80951042-3.6114327-2.80951042-8.66906374 0-12.28049637zm15.90647959-3.85955237c4.0678401-.00059945 7.730562 2.463249 9.2633169 6.2312705 1.5327549 3.76802149.6299732 8.08902444-2.2832071 10.92816224-2.9131804 2.8391379-7.2559887 3.630401-10.9833098 2.0011678 3.6456138-1.5869588 6.0032327-5.1845545 6.0032327-9.16060054 0-3.97604499-2.3576189-7.57364066-6.0032327-9.16059946 1.2618698-.55401368 2.6250685-.83985227 4.0032-.83940054zm-6.2483 2.19920054c3.6519487.81715526 6.2482032 4.05854507 6.2482032 7.8008 0 3.7422549-2.5962545 6.9836447-6.2482032 7.8008-2.3723138-1.8940117-3.75315451-4.7651533-3.75170115-7.8008-.00145336-3.03564673 1.37938735-5.90678832 3.75170115-7.8008z" fill="url(#a)" fill-rule="nonzero"/></g></svg>