<?xml version="1.0" encoding="UTF-8"?>
<svg width="29px" height="20px" viewBox="0 0 29 20" version="1.1" xmlns="http://www.w3.org/2000/svg" xmlns:xlink="http://www.w3.org/1999/xlink">
    <title>design</title>
    <defs>
        <linearGradient x1="0%" y1="75.4878754%" x2="83.1532092%" y2="38.2567925%" id="linearGradient-1">
            <stop stop-color="#FFFFFF" stop-opacity="0.2" offset="0%"></stop>
            <stop stop-color="#FFFFFF" offset="100%"></stop>
        </linearGradient>
    </defs>
    <g id="✅-Builder/Article-Layout" stroke="none" stroke-width="1" fill="none" fill-rule="evenodd">
        <g id="Artboard" transform="translate(-134.000000, -37.000000)">
            <g id="design" transform="translate(134.000000, 37.000000)">
                <path d="M19,10 C18.9938976,6.25985795 16.4002667,3.0217939 12.7517,2.1992 C13.4368977,1.64895826 14.1917977,1.19166726 14.9968,0.8392 C18.6424138,2.4261588 21.0000327,6.02375447 21.0000327,9.9998 C21.0000327,13.9758455 18.6424138,17.5734412 14.9968,19.1604 C14.1917977,18.8079327 13.4368977,18.3506417 12.7517,17.8004 C16.400121,16.9778393 18.993711,13.7399923 19,10 Z" id="inner-path"></path>
                <path d="M3.09352041,3.85955183 C5.90303083,0.248119205 10.805308,-0.995790234 14.9968,0.8392 C14.1917977,1.19166726 13.4368977,1.64895826 12.7517,2.1992 C9.75332064,1.517338 6.62948518,2.61435966 4.71579995,5.0212297 C2.80211471,7.42809975 2.43730268,10.7188013 3.77734047,13.4863839 C5.11737825,16.2539664 7.92507867,18.0085669 11,18 C11.5894835,17.9984299 12.1769746,17.9314873 12.7517,17.8004 C13.4368977,18.3506417 14.1917977,18.8079327 14.9968,19.1604 C10.805308,20.9953902 5.90303083,19.7514808 3.09352041,16.1400482 C0.284009993,12.5286155 0.284009993,7.47098446 3.09352041,3.85955183 Z M19,-5.35856692e-07 C23.0678401,-0.000599994693 26.730562,2.46324846 28.2633169,6.23126996 C29.7960718,9.99929145 28.8932901,14.3202944 25.9801098,17.1594322 C23.0669294,19.9985701 18.7241211,20.7898332 14.9968,19.1606 C18.6424138,17.5736412 21.0000327,13.9760455 21.0000327,9.99999946 C21.0000327,6.02395447 18.6424138,2.4263588 14.9968,0.8394 C16.2586698,0.285386322 17.6218685,-0.000452266088 19,-5.35856692e-07 Z M12.7517,2.1992 C16.4036487,3.01635526 18.9999032,6.25774507 18.9999032,10 C18.9999032,13.7422549 16.4036487,16.9836447 12.7517,17.8008 C10.3793862,15.9067883 8.99854549,13.0356467 8.99999885,10 C8.99854549,6.96435327 10.3793862,4.09321168 12.7517,2.1992 Z" id="Combined-Shape" fill="url(#linearGradient-1)" fill-rule="nonzero"></path>
            </g>
        </g>
    </g>
</svg>