<svg height="31" viewBox="0 0 31 31" width="31" xmlns="http://www.w3.org/2000/svg" xmlns:xlink="http://www.w3.org/1999/xlink"><linearGradient id="a"><stop offset="0" stop-color="#fff"/><stop offset="1" stop-color="#fff" stop-opacity="0"/></linearGradient><linearGradient id="b" x1="150.947885%" x2="-34.811445%" xlink:href="#a" y1=".12647%" y2="121.097009%"/><linearGradient id="c" x1="100%" x2="50%" xlink:href="#a" y1="-50.376069%" y2="400.652444%"/><linearGradient id="d" x1="89.939273%" x2="-24.315753%" xlink:href="#a" y1="14.805941%" y2="115.419942%"/><g fill="none" transform="translate(.500152 .5)"><path d="m17.657 10.684-2.099-2.096-5.803 5.795v2.097h2.096z" fill="url(#b)"/><path d="m16.9122071 6.71750001h2.967v2.263h-2.967z" fill="url(#c)" transform="matrix(.70709444 .70711912 -.70711912 .70709444 10.938383 -10.70894)"/><path d="m27 0h-24c-1.655 0-3 1.345-3 3v27l8-6h19c1.654 0 3-1.346 3-3v-18c0-1.655-1.346-3-3-3zm.832 21.806h-20.736l-4.928 3.784v-23.033h25.664z" fill="url(#d)"/></g></svg>