<svg height="32" viewBox="0 0 32 32" width="32" xmlns="http://www.w3.org/2000/svg"><path d="m26 14h-2v2h2a3.0033 3.0033 0 0 1 3 3v4h2v-4a5.0058 5.0058 0 0 0 -5-5z"/><path d="m24 4a3 3 0 1 1 -3 3 3 3 0 0 1 3-3m0-2a5 5 0 1 0 5 5 5 5 0 0 0 -5-5z"/><path d="m23 30h-2v-2a3.0033 3.0033 0 0 0 -3-3h-4a3.0033 3.0033 0 0 0 -3 3v2h-2v-2a5.0059 5.0059 0 0 1 5-5h4a5.0059 5.0059 0 0 1 5 5z"/><path d="m16 13a3 3 0 1 1 -3 3 3 3 0 0 1 3-3m0-2a5 5 0 1 0 5 5 5 5 0 0 0 -5-5z"/><path d="m8 14h-2a5.0059 5.0059 0 0 0 -5 5v4h2v-4a3.0033 3.0033 0 0 1 3-3h2z"/><path d="m8 4a3 3 0 1 1 -3 3 3 3 0 0 1 3-3m0-2a5 5 0 1 0 5 5 5 5 0 0 0 -5-5z"/><path d="m0 0h32v32h-32z" fill="none"/></svg>