<?xml version="1.0" encoding="UTF-8"?>
<svg width="128px" height="68px" viewBox="0 0 128 68" version="1.1" xmlns="http://www.w3.org/2000/svg" xmlns:xlink="http://www.w3.org/1999/xlink">
    <title>Group</title>
    <g id="Page-1" stroke="none" stroke-width="1" fill="none" fill-rule="evenodd">
        <g id="Artboard" transform="translate(-1239.000000, -981.000000)" fill="#000000" fill-rule="nonzero">
            <g id="Group" transform="translate(1239.899856, 981.636398)">
                <path d="M5.4,18.8538983 C6.04038462,18.8538983 6.47307692,18.7327445 6.76730769,18.6202445 L6.43846154,17.2269753 C6.22211538,17.2875522 5.94519231,17.3481291 5.53846154,17.3481291 C4.49134615,17.3481291 3.53076923,16.8548599 3.53076923,15.1846676 L3.53076923,6.70389835 L6.34326923,6.70389835 L6.34326923,5.36255219 L3.53076923,5.36255219 L3.53076923,2.17793681 L1.98173077,2.17793681 L1.98173077,5.36255219 L2.94875235e-13,5.36255219 L2.94875235e-13,6.70389835 L1.98173077,6.70389835 L1.98173077,15.5481291 C1.98173077,17.7202445 3.69519231,18.8538983 5.4,18.8538983 Z M11.379816,18.6548599 L11.379816,10.3471676 C11.379816,8.02793681 12.9375083,6.60005219 15.0663545,6.60005219 C17.1259699,6.60005219 18.4413545,7.95005219 18.4413545,10.1394753 L18.4413545,18.6548599 L19.9903929,18.6548599 L19.9903929,10.044283 C19.9903929,6.87697527 18.1557776,5.18947527 15.4557776,5.18947527 C13.4480853,5.18947527 12.1413545,6.07216758 11.5182776,7.44812911 L11.379816,7.44812911 L11.379816,0.931782961 L9.8394314,0.931782961 L9.8394314,18.6548599 L11.379816,18.6548599 Z M29.4317527,18.931783 C32.0971373,18.931783 33.8884834,17.4865907 34.4942527,15.8163983 L33.0317527,15.3404368 C32.5211757,16.5346676 31.3182911,17.521206 29.4317527,17.521206 C26.714445,17.521206 24.9923296,15.5394753 24.9230988,12.4673599 L34.8230988,12.4673599 L34.8230988,11.7058214 C34.8230988,7.26639835 32.0798296,5.18082142 29.1980988,5.18082142 C25.753868,5.18082142 23.3740603,8.06255219 23.3740603,12.0865907 C23.3740603,16.119283 25.7105988,18.931783 29.4317527,18.931783 Z M33.2480988,11.108706 L24.9317527,11.108706 C25.0961757,8.63370604 26.766368,6.5827445 29.1980988,6.5827445 C31.5779065,6.5827445 33.2480988,8.54716758 33.2480988,11.108706 Z" id="the"></path>
                <path d="M10.1001439,66.381783 C10.4334772,66.381783 10.7418105,66.331783 11.0251439,66.231783 C11.3084772,66.131783 11.5168105,66.0151163 11.6501439,65.881783 L11.6501439,65.881783 L18.1501439,60.481783 C18.3834772,60.281783 18.5584772,60.031783 18.6751439,59.731783 C18.7918105,59.431783 18.8501439,59.0651163 18.8501439,58.631783 L18.8501439,58.631783 L18.8501439,54.031783 L19.5001439,54.031783 C19.9668105,54.031783 20.3751439,53.9734496 20.7251439,53.856783 C21.0751439,53.7401163 21.3834772,53.5651163 21.6501439,53.331783 L21.6501439,53.331783 L24.6001439,50.881783 L24.6001439,64.081783 C24.6001439,64.881783 24.7751439,65.4651163 25.1251439,65.831783 C25.4751439,66.1984496 26.0668105,66.381783 26.9001439,66.381783 L26.9001439,66.381783 L34.6001439,66.381783 C34.9334772,66.381783 35.2418105,66.331783 35.5251439,66.231783 C35.8084772,66.131783 36.0168105,66.0151163 36.1501439,65.881783 L36.1501439,65.881783 L42.6501439,60.481783 C42.8834772,60.281783 43.0584772,60.031783 43.1751439,59.731783 C43.2918105,59.431783 43.3501439,59.0651163 43.3501439,58.631783 L43.3501439,58.631783 L43.3501439,26.231783 C43.3501439,25.431783 43.1668105,24.8484496 42.8001439,24.481783 C42.4334772,24.1151163 41.8501439,23.931783 41.0501439,23.931783 L41.0501439,23.931783 L32.9501439,23.931783 C32.5501439,23.931783 32.2084772,23.981783 31.9251439,24.081783 C31.6418105,24.181783 31.3668105,24.331783 31.1001439,24.531783 L31.1001439,24.531783 L24.6501439,29.931783 C24.4834772,30.0651163 24.3251439,30.2401163 24.1751439,30.456783 C24.0251439,30.6734496 23.8834772,30.8984496 23.7501439,31.131783 L23.7501439,31.131783 L23.3001439,31.931783 L19.9001439,25.681783 C19.5334772,25.0484496 19.1418105,24.5984496 18.7251439,24.331783 C18.3084772,24.0651163 17.7834772,23.931783 17.1501439,23.931783 L17.1501439,23.931783 L9.10014386,23.931783 C8.76681052,23.931783 8.45847719,23.9734496 8.17514386,24.056783 C7.89181052,24.1401163 7.66681052,24.2484496 7.50014386,24.381783 L7.50014386,24.381783 L1.05014386,29.831783 C0.816810524,30.031783 0.641810524,30.281783 0.525143857,30.581783 C0.408477191,30.881783 0.350143857,31.2484496 0.350143857,31.681783 L0.350143857,31.681783 L0.350143857,64.081783 C0.350143857,64.881783 0.533477191,65.4651163 0.900143857,65.831783 C1.26681052,66.1984496 1.85014386,66.381783 2.65014386,66.381783 L2.65014386,66.381783 L10.1001439,66.381783 Z M16.5501439,60.431783 L9.10014386,60.431783 C8.46681052,60.431783 8.00847719,60.2901163 7.72514386,60.006783 C7.44181052,59.7234496 7.30014386,59.2651163 7.30014386,58.631783 L7.30014386,58.631783 L7.30014386,26.231783 C7.30014386,25.5984496 7.44181052,25.1401163 7.72514386,24.856783 C8.00847719,24.5734496 8.46681052,24.431783 9.10014386,24.431783 L9.10014386,24.431783 L17.1501439,24.431783 C17.6834772,24.431783 18.1251439,24.5484496 18.4751439,24.781783 C18.8251439,25.0151163 19.1501439,25.3984496 19.4501439,25.931783 L19.4501439,25.931783 L23.9501439,34.081783 C24.1168105,34.381783 24.2584772,34.5984496 24.3751439,34.731783 C24.4918105,34.8651163 24.6501439,34.931783 24.8501439,34.931783 L24.8501439,34.931783 L25.3001439,34.931783 C25.5001439,34.931783 25.6584772,34.8651163 25.7751439,34.731783 C25.8918105,34.5984496 26.0334772,34.381783 26.2001439,34.081783 L26.2001439,34.081783 L30.6501439,25.931783 C30.9501439,25.3984496 31.2751439,25.0151163 31.6251439,24.781783 C31.9751439,24.5484496 32.4168105,24.431783 32.9501439,24.431783 L32.9501439,24.431783 L41.0501439,24.431783 C41.6834772,24.431783 42.1418105,24.5734496 42.4251439,24.856783 C42.7084772,25.1401163 42.8501439,25.5984496 42.8501439,26.231783 L42.8501439,26.231783 L42.8501439,58.631783 C42.8501439,59.2651163 42.7084772,59.7234496 42.4251439,60.006783 C42.1418105,60.2901163 41.6834772,60.431783 41.0501439,60.431783 L41.0501439,60.431783 L33.3501439,60.431783 C32.7168105,60.431783 32.2584772,60.2901163 31.9751439,60.006783 C31.6918105,59.7234496 31.5501439,59.2651163 31.5501439,58.631783 L31.5501439,58.631783 L31.5501439,41.031783 L28.6001439,46.481783 C28.3001439,47.0484496 27.9418105,47.456783 27.5251439,47.706783 C27.1084772,47.956783 26.5834772,48.081783 25.9501439,48.081783 L25.9501439,48.081783 L23.9501439,48.081783 C23.3168105,48.081783 22.7918105,47.956783 22.3751439,47.706783 C21.9584772,47.456783 21.6001439,47.0484496 21.3001439,46.481783 L21.3001439,46.481783 L18.3501439,41.031783 L18.3501439,58.631783 C18.3501439,59.2651163 18.2084772,59.7234496 17.9251439,60.006783 C17.6418105,60.2901163 17.1834772,60.431783 16.5501439,60.431783 L16.5501439,60.431783 Z M13.1001439,55.931783 L13.1001439,30.481783 C13.1001439,30.2151163 13.1501439,29.9734496 13.2501439,29.756783 C13.3501439,29.5401163 13.5668105,29.431783 13.9001439,29.431783 L13.9001439,29.431783 L14.6501439,29.431783 C14.8834772,29.431783 15.0918105,29.4651163 15.2751439,29.531783 C15.4584772,29.5984496 15.6501439,29.7984496 15.8501439,30.131783 L15.8501439,30.131783 L21.9501439,39.331783 C22.5501439,40.231783 23.0084772,40.8484496 23.3251439,41.181783 C23.6418105,41.5151163 24.1668105,41.681783 24.9001439,41.681783 C25.6334772,41.681783 26.1584772,41.5151163 26.4751439,41.181783 C26.7918105,40.8484496 27.2501439,40.231783 27.8501439,39.331783 L27.8501439,39.331783 L33.9501439,30.131783 C34.1501439,29.7984496 34.3334772,29.5984496 34.5001439,29.531783 C34.6668105,29.4651163 34.8668105,29.431783 35.1001439,29.431783 L35.1001439,29.431783 L35.8501439,29.431783 C36.1834772,29.431783 36.4084772,29.5401163 36.5251439,29.756783 C36.6418105,29.9734496 36.7001439,30.2151163 36.7001439,30.481783 L36.7001439,30.481783 L36.7001439,55.931783 L37.2001439,55.931783 L37.2001439,30.481783 C37.2001439,29.9484496 37.0918105,29.556783 36.8751439,29.306783 C36.6584772,29.056783 36.3168105,28.931783 35.8501439,28.931783 L35.8501439,28.931783 L35.0001439,28.931783 C34.7334772,28.931783 34.4751439,28.9901163 34.2251439,29.106783 C33.9751439,29.2234496 33.7501439,29.4484496 33.5501439,29.781783 L33.5501439,29.781783 L27.4501439,39.081783 C26.8834772,39.9484496 26.4668105,40.5151163 26.2001439,40.781783 C25.9334772,41.0484496 25.5001439,41.181783 24.9001439,41.181783 C24.3001439,41.181783 23.8668105,41.0484496 23.6001439,40.781783 C23.3334772,40.5151163 22.9168105,39.9484496 22.3501439,39.081783 L22.3501439,39.081783 L16.2501439,29.781783 C16.0501439,29.4484496 15.8168105,29.2234496 15.5501439,29.106783 C15.2834772,28.9901163 15.0168105,28.931783 14.7501439,28.931783 L14.7501439,28.931783 L13.9001439,28.931783 C13.4668105,28.931783 13.1418105,29.056783 12.9251439,29.306783 C12.7084772,29.556783 12.6001439,29.9484496 12.6001439,30.481783 L12.6001439,30.481783 L12.6001439,55.931783 L13.1001439,55.931783 Z M56.7001439,66.381783 C57.0334772,66.381783 57.3418105,66.331783 57.6251439,66.231783 C57.9084772,66.131783 58.1168105,66.0151163 58.2501439,65.881783 L58.2501439,65.881783 L64.7501439,60.481783 C64.9834772,60.281783 65.1584772,60.031783 65.2751439,59.731783 C65.3918105,59.431783 65.4501439,59.0651163 65.4501439,58.631783 L65.4501439,58.631783 L65.4501439,57.581783 L66.8501439,57.581783 L66.8501439,64.081783 C66.8501439,64.8484496 67.0501439,65.4234496 67.4501439,65.806783 C67.8501439,66.1901163 68.4668105,66.381783 69.3001439,66.381783 L69.3001439,66.381783 L76.8501439,66.381783 C77.1834772,66.381783 77.4918105,66.331783 77.7751439,66.231783 C78.0584772,66.131783 78.2668105,66.0151163 78.4001439,65.881783 L78.4001439,65.881783 L84.9001439,60.481783 C85.1334772,60.281783 85.3084772,60.031783 85.4251439,59.731783 C85.5418105,59.431783 85.6001439,59.0651163 85.6001439,58.631783 L85.6001439,58.631783 L85.6001439,45.431783 C85.6001439,44.3984496 85.4418105,43.2234496 85.1251439,41.906783 C84.8084772,40.5901163 84.3001439,39.031783 83.6001439,37.231783 L83.6001439,37.231783 L79.2501439,25.881783 C79.0168105,25.2151163 78.6584772,24.7234496 78.1751439,24.406783 C77.6918105,24.0901163 77.0668105,23.931783 76.3001439,23.931783 L76.3001439,23.931783 L62.8501439,23.931783 C62.3834772,23.931783 61.9668105,23.9901163 61.6001439,24.106783 C61.2334772,24.2234496 60.9168105,24.3984496 60.6501439,24.631783 L60.6501439,24.631783 L54.2501439,29.981783 L54.2001439,30.031783 C54.0334772,30.1984496 53.8751439,30.3901163 53.7251439,30.606783 C53.5751439,30.8234496 53.4501439,31.081783 53.3501439,31.381783 L53.3501439,31.381783 L49.0501439,42.681783 C48.3501439,44.481783 47.8418105,46.0401163 47.5251439,47.356783 C47.2084772,48.6734496 47.0501439,49.8484496 47.0501439,50.881783 L47.0501439,50.881783 L47.0501439,64.081783 C47.0501439,64.881783 47.2334772,65.4651163 47.6001439,65.831783 C47.9668105,66.1984496 48.5501439,66.381783 49.3501439,66.381783 L49.3501439,66.381783 L56.7001439,66.381783 Z M63.1501439,60.431783 L55.8001439,60.431783 C55.1668105,60.431783 54.7084772,60.2901163 54.4251439,60.006783 C54.1418105,59.7234496 54.0001439,59.2651163 54.0001439,58.631783 L54.0001439,58.631783 L54.0001439,45.431783 C54.0001439,44.431783 54.1584772,43.281783 54.4751439,41.981783 C54.7918105,40.681783 55.2834772,39.1651163 55.9501439,37.431783 L55.9501439,37.431783 L60.3001439,26.081783 C60.5001439,25.5151163 60.8084772,25.0984496 61.2251439,24.831783 C61.6418105,24.5651163 62.1834772,24.431783 62.8501439,24.431783 L62.8501439,24.431783 L76.3001439,24.431783 C76.9334772,24.431783 77.4584772,24.5651163 77.8751439,24.831783 C78.2918105,25.0984496 78.6001439,25.5151163 78.8001439,26.081783 L78.8001439,26.081783 L83.1501439,37.431783 C83.8168105,39.1651163 84.3084772,40.681783 84.6251439,41.981783 C84.9418105,43.281783 85.1001439,44.431783 85.1001439,45.431783 L85.1001439,45.431783 L85.1001439,58.631783 C85.1001439,59.2651163 84.9584772,59.7234496 84.6751439,60.006783 C84.3918105,60.2901163 83.9334772,60.431783 83.3001439,60.431783 L83.3001439,60.431783 L75.7501439,60.431783 C75.0834772,60.431783 74.5918105,60.2901163 74.2751439,60.006783 C73.9584772,59.7234496 73.8001439,59.2651163 73.8001439,58.631783 L73.8001439,58.631783 L73.8001439,51.631783 L64.9501439,51.631783 L64.9501439,58.631783 C64.9501439,59.2651163 64.8084772,59.7234496 64.5251439,60.006783 C64.2418105,60.2901163 63.7834772,60.431783 63.1501439,60.431783 L63.1501439,60.431783 Z M59.8001439,55.931783 L59.8001439,47.331783 L79.3001439,47.331783 L79.3001439,55.931783 L79.8001439,55.931783 L79.8001439,45.281783 C79.8001439,44.3484496 79.7251439,43.4901163 79.5751439,42.706783 C79.4251439,41.9234496 79.2168105,41.1651163 78.9501439,40.431783 L78.9501439,40.431783 L75.5001439,32.281783 C75.1001439,31.3151163 74.6751439,30.5151163 74.2251439,29.881783 C73.7751439,29.2484496 73.0001439,28.931783 71.9001439,28.931783 L71.9001439,28.931783 L67.0001439,28.931783 C65.8668105,28.931783 65.0668105,29.2484496 64.6001439,29.881783 C64.1334772,30.5151163 63.7168105,31.2984496 63.3501439,32.231783 L63.3501439,32.231783 L60.1501439,40.431783 C59.8834772,41.1651163 59.6751439,41.9234496 59.5251439,42.706783 C59.3751439,43.4901163 59.3001439,44.3484496 59.3001439,45.281783 L59.3001439,45.281783 L59.3001439,55.931783 L59.8001439,55.931783 Z M79.3001439,46.831783 L59.8001439,46.831783 L59.8001439,45.281783 C59.8001439,44.381783 59.8751439,43.5484496 60.0251439,42.781783 C60.1751439,42.0151163 60.3668105,41.2984496 60.6001439,40.631783 L60.6001439,40.631783 L63.8001439,32.431783 C64.1334772,31.5984496 64.5001439,30.8901163 64.9001439,30.306783 C65.3001439,29.7234496 66.0001439,29.431783 67.0001439,29.431783 L67.0001439,29.431783 L71.9001439,29.431783 C72.8334772,29.431783 73.5001439,29.7234496 73.9001439,30.306783 C74.3001439,30.8901163 74.6834772,31.6151163 75.0501439,32.481783 L75.0501439,32.481783 L78.5001439,40.631783 C78.7334772,41.2984496 78.9251439,42.0151163 79.0751439,42.781783 C79.2251439,43.5484496 79.3001439,44.381783 79.3001439,45.281783 L79.3001439,45.281783 L79.3001439,46.831783 Z M73.3001439,42.531783 L70.9501439,34.931783 C70.8168105,34.631783 70.6751439,34.4151163 70.5251439,34.281783 C70.3751439,34.1484496 70.2001439,34.081783 70.0001439,34.081783 L70.0001439,34.081783 L68.7501439,34.081783 C68.5501439,34.081783 68.3751439,34.1484496 68.2251439,34.281783 C68.0751439,34.4151163 67.9334772,34.631783 67.8001439,34.931783 L67.8001439,34.931783 L65.4501439,42.531783 L73.3001439,42.531783 Z M117.300144,66.381783 C117.633477,66.381783 117.941811,66.331783 118.225144,66.231783 C118.508477,66.131783 118.716811,66.0151163 118.850144,65.881783 L118.850144,65.881783 L125.350144,60.481783 C125.583477,60.281783 125.758477,60.031783 125.875144,59.731783 C125.991811,59.431783 126.050144,59.0651163 126.050144,58.631783 L126.050144,58.631783 L126.050144,43.181783 C126.050144,42.381783 125.866811,41.7984496 125.500144,41.431783 C125.133477,41.0651163 124.550144,40.881783 123.750144,40.881783 L123.750144,40.881783 L116.000144,40.881783 C115.666811,40.881783 115.358477,40.9234496 115.075144,41.006783 C114.791811,41.0901163 114.566811,41.1984496 114.400144,41.331783 L114.400144,41.331783 L107.950144,46.781783 L107.950144,46.781783 L107.725144,47.006783 C107.641811,47.0901163 107.583477,47.1651163 107.550144,47.231783 L107.550144,47.231783 L107.550144,40.031783 L114.050144,40.031783 C114.383477,40.031783 114.691811,39.981783 114.975144,39.881783 C115.258477,39.781783 115.466811,39.6651163 115.600144,39.531783 L115.600144,39.531783 L122.100144,34.131783 C122.333477,33.931783 122.508477,33.681783 122.625144,33.381783 C122.741811,33.081783 122.800144,32.7151163 122.800144,32.281783 L122.800144,32.281783 L122.800144,26.231783 C122.800144,25.431783 122.616811,24.8484496 122.250144,24.481783 C121.883477,24.1151163 121.300144,23.931783 120.500144,23.931783 L120.500144,23.931783 L108.000144,23.931783 C105.833477,23.931783 103.941811,24.1484496 102.325144,24.581783 C100.708477,25.0151163 99.3834772,25.6651163 98.3501439,26.531783 L98.3501439,26.531783 L91.9001439,31.981783 C90.8668105,32.881783 90.0834772,33.9984496 89.5501439,35.331783 C89.0168105,36.6651163 88.7501439,38.2484496 88.7501439,40.081783 L88.7501439,40.081783 L88.7501439,54.181783 C88.7501439,57.781783 89.7918105,60.7151163 91.8751439,62.981783 C93.9584772,65.2484496 97.1834772,66.381783 101.550144,66.381783 L101.550144,66.381783 L117.300144,66.381783 Z M123.750144,60.431783 L108.000144,60.431783 C103.833477,60.431783 100.741811,59.5984496 98.7251439,57.931783 C96.7084772,56.2651163 95.7001439,53.6984496 95.7001439,50.231783 L95.7001439,50.231783 L95.7001439,34.631783 C95.7001439,31.1651163 96.7084772,28.5984496 98.7251439,26.931783 C100.741811,25.2651163 103.833477,24.431783 108.000144,24.431783 L108.000144,24.431783 L120.500144,24.431783 C121.133477,24.431783 121.591811,24.5734496 121.875144,24.856783 C122.158477,25.1401163 122.300144,25.5984496 122.300144,26.231783 L122.300144,26.231783 L122.300144,32.281783 C122.300144,32.9151163 122.158477,33.3734496 121.875144,33.656783 C121.591811,33.9401163 121.133477,34.081783 120.500144,34.081783 L120.500144,34.081783 L110.100144,34.081783 C109.066811,34.081783 108.300144,34.2901163 107.800144,34.706783 C107.300144,35.1234496 107.050144,35.7484496 107.050144,36.581783 L107.050144,36.581783 L107.050144,48.531783 C107.050144,49.3651163 107.241811,49.981783 107.625144,50.381783 C108.008477,50.781783 108.583477,50.981783 109.350144,50.981783 L109.350144,50.981783 L114.200144,50.981783 L114.200144,43.181783 C114.200144,42.5484496 114.341811,42.0901163 114.625144,41.806783 C114.908477,41.5234496 115.366811,41.381783 116.000144,41.381783 L116.000144,41.381783 L123.750144,41.381783 C124.383477,41.381783 124.841811,41.5234496 125.125144,41.806783 C125.408477,42.0901163 125.550144,42.5484496 125.550144,43.181783 L125.550144,43.181783 L125.550144,58.631783 C125.550144,59.2651163 125.408477,59.7234496 125.125144,60.006783 C124.841811,60.2901163 124.383477,60.431783 123.750144,60.431783 L123.750144,60.431783 Z M120.100144,55.931783 L120.100144,45.881783 L119.600144,45.881783 L119.600144,55.431783 L110.150144,55.431783 C106.783477,55.431783 104.525144,54.981783 103.375144,54.081783 C102.225144,53.181783 101.650144,51.6484496 101.650144,49.481783 L101.650144,49.481783 L101.650144,35.481783 C101.650144,33.281783 102.166811,31.7234496 103.200144,30.806783 C104.233477,29.8901163 106.216811,29.431783 109.150144,29.431783 L109.150144,29.431783 L117.800144,29.431783 L117.800144,28.931783 L109.150144,28.931783 C105.950144,28.931783 103.816811,29.431783 102.750144,30.431783 C101.683477,31.431783 101.150144,33.1151163 101.150144,35.481783 L101.150144,35.481783 L101.150144,49.481783 C101.150144,50.6484496 101.275144,51.6401163 101.525144,52.456783 C101.775144,53.2734496 102.233477,53.9401163 102.900144,54.456783 C103.566811,54.9734496 104.483477,55.3484496 105.650144,55.581783 C106.816811,55.8151163 108.316811,55.931783 110.150144,55.931783 L110.150144,55.931783 L120.100144,55.931783 Z" id="Mag"></path>
            </g>
        </g>
    </g>
</svg>