<svg height="68" viewBox="0 0 128 68" width="128" xmlns="http://www.w3.org/2000/svg"><g transform="translate(.899856 .636398)"><path d="m5.4 18.8538983c.64038462 0 1.07307692-.1211538 1.36730769-.2336538l-.32884615-1.3932692c-.21634616.0605769-.49326923.1211538-.9.1211538-1.04711539 0-2.00769231-.4932692-2.00769231-2.1634615v-8.48076925h2.8125v-1.34134616h-2.8125v-3.18461538h-1.54903846v3.18461538h-1.98173077v1.34134616h1.98173077v8.84423075c0 2.1721154 1.71346154 3.3057692 3.41826923 3.3057692zm5.979816-.1990384v-8.3076923c0-2.31923079 1.5576923-3.74711541 3.6865385-3.74711541 2.0596154 0 3.375 1.35 3.375 3.53942311v8.5153846h1.5490384v-8.6105769c0-3.16730773-1.8346153-4.85480773-4.5346153-4.85480773-2.0076923 0-3.3144231.88269231-3.9375 2.25865384h-.1384616v-6.51634615h-1.5403846v17.72307694zm18.0519367.2769231c2.6653846 0 4.4567307-1.4451923 5.0625-3.1153847l-1.4625-.4759615c-.510577 1.1942308-1.7134616 2.1807692-3.6 2.1807692-2.7173077 0-4.4394231-1.9817307-4.5086539-5.0538461h9.9v-.7615385c0-4.43942305-2.7432692-6.52499998-5.625-6.52499998-3.4442308 0-5.8240385 2.88173077-5.8240385 6.90576928 0 4.0326923 2.3365385 6.8451923 6.0576924 6.8451923zm3.8163461-7.823077h-8.3163461c.164423-2.47499996 1.8346153-4.5259615 4.2663461-4.5259615 2.3798077 0 4.05 1.96442308 4.05 4.5259615z"/><path d="m10.1001439 66.381783c.3333333 0 .6416666-.05.925-.15.2833333-.1.4916666-.2166667.625-.35l6.5-5.4c.2333333-.2.4083333-.45.525-.75.1166666-.3.175-.6666667.175-1.1v-4.6h.65c.4666666 0 .875-.0583334 1.225-.175.35-.1166667.6583333-.2916667.925-.525l2.95-2.45v13.2c0 .8.175 1.3833333.525 1.75.35.3666666.9416666.55 1.775.55h7.7c.3333333 0 .6416666-.05.925-.15.2833333-.1.4916666-.2166667.625-.35l6.5-5.4c.2333333-.2.4083333-.45.525-.75.1166666-.3.175-.6666667.175-1.1v-32.4c0-.8-.1833334-1.3833334-.55-1.75-.3666667-.3666667-.95-.55-1.75-.55h-8.1c-.4 0-.7416667.05-1.025.15-.2833334.1-.5583334.25-.825.45l-6.45 5.4c-.1666667.1333333-.325.3083333-.475.525-.15.2166666-.2916667.4416666-.425.675l-.45.8-3.4-6.25c-.3666667-.6333334-.7583334-1.0833334-1.175-1.35-.4166667-.2666667-.9416667-.4-1.575-.4h-8.05000004c-.33333334 0-.64166667.0416666-.925.125-.28333334.0833333-.50833334.1916666-.675.325l-6.45 5.45c-.23333334.2-.40833334.45-.525.75-.11666667.3-.175.6666666-.175 1.1v32.4c0 .8.18333333 1.3833333.55 1.75.36666666.3666666.95.55 1.75.55zm6.45-5.95h-7.45000004c-.63333334 0-1.09166667-.1416667-1.375-.425-.28333334-.2833334-.425-.7416667-.425-1.375v-32.4c0-.6333334.14166666-1.0916667.425-1.375.28333333-.2833334.74166666-.425 1.375-.425h8.05000004c.5333333 0 .975.1166666 1.325.35.35.2333333.675.6166666.975 1.15l4.5 8.15c.1666666.3.3083333.5166666.425.65.1166666.1333333.275.2.475.2h.45c.2 0 .3583333-.0666667.475-.2.1166666-.1333334.2583333-.35.425-.65l4.45-8.15c.3-.5333334.625-.9166667.975-1.15.35-.2333334.7916666-.35 1.325-.35h8.1c.6333333 0 1.0916666.1416666 1.375.425.2833333.2833333.425.7416666.425 1.375v32.4c0 .6333333-.1416667 1.0916666-.425 1.375-.2833334.2833333-.7416667.425-1.375.425h-7.7c-.6333334 0-1.0916667-.1416667-1.375-.425-.2833334-.2833334-.425-.7416667-.425-1.375v-17.6l-2.95 5.45c-.3.5666666-.6583334.975-1.075 1.225-.4166667.25-.9416667.375-1.575.375h-2c-.6333334 0-1.1583334-.125-1.575-.375-.4166667-.25-.775-.6583334-1.075-1.225l-2.95-5.45v17.6c0 .6333333-.1416667 1.0916666-.425 1.375-.2833334.2833333-.7416667.425-1.375.425zm-3.45-4.5v-25.45c0-.2666667.05-.5083334.15-.725.1-.2166667.3166666-.325.65-.325h.75c.2333333 0 .4416666.0333333.625.1.1833333.0666666.375.2666666.575.6l6.1 9.2c.6.9 1.0583333 1.5166666 1.375 1.85.3166666.3333333.8416666.5 1.575.5.7333333 0 1.2583333-.1666667 1.575-.5.3166666-.3333334.775-.95 1.375-1.85l6.1-9.2c.2-.3333334.3833333-.5333334.55-.6.1666666-.0666667.3666666-.1.6-.1h.75c.3333333 0 .5583333.1083333.675.325.1166666.2166666.175.4583333.175.725v25.45h.5v-25.45c0-.5333334-.1083334-.925-.325-1.175-.2166667-.25-.5583334-.375-1.025-.375h-.85c-.2666667 0-.525.0583333-.775.175-.25.1166666-.475.3416666-.675.675l-6.1 9.3c-.5666667.8666666-.9833334 1.4333333-1.25 1.7-.2666667.2666666-.7.4-1.3.4s-1.0333334-.1333334-1.3-.4c-.2666667-.2666667-.6833334-.8333334-1.25-1.7l-6.1-9.3c-.2-.3333334-.4333334-.5583334-.7-.675-.2666667-.1166667-.5333334-.175-.8-.175h-.85c-.4333334 0-.7583334.125-.975.375-.2166667.25-.325.6416666-.325 1.175v25.45zm43.6 10.45c.3333333 0 .6416666-.05.925-.15.2833333-.1.4916666-.2166667.625-.35l6.5-5.4c.2333333-.2.4083333-.45.525-.75.1166666-.3.175-.6666667.175-1.1v-1.05h1.4v6.5c0 .7666666.2 1.3416666.6 1.725.4.3833333 1.0166666.575 1.85.575h7.55c.3333333 0 .6416666-.05.925-.15.2833333-.1.4916666-.2166667.625-.35l6.5-5.4c.2333333-.2.4083333-.45.525-.75.1166666-.3.175-.6666667.175-1.1v-13.2c0-1.0333334-.1583334-2.2083334-.475-3.525-.3166667-1.3166667-.825-2.875-1.525-4.675l-4.35-11.35c-.2333334-.6666667-.5916667-1.1583334-1.075-1.475-.4833334-.3166667-1.1083334-.475-1.875-.475h-13.45c-.4666667 0-.8833334.0583333-1.25.175-.3666667.1166666-.6833334.2916666-.95.525l-6.4 5.35-.05.05c-.1666667.1666666-.325.3583333-.475.575-.15.2166666-.275.475-.375.775l-4.3 11.3c-.7 1.8-1.2083334 3.3583333-1.525 4.675-.3166667 1.3166666-.475 2.4916666-.475 3.525v13.2c0 .8.1833333 1.3833333.55 1.75.3666666.3666666.95.55 1.75.55zm6.45-5.95h-7.35c-.6333334 0-1.0916667-.1416667-1.375-.425-.2833334-.2833334-.425-.7416667-.425-1.375v-13.2c0-1 .1583333-2.15.475-3.45.3166666-1.3.8083333-2.8166667 1.475-4.55l4.35-11.35c.2-.5666667.5083333-.9833334.925-1.25.4166666-.2666667.9583333-.4 1.625-.4h13.45c.6333333 0 1.1583333.1333333 1.575.4.4166666.2666666.725.6833333.925 1.25l4.35 11.35c.6666666 1.7333333 1.1583333 3.25 1.475 4.55.3166666 1.3.475 2.45.475 3.45v13.2c0 .6333333-.1416667 1.0916666-.425 1.375-.2833334.2833333-.7416667.425-1.375.425h-7.55c-.6666667 0-1.1583334-.1416667-1.475-.425-.3166667-.2833334-.475-.7416667-.475-1.375v-7h-8.85v7c0 .6333333-.1416667 1.0916666-.425 1.375-.2833334.2833333-.7416667.425-1.375.425zm-3.35-4.5v-8.6h19.5v8.6h.5v-10.65c0-.9333334-.075-1.7916667-.225-2.575-.15-.7833334-.3583334-1.5416667-.625-2.275l-3.45-8.15c-.4-.9666667-.825-1.7666667-1.275-2.4-.45-.6333334-1.225-.95-2.325-.95h-4.9c-1.1333334 0-1.9333334.3166666-2.4.95-.4666667.6333333-.8833334 1.4166666-1.25 2.35l-3.2 8.2c-.2666667.7333333-.475 1.4916666-.625 2.275-.15.7833333-.225 1.6416666-.225 2.575v10.65zm19.5-9.1h-19.5v-1.55c0-.9.075-1.7333334.225-2.5.15-.7666667.3416666-1.4833334.575-2.15l3.2-8.2c.3333333-.8333334.7-1.5416667 1.1-2.125.4-.5833334 1.1-.875 2.1-.875h4.9c.9333333 0 1.6.2916666 2 .875.4.5833333.7833333 1.3083333 1.15 2.175l3.45 8.15c.2333333.6666666.425 1.3833333.575 2.15.15.7666666.225 1.6.225 2.5zm-6-4.3-2.35-7.6c-.1333334-.3-.275-.5166667-.425-.65-.15-.1333334-.325-.2-.525-.2h-1.25c-.2 0-.375.0666666-.525.2-.15.1333333-.2916667.35-.425.65l-2.35 7.6zm44.0000001 23.85c.333333 0 .641667-.05.925-.15s.491667-.2166667.625-.35l6.5-5.4c.233333-.2.408333-.45.525-.75s.175-.6666667.175-1.1v-15.45c0-.8-.183333-1.3833334-.55-1.75-.366667-.3666667-.95-.55-1.75-.55h-7.75c-.333333 0-.641667.0416666-.925.125-.283333.0833333-.508333.1916666-.675.325l-6.45 5.45-.225.225c-.083333.0833333-.141667.1583333-.175.225v-7.2h6.5c.333333 0 .641667-.05.925-.15s.491667-.2166667.625-.35l6.5-5.4c.233333-.2.408333-.45.525-.75s.175-.6666667.175-1.1v-6.05c0-.8-.183333-1.3833334-.55-1.75-.366667-.3666667-.95-.55-1.75-.55h-12.5c-2.166667 0-4.058333.2166666-5.675.65-1.616667.4333333-2.9416668 1.0833333-3.9750001 1.95l-6.45 5.45c-1.0333334.9-1.8166667 2.0166666-2.35 3.35-.5333334 1.3333333-.8 2.9166666-.8 4.75v14.1c0 3.6 1.0416666 6.5333333 3.125 8.8 2.0833333 2.2666666 5.3083333 3.4 9.6750001 3.4zm6.45-5.95h-15.75c-4.166667 0-7.258333-.8333334-9.2750001-2.5-2.0166667-1.6666667-3.025-4.2333334-3.025-7.7v-15.6c0-3.4666667 1.0083333-6.0333334 3.025-7.7 2.0166671-1.6666667 5.1083331-2.5 9.2750001-2.5h12.5c.633333 0 1.091667.1416666 1.375.425.283333.2833333.425.7416666.425 1.375v6.05c0 .6333333-.141667 1.0916666-.425 1.375-.283333.2833333-.741667.425-1.375.425h-10.4c-1.033333 0-1.8.2083333-2.3.625-.5.4166666-.75 1.0416666-.75 1.875v11.95c0 .8333333.191667 1.45.575 1.85s.958333.6 1.725.6h4.85v-7.8c0-.6333334.141667-1.0916667.425-1.375.283333-.2833334.741667-.425 1.375-.425h7.75c.633333 0 1.091667.1416666 1.375.425.283333.2833333.425.7416666.425 1.375v15.45c0 .6333333-.141667 1.0916666-.425 1.375-.283333.2833333-.741667.425-1.375.425zm-3.65-4.5v-10.05h-.5v9.55h-9.45c-3.366667 0-5.625-.45-6.775-1.35s-1.725-2.4333334-1.725-4.6v-14c0-2.2.516667-3.7583334 1.55-4.675 1.033333-.9166667 3.016667-1.375 5.95-1.375h8.65v-.5h-8.65c-3.2 0-5.333333.5-6.4 1.5s-1.6 2.6833333-1.6 5.05v14c0 1.1666666.125 2.1583333.375 2.975.25.8166666.708333 1.4833333 1.375 2 .666667.5166666 1.583333.8916666 2.75 1.125 1.166667.2333333 2.666667.35 4.5.35z"/></g></svg>