<svg height="195" viewBox="0 0 1268 195" width="1268" xmlns="http://www.w3.org/2000/svg"><g fill="#942e7b" fill-rule="evenodd" transform="translate(.5)"><path d="m85.814625 84.264375c-46.286175 46.342725-84.529575 84.654375-84.985875 85.13895l-.82875.87945 43.895475.00195 43.89645.002925 10.14195-10.1751 10.140975-10.1751.685425.64155c.377325.35295 4.99005 4.930575 10.252125 10.17315l9.565725 9.530625h45.336525c24.93465 0 45.336525-.09555 45.336525-.211575 0-.117-14.042925-14.2545-31.20585-31.417425s-31.20585-31.395975-31.20585-31.63095c0-.463125 14.36955-14.965275 14.828775-14.965275.15405 0 17.8815 17.6007 39.392925 39.112125l39.112125 39.1131h45.114225c24.812775 0 45.110325-.09555 45.110325-.211575-.008775-.406575-169.641225-170.078025-170.0322-170.0712-.217425.0039-38.26485 37.922625-84.551025 84.264375"/><g transform="translate(385.39785 60)"><path d="m29.476785.62304993c-11.3439967 2.58400658-18.1122928 10.98029607-19.2068586 23.83451647-.78974997 9.2795625-1.15691444 10.2944605-3.64393418 10.0831677-6.318-.5368914-6.88260197-.1593355-6.55353947 4.3886546.3082796 4.2535658.32213487 4.2639573 4.82509539 4.7627468l4.51335198.5022532.26671381 29.3454474c.14548026 16.1413816.59577627 29.3974049 1.00104277 29.4632169 4.4994967.696227 7.1250691.803605 9.0024572.370629l2.2410888-.516109.2667139-29.3315921.26325-29.3315922 8.029125-.5022532 8.0256611-.4987895.3082797-4.2639573c.3429177-4.7662105.5715296-4.6761513-11.0045428-4.2847401-5.6009901.1905099-6.4219145-1.2504375-5.3169572-9.3176645 1.5517894-11.3682434 4.7835296-14.742 14.1185131-14.742 6.8652829 0 8.4136511-1.16730588 8.4136511-6.34224667 0-2.52858552.0796252-2.49394736-9.5289998-4.17736184-1.1049572-.19397368-3.8136612.05888487-6.0201118.55767434"/><path d="m273.940084 16.0439578-4.011099 1.2365823-.259786 6.4357697c-.419122 10.5196086-.568066 10.79325-6.016648 11.1430954l-4.762747.3048158v4.0145625 4.0145625l5.019069.4987895 5.015606.5022532.509181 24.0804474c.633878 30.0797763 2.521657 34.4649669 15.549069 36.1172069 9.470072 1.198481 13.037802-.322135 13.037802-5.5628878v-4.4683224l-5.639092-.2978881c-10.19401-.5368915-10.415694-1.1257402-10.415694-27.623931v-22.244625l8.527915-.5022532 8.527914-.4987895.325599-3.3910757c.439904-4.6103388-.207829-4.9948223-8.853513-5.226898-9.047487-.2424671-8.99553-.1766546-9.012849-11.1985164-.017319-9.8129902.110842-9.6882928-7.540727-7.3328981"/><path d="m75.7851396 35.0429874c25.4694374-10.4780427 50.0105724 11.0045428 45.5214674 39.8442731-6.612425 42.4663815-64.6694411 39.1134075-66.231622-3.8240527-.6823717-18.7149967 5.7256875-29.8546283 20.7101546-36.0202204zm17.1251053 7.6203948c-3.3980033-.9767961-5.5351777-1.1153487-7.4298849-.4814704-.2591749.0863916-.7638133.2241772-1.3789103.3794249l-.4799243.1191798c-.5791524.1416259-1.2170338.2901265-1.8232016.4227703-16.1171348 3.5400197-19.8649835 37.1043947-5.3827697 48.1505033 15.1472664 11.5518259 32.1892399-.6685165 32.1101269-23.0239836-.052512-14.1808618-5.175495-22.5736875-15.6154361-25.5664243z"/><path d="m217.899813 34.7935927c-18.638792 8.2646645-16.009756 28.825875 4.728109 37.0212632 24.492641 9.6813651 13.928003 30.3707371-10.890237 21.3267138l-5.64602-2.0540428-1.188088 3.9660691c-4.18429 13.973033 33.138325 12.70874 41.063536-1.3889901 6.91724-12.3069375 1.551789-22.5667599-16.051323-30.7032632-12.18224-5.6287007-14.984467-9.6571184-11.098065-15.9508717 3.037766-4.9151546 8.153822-6.0686053 17.166671-3.8794737 3.931431.9560132 7.267085 1.5864276 7.416029 1.4028454.869418-1.0772467 2.473165-7.2185921 2.060971-7.8836447-2.410816-3.9071843-20.232148-5.1056645-27.561583-1.8566053"/><path d="m329.535685 34.7901289c19.289991-8.5486974 39.501356 5.4555098 39.581023 27.4264934l.027711 8.0637632-23.727138.2701776c-26.484336.2978881-25.587207.0173191-23.602441 7.3917829 3.848299 14.2813125 17.471487 20.2563947 35.521431 15.5733158 9.206822-2.3865691 12.625608 5.7949638 3.643934 8.7184242-28.836266 9.383477-51.531187-5.0433157-51.531187-32.7573058 0-17.2567303 6.643598-28.7254243 20.086667-34.6866513zm20.810606 9.5289572c-6.106708-4.4475395-17.668925-2.9234605-22.836938 3.0135198-4.81124 5.52825-7.783194 14.3505888-4.877052 14.47875 1.251732.0564007 10.13037.0917775 18.468206.0980992l.959194.0006c.15931.0000783.318305.0001459.476925.0002024l2.343972.0000229c.153426-.000054.306186-.0001192.458224-.0001957l.903089-.0005943c5.360915-.0043825 9.634519-.0235051 10.110636-.0600326 3.813661-.2944243-.78975-13.7305658-6.006256-17.5303717z"/><path d="m400.62369 35.1365105c-2.258408 1.3543519-5.33774 4.3263059-6.8445 6.6054967-3.23174 4.8805164-3.87601 4.5583815-4.575701-2.2826546-.516108-5.0363882-.578457-5.1125921-4.035345-5.265-6.376885-.2771053-6.020112-2.3172928-6.020112 34.5827368 0 37.1667436-.353309 35.1127006 6.020112 35.1127006 6.17252 0 6.016648.519572 6.016648-20.0970591 0-29.22075 3.616224-37.814477 16.352674-38.8709408l5.722224-.4745428v-5.8954145-5.8954144l-4.263957.0103914c-2.729487.0069276-5.743007.8971283-8.372043 2.4697007"/><path d="m131.851971 35.3616585c-.443368 1.1534506 12.684493 35.4244441 18.766954 48.9922105.997579 2.2237697 2.82301 6.9622697 4.059592 10.5334638l2.25148 6.4946542-2.306901 4.866662c-2.878431 6.072069-9.075197 12.421243-15.316993 15.701477-6.667846 3.501917-4.721181 14.735072 2.043651 11.797756 13.356474-5.794964 23.799878-20.03471 33.301125-45.407161 1.240046-3.3114079 2.618645-6.9241678 3.062013-8.029125.446832-1.1014934 2.919997-7.6481053 5.497076-14.5445625 2.577079-6.8999211 5.064098-13.4465329 5.521322-14.5480263 2.635964-6.3214638 6.085924-15.8365658 5.833066-16.0755691-.1628-.1524079-3.006592-.4364408-6.318-.6304145l-6.020112-.3498454-2.085217 6.0201119c-1.149987 3.3114079-2.372714 6.6955559-2.722559 7.5234079-.516109 1.2157993-10.924875 33.2491677-12.310402 37.8733618-.820924 2.7502697-2.355394.9490855-4.267421-5.0156053-1.104957-3.4499605-3.630079-10.6720164-5.611381-16.0513223-1.981303-5.3827698-5.195724-14.160079-7.142388-19.5116744-1.950129-5.3515954-3.640471-9.8095263-3.761704-9.9099769-1.350889-1.0980297-12.03676-.8694178-12.473201.2701776"/></g><g transform="translate(874.39785 61.461293)"><path d="m259.205574 0 6.269507.29788816 6.269506.29788816.259787 50.10063158c.056113 10.7717743.109318 19.3023213.115081 26.0575103l.000262 1.9737618c-.015845 24.338149-.781031 23.712844-4.739055 23.687269l-.319154-.000308c-5.015605.027711-5.850384-.841707-5.850384-6.1136344l-.000311-.4540461c-.008939-5.5246291-.251198-5.39283-5.656101-.0655263-22.507875 22.1892038-55.840174-5.2788553-47.107894-38.8155197 6.148273-23.598977 31.423736-34.0112073 47.045546-19.3731217 1.548325 1.447875 3.013519 2.6325 3.262914 2.6325.245931 0 .450296-9.0509507.450296-20.1143783zm-7.918283 44.3784079c-8.998993-6.8791382-22.629108-3.0377665-27.994559 7.8871085-11.770046 23.9661415 7.748556 50.5786386 27.56851 37.5927928 11.666132-7.6411776 11.936309-36.6818092.426049-45.4799013z"/><g transform="translate(298.119717 5.303448)"><path d="m4.39899617 1.01801566c-7.45066777 4.27434869-4.91169079 13.83794404 3.67164473 13.83794404 4.4475395 0 6.8618191-2.5251217 6.8618191-7.17702627 0-6.03050329-5.53171383-9.52895724-10.53346383-6.66091777"/><path d="m2.25143038 28.4098709c-.21475658.5542106-.27017763 16.1309902-.12469737 34.6104474l.26671382 33.602477 2.38656907.3394539c1.31625.1835823 3.91064803.0519573 5.7707171-.2978881l3.3806842-.6338783v-33.9731053-33.9731053l-5.64948353-.3429177c-3.19363816-.1939737-5.8122829.093523-6.03050329.6685164"/></g><path d="m23.2075658 33.2283849c-2.4108158 1.0945658-6.1101711 3.8760098-8.2161711 6.1794473l-3.8309802 4.1912171-.3117434-4.9463289-.3117435-4.9497928-5.26846378-.3013519-5.26846382-.3048158v34.0493092 34.0458449l2.25840789.606168c1.24004606.332527 3.94875.609632 6.02011185.616559l3.76170396.013856v-21.1258128c0-28.3686513 2.5459046-36.0444671 13.0031645-39.1757566 14.4337204-4.3263059 18.0949736 2.6602106 18.9817105 36.2245856l.620023 23.5747298 4.4025099.315208c6.3942039.460687 6.3768848.512644 6.1967664-21.6627043-.2493947-31.0773553 4.3263059-40.9076645 18.1746415-39.0510592 11.2608651 1.5102237 12.8126546 5.8053553 12.8403651 35.5318224.0242467 25.8504571-.1039145 25.3689871 6.8999211 25.3689871 6.4011315 0 6.1655921.883273 6.1655921-23.0447667 0-28.3825066-1.260829-34.9291185-8.105329-42.0922895-8.5729441-8.9712829-24.4268289-8.0118059-33.4985625 2.0263322-4.2085362 4.6588323-4.776602 4.7523553-7.10775 1.1603783-5.6702664-8.7530625-17.3086875-11.8289309-27.4057105-7.2497664"/><path d="m144.889656 33.602477c19.729895-9.0128487 39.529066 4.4059737 39.972434 27.0870394l.159336 8.1295757-23.54702.2701776c-12.951207.1489441-23.962678.6892994-24.475322 1.1984803-1.905099 1.9050987 2.466237 13.1174704 6.903385 17.7139539 4.5757 4.7385 19.296917 6.8063981 29.279634 4.1150132 6.016649-1.6210658 6.841037-1.3231776 7.696599 2.7883717.859026 4.1288684.038102 4.9151546-6.892993 6.5777862-28.708106 6.899921-48.659684-6.5951053-48.659684-32.90625 0-17.8525066 6.148273-28.8431941 19.563631-34.974148zm21.333642 9.2587796c-3.488063-2.5424408-13.068977-3.2455954-17.319079-1.2677566-7.287869 3.384148-15.244254 18.5071678-9.896122 18.7981283.779936.0431053 5.057609.0657804 10.263717.0704701l1.357559.0008111c.458262.0001392.921728.0001478 1.388778.0000274l1.410289-.0007469c.787672-.0006283 1.580807-.0016109 2.371917-.0029405l.94788-.0017618c6.148662-.0125282 11.991754-.0460002 13.974557-.0970338 5.188796-.131625 1.929346-12.8126546-4.499496-17.4991973z"/><path d="m352.67225 32.3901414c12.698348-4.5237434 30.22872 1.1950165 35.095381 11.451375 4.11155 8.6664672 5.095273 57.6621416 1.174234 58.4172536-5.171477.994115-8.680323-.779359-8.680323-4.3886549 0-4.0873026-.865954-4.2916677-4.686542-1.1014934-15.860813 13.2387043-38.455283 5.3793063-38.455283-13.3737928 0-14.4129375 9.792207-22.1649572 31.856714-25.2200427l9.279562-1.2816119v-3.1693914c0-10.9179474-12.13721-16.0859605-26.612497-11.3370691-7.142388 2.3484671-8.181533 2.0367237-8.683786-2.5874704-.332526-3.0620131 1.555253-4.5029605 9.71254-7.409102zm25.583743 33.9211481-3.259451.1212335c-17.426457.6546612-25.414016 5.7637895-25.258144 16.1587007.155871 10.4607237 11.101529 14.9983224 21.253973 8.8084835 5.535178-3.3772204 7.256694-7.3640723 7.260158-16.8133618z"/></g></g></svg>