<svg xmlns="http://www.w3.org/2000/svg" width="30" height="30" viewBox="0 0 30 30">
    <defs>
        <linearGradient id="p98751zssa" x1="0%" x2="100%" y1="50%" y2="50%">
            <stop offset="0%" stop-color="#FFF" stop-opacity=".1"/>
            <stop offset="100%" stop-color="#FFF" stop-opacity="0"/>
        </linearGradient>
        <linearGradient id="i0iol77f3b" x1="25.096%" x2="60.795%" y1="25.24%" y2="96.5%">
            <stop offset="0%" stop-color="#BF360C" stop-opacity=".2"/>
            <stop offset="100%" stop-color="#BF360C" stop-opacity=".02"/>
        </linearGradient>
        <linearGradient id="vgbvxz1nlc" x1="33.532%" x2="98.22%" y1="33.573%" y2="98.261%">
            <stop offset="0%" stop-color="#FFF" stop-opacity=".1"/>
            <stop offset="100%" stop-color="#FFF" stop-opacity="0"/>
        </linearGradient>
    </defs>
    <g fill="none" fill-rule="evenodd">
        <path d="M0 0H30V29.992H0z"/>
        <g fill-rule="nonzero">
            <path fill="url(#p98751zssa)" d="M27.574 0H22.11c-1.321 0-2.406 1.086-2.406 2.408v7.066h-7.91c-1.281 0-2.327 1.046-2.327 2.348v7.915h-7.12C1.045 19.737 0 20.783 0 22.086v5.526C0 28.914 1.045 29.96 2.347 30h25.247C28.915 30 30 28.914 30 27.592V2.408C29.98 1.086 28.895 0 27.574 0z"/>
            <path fill="url(#p98751zssa)" d="M27.574 0H22.11c-1.321 0-2.406 1.086-2.406 2.408v7.066h-7.91c-1.281 0-2.327 1.046-2.327 2.348v7.915h-7.12C1.045 19.737 0 20.783 0 22.086v5.526C0 28.914 1.045 29.96 2.347 30h25.247C28.915 30 30 28.914 30 27.592V2.408C29.98 1.086 28.895 0 27.574 0z"/>
            <path fill="#F57C00" d="M27.585 0h-5.426c-1.322 0-2.408 1.085-2.408 2.407v27.585h7.834c1.322 0 2.407-1.085 2.407-2.407V2.407C29.992 1.085 28.907 0 27.585 0z"/>
            <path fill="#FFC107" d="M9.471 11.84v7.892H2.368C1.066 19.732 0 20.797 0 22.1v5.524c0 1.303 1.066 2.368 2.368 2.368h17.364V9.472h-7.893c-1.302 0-2.368 1.065-2.368 2.367z"/>
            <path fill="url(#i0iol77f3b)" d="M19.714 9.429V30h7.868C28.91 30 30 28.912 30 27.587v-7.873L19.714 9.43z"/>
            <path fill="#FFF" d="M11.802 9.626h7.912V9.43h-7.912c-1.305 0-2.373 1.068-2.373 2.373V12c0-1.305 1.068-2.374 2.373-2.374zM2.357 19.912H9.43v-.198H2.357C1.061 19.714 0 20.782 0 22.088v.198c0-1.306 1.06-2.374 2.357-2.374zM27.582 0h-5.45c-1.328 0-2.418 1.071-2.418 2.377v.194c0-1.305 1.09-2.376 2.418-2.376h5.45C28.91.195 30 1.266 30 2.57v-.194C30 1.07 28.91 0 27.582 0z" opacity=".2"/>
            <path fill="#BF360C" d="M27.61 29.805H2.37c-1.304 0-2.37-1.052-2.37-2.337v.194C0 28.948 1.066 30 2.37 30h25.22c1.324 0 2.41-1.071 2.41-2.377v-.194c.02 1.305-1.067 2.376-2.39 2.376z" opacity=".2"/>
            <path fill="url(#vgbvxz1nlc)" d="M27.592 0h-5.428c-1.322 0-2.407 1.086-2.407 2.408v7.066h-7.895c-1.303 0-2.369 1.065-2.369 2.368v7.895H2.368C1.066 19.737 0 20.803 0 22.105v5.527C0 28.934 1.066 30 2.368 30h25.224C28.914 30 30 28.914 30 27.592V2.408C30 1.086 28.914 0 27.592 0z"/>
        </g>
    </g>
</svg>
