<svg height="91" viewBox="0 0 164 91" width="164" xmlns="http://www.w3.org/2000/svg" xmlns:xlink="http://www.w3.org/1999/xlink"><mask id="a" fill="#fff"><path d="m0 .515h164v90h-164z" fill="#fff" fill-rule="evenodd"/></mask><g fill="#1a1919" fill-rule="evenodd"><path d="m-1 88.322c17.412-.697 32.712-9.663 46.18-18.608 3.382-2.247 6.701-4.555 9.99-6.881 2.444-1.73 5.088-3.756 8.175-4.284 4.652-.796 7.213 2.913 9.187 6.197 2.54 4.224 4.698 8.772 8.621 12.017 5.655 4.679 12.786 4.653 19.258 1.271 9.18-4.796 15.689-12.967 24.283-18.274 11.65-7.193 25.825-3 38.306-3.295v.665c-12.403.176-26.564-4.22-38.172 2.96-8.818 5.455-15.227 14.087-24.522 19.211-6.577 3.626-13.642 3.518-19.222-1.502-3.735-3.36-5.626-7.91-7.902-12.202-1.714-3.232-3.93-6.905-8.444-6.09-3.047.551-5.695 2.58-8.117 4.288-3.353 2.365-6.731 4.72-10.17 7.018-13.775 9.21-29.561 18.887-47.451 19.702z" mask="url(#a)"/><path d="m-1 80.446c15.903-.168 29.698-6.7 42.253-14.743 3.221-2.063 6.365-4.213 9.465-6.396 2.573-1.813 5.348-3.713 8.632-4.067 5.148-.556 8.897 3.134 11.907 6.445 3.633 3.994 6.882 8.575 11.733 11.323 6.162 3.49 13.595 2.747 19.821-.264 8.804-4.257 15.385-11.403 23.54-16.304 10.951-6.579 24.94-2.807 36.649-3.204v.82c-11.876.398-25.945-3.44-37.085 3.17-8.354 4.96-14.964 12.413-23.9 16.836-6.298 3.117-13.673 3.674-19.73-.16-4.577-2.898-7.478-7.494-10.786-11.559-2.66-3.268-6.024-6.954-10.942-6.4-3.201.362-5.932 2.282-8.434 4.049-3.161 2.232-6.362 4.435-9.636 6.56-12.84 8.338-27.097 15.628-43.487 15.964v-2.069" mask="url(#a)"/><path d="m-1 73.475c14.213.42 26.452-3.516 38.093-10.797 5.688-3.557 11.47-9.674 18.382-10.338 6.102-.586 11.26 3.31 15.593 6.852 4.823 3.943 9.414 8.646 15.334 10.91 6.534 2.498 14.112.86 20.196-2.112 8.316-4.064 14.593-10.597 22.105-15.57 9.981-6.61 23.497-2.772 34.297-3.02v.919c-11.088.31-24.754-3.532-35.036 3.156-7.68 4.996-14.066 11.748-22.516 15.882-6.103 2.986-13.658 4.362-20.09 1.58-5.619-2.43-9.833-7.15-14.329-11.143-3.965-3.522-8.737-7.393-14.56-6.808-6.826.685-12.692 6.92-18.28 10.488-11.874 7.581-24.527 12.298-39.189 12.031z" mask="url(#a)"/><path d="m-1 66.144c6.403.42 12.876.706 19.162-.468 5.57-1.04 10.72-3.245 15.525-5.941 6.136-3.443 11.668-9.007 19.1-9.331 6.989-.304 13.358 3.52 18.866 6.918 5.872 3.624 11.707 7.939 18.516 9.692 6.995 1.801 14.455-.742 20.702-3.702 3.702-1.754 7.2-3.878 10.52-6.193 3.567-2.488 6.672-5.501 10.167-8.008 8.728-6.26 21.781-2.453 31.442-2.41v.873c-9.987.031-23.196-3.758-32.255 2.593-7.01 4.913-13.086 10.652-21.093 14.41-6.206 2.915-13.733 5.17-20.598 3.19-6.528-1.882-12.026-6.206-17.606-9.846-5.184-3.381-11.216-7.157-17.928-6.835-7.328.352-12.927 6.007-18.95 9.464-11.127 6.385-22.429 8.188-35.57 7.438z" mask="url(#a)"/><path d="m-1 59.194c11.4 1.012 21.483 2.474 31.776-2.98 6.543-3.467 11.84-8.991 19.659-9.124 8.05-.137 15.588 4.077 22.267 7.715 6.905 3.761 13.967 8.287 21.798 9.617 7.525 1.279 14.497-2.49 20.98-5.758 3.445-1.737 6.789-3.667 9.931-5.872 3.375-2.367 6.061-5.318 9.204-7.893 7.463-6.115 19.967-2.135 28.385-1.828v.818c-8.697-.255-21.319-4.234-29.068 1.963-3.226 2.58-6.011 5.58-9.427 8-3.183 2.255-6.562 4.253-10.068 6.015-6.42 3.225-13.534 6.73-20.936 5.333-7.604-1.434-14.394-5.933-21.074-9.68-6.424-3.603-13.704-7.737-21.514-7.546-7.729.189-13.085 5.757-19.536 9.25-4.415 2.39-9.138 4.121-14.242 4.578-5.996.536-12.119-.305-18.135-.823v-1.785" mask="url(#a)"/><path d="m-1 51.614c10.502.798 20.214 4.135 30.015-.557 6.852-3.28 11.883-8.569 20.04-8.373 8.908.214 17.312 4.752 24.847 8.505 7.645 3.807 15.656 8.433 24.275 9.408 7.934.899 14.2-3.774 20.937-6.971 3.213-1.525 6.426-3.058 9.422-4.93 3.235-2.022 5.537-4.589 8.34-7.057 6.476-5.7 18.638-1.935 26.124-1.538v.658c-7.65-.393-19.86-4.2-26.517 1.537-2.877 2.48-5.258 5.129-8.519 7.224-3.024 1.944-6.263 3.564-9.525 5.137-6.684 3.223-13.117 7.682-20.981 6.727-8.47-1.029-16.304-5.585-23.819-9.346-7.38-3.693-15.627-8.116-24.37-8.233-8.09-.108-13.183 5.184-19.98 8.48-9.893 4.795-19.64 1.812-30.289.944v-1.615" mask="url(#a)"/><path d="m-1 43.8c10.431.281 20.298 4.757 30.012-.064 6.37-3.161 11.054-8.436 18.676-8.112 9.819.418 19.038 6.139 27.253 10.54 7.999 4.287 16.567 9.595 25.715 10.419 7.837.705 13.112-4.806 19.875-7.611 3.059-1.27 6.21-2.319 9.164-3.785 3.232-1.603 5.275-3.635 7.766-6.144 6.009-6.05 18.286-2.54 25.539-2.28v.494c-7.243-.317-19.484-3.94-25.525 2.082-2.552 2.544-4.64 4.703-7.885 6.43-2.966 1.58-6.133 2.759-9.225 4.109-6.74 2.944-12.16 8.282-20.023 7.573-9.094-.82-17.6-6.002-25.585-10.209-8.18-4.309-17.371-9.857-27.123-10.112-7.602-.198-12.329 5.031-18.706 8.185-9.727 4.81-19.509.452-29.928.024z" mask="url(#a)"/><path d="m-1 37.06c6.582.05 12.317 1.453 18.533 2.96 4.538 1.1 8.617.908 12.894-.925 6.549-2.807 11.006-8.058 18.721-7.544 9.596.639 18.44 6.399 26.342 10.844 7.576 4.262 15.805 9.604 24.66 10.373 7.705.668 12.436-5.12 19.37-7.015 2.97-.812 6.044-1.136 8.99-1.96 3.4-.95 5.39-2.539 8.083-4.651 7.145-5.602 18.11-4.21 26.407-3.938v.522c-7.973-.244-19.429-2.267-26.191 3.495-2.594 2.21-4.553 3.85-7.895 4.924-2.935.942-6.019 1.396-8.994 2.265-6.922 2.02-11.737 7.73-19.469 7.05-8.968-.789-17.328-6.123-25.046-10.387-8.012-4.428-16.984-10.189-26.67-10.81-7.69-.495-12.196 4.75-18.692 7.632-4.212 1.87-8.286 2.248-12.832 1.273-6.117-1.313-11.784-2.669-18.211-2.728z" mask="url(#a)"/><path d="m-1 30.112c7.496.053 13.753 1.78 20.508 4.384 4.52 1.742 8.726 2.658 13.45 1.08 6.717-2.246 11.028-7.642 18.684-7.01 8.929.738 16.885 6.529 23.967 11.06 6.607 4.225 13.936 9.659 22.016 10.334 7.546.63 11.771-5.836 18.792-6.964 3.057-.49 6.148-.223 9.203-.472 3.755-.305 6.121-1.579 9.33-3.361 8.724-4.843 18.259-7.271 28.05-7.144v.697c-9.563-.182-19.224 1.55-27.716 6.509-3.12 1.821-5.404 3.153-9.092 3.569-3.031.342-6.112.172-9.142.715-7.014 1.255-11.313 7.598-18.899 6.962-8.23-.69-15.735-6.107-22.53-10.344-7.248-4.52-15.379-10.304-24.441-11.025-7.686-.61-12.009 4.753-18.71 7.111-4.636 1.633-8.81.918-13.33-.718-6.66-2.41-12.81-4.073-20.14-4.12v-1.263" mask="url(#a)"/><path d="m-1 22.515c8.535.124 15.51 2.316 22.815 6.066 4.555 2.339 9.022 4.493 14.297 3.298 6.726-1.524 11.08-7.153 18.442-6.394 8.062.83 14.875 6.687 20.862 11.277 5.38 4.125 11.566 9.718 18.68 10.305 3.252.268 6.044-.86 8.519-2.837 2.944-2.351 5.77-4.003 9.608-4.244 3.257-.204 6.47.594 9.675.877 4.16.367 7.1-.596 10.848-2.241 9.97-4.375 19.288-10.99 30.254-11.33v.736c-10.795.257-20.12 6.221-29.89 10.648-3.658 1.658-6.51 2.679-10.603 2.411-3.18-.208-6.372-.92-9.593-.672-3.806.293-6.62 1.935-9.563 4.253-2.526 1.99-5.381 3.078-8.671 2.806-7.271-.601-13.646-6.17-19.227-10.319-6.17-4.586-13.17-10.435-21.374-11.253-7.417-.74-11.754 4.855-18.487 6.497-5.185 1.265-9.607-.694-14.151-2.943-7.218-3.573-14.074-5.686-22.441-5.796v-1.146" mask="url(#a)"/><path d="m-1 14.515c9.656.246 17.44 3.035 25.303 7.962 4.663 2.922 9.451 6.377 15.302 5.691 6.662-.78 11.167-6.636 18.15-5.781 7.154.875 12.736 6.87 17.493 11.479 4.057 3.93 8.987 9.78 15.08 10.256 2.99.234 5.362-1.192 7.492-3.083 2.905-2.58 5.9-4.386 9.899-4.237 3.515.13 6.838 1.452 10.213 2.204 4.58 1.02 8.09.441 12.438-1.17 6.813-2.524 12.73-5.84 18.445-10.184 4.515-3.43 8.499-5.324 14.185-5.736v.67c-5.585.378-9.634 2.169-14.154 5.436-5.691 4.112-11.507 7.352-18.15 9.87-4.264 1.615-7.696 2.25-12.22 1.322-3.355-.689-6.662-1.933-10.142-2.02-3.978-.098-6.952 1.697-9.862 4.245-2.179 1.907-4.609 3.29-7.635 3.05-6.233-.496-11.34-6.312-15.58-10.284-4.926-4.613-10.685-10.605-17.96-11.472-7.036-.84-11.513 4.99-18.187 5.874-5.771.764-10.514-2.513-15.158-5.358-7.786-4.77-15.455-7.473-24.952-7.7v-1.034" mask="url(#a)"/><path d="m-1 7.515c10.69.38 19.332 3.678 27.657 9.574 4.781 3.387 9.88 8.005 16.196 8.074 7.023.078 11.926-6.41 19.041-4.914 5.969 1.255 10.096 6.813 13.55 11.087 2.742 3.394 6.503 9.42 11.534 9.803 3.063.233 5.13-1.89 7.097-3.767 2.809-2.68 6.012-4.168 9.99-3.558 3.706.569 7.071 2.413 10.563 3.568 5.015 1.66 9.2 1.3 14.206-.303 7.78-2.492 14.353-6.25 19.972-11.98 1.529-1.558 2.983-3.212 4.749-4.512 2.891-2.132 5.942-2.65 9.445-2.977v.51c-3.468.32-6.502.83-9.4 2.888-1.773 1.26-3.25 2.866-4.792 4.386-5.63 5.547-12.098 9.254-19.75 11.745-4.929 1.605-9.057 2.015-14.029.444-3.48-1.1-6.842-2.875-10.526-3.395-3.971-.561-7.166.925-9.982 3.584-2.01 1.898-4.106 3.968-7.205 3.724-5.139-.404-9.045-6.398-11.928-9.845-3.583-4.285-7.846-9.846-13.9-11.101-7.159-1.484-12.03 4.98-19.062 4.99-6.251.01-11.317-4.465-16.073-7.785-8.26-5.765-16.801-8.984-27.353-9.345v-.894" mask="url(#a)"/><path d="m-1-.485c11.802.527 21.225 4.468 30.048 11.401 5.002 3.932 10.323 9.67 17.131 10.4 7.043.755 12.151-5.898 19.058-4.357 5.417 1.209 8.57 6.684 11.106 10.843 1.779 2.917 4.457 9.159 8.732 9.329 2.797.111 4.758-2.45 6.421-4.167 2.714-2.804 5.875-4.29 9.834-3.236 3.83 1.019 7.133 3.452 10.654 5.079 5.264 2.433 9.828 2.515 15.425.964 8.703-2.412 16.19-6.451 21.59-13.54 1.392-1.827 2.62-3.809 4.294-5.4 2.806-2.665 5.97-3.166 9.707-3.506v.317c-3.718.345-6.871.855-9.691 3.47-1.688 1.564-2.942 3.517-4.351 5.32-5.434 6.955-12.82 10.977-21.438 13.405-5.538 1.56-10.071 1.53-15.32-.817-3.523-1.575-6.84-3.943-10.665-4.908-3.968-1.002-7.144.485-9.872 3.28-1.689 1.73-3.65 4.246-6.472 4.119-4.342-.197-7.124-6.422-8.987-9.389-2.618-4.17-5.86-9.66-11.32-10.877-6.916-1.542-12.007 5.093-19.039 4.408-6.76-.66-12.061-6.282-17.04-10.156-8.775-6.825-18.119-10.697-29.805-11.21z" mask="url(#a)"/></g></svg>