<svg height="64" viewBox="0 0 64 64" width="64" xmlns="http://www.w3.org/2000/svg"><path d="m38.4539423 7.02120059-2.4323762-.02011012-8.2249528.00078426-2.5409737.02375708-1.6334655.04036094-1.929401.07993315c-2.6617097.12188651-4.478548.54328048-6.0682814 1.16156804-1.6444262.63860198-3.0393496 1.49284933-4.4290642 2.88308476-1.39075635 1.3897146-2.2450037 2.7846381-2.88568921 4.4285433-.61985021 1.5902544-1.04176506 3.4076135-1.16156804 6.0682815l-.06686755 1.5878733-.03098968.9715842-.02446959 1.1974644-.02584343 3.8412603.00430431 6.8253837.02471226 2.6566201.04894512 1.8630127.07072944 1.6733319c.1224074 2.6617097.54380136 4.478548 1.16156804 6.0682814.63912287 1.6444262 1.49337022 3.0393496 2.88360573 4.4290642 1.3891937 1.3907563 2.7841171 2.2470872 4.4275015 2.8856892 1.4972002.5819177 3.1951114.9894245 5.6083355 1.1369705l2.057238.0926868 1.5695559.0449471 2.336244.0277844 3.1969241.0095518 5.8146349-.0063214 2.540231-.0237571 1.6327104-.0403609 1.9289382-.0799331c2.6617097-.1218866 4.4806315-.5432805 6.0714068-1.1615681 1.6439052-.638602 3.0367451-1.4949329 4.4259388-2.8856892 1.3907564-1.3897146 2.2450037-2.784638 2.8856893-4.4285433.6146413-1.5902543 1.0365562-3.4076135 1.161568-6.0682815l.0949608-2.4382897.0340592-1.7758332.0201987-3.6557859-.0040024-6.3208656-.0290555-3.0646402-.0426663-1.5984421-.0734945-1.7626738c-.1250118-2.6617097-.5469267-4.478548-1.161568-6.0682815-.6406856-1.6444261-1.4949329-3.0393496-2.8856893-4.4290642-1.3907563-1.39075631-2.7815127-2.24500366-4.4275015-2.88308476-1.5939005-.61828756-3.4117805-1.03968153-6.0734903-1.16156804l-1.2420996-.05431146-1.3578306-.04571407zm-8.6947823 4.47305271v.0062506l6.110949.0050313 2.913907.0254408 1.4845173.0373855 1.8365844.0759059c1.5845247.0724548 2.6980934.2699109 3.5255234.4932367l.3622462.1045493.325649.1060573.2930896.1053994c.0463594.0173914.0915303.0346652.135597.0517762 1.1667768.4531678 1.9986262.9948856 2.873188 1.8699682.8750826.8750827 1.4168005 1.7084947 1.87101 2.8752716l.1042724.2780419.106035.3086385c.0176986.0542135.0353799.1098698.0529988.1670529l.1046005.3620928c.2062507.7635174.3904493 1.7710892.4742885 3.1678539l.0648399 1.4017474.0606308 1.8867849.0289888 2.3179095.0096036 3.2702585-.0063308 5.8318812-.0340361 2.9984254-.0352946 1.2036055-.0695779 1.6465955c-.0557345 1.2188651-.1854342 2.1590581-.3439778 2.9045712l-.0982265.4246182c-.0168276.0671001-.0338535.1324214-.0510324.1960478l-.1045493.3620928-.1060573.3254487c-.0176815.0514118-.0353357.1014647-.0529173.1502427l-.1042583.2780419c-.4531678 1.1667769-.9959274 1.9975845-1.87101 2.8721463-.8750827.8750827-1.7058903 1.4168005-2.873188 1.8699683l-.2780711.1046526-.3087177.106259c-.0542301.0177246-.1099046.0354268-.1671073.0530619l-.3622236.1046487c-.7638018.2062585-1.7717704.3899962-3.1685945.4740307l-2.0911528.0915833-1.3710377.0375202-2.008082.0245125-3.4088288.0105102-5.8347391-.0063308-2.9993634-.034036-1.2036923-.0352947-1.64657-.0695779c-1.5845246-.0731319-2.6980933-.2708251-3.5256664-.4942337l-.3623229-.1045777-.3257491-.1060701c-.0514682-.0176827-.1015809-.0353376-.1504222-.0529198l-.2784654-.1042593c-1.1667768-.4531678-2.0001889-.9948856-2.8752715-1.8699683-.8750827-.8750826-1.4168005-1.7064112-1.8710101-2.8737089l-.1042723-.2780419-.106035-.3086385c-.0176986-.0542135-.03538-.1098698-.0529988-.1670529l-.1046005-.3620928c-.0171876-.0636264-.034222-.1289477-.051058-.1960478l-.0982717-.4246182c-.1427479-.6709618-.2620795-1.4996143-.3249589-2.5471879l-.0776082-1.7229178-.0470628-1.5659274-.0246946-1.8191169-.0126566-3.7719293.0062508-5.8895843.0311004-2.8620365.0365585-1.2837917.0527342-1.2794019.0165547-.3666691c.0613079-1.3407517.2121138-2.34431.3923611-3.1226421l.1008755-.4028813.1045493-.3622462.1060573-.325649.1053994-.2930896c.0173915-.0463594.0346652-.0915303.0517762-.1355969.4531678-1.1667769.9959274-2.000189 1.8710101-2.8752716.8750826-.8750827 1.7084947-1.4168005 2.8752715-1.8710101l.2783388-.1046531.3089042-.1062626.3435012-.1057314c.0603573-.0174586.122324-.034806.1859844-.0519974l.402956-.1009203c.7077035-.1638925 1.6015575-.3032709 2.7655542-.3735347l1.6838806-.075859 1.353762-.0426104 2.0484575-.029685zm2.2423993 7.6632238c-7.090253 0-12.8392335 5.7489804-12.8392335 12.8397543s5.7489805 12.83715 12.8397544 12.83715 12.8376708-5.7463761 12.8376708-12.83715-5.7474178-12.8397543-12.8381917-12.8397543zm.0005209 4.5056338c4.602518 0 8.3341205 3.7310816 8.3341205 8.3341205 0 4.6025181-3.7316025 8.3341205-8.3341205 8.3341205-4.6030389 0-8.3341205-3.7316024-8.3341205-8.3341205 0-4.6030389 3.7310816-8.3341205 8.3341205-8.3341205zm13.3460522-8.012215c-1.6564065.0010417-3.0002834 1.343356-3.0002834 3.0002833 0 1.6564065 1.3438769 3.0002834 3.0002834 3.0002834 1.6564064 0 3.0002834-1.3438769 3.0002834-3.0002834 0-1.6564064-1.343877-3.0002833-3.0002834-3.0002833z" fill="#fff"/></svg>