<svg height="32" viewBox="0 0 37 32" width="37" xmlns="http://www.w3.org/2000/svg"><g fill="none" fill-rule="evenodd" stroke="#000" stroke-width="2" transform="translate(1 1)"><path d="m30 4.615v-1.153c-.006-1.91-1.552-3.456-3.462-3.462h-23.076c-1.91.006-3.456 1.552-3.462 3.462v18.461c.006 1.91 1.552 3.456 3.462 3.462h1.153" stroke-linejoin="round"/><rect height="24.231" rx="2" stroke-linejoin="round" width="28.846" x="5.769" y="5.769"/><ellipse cx="25.739" cy="12.378" rx="2.219" ry="2.203"/><path d="m23.52 23.378-6.284-6.23c-.834-.824-2.163-.862-3.042-.088l-8.425 7.433m12.204 5.507 8.552-8.49c.816-.804 2.106-.862 2.99-.135l5.1 4.22" stroke-linecap="round" stroke-linejoin="round"/></g></svg>