<svg height="32" viewBox="0 0 32 32" width="32" xmlns="http://www.w3.org/2000/svg"><path d="m4 20v2h4.586l-6.586 6.586 1.414 1.414 6.586-6.586v4.586h2v-8z"/><path d="m19 14a3 3 0 1 0 -3-3 3 3 0 0 0 3 3zm0-4a1 1 0 1 1 -1 1 1 1 0 0 1 1-1z"/><path d="m26 4h-20a2 2 0 0 0 -2 2v10h2v-10h20v15.17l-3.59-3.59a2 2 0 0 0 -2.82 0l-1.59 1.59-6.1692-6.17-1.4151 1.4155 3.5843 3.5845 2.59 2.59a2 2 0 0 0 2.82 0l1.59-1.59 5 5v2h-10v2h10a2 2 0 0 0 2-2v-20a2 2 0 0 0 -2-2z"/><path d="m0 0h32v32h-32z" fill="none"/></svg>