<svg height="567" viewBox="0 0 818 567" width="818" xmlns="http://www.w3.org/2000/svg" xmlns:xlink="http://www.w3.org/1999/xlink"><defs><circle id="a" cx="100" cy="100" r="100"/><filter id="b" height="131%" width="131%" x="-15.5%" y="-14.5%"><feOffset dx="0" dy="2" in="SourceAlpha" result="shadowOffsetOuter1"/><feGaussianBlur in="shadowOffsetOuter1" result="shadowBlurOuter1" stdDeviation="10"/><feColorMatrix in="shadowBlurOuter1" type="matrix" values="0 0 0 0 0   0 0 0 0 0   0 0 0 0 0  0 0 0 0.5 0"/></filter><circle id="c" cx="100" cy="100" r="100"/><filter id="d" height="131%" width="131%" x="-15.5%" y="-14.5%"><feOffset dx="0" dy="2" in="SourceAlpha" result="shadowOffsetOuter1"/><feGaussianBlur in="shadowOffsetOuter1" result="shadowBlurOuter1" stdDeviation="10"/><feColorMatrix in="shadowBlurOuter1" type="matrix" values="0 0 0 0 0   0 0 0 0 0   0 0 0 0 0  0 0 0 0.5 0"/></filter><circle id="e" cx="100" cy="100" r="100"/><filter id="f" height="131%" width="131%" x="-15.5%" y="-14.5%"><feOffset dx="0" dy="2" in="SourceAlpha" result="shadowOffsetOuter1"/><feGaussianBlur in="shadowOffsetOuter1" result="shadowBlurOuter1" stdDeviation="10"/><feColorMatrix in="shadowBlurOuter1" type="matrix" values="0 0 0 0 0   0 0 0 0 0   0 0 0 0 0  0 0 0 0.5 0"/></filter><circle id="g" cx="100" cy="100" r="100"/><filter id="h" height="131%" width="131%" x="-15.5%" y="-14.5%"><feOffset dx="0" dy="2" in="SourceAlpha" result="shadowOffsetOuter1"/><feGaussianBlur in="shadowOffsetOuter1" result="shadowBlurOuter1" stdDeviation="10"/><feColorMatrix in="shadowBlurOuter1" type="matrix" values="0 0 0 0 0   0 0 0 0 0   0 0 0 0 0  0 0 0 0.5 0"/></filter><circle id="i" cx="100" cy="100" r="100"/><filter id="j" height="131%" width="131%" x="-15.5%" y="-14.5%"><feOffset dx="0" dy="2" in="SourceAlpha" result="shadowOffsetOuter1"/><feGaussianBlur in="shadowOffsetOuter1" result="shadowBlurOuter1" stdDeviation="10"/><feColorMatrix in="shadowBlurOuter1" type="matrix" values="0 0 0 0 0   0 0 0 0 0   0 0 0 0 0  0 0 0 0.5 0"/></filter><linearGradient id="k"><stop offset="0" stop-color="#fff" stop-opacity=".1"/><stop offset="1" stop-color="#fff" stop-opacity="0"/></linearGradient><linearGradient id="l" x1="0%" x2="100%" xlink:href="#k" y1="50%" y2="50%"/><linearGradient id="m" x1="25.096339%" x2="60.794798%" y1="25.240385%" y2="96.5%"><stop offset="0" stop-color="#bf360c" stop-opacity=".2"/><stop offset="1" stop-color="#bf360c" stop-opacity=".02"/></linearGradient><linearGradient id="n" x1="33.532237%" x2="98.220395%" xlink:href="#k" y1="33.573026%" y2="98.261184%"/></defs><g fill="none" fill-rule="evenodd"><g transform="translate(232 18)"><use fill="#000" filter="url(#b)" xlink:href="#a"/><use fill="#fff" fill-rule="evenodd" xlink:href="#a"/></g><g fill-rule="nonzero" transform="translate(232 18)"><path d="m199.935217 99.9676086c0-55.2063371-44.761272-99.9676086-99.9676084-99.9676086-55.2063371 0-99.9676086 44.7612715-99.9676086 99.9676086 0 49.8923294 36.5515793 91.2513444 84.3492069 98.7592154v-69.855411h-25.3893189v-28.9038044h25.3893189v-22.0293411c0-25.0518605 14.9296486-38.8991822 37.7599721-38.8991822 10.937032 0 22.380636 1.9540297 22.380636 1.9540297v24.6021723h-12.610487c-12.412932 0-16.293318 7.7038892-16.293318 15.6184013v18.7531511h27.722316l-4.428468 28.9038053h-23.294617v69.856179c47.797628-7.494803 84.349976-48.853818 84.349976-98.7599843z" fill="#1977f3"/><path d="m138.880627 128.870645 4.428468-28.9038053h-27.722316v-18.7531511c0-7.9006757 3.865781-15.6184013 16.293318-15.6184013h12.610487v-24.6021723s-11.442835-1.9540297-22.380636-1.9540297c-22.8303241 0-37.7599722 13.8334853-37.7599722 38.8991822v22.0293411h-25.3893189v28.9038044h25.3893189v69.855411c5.0887793.800214 10.3043935 1.208393 15.6184012 1.208393 5.314008 0 10.529622-.422015 15.618402-1.208393v-69.855411h23.294617z" fill="#fefefe"/></g><g transform="translate(20 231)"><use fill="#000" filter="url(#d)" xlink:href="#c"/><use fill="#61206a" fill-rule="evenodd" xlink:href="#c"/></g><g fill-rule="nonzero" transform="translate(60 271)"><path d="m45.0022643 0c-6.7849373.0050051-12.2760728 5.50060381-12.2710649 12.2725028-.0050079 6.771899 5.4911423 12.2674977 12.2760795 12.2725028h12.2760796v-12.2674977c.0050076-6.77189898-5.4911423-12.26749769-12.2810942-12.2775079.0050146 0 .0050146 0 0 0m0 32.7333477h-32.7261643c-6.7849372.0050051-12.28108735 5.5006037-12.2761 12.2725027-.01000209 6.771899 5.48614806 12.2674977 12.2710853 12.2775079h32.731179c6.7849369-.0050051 12.2810872-5.5006037 12.2760792-12.2725027.005008-6.7769042-5.4911423-12.2725028-12.2760792-12.2775079z" fill="#36c5f0"/><path d="m119.34033 45.0058504c.005008-6.771899-5.491623-12.2674976-12.277154-12.2725027-6.785532.0050051-12.2821629 5.5006037-12.2771547 12.2725027v12.2775079h12.2771547c6.785531-.0050051 12.282162-5.5006037 12.277154-12.2775079zm-32.7340447 0v-32.7333476c.0050083-6.76689388-5.4866079-12.26249259-12.2721392-12.2725028-6.7855309.0050051-12.2821624 5.50060381-12.2771745 12.2725028v32.7333476c-.0100032 6.771899 5.4866283 12.2674977 12.2721596 12.2775079 6.7855312-.0050051 12.2821624-5.5006037 12.2771541-12.2775079z" fill="#2eb67d"/><path d="m74.3330509 119.34033c6.7849372-.005005 12.2810875-5.500123 12.2760795-12.271431.005008-6.771307-5.4911423-12.2664256-12.2760795-12.2714304h-12.2760795v12.2714304c-.0050077 6.766303 5.4911423 12.261421 12.2760795 12.271431zm0-32.7354927h32.7311791c6.784937-.0050045 12.281087-5.5001231 12.2761-12.2714305.010002-6.7713073-5.486148-12.2664259-12.271085-12.2764353h-32.7311794c-6.784937.0050046-12.2810872 5.5001231-12.2760793 12.2714305-.0050079 6.7763122 5.4861274 12.2714308 12.2710646 12.2764353z" fill="#ecb22e"/><path d="m.00000001 74.3294743c-.00500834 6.771899 5.49162302 12.2674979 12.27715419 12.2725027 6.7855313-.0050048 12.2821626-5.5006037 12.2771543-12.2725027v-12.2725028h-12.2771543c-6.78553117.0050051-12.28216253 5.5006038-12.27715419 12.2725028zm32.73402409 0v32.7333477c-.0100031 6.771899 5.4866284 12.267498 12.2721596 12.277508 6.7855309-.005005 12.2821624-5.500604 12.2771746-12.272503v-32.7283425c.0100031-6.771899-5.4866284-12.2674976-12.2721596-12.2775079-6.7905462 0-12.2821625 5.4955987-12.2771746 12.2674977 0 0 0 .0050051 0 0" fill="#e01e5a"/></g><g transform="translate(287 345)"><use fill="#000" filter="url(#f)" xlink:href="#e"/><use fill="#fff" fill-rule="evenodd" xlink:href="#e"/></g><g transform="translate(327 385)"><path d="m0 0h119.34033v119.309591h-119.34033z"/><g fill-rule="nonzero"><path d="m74.4975505 35.2171589c5.3834641-9.2133168 2.1870016-20.9881128-7.1384215-26.30964797-9.32933-5.31396648-21.2547532-2.16383706-26.6382173 7.04947967-.2372664.4127796-.4604514.8336161-.6691484 1.2616144l-18.1997552 31.1304275c-.402661.6188438-.7752872 1.2567313-1.116495 1.9114655l-18.89950801 32.6099065 33.77281321 18.9274705 18.803869-32.3346662c.4097424-.6144487.7826127-1.2527435 1.1164135-1.9114651l18.1997554-31.1342526c.2639641-.3899105.5278464-.7874714.7686943-1.2003322" fill="#fbbc04"/><path d="m36.0398228 101.128831c-5.2876544 9.249437-17.2151885 12.652368-26.37418989 7.315771-9.16278032-5.340537-12.41469896-16.9203424-7.12326569-26.1659999 5.29143325-9.2456576 17.11315658-12.6637037 26.27593688-7.3270264 9.1627804 5.3404559 12.5090925 16.9315176 7.2214384 26.1734763" fill="#34a853"/><path d="m109.854044 43.7854028c-9.070117-5.2987903-20.6595654-2.1609341-25.9154108 7.0166428l-18.9710957 33.2298724c-5.2267756 9.1588246-2.139577 20.878639 6.8954642 26.177023.0163368.009579.0325937.019077.0489308.028575 9.0718792 5.300739 20.6645302 2.160772 25.9191747-7.020458l18.9672518-33.2260567c5.225975-9.1616659 2.135893-20.8832662-6.901951-26.1808386-.014095-.0082805-.028269-.0165609-.042364-.0247599" fill="#4285f4"/></g></g><g transform="translate(598 295)"><use fill="#000" filter="url(#h)" xlink:href="#g"/><use fill="#f8da1a" fill-rule="evenodd" xlink:href="#g"/></g><g fill="#1a1919" fill-rule="nonzero" transform="translate(639.034483 335)"><path d="m87.6840471 56.4025175c.8948305-.1001224 1.7521798-.1042712 2.5398788 0 .455974-.979927.5341831-2.6692843.1242491-4.5088254-.609441-2.7342805-1.4346212-4.3887886-3.1395804-4.1312919-1.7049595.2574971-1.767822 2.2383711-1.1583807 4.9726517.3429396 1.5383443.9538562 2.8529341 1.6338332 3.6674656m-14.6366197 2.1639704c1.2197676.5014416 1.9693946.8338921 2.2630479.5434819.1885873-.1814373.1319227-.5271636-.1593694-.9730125-.6017677-.9210149-1.8401286-1.8550293-3.1543371-2.3797037-2.6868529-1.0839214-5.8913619-.7232594-8.3633611.9414821-.8163263.5603533-1.5901541 1.3364398-1.4791858 1.8080108.0360059.1523961.1578942.2671773.444464.3047922.6728939.0721878 3.0241854-1.0418811 5.7325826-1.1973195 1.912435-.1098026 3.4960964.4505507 4.7161589.9522687m-2.4539961 1.3118242c-1.5886788.2350938-2.4652114.7260253-3.0274318 1.1823843-.4801745.3935748-.7770741.8280837-.7744532 1.1337056.0012156.1454819.06821.2292859.1216282.2713263.0723065.060018.1581892.0932077.2611891.0932077.3588767 0 1.1625124-.302303 1.1625124-.302303 2.2111054-.741514 3.6696319-.6519017 5.1151729-.497293.7986187.0838041 1.1760886.1305464 1.3511-.1261209.0519425-.0735707.1148051-.2331579-.0451548-.4762727-.3724526-.565885-1.9764779-1.5220257-4.1645628-1.2786343m12.1480931 4.8169364c1.0786957.4967398 2.2668845.3017499 2.6535033-.4353386.3863237-.7373651-.1750114-1.737759-1.2534121-2.2344988-1.0792862-.4967395-2.2668845-.30175-2.6535033.4356151-.3866188.7370889.1747163 1.7374828 1.2534121 2.2342223m6.9355277-5.6793162c-.8762376-.0138292-1.6034349.8881018-1.6237988 2.0140635-.020364 1.1262382.6737791 2.0505723 1.5500166 2.0646778.8765327.0138291 1.6031399-.8881018 1.6237989-2.0140635.0203639-1.1265148-.6734841-2.050849-1.5500167-2.0646778m-58.8652177 20.3082439c-.2181001-.2558377-.5763866-.1778419-.9231631-.102335-.2420055.0531035-.5164753.1131215-.8172116.1078664-.6448565-.0113397-1.1905497-.2699431-1.4971886-.7108134-.3993093-.5747356-.3759941-1.4313071.0646332-2.4123404.0593209-.1319292.1295616-.2787936.2057048-.438934.7027018-1.4777728 1.8793805-3.9512378.5583838-6.3082618-.9939939-1.7739913-2.6151366-2.8786561-4.5647577-3.1109843-1.871412-.2220944-3.7980131.4284243-5.0266344 1.6987613-1.9389965 2.0046597-2.2417987 4.732026-1.8669851 5.695911.1375301.3529174.3523839.4505506.508507.4704644.3296589.0417637.8175069-.183373 1.1229652-.953375.0221347-.0555926.0513524-.1416096.0876533-.2505825.1360544-.407404.3895701-1.1655126.8048164-1.7734379.5008336-.7332165 1.280564-1.2379772 2.1960536-1.421627.9254063-.1884578 1.8928059-.0194609 2.6836066.4688052 1.3578878.8333386 1.8811512 2.3927029 1.301223 3.880986-.2998509.7694486-.7865183 2.2411365-.6793866 3.4500725.2172149 2.4474661 1.8236011 3.4301589 3.266486 3.5347064 1.4033376.049508 2.3837557-.6884102 2.6319591-1.2282967.1463837-.3188979.0230199-.5133343-.0566649-.5965852"/><path d="m44.1542208 33.514642c4.6599756-5.14787 10.3974108-9.6232046 15.5364575-12.1360914.1776232-.0870475.3663665.0973898.2698909.26459-.4078417.7064352-1.1937712 2.2187064-1.4426238 3.366125-.0390712.1786916.1646995.3134285.3224865.2105803 3.1975156-2.083395 8.7591312-4.3153165 13.6373035-4.6023148.2097815-.0123533.3110656.24448.1442625.3668637-.7417491.5438316-1.5532252 1.2965197-2.145903 2.0581138-.1006832.1295658-.0060111.3160141.1628963.3171632 3.4259309.0232702 8.2548136 1.1692523 11.4021379 2.8564804.2133883.1143397.0616122.5087828-.1767212.4564968-4.7621613-1.0434212-12.5577399-1.8348929-20.6550675.0528605-7.2290479 1.6855044-12.7467836 4.2877371-16.7720046 7.0861858-.2034702.1416319-.4478145-.1152016-.283115-.2970533zm42.4287692 52.042642c.1379508-.0554461.2332241-.2065581.2172951-.3559466-.0093294-.0883384-.0550287-.1695038-.1270234-.2256036-.0719951-.0561001-.1643746-.0825292-.2567745-.0734608 0 0-9.9453887 1.4071248-19.3407769-1.8805712 1.0230605-3.1793893 3.7445105-2.0311089 7.8574912-1.7139459 7.4132831.42231 14.0577681-.61278 18.9680991-1.959862 4.2548384-1.1675286 9.8438034-3.4686858 14.1842984-6.743454 1.464263 3.0739554 1.981203 6.4573176 1.981203 6.4573176s1.133362-.1939179 2.080684.3634161c.894728.5263072 1.551122 1.6208654 1.103007 4.4503408-.91276 5.2860543-3.263636 9.5766644-7.214322 13.5233935-2.404373 2.4743904-5.324183 4.6255851-8.6647591 6.1901421-1.8157518.91158-3.7084435 1.675671-5.658091 2.284208-14.8932876 4.649429-30.1379145-.462243-35.0521526-11.4394245-.3988271-.8383246-.7283326-1.7052277-.9854925-2.5927522-2.0942089-7.2338505-.3161749-15.9124603 5.2415335-21.3751953.0003004-.0002873-.0009016-.0020109-.0006012-.0025855.3426231-.3479028.692159-.7575721.692159-1.2732498 0-.4309281-.2864209-.8859885-.5352736-1.2083229-1.9439358-2.6956006-8.6788852-7.2892966-7.3270263-16.1790613.9707655-6.3860708 6.8136925-10.8838136 12.2614008-10.6172127.4601369.0226956.9211755.0497005 1.3804108.0758435 2.3610944.1333004 4.4204398.4228842 6.3640749.5007389 3.2525156.1341621 6.177736-.317738 9.6418364-3.0768285 1.168826-.9310927 2.1053293-1.7380777 3.6910132-1.9949112.1662023-.0270046.5809568-.1689238 1.4095638-.1318639.8457381.0430929 1.6506021.2651647 2.3743183.7253962 2.7770509 1.7668061 3.1710677 6.04535 3.3150294 9.1753261.0820492 1.7866292.3080603 6.1091276.3853007 7.349914.1767215 2.8375196.9569406 3.2377083 2.535712 3.7344251.8875143.2792417 1.7119137.4875237 2.9264225.8133055 3.676287.9868258 5.855851 1.9877287 7.22995 3.2736189.81929.8035379 1.200383 1.6573505 1.317897 2.4715177.433689 3.0228189-2.455166 6.757244-10.102274 10.1500866-8.3597048 3.7088564-18.5007493 4.6477058-25.5076932 3.9019123-.537678-.0571697-2.4482529-.2643027-2.4548649-.2651643-5.6048944-.7216615-8.8021092 6.2024952-5.4383913 10.9458673 2.1678427 3.0570054 8.072983 5.0470326 13.9811286 5.0478945 13.5462379.0017236 23.9583758-5.5279488 27.8312198-10.3034968.116011-.1427808.127431-.1582945.310164-.4220226.190246-.2746447.03336-.4257571-.204072-.270623-3.164455 2.0696054-17.2195181 10.2862599-32.2534618 7.8144546 0 0-1.8270232-.2872852-3.4944559-.9075348-1.3254107-.4926948-4.0985544-1.7119347-4.4357675-4.4322417 12.1327668 3.5867602 19.7720612.1962158 19.7720612.1962158zm-66.6399043-27.5613153c-4.2193741.7842897-7.9383382 3.0699336-10.21257453 6.2277766-1.35907187-1.0836413-3.89147778-3.1814005-4.33869117-3.9987278-3.63060332-6.5900437 3.96240679-19.4021181 9.2664538-26.6374049 13.1089424-17.8815155 33.6401844-31.41611308 43.1446711-28.96068338 1.5448099.41800051 6.6622172 6.08959218 6.6622172 6.08959218s-9.5005795 5.0387015-18.311104 12.062259c-11.8712913 8.7375033-20.8387013 21.4369616-26.2109724 35.2171883zm7.0901956 30.239104c-.6430621.1034028-1.2950712.1471777-1.9469411.130715-6.348747-.1628909-13.20662-5.6262005-13.8879593-12.1053517-.7534704-7.1617421 3.0748926-12.6733156 9.8528203-13.9798902.8102737-.1562833 1.7897552-.2462039 2.8455755-.1939179 3.7977072.1988016 9.3938856 2.9863336 10.672411 10.8941559 1.1324595 7.0037349-.6660115 14.1347373-7.5359064 15.2542889zm86.0023207-12.6810721c-.0547-.1838626-.408443-1.4217762-.895329-2.91365-.487186-1.491874-.990902-2.5419028-.990902-2.5419028 1.952351-2.7944266 1.987214-5.2935238 1.727843-6.7086924-.277405-1.754453-1.041394-3.2494871-2.581395-4.7950834-1.540302-1.5455963-4.690031-3.1282526-9.116782-4.3161785-.506421-.1358859-2.1759576-.5737092-2.3229249-.6165148-.0111202-.0919314-.1217212-5.2343429-.2227049-7.4418452-.0733334-1.5955841-.2166943-4.0869244-1.0251647-6.5412052-.9638528-3.3213085-2.6430071-6.2277763-4.7393196-8.0873758 5.7846209-5.7316344 9.3953881-12.045022 9.3866721-17.4617913-.01653-10.41611279-13.399571-13.56792271-29.8917667-7.04022011-.0174317.00718214-3.4695104 1.40626286-3.4944558 1.41804157-.0153277-.01436428-6.3171896-5.92469023-6.4118617-6.00369377-18.8033996-15.67717329-77.594228 46.78703991-58.79774106 61.95772881l4.10787137 3.3261922c-1.06573835 2.6384306-1.48409925 5.6612496-1.14237773 8.9121729.43909863 4.1748339 2.69229672 8.1775837 6.34423882 11.2702129 3.4665049 2.9354839 8.0245951 4.7939342 12.4477399 4.7901994 7.3147039 16.1124109 24.0272004 25.9970459 43.6231415 26.5532299 21.0202313.596692 38.6656244-8.831158 46.0590714-25.7672166.48358-1.1890748 2.536013-6.5446523 2.536013-11.2722237 0-4.7511286-2.810111-6.7201841-4.599866-6.7201841z"/></g><g transform="translate(512 73)"><use fill="#000" filter="url(#j)" xlink:href="#i"/><use fill="#fff" fill-rule="evenodd" xlink:href="#i"/></g><g fill-rule="nonzero" transform="translate(552 106)"><path d="m109.689534 0h-21.7339062c-5.2569376 0-9.5723344 4.31823562-9.5723344 9.57863175v28.10778805h-31.4631638c-5.1000141 0-9.2584869 4.161209-9.2584869 9.3430918v31.4838634h-28.32469383c-5.17847582 0-9.33694887 4.1612087-9.33694887 9.3430914v21.9837456c0 5.181882 4.15847305 9.343091 9.33694887 9.500118h100.43104713c5.256937 0 9.572334-4.318236 9.572334-9.578632v-100.18306625c-.078462-5.26039613-4.393858-9.57863175-9.650796-9.57863175z" fill="url(#l)"/><path d="m109.689534 0h-21.7339062c-5.2569376 0-9.5723344 4.31823562-9.5723344 9.57863175v28.10778805h-31.4631638c-5.1000141 0-9.2584869 4.161209-9.2584869 9.3430918v31.4838634h-28.32469383c-5.17847582 0-9.33694887 4.1612087-9.33694887 9.3430914v21.9837456c0 5.181882 4.15847305 9.343091 9.33694887 9.500118h100.43104713c5.256937 0 9.572334-4.318236 9.572334-9.578632v-100.18306625c-.078462-5.26039613-4.393858-9.57863175-9.650796-9.57863175z" fill="url(#l)"/><path d="m109.733427 0h-21.5856168c-5.259041 0-9.5761643 4.31712339-9.5761643 9.57616463v109.73342737h31.1617811c5.259042 0 9.576165-4.317123 9.576165-9.576165v-100.15726237c0-5.25904124-4.317123-9.57616463-9.576165-9.57616463z" fill="#f57c00"/><path d="m37.6767133 47.0958917v31.3972608h-28.257535c-5.18054805 0-9.4191783 4.2386304-9.4191783 9.4191783v21.9780832c0 5.180548 4.23863025 9.419178 9.4191783 9.419178h69.0739742v-81.6328787h-31.3972608c-5.1805483 0-9.4191784 4.2386301-9.4191784 9.4191784z" fill="#ffc107"/><path d="m78.4236454 37.5069609v81.8333691h31.2985046c5.282115 0 9.61818-4.327727 9.61818-9.599684v-31.3170006z" fill="url(#m)"/><g fill="#fff" opacity=".2"><path d="m46.9492725 38.29382h31.4743729v-.7868591h-31.4743729c-5.1932714 0-9.4423116 4.2490402-9.4423116 9.4423116v.7868594c0-5.1932713 4.2490402-9.4423119 9.4423116-9.4423119z"/><path d="m9.37674019 79.2105045h28.13022071v-.7868591h-28.13022071c-5.15720711 0-9.37674019 4.2490402-9.37674019 9.4423119v.7868591c0-5.1932714 4.21953308-9.4423119 9.37674019-9.4423119z"/><path d="m109.72215 0h-21.6803245c-5.2821154 0-9.6181801 4.26215464-9.6181801 9.45423393v.77493717c0-5.19207925 4.3360647-9.45423389 9.6181801-9.45423389h21.6803245c5.282115 0 9.61818 4.26215464 9.61818 9.45423389v-.77493717c0-5.19207929-4.336065-9.45423393-9.61818-9.45423393z"/></g><path d="m109.832987 118.565393h-100.40526283c-5.1852483 0-9.42772417-4.184661-9.42772417-9.299247v.774937c0 5.114586 4.24247587 9.299247 9.42772417 9.299247h100.32669783c5.263813 0 9.586935-4.262155 9.586935-9.454234v-.774937c.076483 5.192079-4.244558 9.454234-9.50837 9.454234z" fill="#bf360c" opacity=".2"/><path d="m109.761698 0h-21.5911779c-5.2603962 0-9.5786317 4.31823562-9.5786317 9.57863175v28.10778805h-31.40535c-5.1818827 0-9.4216052 4.2397225-9.4216052 9.4216052v31.40535h-28.3433282c-5.18188276 0-9.421605 4.2397221-9.421605 9.4216048v21.9837452c0 5.181883 4.23972224 9.421605 9.421605 9.421605h100.340093c5.260396 0 9.578632-4.318236 9.578632-9.578632v-100.18306625c0-5.26039613-4.318236-9.57863175-9.578632-9.57863175z" fill="url(#n)"/></g></g></svg>