<?xml version="1.0" encoding="UTF-8"?>
<svg width="818px" height="567px" viewBox="0 0 818 567" version="1.1" xmlns="http://www.w3.org/2000/svg" xmlns:xlink="http://www.w3.org/1999/xlink">
    <title>Group 7</title>
    <defs>
        <circle id="path-1" cx="100" cy="100" r="100"></circle>
        <filter x="-15.5%" y="-14.5%" width="131.0%" height="131.0%" filterUnits="objectBoundingBox" id="filter-2">
            <feOffset dx="0" dy="2" in="SourceAlpha" result="shadowOffsetOuter1"></feOffset>
            <feGaussianBlur stdDeviation="10" in="shadowOffsetOuter1" result="shadowBlurOuter1"></feGaussianBlur>
            <feColorMatrix values="0 0 0 0 0   0 0 0 0 0   0 0 0 0 0  0 0 0 0.5 0" type="matrix" in="shadowBlurOuter1"></feColorMatrix>
        </filter>
        <circle id="path-3" cx="100" cy="100" r="100"></circle>
        <filter x="-15.5%" y="-14.5%" width="131.0%" height="131.0%" filterUnits="objectBoundingBox" id="filter-4">
            <feOffset dx="0" dy="2" in="SourceAlpha" result="shadowOffsetOuter1"></feOffset>
            <feGaussianBlur stdDeviation="10" in="shadowOffsetOuter1" result="shadowBlurOuter1"></feGaussianBlur>
            <feColorMatrix values="0 0 0 0 0   0 0 0 0 0   0 0 0 0 0  0 0 0 0.5 0" type="matrix" in="shadowBlurOuter1"></feColorMatrix>
        </filter>
        <circle id="path-5" cx="100" cy="100" r="100"></circle>
        <filter x="-15.5%" y="-14.5%" width="131.0%" height="131.0%" filterUnits="objectBoundingBox" id="filter-6">
            <feOffset dx="0" dy="2" in="SourceAlpha" result="shadowOffsetOuter1"></feOffset>
            <feGaussianBlur stdDeviation="10" in="shadowOffsetOuter1" result="shadowBlurOuter1"></feGaussianBlur>
            <feColorMatrix values="0 0 0 0 0   0 0 0 0 0   0 0 0 0 0  0 0 0 0.5 0" type="matrix" in="shadowBlurOuter1"></feColorMatrix>
        </filter>
        <circle id="path-7" cx="100" cy="100" r="100"></circle>
        <filter x="-15.5%" y="-14.5%" width="131.0%" height="131.0%" filterUnits="objectBoundingBox" id="filter-8">
            <feOffset dx="0" dy="2" in="SourceAlpha" result="shadowOffsetOuter1"></feOffset>
            <feGaussianBlur stdDeviation="10" in="shadowOffsetOuter1" result="shadowBlurOuter1"></feGaussianBlur>
            <feColorMatrix values="0 0 0 0 0   0 0 0 0 0   0 0 0 0 0  0 0 0 0.5 0" type="matrix" in="shadowBlurOuter1"></feColorMatrix>
        </filter>
        <circle id="path-9" cx="100" cy="100" r="100"></circle>
        <filter x="-15.5%" y="-14.5%" width="131.0%" height="131.0%" filterUnits="objectBoundingBox" id="filter-10">
            <feOffset dx="0" dy="2" in="SourceAlpha" result="shadowOffsetOuter1"></feOffset>
            <feGaussianBlur stdDeviation="10" in="shadowOffsetOuter1" result="shadowBlurOuter1"></feGaussianBlur>
            <feColorMatrix values="0 0 0 0 0   0 0 0 0 0   0 0 0 0 0  0 0 0 0.5 0" type="matrix" in="shadowBlurOuter1"></feColorMatrix>
        </filter>
        <linearGradient x1="0%" y1="50%" x2="100%" y2="50%" id="linearGradient-11">
            <stop stop-color="#FFFFFF" stop-opacity="0.1" offset="0%"></stop>
            <stop stop-color="#FFFFFF" stop-opacity="0" offset="100%"></stop>
        </linearGradient>
        <linearGradient x1="25.096339%" y1="25.240385%" x2="60.794798%" y2="96.5%" id="linearGradient-12">
            <stop stop-color="#BF360C" stop-opacity="0.2" offset="0%"></stop>
            <stop stop-color="#BF360C" stop-opacity="0.02" offset="100%"></stop>
        </linearGradient>
        <linearGradient x1="33.532237%" y1="33.573026%" x2="98.220395%" y2="98.261184%" id="linearGradient-13">
            <stop stop-color="#FFFFFF" stop-opacity="0.1" offset="0%"></stop>
            <stop stop-color="#FFFFFF" stop-opacity="0" offset="100%"></stop>
        </linearGradient>
    </defs>
    <g id="✅-Editor" stroke="none" stroke-width="1" fill="none" fill-rule="evenodd">
        <g id="Artboard" transform="translate(-98.000000, -126.000000)">
            <g id="Group-7" transform="translate(118.000000, 144.000000)">
                <g id="Group-6" transform="translate(212.000000, 0.000000)">
                    <g id="Oval">
                        <use fill="black" fill-opacity="1" filter="url(#filter-2)" xlink:href="#path-1"></use>
                        <use fill="#FFFFFF" fill-rule="evenodd" xlink:href="#path-1"></use>
                    </g>
                    <g id="Group" fill-rule="nonzero">
                        <path d="M199.935217,99.9676086 C199.935217,44.7612715 155.173945,0 99.9676086,0 C44.7612715,0 1.78195343e-14,44.7612715 1.78195343e-14,99.9676086 C1.78195343e-14,149.859938 36.5515793,191.218953 84.3492069,198.726824 L84.3492069,128.871413 L58.959888,128.871413 L58.959888,99.9676086 L84.3492069,99.9676086 L84.3492069,77.9382675 C84.3492069,52.886407 99.2788555,39.0390853 122.109179,39.0390853 C133.046211,39.0390853 144.489815,40.993115 144.489815,40.993115 L144.489815,65.5952873 L131.879328,65.5952873 C119.466396,65.5952873 115.58601,73.2991765 115.58601,81.2136886 L115.58601,99.9668397 L143.308326,99.9668397 L138.879858,128.870645 L115.585241,128.870645 L115.585241,198.726824 C163.382869,191.232021 199.935217,149.873006 199.935217,99.9668397 L199.935217,99.9676086 Z" id="Path" fill="#1977F3"></path>
                        <path d="M138.880627,128.870645 L143.309095,99.9668397 L115.586779,99.9668397 L115.586779,81.2136886 C115.586779,73.3130129 119.45256,65.5952873 131.880097,65.5952873 L144.490584,65.5952873 L144.490584,40.993115 C144.490584,40.993115 133.047749,39.0390853 122.109948,39.0390853 C99.2796239,39.0390853 84.3499758,52.8725706 84.3499758,77.9382675 L84.3499758,99.9676086 L58.9606569,99.9676086 L58.9606569,128.871413 L84.3499758,128.871413 L84.3499758,198.726824 C89.4387551,199.527038 94.6543693,199.935217 99.968377,199.935217 C105.282385,199.935217 110.497999,199.513202 115.586779,198.726824 L115.586779,128.871413 L138.881396,128.871413 L138.880627,128.870645 Z" id="Path" fill="#FEFEFE"></path>
                    </g>
                </g>
                <g id="Group-2" transform="translate(0.000000, 213.000000)">
                    <g id="Oval">
                        <use fill="black" fill-opacity="1" filter="url(#filter-4)" xlink:href="#path-3"></use>
                        <use fill="#61206A" fill-rule="evenodd" xlink:href="#path-3"></use>
                    </g>
                    <g id="Group" transform="translate(40.000000, 40.000000)" fill-rule="nonzero">
                        <path d="M45.0022643,0 C38.217327,0.0050051036 32.7261915,5.50060381 32.7311994,12.2725028 C32.7261915,19.0444018 38.2223417,24.5400005 45.0072789,24.5450056 L57.2833585,24.5450056 L57.2833585,12.2775079 C57.2883661,5.50560892 51.7922162,0.0100102072 45.0022643,0 C45.0072789,0 45.0072789,0 45.0022643,0 M45.0022643,32.7333477 L12.2761,32.7333477 C5.4911628,32.7383528 -0.00498735172,38.2339514 -2.75802186e-09,45.0058504 C-0.0100020921,51.7777494 5.48614806,57.2733481 12.2710853,57.2833583 L45.0022643,57.2833583 C51.7872012,57.2783532 57.2833515,51.7827546 57.2783435,45.0108556 C57.2833515,38.2339514 51.7872012,32.7383528 45.0022643,32.7333477 Z" id="Shape" fill="#36C5F0"></path>
                        <path d="M119.34033,45.0058504 C119.345338,38.2339514 113.848707,32.7383528 107.063176,32.7333477 C100.277644,32.7383528 94.7810131,38.2339514 94.7860213,45.0058504 L94.7860213,57.2833583 L107.063176,57.2833583 C113.848707,57.2783532 119.345338,51.7827546 119.34033,45.0058504 L119.34033,45.0058504 Z M86.6062853,45.0058504 L86.6062853,12.2725028 C86.6112936,5.50560892 81.1196774,0.0100102072 74.3341461,7.22793473e-15 C67.5486152,0.0050051036 62.0519837,5.50060381 62.0569716,12.2725028 L62.0569716,45.0058504 C62.0469684,51.7777494 67.5435999,57.2733481 74.3291312,57.2833583 C81.1146624,57.2783532 86.6112936,51.7827546 86.6062853,45.0058504 L86.6062853,45.0058504 Z" id="Shape" fill="#2EB67D"></path>
                        <path d="M74.3330509,119.34033 C81.1179881,119.335325 86.6141384,113.840207 86.6091304,107.068899 C86.6141384,100.297592 81.1179881,94.8024734 74.3330509,94.7974686 L62.0569714,94.7974686 L62.0569714,107.068899 C62.0519637,113.835202 67.5481137,119.33032 74.3330509,119.34033 Z M74.3330509,86.6048373 L107.06423,86.6048373 C113.849167,86.5998328 119.345317,81.1047142 119.34033,74.3334068 C119.350332,67.5620995 113.854182,62.0669809 107.069245,62.0569715 L74.3380656,62.0569715 C67.5531286,62.0619761 62.0569784,67.5570946 62.0619863,74.328402 C62.0569784,81.1047142 67.5481137,86.5998328 74.3330509,86.6048373 Z" id="Shape" fill="#ECB22E"></path>
                        <path d="M6.51823839e-09,74.3294743 C-0.00500832579,81.1013733 5.49162303,86.5969722 12.2771542,86.601977 C19.0626855,86.5969722 24.5593168,81.1013733 24.5543085,74.3294743 L24.5543085,62.0569715 L12.2771542,62.0569715 C5.49162303,62.0619766 -0.00500832579,67.5575753 6.51823839e-09,74.3294743 Z M32.7340241,74.3294743 L32.7340241,107.062822 C32.724021,113.834721 38.2206525,119.33032 45.0061837,119.34033 C51.7917146,119.335325 57.2883461,113.839726 57.2833583,107.067827 L57.2833583,74.3394845 C57.2933614,67.5675855 51.7967299,62.0719869 45.0111987,62.0619766 C38.2206525,62.0619766 32.7290362,67.5575753 32.7340241,74.3294743 C32.7340241,74.3294743 32.7340241,74.3344794 32.7340241,74.3294743" id="Shape" fill="#E01E5A"></path>
                    </g>
                </g>
                <g id="Group-3" transform="translate(267.000000, 327.000000)">
                    <g id="Oval">
                        <use fill="black" fill-opacity="1" filter="url(#filter-6)" xlink:href="#path-5"></use>
                        <use fill="#FFFFFF" fill-rule="evenodd" xlink:href="#path-5"></use>
                    </g>
                    <g id="Group" transform="translate(40.000000, 40.000000)">
                        <polygon id="Path" points="0 0 119.34033 0 119.34033 119.309591 0 119.309591"></polygon>
                        <path d="M74.4975505,35.2171589 C79.8810146,26.0038421 76.6845521,14.2290461 67.359129,8.90751093 C58.029799,3.59354445 46.1043758,6.74367387 40.7209117,15.9569906 C40.4836453,16.3697702 40.2604603,16.7906067 40.0517633,17.218605 L21.8520081,48.3490325 C21.4493471,48.9678763 21.0767209,49.6057638 20.7355131,50.260498 L1.83600509,82.8704045 L35.6088183,101.797875 L54.4126873,69.4632088 C54.8224297,68.8487601 55.1953,68.2104653 55.5291008,67.5517437 L73.7288562,36.4174911 C73.9928203,36.0275806 74.2567026,35.6300197 74.4975505,35.2171589" id="Path" fill="#FBBC04" fill-rule="nonzero"></path>
                        <path d="M36.0398228,101.128831 C30.7521684,110.378268 18.8246343,113.781199 9.66563291,108.444602 C0.502852593,103.104065 -2.74906605,91.5242596 2.54236722,82.2786021 C7.83380047,73.0329445 19.6555238,69.6148984 28.8183041,74.9515757 C37.9810845,80.2920316 41.3273966,91.8830933 36.0397425,101.125052" id="Path" fill="#34A853" fill-rule="nonzero"></path>
                        <path d="M109.854044,43.7854028 C100.783927,38.4866125 89.1944786,41.6244687 83.9386332,50.8020456 L64.9675375,84.031918 C59.7407619,93.1907426 62.8279605,104.910557 71.8630017,110.208941 C71.8793385,110.21852 71.8955954,110.228018 71.9119325,110.237516 C80.9838117,115.538255 92.5764627,112.398288 97.8311072,103.217058 L116.798359,69.9910013 C122.024334,60.8293354 118.934252,49.1077351 109.896408,43.8101627 C109.882313,43.8018822 109.868139,43.7936018 109.854044,43.7854028" id="Path" fill="#4285F4" fill-rule="nonzero"></path>
                    </g>
                </g>
                <g id="Group-4" transform="translate(578.000000, 277.000000)">
                    <g id="Oval">
                        <use fill="black" fill-opacity="1" filter="url(#filter-8)" xlink:href="#path-7"></use>
                        <use fill="#F8DA1A" fill-rule="evenodd" xlink:href="#path-7"></use>
                    </g>
                    <g id="Group" transform="translate(41.034483, 40.000000)" fill="#1A1919" fill-rule="nonzero">
                        <path d="M87.6840471,56.4025175 C88.5788776,56.3023951 89.4362269,56.2982463 90.2239259,56.4025175 C90.6798999,55.4225905 90.758109,53.7332332 90.348175,51.8936921 C89.738734,49.1594116 88.9135538,47.5049035 87.2085946,47.7624002 C85.5036351,48.0198973 85.4407726,50.0007713 86.0502139,52.7350519 C86.3931535,54.2733962 87.0040701,55.587986 87.6840471,56.4025175 M73.0474274,58.5664879 C74.267195,59.0679295 75.016822,59.40038 75.3104753,59.1099698 C75.4990626,58.9285325 75.442398,58.5828062 75.1511059,58.1369573 C74.5493382,57.2159424 73.3109773,56.281928 71.9967688,55.7572536 C69.3099159,54.6733322 66.1054069,55.0339942 63.6334077,56.6987357 C62.8170814,57.259089 62.0432536,58.0351755 62.1542219,58.5067465 C62.1902278,58.6591426 62.3121161,58.7739238 62.5986859,58.8115387 C63.2715798,58.8837265 65.6228713,57.7696576 68.3312685,57.6142192 C70.2437035,57.5044166 71.8273649,58.0647699 73.0474274,58.5664879 M70.5934313,59.8783121 C69.0047525,60.1134059 68.1282199,60.6043374 67.5659995,61.0606964 C67.085825,61.4542712 66.7889254,61.8887801 66.7915463,62.194402 C66.7927619,62.3398839 66.8597563,62.4236879 66.9131745,62.4657283 C66.985481,62.5257463 67.0713637,62.558936 67.1743636,62.558936 C67.5332403,62.558936 68.336876,62.256633 68.336876,62.256633 C70.5479814,61.515119 72.0065079,61.6047313 73.4520489,61.75934 C74.2506676,61.8431441 74.6281375,61.8898864 74.8031489,61.6332191 C74.8550914,61.5596484 74.917954,61.4000612 74.7579941,61.1569464 C74.3855415,60.5910614 72.7815162,59.6349207 70.5934313,59.8783121 M82.7415244,64.6952485 C83.8202201,65.1919883 85.0084089,64.9969984 85.3950277,64.2599099 C85.7813514,63.5225448 85.2200163,62.5221509 84.1416156,62.0254111 C83.0623294,61.5286716 81.8747311,61.7236611 81.4881123,62.4610262 C81.1014935,63.1981151 81.6628286,64.198509 82.7415244,64.6952485 M89.6770521,59.0159323 C88.8008145,59.0021031 88.0736172,59.9040341 88.0532533,61.0299958 C88.0328893,62.156234 88.7270324,63.0805681 89.6032699,63.0946736 C90.4798026,63.1085027 91.2064098,62.2065718 91.2270688,61.0806101 C91.2474327,59.9540953 90.5535847,59.0297611 89.6770521,59.0159323 M30.8118344,79.3241762 C30.5937343,79.0683385 30.2354478,79.1463343 29.8886713,79.2218412 C29.6466658,79.2749447 29.372196,79.3349627 29.0714597,79.3297076 C28.4266032,79.3183679 27.88091,79.0597645 27.5742711,78.6188942 C27.1749618,78.0441586 27.198277,77.1875871 27.6389043,76.2065538 C27.6982252,76.0746246 27.7684659,75.9277602 27.8446091,75.7676198 C28.5473109,74.289847 29.7239896,71.816382 28.4029929,69.459358 C27.408999,67.6853667 25.7878563,66.5807019 23.8382352,66.3483737 C21.9668232,66.1262793 20.0402221,66.776798 18.8116008,68.047135 C16.8726043,70.0517947 16.5698021,72.779161 16.9446157,73.743046 C17.0821458,74.0959634 17.2969996,74.1935966 17.4531227,74.2135104 C17.7827816,74.2552741 18.2706296,74.0301374 18.5760879,73.2601354 C18.5982226,73.2045428 18.6274403,73.1185258 18.6637412,73.0095529 C18.7997956,72.6021489 19.0533113,71.8440403 19.4685576,71.236115 C19.9693912,70.5028985 20.7491216,69.9981378 21.6646112,69.814488 C22.5900175,69.6260302 23.5574171,69.7950271 24.3482178,70.2832932 C25.7061056,71.1166318 26.229369,72.6759961 25.6494408,74.1642792 C25.3495899,74.9337278 24.8629225,76.4054157 24.9700542,77.6143517 C25.1872691,80.0618178 26.7936553,81.0445106 28.2365402,81.1490581 C29.6398778,81.1985661 30.6202959,80.4606479 30.8684993,79.9207614 C31.014883,79.6018635 30.8915192,79.4074271 30.8118344,79.3241762" id="Shape"></path>
                        <path d="M44.1542208,33.514642 C48.8141964,28.366772 54.5516316,23.8914374 59.6906783,21.3785506 C59.8683015,21.2915031 60.0570448,21.4759404 59.9605692,21.6431406 C59.5527275,22.3495758 58.766798,23.861847 58.5179454,25.0092656 C58.4788742,25.1879572 58.6826449,25.3226941 58.8404319,25.2198459 C62.0379475,23.1364509 67.5995631,20.9045294 72.4777354,20.6175311 C72.6875169,20.6051778 72.788801,20.8620111 72.6219979,20.9843948 C71.8802488,21.5282264 71.0687727,22.2809145 70.4760949,23.0425086 C70.3754117,23.1720744 70.4700838,23.3585227 70.6389912,23.3596718 C74.0649221,23.382942 78.8938048,24.5289241 82.0411291,26.2161522 C82.2545174,26.3304919 82.1027413,26.724935 81.8644079,26.672649 C77.1022466,25.6292278 69.306668,24.8377561 61.2093404,26.7255095 C53.9802925,28.4110139 48.4625568,31.0132466 44.4373358,33.8116953 C44.2338656,33.9533272 43.9895213,33.6964937 44.1542208,33.514642 L44.1542208,33.514642 Z M86.58299,85.557284 C86.7209408,85.5018379 86.8162141,85.3507259 86.8002851,85.2013374 C86.7909557,85.112999 86.7452564,85.0318336 86.6732617,84.9757338 C86.6012666,84.9196337 86.5088871,84.8932046 86.4164872,84.902273 C86.4164872,84.902273 76.4710985,86.3093978 67.0757103,83.0217018 C68.0987708,79.8423125 70.8202208,80.9905929 74.9332015,81.3077559 C82.3464846,81.7300659 88.9909696,80.6949759 93.9013006,79.3478939 C98.156139,78.1803653 103.745104,75.8792081 108.085599,72.6044399 C109.549862,75.6783953 110.066802,79.0617575 110.066802,79.0617575 C110.066802,79.0617575 111.200164,78.8678396 112.147486,79.4251736 C113.042214,79.9514808 113.698608,81.046039 113.250493,83.8755144 C112.337733,89.1615687 109.986857,93.4521788 106.036171,97.3989079 C103.631798,99.8732983 100.711988,102.024493 97.3714119,103.58905 C95.5556601,104.50063 93.6629684,105.264721 91.7133209,105.873258 C76.8200333,110.522687 61.5754064,105.411015 56.6611683,94.4338335 C56.2623412,93.5955089 55.9328357,92.7286058 55.6756758,91.8410813 C53.5814669,84.6072308 55.3595009,75.928621 60.9172093,70.465886 C60.9175097,70.4655987 60.9163077,70.4638751 60.9166081,70.4633005 C61.2592312,70.1153977 61.6087671,69.7057284 61.6087671,69.1900507 C61.6087671,68.7591226 61.3223462,68.3040622 61.0734935,67.9817278 C59.1295577,65.2861272 52.3946083,60.6924312 53.7464672,51.8026665 C54.7172327,45.4165957 60.5601597,40.9188529 66.007868,41.1854538 C66.4680049,41.2081494 66.9290435,41.2351543 67.3882788,41.2612973 C69.7493732,41.3945977 71.8087186,41.6841815 73.7523537,41.7620362 C77.0048693,41.8961983 79.9300897,41.4442982 83.3941901,38.6852077 C84.5630161,37.754115 85.4995194,36.94713 87.0852033,36.6902965 C87.2514056,36.6632919 87.6661601,36.5213727 88.4947671,36.5584326 C89.3405052,36.6015255 90.1453692,36.8235973 90.8690854,37.2838288 C93.6461363,39.0506349 94.0401531,43.3291788 94.1841148,46.4591549 C94.266164,48.2457841 94.4921751,52.5682825 94.5694155,53.8090689 C94.746137,56.6465885 95.5263561,57.0467772 97.1051275,57.543494 C97.9926418,57.8227357 98.8170412,58.0310177 100.03155,58.3567995 C103.707837,59.3436253 105.887401,60.3445282 107.2615,61.6304184 C108.08079,62.4339563 108.461883,63.2877689 108.579397,64.1019361 C109.013086,67.124755 106.124231,70.8591801 98.477123,74.2520227 C90.1174182,77.9608791 79.9763737,78.8997285 72.9694298,78.153935 C72.4317518,78.0967653 70.5211769,77.8896323 70.5145649,77.8887707 C64.9096705,77.1671092 61.7124557,84.0912659 65.0761736,88.834638 C67.2440163,91.8916434 73.1491566,93.8816706 79.0573022,93.8825325 C92.6035401,93.8842561 103.015678,88.3545837 106.888522,83.5790357 C107.004533,83.4362549 107.015953,83.4207412 107.198686,83.1570131 C107.388932,82.8823684 107.232046,82.731256 106.994614,82.8863901 C103.830159,84.9559955 89.7750959,93.17265 74.7411522,90.7008447 C74.7411522,90.7008447 72.914129,90.4135595 71.2466963,89.7933099 C69.9212856,89.3006151 67.1481419,88.0813752 66.8109288,85.3610682 C78.9436956,88.9478284 86.58299,85.557284 86.58299,85.557284 L86.58299,85.557284 Z M19.9430857,57.9959687 C15.7237116,58.7802584 12.0047475,61.0659023 9.73051117,64.2237453 C8.3714393,63.140104 5.83903339,61.0423448 5.39182,60.2250175 C1.76121668,53.6349738 9.35422679,40.8228994 14.6582738,33.5876126 C27.7672162,15.7060971 48.2984582,2.17149952 57.8029449,4.62692922 C59.3477548,5.04492973 64.4651621,10.7165214 64.4651621,10.7165214 C64.4651621,10.7165214 54.9645826,15.7552229 46.1540581,22.7787804 C34.2827668,31.5162837 25.3153568,44.215742 19.9430857,57.9959687 Z M27.0332813,88.2350727 C26.3902192,88.3384755 25.7382101,88.3822504 25.0863402,88.3657877 C18.7375932,88.2028968 11.8797202,82.7395872 11.1983809,76.260436 C10.4449105,69.0986939 14.2732735,63.5871204 21.0512012,62.2805458 C21.8614749,62.1242625 22.8409564,62.0343419 23.8967767,62.0866279 C27.6944839,62.2854295 33.2906623,65.0729615 34.5691877,72.9807838 C35.7016472,79.9845187 33.9031762,87.1155211 27.0332813,88.2350727 L27.0332813,88.2350727 Z M113.035602,75.5540006 C112.980902,75.370138 112.627159,74.1322244 112.140273,72.6403506 C111.653087,71.1484766 111.149371,70.0984478 111.149371,70.0984478 C113.101722,67.3040212 113.136585,64.804924 112.877214,63.3897554 C112.599809,61.6353024 111.83582,60.1402683 110.295819,58.594672 C108.755517,57.0490757 105.605788,55.4664194 101.179037,54.2784935 C100.672616,54.1426076 99.0030794,53.7047843 98.8561121,53.6619787 C98.8449919,53.5700473 98.7343909,48.4276358 98.6334072,46.2201335 C98.5600738,44.6245494 98.4167129,42.1332091 97.6082425,39.6789283 C96.6443897,36.3576198 94.9652354,33.451152 92.8689229,31.5915525 C98.6535438,25.8599181 102.264311,19.5465305 102.255595,14.1297612 C102.239065,3.71364841 88.856024,0.56183849 72.3638283,7.08954109 C72.3463966,7.09672323 68.8943179,8.49580395 68.8693725,8.50758266 C68.8540448,8.49321838 62.5521829,2.58289243 62.4575108,2.50388889 C43.6541112,-13.1732844 -15.1367172,49.2909288 3.65976974,64.4616177 L7.76764111,67.7878099 C6.70190276,70.4262405 6.28354186,73.4490595 6.62526338,76.6999828 C7.06436201,80.8748167 9.3175601,84.8775665 12.9695022,87.9701957 C16.4360071,90.9056796 20.9940973,92.7641299 25.4172421,92.7603951 C32.731946,108.872806 49.4444425,118.757441 69.0403836,119.313625 C90.0606149,119.910317 107.706008,110.482467 115.099455,93.5464084 C115.583035,92.3573336 117.635468,87.0017561 117.635468,82.2741847 C117.635468,77.5230561 114.825357,75.5540006 113.035602,75.5540006 Z" id="Shape"></path>
                    </g>
                </g>
                <g id="Group-5" transform="translate(492.000000, 55.000000)">
                    <g id="Oval">
                        <use fill="black" fill-opacity="1" filter="url(#filter-10)" xlink:href="#path-9"></use>
                        <use fill="#FFFFFF" fill-rule="evenodd" xlink:href="#path-9"></use>
                    </g>
                    <g id="Group" transform="translate(40.000000, 33.000000)" fill-rule="nonzero">
                        <path d="M109.689534,-1.32494382e-15 L87.9556278,-1.32494382e-15 C82.6986902,-1.32494382e-15 78.3832934,4.31823562 78.3832934,9.57863175 L78.3832934,37.6864198 L46.9201296,37.6864198 C41.8201155,37.6864198 37.6616427,41.8476288 37.6616427,47.0295116 L37.6616427,78.513375 L9.33694887,78.513375 C4.15847305,78.513375 1.58993258e-14,82.6745837 1.58993258e-14,87.8564664 L1.58993258e-14,109.840212 C1.58993258e-14,115.022094 4.15847305,119.183303 9.33694887,119.34033 L109.767996,119.34033 C115.024933,119.34033 119.34033,115.022094 119.34033,109.761698 L119.34033,9.57863175 C119.261868,4.31823562 114.946472,-1.32494382e-15 109.689534,-1.32494382e-15 Z" id="Path" fill="url(#linearGradient-11)"></path>
                        <path d="M109.689534,-1.32494382e-15 L87.9556278,-1.32494382e-15 C82.6986902,-1.32494382e-15 78.3832934,4.31823562 78.3832934,9.57863175 L78.3832934,37.6864198 L46.9201296,37.6864198 C41.8201155,37.6864198 37.6616427,41.8476288 37.6616427,47.0295116 L37.6616427,78.513375 L9.33694887,78.513375 C4.15847305,78.513375 1.58993258e-14,82.6745837 1.58993258e-14,87.8564664 L1.58993258e-14,109.840212 C1.58993258e-14,115.022094 4.15847305,119.183303 9.33694887,119.34033 L109.767996,119.34033 C115.024933,119.34033 119.34033,115.022094 119.34033,109.761698 L119.34033,9.57863175 C119.261868,4.31823562 114.946472,-1.32494382e-15 109.689534,-1.32494382e-15 Z" id="Path" fill="url(#linearGradient-11)"></path>
                        <path d="M109.733427,-5.29977528e-15 L88.1478102,-5.29977528e-15 C82.8887692,-5.29977528e-15 78.5716459,4.31712339 78.5716459,9.57616463 L78.5716459,119.309592 L109.733427,119.309592 C114.992469,119.309592 119.309592,114.992469 119.309592,109.733427 L119.309592,9.57616463 C119.309592,4.31712339 114.992469,-5.29977528e-15 109.733427,-5.29977528e-15 Z" id="Path" fill="#F57C00"></path>
                        <path d="M37.6767133,47.0958917 L37.6767133,78.4931525 L9.4191783,78.4931525 C4.23863025,78.4931525 0,82.7317829 0,87.9123308 L0,109.890414 C0,115.070962 4.23863025,119.309592 9.4191783,119.309592 L78.4931525,119.309592 L78.4931525,37.6767133 L47.0958917,37.6767133 C41.9153434,37.6767133 37.6767133,41.9153434 37.6767133,47.0958917 Z" id="Path" fill="#FFC107"></path>
                        <path d="M78.4236454,37.5069609 L78.4236454,119.34033 L109.72215,119.34033 C115.004265,119.34033 119.34033,115.012603 119.34033,109.740646 L119.34033,78.4236454 L78.4236454,37.5069609 Z" id="Path" fill="url(#linearGradient-12)"></path>
                        <g fill="#FFFFFF" id="Path" opacity="0.2">
                            <path d="M46.9492725,38.29382 L78.4236454,38.29382 L78.4236454,37.5069609 L46.9492725,37.5069609 C41.7560011,37.5069609 37.5069609,41.7560011 37.5069609,46.9492725 L37.5069609,47.7361319 C37.5069609,42.5428606 41.7560011,38.29382 46.9492725,38.29382 L46.9492725,38.29382 Z"></path>
                            <path d="M9.37674019,79.2105045 L37.5069609,79.2105045 L37.5069609,78.4236454 L9.37674019,78.4236454 C4.21953308,78.4236454 1.32494382e-15,82.6726856 1.32494382e-15,87.8659573 L1.32494382e-15,88.6528164 C1.32494382e-15,83.459545 4.21953308,79.2105045 9.37674019,79.2105045 Z"></path>
                            <path d="M109.72215,0 L88.0418255,0 C82.7597101,0 78.4236454,4.26215464 78.4236454,9.45423393 L78.4236454,10.2291711 C78.4236454,5.03709185 82.7597101,0.774937207 88.0418255,0.774937207 L109.72215,0.774937207 C115.004265,0.774937207 119.34033,5.03709185 119.34033,10.2291711 L119.34033,9.45423393 C119.34033,4.26215464 115.004265,0 109.72215,0 Z"></path>
                        </g>
                        <path d="M109.832987,118.565393 L9.42772417,118.565393 C4.24247587,118.565393 1.4574382e-14,114.380732 1.4574382e-14,109.266146 L1.4574382e-14,110.041083 C1.4574382e-14,115.155669 4.24247587,119.34033 9.42772417,119.34033 L109.754422,119.34033 C115.018235,119.34033 119.341357,115.078175 119.341357,109.886096 L119.341357,109.111159 C119.41784,114.303238 115.096799,118.565393 109.832987,118.565393 L109.832987,118.565393 Z" id="Path" fill="#BF360C" opacity="0.2"></path>
                        <path d="M109.761698,-1.32494382e-15 L88.1705201,-1.32494382e-15 C82.9101239,-1.32494382e-15 78.5918884,4.31823562 78.5918884,9.57863175 L78.5918884,37.6864198 L47.1865384,37.6864198 C42.0046557,37.6864198 37.7649332,41.9261423 37.7649332,47.108025 L37.7649332,78.513375 L9.421605,78.513375 C4.23972224,78.513375 -1.32494382e-15,82.7530971 -1.32494382e-15,87.9349798 L-1.32494382e-15,109.918725 C-1.32494382e-15,115.100608 4.23972224,119.34033 9.421605,119.34033 L109.761698,119.34033 C115.022094,119.34033 119.34033,115.022094 119.34033,109.761698 L119.34033,9.57863175 C119.34033,4.31823562 115.022094,-1.32494382e-15 109.761698,-1.32494382e-15 Z" id="Path" fill="url(#linearGradient-13)"></path>
                    </g>
                </g>
            </g>
        </g>
    </g>
</svg>