<svg height="32" viewBox="0 0 32 32" width="32" xmlns="http://www.w3.org/2000/svg"><path d="m20 6a9.95 9.95 0 0 0 -4.0032.8394 9.9909 9.9909 0 0 1 0 18.3212 9.9988 9.9988 0 1 0 4.0032-19.1606z"/><path d="m20 16a8.01 8.01 0 0 0 -6.2483-7.8008 9.9758 9.9758 0 0 1 2.2451-1.36 9.9909 9.9909 0 0 1 0 18.3212 9.9758 9.9758 0 0 1 -2.2451-1.36 8.01 8.01 0 0 0 6.2483-7.8004z" fill="none"/><path d="m10 16a9.9759 9.9759 0 0 0 3.7517 7.8008 7.9937 7.9937 0 0 0 0-15.6016 9.9759 9.9759 0 0 0 -3.7517 7.8008z"/><path d="m12 24a8 8 0 1 1 1.7517-15.8008 9.9758 9.9758 0 0 1 2.2451-1.36 10 10 0 1 0 0 18.3212 9.9758 9.9758 0 0 1 -2.2451-1.36 7.9727 7.9727 0 0 1 -1.7517.1996z"/><path d="m0 0h32v32h-32z" fill="none"/></svg>