<?xml version="1.0" encoding="UTF-8"?>
<svg width="192px" height="181px" viewBox="0 0 192 181" version="1.1" xmlns="http://www.w3.org/2000/svg" xmlns:xlink="http://www.w3.org/1999/xlink">
    <title>Group</title>
    <g id="ðŸ—-Landing-Page" stroke="none" stroke-width="1" fill="none" fill-rule="evenodd" stroke-linejoin="round">
        <g id="Logo/Big" transform="translate(-32.000000, -37.000000)" fill-rule="nonzero" stroke="#FFFFFF" stroke-width="3">
            <g id="Group" transform="translate(34.560000, 39.680000)">
                <path d="M118.623081,176.111138 C162.913377,176.111138 186.550408,148.616632 186.550408,116.294396 L186.550408,21.4189222 L155.200785,21.4189222 L155.200785,114.087772 C155.200785,134.576183 144.278341,149.648118 118.623081,149.648118 C98.3348453,149.648118 82.9379206,140.430688 79.5278964,121.62845 L49.977485,121.62845 C51.0772648,158.759574 84.3179448,176.111138 118.623081,176.111138 Z" id="Jraft"></path>
                <path d="M78.150371,176.111138 C128.573169,176.111138 155.48302,144.8097 155.48302,108.012078 L155.48302,-1.27897692e-13 L119.79268,-1.27897692e-13 L119.79268,105.499921 C119.79268,128.82519 107.357897,145.984008 78.150371,145.984008 C55.0529947,145.984008 37.5241882,135.490318 33.6420067,114.084694 L5.68434189e-14,114.084694 C1.25205702,156.35705 39.0952927,176.111138 78.150371,176.111138 Z" id="Jraft"></path>
            </g>
        </g>
    </g>
</svg>