<svg height="181" viewBox="0 0 192 181" width="192" xmlns="http://www.w3.org/2000/svg"><g fill="none" stroke="#fff" stroke-linejoin="round" stroke-width="3" transform="translate(2.56 2.68)"><path d="m118.623081 176.111138c44.290296 0 67.927327-27.494506 67.927327-59.816742v-94.8754738h-31.349623v92.6688498c0 20.488411-10.922444 35.560346-36.577704 35.560346-20.2882357 0-35.6851604-9.21743-39.0951846-28.019668h-29.5504114c1.0997798 37.131124 34.3404598 54.482688 68.645596 54.482688z"/><path d="m78.150371 176.111138c50.422798 0 77.332649-31.301438 77.332649-68.09906v-108.012078h-35.69034v105.499921c0 23.325269-12.434783 40.484087-41.642309 40.484087-23.0973763 0-40.6261828-10.49369-44.5083643-31.899314h-33.6420067c1.25205702 42.272356 39.0952927 62.026444 78.150371 62.026444z"/></g></svg>