<svg height="22" viewBox="0 0 23 22" width="23" xmlns="http://www.w3.org/2000/svg"><path d="m178.366 138.973c0 1.376-1.035 2.479001-2.699 2.479001h-.031c-1.602.000999-2.636-1.104001-2.636-2.479001 0-1.409 1.067-2.482001 2.698-2.482001 1.633-.000999 2.638 1.073001 2.668 2.482001zm-5.086 18.793h4.772v-14.353h-4.772zm16.484-14.689c-2.531 0-3.664 1.39-4.301 2.37v.046h-.031c.012-.014.023-.03.031-.046v-2.033h-4.771c.062 1.345 0 14.353 0 14.353h4.771v-8.016c0-.432.029-.855.157-1.164.346-.854 1.132-1.747 2.446-1.747 1.729 0 2.42 1.319 2.42 3.247v7.68h4.771v-8.229c.001-4.412-2.355-6.461-5.493-6.461z" fill="#fff" transform="translate(-173 -136)"/></svg>