<svg height="113" viewBox="0 0 271 113" width="271" xmlns="http://www.w3.org/2000/svg"><path d="m34.7499942 125.2c12.8999973 0 22.1999954-9.449998 22.1999954-23.099995v-68.0999862h-40.4999916v7.1999985h33.2999931v60.2999877c0 9.599998-6.4499987 16.499996-14.9999969 16.499996-7.7999984 0-13.7999971-5.849999-14.6999969-14.249997l-7.3499985 1.65c1.5 11.999997 10.0499979 19.799996 22.0499954 19.799996zm50.7000019-1.2v-34.3499928c0-11.2499977 8.9999981-19.7999959 20.2499959-19.7999959 1.799999 0 3.599999.15 4.949999.5999999v-7.1999985c-1.5-.3-3.15-.4499999-4.949999-.4499999-8.6999983 0-15.8999968 4.1999991-20.2499959 10.5v-9.3000003h-7.0499985v59.9999875zm90.8999909 1.2c1.349999 0 2.999999-.45 4.049999-1.2v-5.699999h-3.15c-4.349999 0-6.899998-2.399999-6.899998-8.249998v-25.0499949c0-13.1999953-11.09999-22.1999953-25.049995-22.1999953-14.099997 0-25.049995 9-25.049995 22.1999953h6.899999c0-9.449998 7.949998-15.1499968 18.149996-15.1499968s17.999996 5.6999988 17.999996 15.1499968v6.8999986h-23.999995c-11.699997 0-19.049996 6.4499987-19.049996 16.6499963 0 10.199998 7.5 16.649997 19.799996 16.649997 10.349998 0 19.200004-4.199999 23.549995-11.099998 1.35 6.599999 5.699999 11.099998 12.749998 11.099998zm-34.94999-6.149999c-8.400001 0-13.5-4.199999-13.5-10.649996 0-6.3 4.799999-10.4999996 12.599997-10.4999996h22.799995v7.1999986c-3.299999 8.399998-11.699997 13.949997-21.899992 13.949997zm105.899989 6.149999c2.7 0 5.849999-.9 7.499999-1.95v-4.949999h-6.749999c-5.249999 0-9.599998-3.899999-9.599998-9.599998v-37.7999919h16.499997v-6.8999986h-16.499997v-26.0999945h-7.049998v26.0999945h-27.149995v-33.8999895c0-5.7000022 4.349999-9.6000014 9.599998-9.6000014l6.749999.2999999v-5.2499989c-1.65-1.0499998-4.799999-1.9499996-7.499998-1.9499996-8.699999 0-15.899997 7.0499986-15.899997 15.5999968v34.7999927h-10.049998v6.8999986h10.049998v53.0999889h7.049998v-53.0999889h27.149995v38.6999919c0 8.549998 7.199998 15.599997 15.899996 15.599997zm28.650011 0c3.599999 0 6.750001-3 6.750001-6.749999 0-3.599998-3.150002-6.599998-6.750001-6.599998s-6.749999 3-6.749999 6.599998c0 3.749999 3.15 6.749999 6.749999 6.749999z" transform="translate(-12 -13)"/></svg>