<svg height="30" viewBox="0 0 30 30" width="30" xmlns="http://www.w3.org/2000/svg"><g fill="none" fill-rule="evenodd"><path d="m0 0h30v29.992h-30z"/><g fill="#1a1919"><path d="m22.042 14.179c.225-.026.44-.027.639 0 .114-.247.134-.671.03-1.134-.152-.687-.36-1.103-.788-1.038-.429.064-.445.562-.292 1.25.087.386.24.717.411.922m-3.68.544c.307.126.496.21.57.136.047-.045.033-.132-.04-.244-.152-.232-.463-.467-.793-.599-.676-.272-1.481-.181-2.103.237-.205.14-.4.336-.372.455.01.038.04.067.112.076.17.018.76-.262 1.441-.3.481-.028.88.112 1.186.239m-.617.33c-.4.058-.62.182-.761.297-.12.098-.195.208-.195.285 0 .036.017.057.03.068.019.015.04.023.066.023.09 0 .293-.076.293-.076.555-.186.922-.164 1.286-.125.2.021.295.033.34-.032.012-.018.028-.058-.012-.12-.094-.142-.497-.382-1.047-.32m3.054 1.21c.27.125.57.076.667-.11.097-.185-.044-.436-.315-.56-.272-.126-.57-.077-.667.109-.098.185.044.436.315.561m1.743-1.427c-.22-.004-.403.223-.408.506s.17.515.39.519c.22.003.403-.223.408-.506.005-.284-.17-.516-.39-.52m-14.797 5.107c-.055-.065-.145-.045-.233-.026-.06.013-.13.028-.205.027-.162-.003-.3-.068-.376-.179-.1-.144-.095-.36.016-.606l.052-.11c.176-.372.472-.994.14-1.586-.25-.446-.657-.724-1.147-.782-.47-.056-.955.107-1.264.427-.488.504-.564 1.19-.47 1.432.035.088.09.113.128.118.083.01.206-.046.283-.24l.022-.063c.034-.102.098-.293.202-.446.126-.184.322-.31.552-.357.233-.047.476-.005.675.118.341.21.473.601.327.976-.076.193-.198.563-.171.867.055.615.458.862.821.888.353.013.6-.173.662-.308.037-.08.006-.13-.014-.15"/><path d="m11.1 8.425c1.171-1.294 2.613-2.42 3.905-3.05.045-.023.092.024.068.066-.103.177-.3.557-.363.846-.01.045.042.079.081.053.804-.524 2.202-1.085 3.429-1.157.052-.003.078.061.036.092-.187.137-.39.326-.54.517-.025.033-.001.08.041.08.862.006 2.075.294 2.867.718.053.029.015.128-.045.115-1.197-.262-3.157-.461-5.192.013-1.817.424-3.204 1.078-4.216 1.782-.051.035-.113-.03-.071-.075zm10.665 13.083c.035-.014.059-.052.055-.09-.002-.022-.014-.043-.032-.057s-.041-.02-.064-.018c0 0-2.5.354-4.862-.473.257-.8.94-.51 1.975-.43 1.863.105 3.534-.155 4.768-.493 1.07-.294 2.475-.872 3.566-1.696.368.773.498 1.624.498 1.624s.285-.05.523.091c.225.132.39.408.277 1.119-.23 1.329-.82 2.407-1.813 3.4-.605.621-1.339 1.162-2.179 1.555-.456.23-.932.422-1.422.575-3.744 1.168-7.576-.117-8.811-2.876-.1-.21-.183-.429-.248-.652-.527-1.818-.08-4 1.317-5.373.086-.088.174-.191.174-.32 0-.11-.072-.224-.134-.305-.489-.677-2.182-1.832-1.842-4.067.244-1.605 1.713-2.736 3.082-2.669l.347.02c.594.033 1.111.106 1.6.125.818.034 1.553-.08 2.424-.773.294-.234.529-.437.928-.502.041-.007.146-.042.354-.033.213.011.415.067.597.182.698.445.797 1.52.833 2.307.02.45.078 1.536.097 1.848.044.713.24.814.637.938.224.07.43.123.736.205.924.248 1.472.5 1.818.823.206.202.301.416.33.621.11.76-.616 1.699-2.539 2.552-2.101.932-4.65 1.168-6.412.98l-.617-.066c-1.409-.182-2.213 1.559-1.367 2.751.545.769 2.03 1.27 3.515 1.27 3.405 0 6.022-1.39 6.996-2.59.029-.037.032-.04.078-.107.048-.069.008-.107-.051-.068-.796.52-4.33 2.586-8.108 1.965 0 0-.46-.073-.879-.229-.333-.123-1.03-.43-1.115-1.114 3.05.902 4.97.05 4.97.05zm-16.752-6.929c-1.06.197-1.995.772-2.567 1.566-.342-.273-.978-.8-1.09-1.006-.913-1.656.995-4.877 2.329-6.696 3.295-4.495 8.455-7.897 10.845-7.28.388.105 1.674 1.53 1.674 1.53s-2.388 1.268-4.603 3.033c-2.984 2.197-5.238 5.389-6.589 8.853zm1.783 7.602c-.162.026-.326.037-.49.033-1.596-.041-3.32-1.415-3.49-3.044-.19-1.8.772-3.185 2.476-3.514.204-.04.45-.062.715-.049.955.05 2.362.751 2.683 2.739.285 1.76-.167 3.553-1.894 3.835zm21.62-3.188c-.015-.046-.104-.357-.226-.733-.122-.375-.25-.639-.25-.639.492-.702.5-1.33.435-1.686-.07-.441-.261-.817-.649-1.205-.387-.389-1.179-.787-2.291-1.085l-.584-.155c-.003-.023-.031-1.316-.056-1.871-.019-.401-.055-1.027-.258-1.644-.242-.835-.664-1.566-1.191-2.033 1.454-1.441 2.361-3.028 2.36-4.39-.005-2.618-3.37-3.41-7.515-1.77l-.878.357c-.004-.004-1.589-1.49-1.612-1.51-4.727-3.939-19.506 11.762-14.781 15.575l1.033.837c-.268.663-.373 1.423-.288 2.24.11 1.05.677 2.056 1.595 2.833.872.738 2.018 1.205 3.13 1.204 1.838 4.05 6.04 6.535 10.966 6.675 5.284.15 9.72-2.22 11.578-6.477.121-.299.637-1.645.637-2.834 0-1.194-.706-1.69-1.156-1.69z"/></g></g></svg>