<?xml version="1.0" encoding="UTF-8"?>
<svg width="1087px" height="596px" viewBox="0 0 1087 596" version="1.1" xmlns="http://www.w3.org/2000/svg" xmlns:xlink="http://www.w3.org/1999/xlink">
    <title>Artboard</title>
    <defs>
        <linearGradient x1="21.7873514%" y1="63.0563148%" x2="100%" y2="45.7601413%" id="linearGradient-1">
            <stop stop-color="#191919" stop-opacity="0.05" offset="0%"></stop>
            <stop stop-color="#191919" offset="100%"></stop>
        </linearGradient>
    </defs>
    <g id="Artboard" stroke="none" stroke-width="1" fill="none" fill-rule="evenodd">
        <path d="M950.245907,483.108504 C951.421244,483.482815 952.604068,483.834667 953.809351,484.096685 C954.78256,486.282663 955.441348,488.655797 954.954743,491.066437 C955.23922,491.39583 955.823145,492.047132 956.115108,492.376526 C956.384612,494.427752 956.459475,496.501437 956.676575,498.567635 C956.743951,500.132181 958.076499,501.419887 957.904316,503.014378 C957.627326,505.881603 957.687216,508.935983 956.489419,511.608566 C954.932284,513.255535 954.760101,515.538834 953.749461,517.485253 C954.26601,517.874537 954.78256,518.271307 955.29911,518.675563 C953.704543,518.989984 952.18484,519.551451 950.695081,520.202753 C951.226603,520.794165 951.750638,521.393063 952.274674,521.999447 C951.795556,522.313869 951.308951,522.643262 950.822346,522.987629 C951.66829,523.945866 952.199812,525.712615 953.749461,525.592835 C957.327877,525.562965 960.89132,525.80245 964.46225,525.757532 C965.240817,526.386375 966.011899,527.015218 966.790466,527.651548 C967.202209,528.422629 967.613951,529.186224 968.010721,529.979764 C966.139165,531.536899 963.736086,532.038476 961.445301,532.674805 C960.457119,533.273703 959.409048,533.790253 958.316059,534.209481 C956.122594,536.679936 953.292801,538.394282 950.215962,539.547161 C950.329642,539.946426 950.419702,540.360325 950.503497,540.779111 L950.602153,541.283377 C950.928386,542.967924 951.26542,544.668294 952.723848,545.760728 C953.217315,547.149423 953.494253,548.589066 953.737439,550.036563 L953.94188,551.278194 C954.044231,551.898965 954.149974,552.518918 954.273497,553.134661 C953.547333,556.121665 953.420067,559.228523 954.168689,562.230425 C954.679055,563.803183 954.287337,565.339714 953.875615,566.872778 L953.722004,567.447579 C953.596085,567.926551 953.47898,568.405585 953.397608,568.88568 C953.547333,573.362443 952.881059,578.146141 950.313283,581.949219 C950.575301,582.196264 951.091851,582.697841 951.346382,582.952373 C948.935817,588.110383 942.018545,589.697463 937.182443,587.211961 C936.059509,585.564991 934.756906,584.06026 933.521678,582.518172 C933.469275,581.724557 933.416871,580.94599 933.356981,580.174983 C933.230651,580.048625 933.059053,579.874904 932.876138,579.688951 L932.505277,579.311145 C932.322362,579.124497 932.150763,578.949039 932.024433,578.819902 C931.964543,578.04882 931.889681,577.292712 931.799846,576.544089 C929.25453,574.051176 928.251375,570.076065 928.880218,566.632326 C928.446017,566.272987 927.577615,565.56187 927.143414,565.202532 C927.360514,564.004661 927.817174,562.814351 927.682422,561.594096 C926.896368,560.224116 925.668627,559.1461 925.017326,557.701258 C924.867601,557.104942 924.917272,556.454326 924.973266,555.808651 L925.006077,555.422314 C925.092437,554.332056 925.085476,553.290322 924.03663,552.588166 C923.642712,550.109512 924.225076,547.738789 924.854397,545.384653 L925.076946,544.554321 C925.150771,544.277674 925.223732,544.001108 925.294316,543.724475 C922.091513,543.479708 918.982904,544.147892 915.887841,544.864591 L914.72767,545.133939 C913.761127,545.357477 912.794923,545.5752 911.826596,545.760728 C908.667408,548.081458 904.153214,549.241748 900.64966,546.988469 C901.128779,544.592877 901.929805,542.227229 901.787567,539.756775 C903.629104,536.515239 907.634309,535.294984 911.160322,535.36236 C914.731251,535.504599 918.100053,534.119647 921.626065,533.872601 C924.530721,533.760308 927.173359,532.480163 929.733648,531.252422 C929.696217,530.930515 929.613868,530.279213 929.576437,529.957305 C927.959413,529.635397 926.342388,529.298517 924.717877,528.991582 C924.253731,527.060136 923.460191,524.904103 924.762794,523.107408 C925.983049,520.412367 927.914495,518.144041 929.441685,515.643641 C929.513145,514.986215 929.495929,514.317419 929.477819,513.649554 L929.464123,513.077613 C929.442845,511.840144 929.504978,510.618002 930.212767,509.489964 C930.617023,509.332753 931.440508,509.010845 931.844764,508.853634 C932.743111,507.551031 933.401899,506.128648 933.289605,504.51911 C933.978338,502.804764 935.236024,501.359922 935.999619,499.683008 C936.546114,499.473393 937.085122,499.286238 937.616644,499.114054 C938.013414,495.078979 940.850694,491.792526 942.190728,488.026954 C943.104048,488.199137 944.017367,488.378807 944.930687,488.573448 C944.941916,488.38255 944.958409,488.120064 944.976613,487.839287 L945.014249,487.269134 C945.033154,486.987655 945.051402,486.723415 945.065439,486.529709 C946.869619,485.504096 948.591451,484.351217 950.245907,483.108504 Z M666.487851,478.744034 C669.250343,478.684144 671.623477,480.241279 674.034042,481.371699 C674.251142,481.648689 674.692755,482.20267 674.909855,482.487147 C676.541927,483.250742 678.136493,484.096685 679.775902,484.845308 C680.591975,486.192829 681.894579,486.941451 683.444153,487.076203 C684.568814,487.086569 685.036858,487.958072 685.437005,488.863524 L685.56868,489.165463 C685.699456,489.466391 685.829955,489.760879 685.981983,490.01829 C686.401287,489.920969 687.247081,489.733813 687.666384,489.643979 C688.459999,490.916637 689.283409,492.181809 690.136839,493.424523 C691.207294,494.075899 692.120614,494.929254 692.247879,496.276775 C692.659547,496.149509 693.47562,495.90995 693.887438,495.79017 C694.052135,496.119564 694.373968,496.785838 694.531178,497.115232 C696.298002,498.215707 697.375944,500.004915 698.341742,501.786637 C698.686109,501.966307 699.367355,502.325645 699.70431,502.505315 C700.782252,504.144798 701.980048,505.739364 702.623863,507.618407 C703.350027,511.30163 703.27524,515.074688 702.856011,518.787856 C705.266576,520.038056 705.663346,522.860363 704.487934,525.143737 C706.067602,524.814343 707.512369,525.480617 708.934827,526.042084 C710.911154,526.826185 712.986833,526.998976 715.072572,527.122259 L716.210708,527.187971 C718.107477,527.300562 719.999143,527.456655 721.818621,528.078337 C722.395061,529.34351 723.94471,530.518847 723.727534,531.978661 C723.028861,533.554927 721.609246,533.747166 720.127252,533.87625 L719.68144,533.914401 C718.63992,534.005164 717.600104,534.129703 716.787878,534.741078 C716.42533,534.994541 716.064617,535.251058 715.704295,535.50834 L714.623069,536.280185 C712.818186,537.562774 710.987101,538.807169 708.949724,539.726905 C709.631121,542.541726 710.065172,545.46884 711.270529,548.111478 C710.51442,548.440872 709.264295,549.451512 710.319778,550.260025 C711.57739,551.210775 712.752802,552.468461 714.272506,552.970038 C718.292609,552.857745 722.327685,551.734811 726.332816,552.55081 C728.720997,553.411726 730.547561,555.305741 732.246934,557.117408 C731.281211,557.798654 730.307927,558.479901 729.327306,559.17612 C727.133767,559.483055 724.872927,559.827421 722.978912,561.092668 C719.879689,563.05406 716.166521,563.600554 712.984875,565.419632 C706.494317,568.878268 699.127871,570.996945 691.746377,570.592614 C687.718862,570.802229 684.372519,573.265272 680.666838,574.575361 C676.519469,576.027614 672.92608,578.93227 668.441831,579.418949 C669.798124,577.214205 671.933496,575.929906 674.080721,574.660748 L674.758292,574.259409 C675.547162,573.789303 676.326679,573.308318 677.058477,572.771181 C677.649814,572.2172 678.959903,570.981973 677.462658,570.712469 C670.672726,570.899624 664.489029,576.402 657.549297,573.744315 C657.983573,571.857861 657.976087,569.514673 659.862541,568.436581 C663.800296,565.022937 669.325131,565.793943 673.996536,564.229322 C678.555722,563.413324 682.688119,560.860521 687.374421,560.7632 C690.11438,560.613475 692.854264,559.977146 695.212575,558.539791 C694.948596,558.322413 694.700725,558.042136 694.450436,557.754666 L694.234879,557.5078 C693.583838,556.769714 692.881813,556.089299 691.813828,556.413702 C688.295302,556.930252 684.844077,557.843572 681.325626,558.434983 C681.887092,555.657594 682.283862,552.857745 682.695605,550.065383 C681.310373,549.728177 680.011099,550.114914 678.721807,550.587394 L677.893604,550.896664 C677.341388,551.102345 676.788016,551.298657 676.227506,551.435362 C671.892981,553.336864 667.738126,555.874694 663.111638,557.005114 C664.272003,554.145376 666.839778,552.266333 669.205501,550.469639 C669.579812,549.129605 669.976507,547.782084 670.335921,546.464508 C665.41747,545.805645 660.566396,550.424647 655.984751,547.347808 C656.076457,547.080175 656.186884,546.815818 656.300705,546.551929 L656.528332,546.023942 C656.788582,545.406744 657.011686,544.781904 657.002952,544.113758 C656.261816,543.672071 655.498221,543.267815 654.712092,542.893504 C654.614846,538.850942 655.924936,534.598765 658.784525,531.656678 C661.462454,531.759347 664.123297,531.55401 666.782405,531.311657 L668.77665,531.127186 C670.10625,531.005224 671.436375,530.890944 672.768944,530.818221 C672.828684,530.466369 672.941127,529.762663 673.000942,529.418297 C670.792431,529.066444 668.576583,528.714592 666.345688,528.527436 C666.203524,528.175583 665.911412,527.471878 665.769248,527.120026 C666.038752,526.805604 666.577835,526.184247 666.84719,525.869826 C665.918898,524.806782 665.731742,523.444289 665.559559,522.11174 C666.914641,521.295742 668.269648,520.494716 669.736948,519.918276 C669.961535,519.626313 670.410633,519.034902 670.635295,518.742939 C672.843732,518.136554 675.486369,517.163345 675.785818,514.543166 C674.288573,511.631024 672.244834,509.010845 670.807478,506.0463 C670.665315,503.568359 670.410708,501.105391 670.335921,498.62745 C668.546638,496.928077 668.187299,494.450136 667.318972,492.256672 C666.824881,491.523021 666.353249,490.781885 665.874055,490.048235 C665.140405,489.569116 664.40668,489.075026 663.718022,488.528531 C662.385474,487.293304 660.92566,486.192829 659.405956,485.197161 C659.61557,483.879585 659.099096,482.255074 660.109587,481.214488 C661.973657,479.866968 664.174682,478.886272 666.487851,478.744034 Z M22.5821844,445.804283 C24.5351845,444.952971 26.5935594,444.228041 28.7214442,444.853889 C28.7916276,445.013907 28.8891825,445.233932 28.993596,445.469353 L29.2054901,445.947507 C29.3099318,446.18363 29.4075568,446.40541 29.4778525,446.568235 C30.3986583,447.159647 31.2894443,447.781004 32.18038,448.394874 C32.4385258,448.424561 32.7095765,448.439115 32.9837491,448.452387 L33.3136285,448.468586 C34.5240889,448.532225 35.7192249,448.678318 36.0656564,450.086761 C34.7480807,450.977622 33.4903947,451.97329 32.2551674,453.013875 C32.3375159,455.110019 32.7568194,457.505611 34.7630531,458.628545 C39.0227156,461.128944 44.2031091,459.931148 48.7398369,461.465824 C49.6905875,462.865749 50.7835765,464.168352 51.6444925,465.62068 C51.1482199,467.515764 49.6252893,467.782824 48.0213521,467.987724 L47.6192274,468.03856 C46.5453132,468.175503 45.4704202,468.342814 44.6747413,469.004454 C41.6279222,470.920928 38.2365871,472.156155 34.9426477,473.586024 C33.9395683,474.16995 32.4048171,474.813765 32.3824333,476.191231 C32.7492583,477.725907 33.4978809,479.140804 33.8197138,480.697939 C35.0474548,482.883917 36.881655,484.613235 38.3039631,486.656975 C39.1050641,489.28464 39.426897,492.077002 39.6590448,494.816961 C39.8462005,496.344151 38.2815793,497.71413 38.9927707,499.233834 C39.6278667,501.211037 39.5796295,503.272281 39.490626,505.328915 L39.4489926,506.277481 C39.422427,506.90921 39.4013611,507.539211 39.4045132,508.164902 C38.4911187,512.64174 37.1211394,517.170906 37.6302776,521.774935 C36.612076,526.027111 37.0911945,530.675983 34.8978052,534.643683 C34.8669245,534.812123 34.824453,535.043728 34.7790839,535.291124 L34.6870577,535.792935 C34.6416885,536.040332 34.5992171,536.271937 34.5683364,536.440377 C33.1758984,536.792229 31.7535154,537.024302 30.2862152,537.106651 C30.3312074,536.642505 30.4210421,535.729185 30.4733708,535.265039 C28.227503,535.032966 25.9966077,534.493958 24.0277303,533.341079 C23.4962083,531.267395 22.8747767,529.201196 22.7475857,527.060136 C22.0288331,526.835549 21.2876968,526.625935 20.531588,526.423807 C21.235368,524.574709 20.6813873,522.852802 19.1916284,521.632622 C18.9895003,519.918276 18.7723997,518.196444 18.5253543,516.497071 C18.0013185,516.646796 16.9682193,516.938758 16.4441835,517.088483 C16.4216499,515.681072 16.3842937,514.266176 16.2794865,512.873738 C14.5725521,511.795721 14.0634888,509.999027 14.8195976,508.142443 C11.2486678,505.394998 13.5244805,500.521465 11.7352725,496.92059 C11.1363745,496.553765 10.5299902,496.194426 9.89366096,495.85006 C9.54936943,494.93674 9.16749704,494.04588 8.75575462,493.162505 C8.78569952,492.383937 8.79318575,491.620342 8.79318575,490.856747 C8.02959071,490.482436 7.24346213,490.115611 6.44999704,489.756272 C6.84676702,487.502918 5.82856543,485.489123 4.81792494,483.57265 C4.72809023,482.112835 4.89278719,480.653021 4.87040338,479.20818 C5.222256,479.006052 5.93337259,478.601796 6.28530007,478.399667 C3.85968802,476.962312 0.880170115,475.97413 -1.87468615,477.119523 C-6.31409297,479.155776 -11.187626,480.039151 -15.5146646,482.367367 C-17.0081667,483.231738 -18.6655794,482.900761 -20.2853204,482.519657 L-20.7953302,482.398977 C-21.2189029,482.299249 -21.6383974,482.204398 -22.0501398,482.135294 C-23.1431288,478.070274 -22.5067996,473.608483 -20.3432803,469.977663 C-17.8653395,467.327539 -13.8527224,466.848421 -10.4015723,466.975687 C-7.0852491,467.132897 -3.94095936,465.867725 -0.66199242,465.755432 C2.06299381,465.605707 4.81792494,465.074185 7.19105854,463.69672 C6.55472934,463.704206 5.28955717,463.719178 4.66071419,463.726665 C3.86717425,463.18017 3.05117562,462.648648 2.22020455,462.132099 C2.6094883,460.769605 3.26827618,459.534378 4.0842748,458.411444 C5.55157507,457.400804 6.95149932,456.315376 8.38136846,455.289688 C8.41887445,454.885432 8.50122294,454.069433 8.54606543,453.665177 C10.7545021,450.977622 13.966093,449.585184 16.7135379,447.586362 C18.3754052,446.93506 20.1946329,446.93506 21.789199,446.156493 C21.8766352,446.117265 21.9642991,446.077953 22.0521875,446.038672 Z M577.626424,358.388055 C577.962847,358.543046 578.315441,358.676908 578.671722,358.807483 L579.207349,359.003111 C580.188677,359.36542 581.150675,359.770338 581.833683,360.588931 C583.847553,363.044413 586.722189,364.601548 588.451507,367.319122 C588.893269,367.349067 589.784055,367.401471 590.225817,367.431416 C591.236383,369.370348 592.13473,371.855775 594.650102,372.132766 C595.473662,373.120948 596.289511,374.116616 597.105584,375.104797 C597.098098,375.45665 597.075639,376.167841 597.068153,376.52718 C598.161142,377.26083 599.516149,378.016939 599.568627,379.514184 C599.687209,381.670218 598.80061,383.628327 597.842182,385.531017 L597.521325,386.16339 C597.253862,386.688983 596.988859,387.211522 596.74632,387.73406 C597.128118,388.5276 597.502429,389.336113 597.861768,390.152111 C597.367677,391.858971 597.390136,393.640693 597.929144,395.340066 C597.270356,395.706891 596.611568,396.081202 595.937808,396.463 C597.457512,397.174191 598.917326,398.027621 600.43703,398.731326 C603.064695,399.083179 605.744839,398.581602 608.350045,399.105638 C610.318848,399.509894 612.317745,399.652132 614.309081,399.622187 C614.466292,400.273489 614.623428,400.939763 614.758255,401.613523 C614.915437,401.697743 615.131606,401.81144 615.362524,401.932507 L615.830922,402.177915 C616.061848,402.298981 616.278033,402.412678 616.435244,402.496898 C616.614914,403.859391 616.727132,405.236857 616.794583,406.621808 C613.073854,406.404708 609.151071,406.344818 605.887077,408.440961 C602.645466,410.761691 598.879969,412.079267 595.316526,413.793613 C595.810617,417.110011 598.602979,419.842483 597.801878,423.368496 C598.550501,424.573778 599.119454,425.868895 599.583675,427.20893 C599.254206,427.598213 598.602904,428.376781 598.273585,428.766065 C598.677767,429.140376 599.486279,429.903971 599.890535,430.278282 C599.98037,432.509178 599.725838,434.770018 598.468227,436.679005 C597.366047,438.359247 597.165009,440.263614 597.026893,442.191856 L596.973016,442.963952 C596.882191,444.251318 596.769658,445.537429 596.387056,446.762952 C595.496121,448.110472 594.740012,449.547828 593.909041,450.947752 C594.006362,451.456815 594.186031,452.45997 594.275866,452.969033 C593.954033,454.129398 593.63205,455.289763 593.287609,456.4651 C591.498476,459.444618 590.630074,462.880796 588.80336,465.852828 C587.725418,467.589632 586.916831,469.49862 586.564978,471.534873 C585.404688,472.762614 584.326597,474.065218 583.353462,475.472628 C581.781355,475.450169 580.171816,475.60738 578.599709,475.307931 C577.41681,474.828813 578.165433,473.264191 577.828627,472.37333 C576.862904,472.403275 575.88962,472.43322 574.908999,472.478138 C574.894027,471.130617 574.879129,469.783096 574.826651,468.450548 C574.579531,468.196016 574.085514,467.679467 573.838394,467.417449 C573.875825,462.528943 572.460929,457.760218 572.386141,452.894171 C570.334915,449.764928 573.172195,445.737339 571.33807,442.435913 C569.653669,439.014708 570.671795,435.226678 571.21829,431.678206 C570.462181,431.041877 569.331761,430.615162 569.069818,429.552118 C567.894406,426.69238 567.40039,423.623027 567.677305,420.546189 C568.949964,419.767621 568.905046,418.292835 569.054846,417.01269 C564.411793,416.144567 560.077962,417.417888 555.752571,418.80465 L554.195275,419.30528 C550.906226,420.357716 547.601203,421.335109 544.148172,421.347215 C543.519254,419.84997 542.890411,418.352724 542.358964,416.810562 C541.745168,416.428764 541.11625,416.061939 540.479921,415.695114 C540.464949,413.688806 540.240437,411.689983 540.143041,409.691161 C540.47242,409.273415 540.846423,408.873938 541.227916,408.477098 L541.71961,407.967099 C543.080653,406.547635 544.334237,405.076363 543.788758,402.841189 C549.047083,401.54757 554.46347,401.988359 559.811888,402.488558 L561.147446,402.613877 L561.147446,402.613877 L562.479387,402.735854 C562.922677,402.775311 563.365234,402.813241 563.806926,402.848676 C565.420433,402.727025 567.25351,403.244472 568.988592,403.426388 C569.114735,402.673049 569.352797,401.943965 569.691549,401.268259 C568.586882,401.189728 567.482963,401.097273 566.382113,400.962147 L566.37229,400.70674 L566.37229,400.70674 L566.352711,400.193191 C566.282921,398.219619 566.312722,396.204362 567.789524,394.681203 C568.201191,394.50902 569.017265,394.164654 569.429082,393.99247 C570.215061,391.147705 570.85139,388.055818 569.563759,385.256045 C569.294255,383.144929 570.042878,380.98141 570.072748,378.847835 C570.873849,377.919543 571.659902,376.998738 572.446031,376.077932 C571.457774,376.175253 570.454545,376.265088 569.444054,376.354997 C570.065411,375.628833 570.701666,374.9401 571.345481,374.258854 C571.517739,373.689901 571.877078,372.551994 572.049261,371.983041 C571.143428,371.391629 570.192677,370.470824 570.769116,369.288 C571.614985,366.914866 573.748634,365.395162 575.694903,363.972779 C575.163381,363.51612 574.100412,362.595314 573.568965,362.138654 C574.66944,361.786802 575.762354,361.449921 576.847857,361.120527 C577.117436,360.199722 577.379379,359.293888 577.626424,358.388055 Z M944.601293,195.270604 C946.225804,195.150824 947.865287,194.821431 949.482312,195.046017 C951.638345,196.700473 951.323924,199.530267 951.630859,201.925859 C952.102491,203.153525 953.023297,204.164166 953.517388,205.391907 C954.602891,209.718945 956.234888,213.888773 956.556795,218.387995 C956.863731,219.15159 957.470115,219.877754 957.253014,220.768615 C957.020941,223.748133 957.342849,226.742623 957.312904,229.729627 C955.702075,233.161994 955.685839,236.983935 955.81299,240.728813 L955.846925,241.663158 C955.864547,242.129257 955.882519,242.593545 955.898008,243.055109 L955.898008,243.055109 L958.437502,243.101136 C960.131052,243.133299 961.824603,243.17988 963.511499,243.309641 C966.753035,243.706411 969.89725,242.269055 973.1313,242.882926 C973.909867,244.387657 974.905535,245.772609 976.170707,246.895543 C975.249902,247.67411 974.448875,248.654806 973.3484,249.193814 C971.42444,249.553153 969.313324,249.133925 967.554061,250.204455 C964.567057,251.574434 962.373593,254.127237 959.558772,255.781693 C958.428352,256.298243 957.979178,257.488553 957.335363,258.469248 C957.512225,258.567505 957.754358,258.701555 958.012413,258.844554 L958.535133,259.134528 C958.792487,259.277527 959.032865,259.411577 959.206919,259.509834 C959.199433,259.988952 959.176975,260.954675 959.169488,261.44128 C960.83143,262.556728 961.34798,264.488174 961.797154,266.322299 C962.291244,267.340426 962.613152,268.425929 962.905115,269.526404 C964.761699,272.086693 965.809771,275.200963 965.495349,278.390095 C965.839716,278.547306 966.528448,278.854241 966.880301,279.011452 C966.580852,280.501211 967.030025,281.833759 968.078097,282.911776 C968.123014,283.765206 968.160446,284.618635 968.190391,285.487037 C970.870459,286.273091 971.686458,289.492168 974.41893,290.323139 C974.41893,290.667506 974.411444,291.371211 974.411444,291.715577 C975.526892,292.831025 976.597422,293.983904 977.675439,295.136783 C975.938634,296.798725 974.014674,298.325915 971.731375,299.171858 C971.970935,299.755784 972.442567,300.923635 972.682126,301.515047 C975.800627,302.048197 978.923912,301.849507 982.047924,301.619207 L983.489813,301.51322 C985.412361,301.37571 987.334949,301.267025 989.25663,301.35035 C989.518648,301.5 990.05017,301.814421 990.319674,301.964146 C992.348441,302.735227 993.576183,304.501976 994.511961,306.373533 C991.584846,308.58197 987.706981,307.114669 984.570253,308.746666 C981.051727,310.416095 977.810191,312.669449 974.883076,315.229738 C974.920508,315.559132 975.002856,316.21792 975.047773,316.5548 C976.64234,316.989001 978.678593,317.213588 979.449674,318.920447 C980.460315,320.792004 981.096644,323.329835 983.499722,323.793981 C983.486111,325.604286 983.951989,327.329521 984.439663,329.047725 L984.731221,330.078428 C985.209304,331.796942 985.617644,333.524032 985.498545,335.337741 C985.625811,337.381406 987.018249,339.245551 986.277112,341.356666 C985.453627,344.201432 987.677037,346.694346 987.370101,349.524139 C987.363684,350.2364 987.290044,350.95355 987.208722,351.671747 L987.127043,352.390152 C986.954081,353.946835 986.838223,355.502425 987.385074,357.017851 C987.827229,358.466436 987.850126,359.962394 987.836161,361.464422 L987.825586,362.466221 C987.819216,363.301046 987.827697,364.134912 987.916596,364.960737 C983.552126,366.60022 978.888207,365.978863 974.583627,364.481618 C974.26172,364.242059 973.602932,363.755454 973.273538,363.508409 C972.472512,363.298795 971.14745,363.920151 970.855487,362.782245 C969.814902,361.187679 968.864151,359.518251 968.317656,357.684125 C966.940191,356.800676 964.963827,356.359063 964.619461,354.502479 C961.632457,352.773236 961.003614,349.179773 961.714805,346.043044 C961.325521,346.117906 960.680042,346.249331 960.12218,346.361902 L959.606257,346.465394 L959.606257,346.465394 L959.394075,346.50719 C959.325139,344.667138 958.396055,343.16138 957.362425,341.726518 L956.994504,341.222611 C956.686336,340.804427 956.376814,340.389696 956.085163,339.971715 C956.146925,339.792045 956.230794,339.547105 956.32019,339.286243 L956.501438,338.757908 C956.590834,338.497747 956.674704,338.254562 956.736465,338.0777 C955.868063,337.463829 954.962229,336.902362 954.176176,336.191171 C953.92913,334.888567 954.400762,333.585964 954.513056,332.313306 C953.794378,332.814883 953.0757,333.31646 952.34205,333.818037 C951.877904,333.13679 950.942126,331.766811 950.47798,331.078078 L950.47798,331.078078 L952.731334,331.265234 C952.109977,330.254593 951.076878,329.850337 949.931486,329.738044 C950.088696,329.079256 950.410604,327.76168 950.567815,327.102892 C950.460512,327.075443 950.318274,327.038844 950.16439,326.999194 L949.691095,326.877197 C949.537211,326.837547 949.394973,326.800948 949.28767,326.773498 C949.427645,326.173904 949.68131,325.481608 949.916712,324.763646 L950.03228,324.402836 C950.577597,322.651584 950.887807,320.815681 949.100514,319.841253 C944.721072,319.450306 940.907718,321.265947 937.086662,323.076453 L936.169167,323.509744 C933.414476,324.802525 930.631995,326.00092 927.60756,326.279408 C924.800225,326.780985 923.288008,324.145833 921.820707,322.274277 C922.958614,321.188774 924.006685,320.020923 925.039784,318.845585 C925.122133,317.033919 925.518903,315.259683 926.469654,313.702548 C928.086678,313.22343 929.636327,312.527211 931.283297,312.167872 C931.959259,312.11505 932.640402,312.126334 933.322345,312.149155 L934.14078,312.178715 C935.504544,312.225997 936.864498,312.235323 938.185597,311.786149 C938.927174,311.573012 939.679941,311.385986 940.435512,311.204104 L941.569923,310.932518 C943.649687,310.432075 945.718942,309.891253 947.603269,308.874007 C948.426754,308.574558 948.224626,307.533973 948.501616,306.882671 C948.139782,306.782855 947.733031,306.772873 947.321565,306.769269 L946.910018,306.764699 C946.226451,306.750322 945.567016,306.676384 945.117842,306.156507 C944.953145,304.906307 945.117842,303.656108 945.147787,302.42088 C945.552043,302.316073 946.360556,302.106459 946.764812,302.001652 C947.124151,300.64415 947.307147,299.256702 947.460199,297.868146 L947.608691,296.480288 L947.608691,296.480288 L947.685618,295.788084 C946.457877,295.780673 945.215163,295.788084 943.97245,295.780673 C943.141479,294.66515 942.26559,293.587134 941.337298,292.55411 C941.269922,291.18413 941.217519,289.821637 941.180087,288.46663 C940.991996,288.455401 940.734423,288.442066 940.45948,288.4286 L939.901873,288.402076 C939.62693,288.389312 939.369357,288.377731 939.181265,288.369309 C939.158806,286.857092 939.15132,285.344874 939.136348,283.847629 C939.907429,283.570639 940.67851,283.301134 941.442105,283.03163 C940.304199,282.589943 939.15132,282.170714 937.998441,281.766458 C937.826258,281.493959 937.646589,281.225054 937.464644,280.957107 L936.917191,280.153506 C936.373332,279.347509 935.855884,278.52642 935.505528,277.619089 C935.183621,275.919716 935.236024,274.108049 934.23287,272.625776 C934.382594,272.236567 934.674557,271.465486 934.816795,271.076202 C933.396284,269.582513 933.819747,267.979918 934.309606,266.316806 L934.437732,265.88161 C934.75597,264.790346 935.036703,263.675132 934.786851,262.549391 C929.680945,262.075962 925.388523,264.614152 921.135148,267.174496 L920.3848,267.625943 C918.634198,268.677017 916.882493,269.702031 915.075618,270.492277 C914.05033,271.119167 912.997532,270.723571 912.006932,270.259996 L911.679159,270.104263 C911.516547,270.026447 911.35594,269.949688 911.197753,269.878406 C910.838414,268.605748 910.419185,267.348062 909.984984,266.112835 C910.733607,263.97926 911.115404,261.748365 911.055514,259.502497 C912.672539,258.409508 914.319509,257.241657 916.303359,257.002098 C918.575428,256.653988 920.781993,256.043861 922.982008,255.409403 L924.867506,254.865168 C926.439709,254.415912 928.017163,253.988892 929.621355,253.670727 C932.076837,252.89216 935.176134,251.671905 935.228538,248.64747 C933.551623,248.812167 931.141059,249.882697 930.257684,247.741636 C929.351851,245.368503 929.464144,242.763296 929.232071,240.270383 C929.020153,238.211095 929.735287,236.341753 930.515626,234.486151 L930.809627,233.790599 C931.201214,232.863139 931.58217,231.933606 931.844764,230.979976 C931.320728,230.351059 929.913317,230.066582 930.107959,229.115831 C931.275811,225.919213 931.171003,222.505494 932.166671,219.256472 C933.065019,218.170969 933.49922,216.905797 933.297092,215.505873 C933.423422,215.376735 933.597125,215.198119 933.783068,215.007132 L934.160859,214.619661 C934.347503,214.428675 934.522961,214.250058 934.652098,214.120921 C934.255329,212.15953 935.527987,210.587422 936.209233,208.880563 C936.987801,205.564165 938.073304,202.247767 940.139502,199.492835 C939.675356,199.103552 939.21121,198.72924 938.739578,198.354929 C938.944513,198.318434 939.224194,198.269305 939.522166,198.217414 L940.125772,198.11287 C940.423043,198.06168 940.700969,198.014306 940.903097,197.980618 C941.846362,197.396692 942.804598,196.872656 943.800267,196.423483 C944.002395,196.13152 944.406651,195.555081 944.601293,195.270604 Z M1016.58073,175.450614 L1016.94069,175.454564 C1017.34495,176.659847 1017.82407,177.827698 1018.37056,178.972941 C1019.24645,180.694773 1020.09239,182.431577 1020.93085,184.175868 C1022.61525,184.969408 1023.30399,186.526543 1022.98956,188.338209 C1023.85048,189.086832 1024.70391,189.842941 1025.56483,190.591563 C1025.57231,191.025764 1025.59477,191.901653 1025.60226,192.335854 C1026.23859,193.249173 1027.58611,194.125062 1026.95726,195.442638 C1026.48641,197.21455 1025.11542,198.309657 1023.71183,199.395571 L1023.18564,199.803662 C1022.22438,200.555819 1021.29897,201.343074 1020.69129,202.382369 C1019.87529,204.336274 1021.94149,205.841005 1023.67081,206.058106 C1026.94229,206.417445 1030.30361,205.908381 1033.30558,204.568347 C1036.9364,203.961963 1039.51166,207.667644 1039.93838,210.901694 C1037.55027,211.874903 1034.9825,212.211784 1032.54199,212.990351 C1028.97854,214.277982 1025.95411,216.636143 1022.85481,218.754745 C1025.34773,219.548285 1027.9679,219.218891 1030.52819,219.278781 C1030.98485,220.58887 1031.37414,222.146005 1032.84144,222.670041 C1035.55894,223.830406 1037.21339,226.675172 1040.20788,227.27407 C1040.44744,227.977775 1040.687,228.696453 1040.92656,229.415131 C1043.24729,229.954139 1044.10821,232.424593 1045.34343,234.183857 C1045.24611,234.580627 1045.04399,235.381653 1044.94666,235.785909 C1045.36589,235.845799 1046.21184,235.973065 1046.63107,236.032954 C1046.51129,236.512073 1046.27921,237.47031 1046.15943,237.949428 C1046.38402,239.229573 1046.42145,240.539662 1046.09954,241.819807 C1044.37236,242.953079 1043.32711,244.733935 1042.34423,246.511053 L1041.99892,247.137056 C1041.884,247.344964 1041.76894,247.551761 1041.65273,247.756384 C1043.37456,250.735902 1043.77133,254.493987 1045.87496,257.159084 C1049.6555,257.593285 1053.61571,257.735523 1057.18664,256.238278 C1060.51801,257.016846 1064.02157,259.726859 1063.74458,263.499917 C1060.58539,263.926632 1057.3214,264.031439 1054.25953,264.929786 C1050.32926,267.018443 1046.13697,268.545633 1042.16927,270.544456 C1041.56289,273.898285 1044.59481,275.964483 1044.79694,279.131157 C1048.57748,282.529903 1049.88009,288.24938 1047.61176,292.853409 C1046.38402,294.852231 1046.58615,297.217879 1046.34659,299.45626 C1045.32846,301.732073 1044.12318,303.918051 1042.92538,306.111515 C1042.79063,306.807734 1042.65588,307.503953 1042.51364,308.215144 C1041.89228,309.203326 1041.35328,310.251398 1040.88913,311.336901 C1040.65706,311.688753 1040.2004,312.384972 1039.96832,312.729339 C1039.77368,314.144235 1039.29456,315.476784 1038.4037,316.61469 C1038.2989,317.318395 1038.19409,318.029587 1038.0818,318.748264 C1036.55461,320.18562 1035.57391,322.057176 1034.96004,324.048512 C1034.24136,324.954346 1033.5152,325.867665 1032.80401,326.795957 C1031.86823,327.462231 1030.93245,328.143478 1029.99667,328.824724 C1029.90363,328.667514 1029.77346,328.441552 1029.63799,328.205179 L1029.3694,327.735839 C1029.2838,327.586289 1029.20527,327.449398 1029.14324,327.342452 C1028.40211,327.125351 1027.66097,326.915737 1026.91983,326.713609 C1026.67279,326.204545 1026.19367,325.186419 1025.94662,324.677355 C1024.87609,325.021722 1023.79808,325.373574 1022.72006,325.732913 C1023.48365,323.659228 1024.67396,321.71281 1024.86112,319.474428 C1024.1649,319.489401 1022.76498,319.511859 1022.06127,319.526832 C1022.28586,316.966543 1022.21848,314.383795 1022.67514,311.85345 C1022.18105,312.564642 1021.67947,313.275833 1021.17041,313.987025 C1020.24212,313.096164 1019.69562,311.950771 1019.36623,310.730516 C1022.06127,309.502775 1021.63456,306.455881 1021.05063,304.105206 C1020.54157,303.992913 1019.51596,303.775812 1018.99941,303.663519 C1019.0282,303.453905 1019.06195,303.243936 1019.09737,303.033695 L1019.20531,302.402235 C1019.36481,301.454064 1019.49119,300.502028 1019.28388,299.553581 C1018.52777,295.623312 1018.81225,291.610695 1018.84968,287.635509 C1018.65878,287.688849 1018.39524,287.761138 1018.11355,287.838164 L1017.54208,287.994322 C1017.26038,288.071348 1016.99684,288.143637 1016.80594,288.196976 C1017.00058,286.901859 1017.18774,285.606742 1017.35244,284.311625 L1017.35244,284.311625 L1015.27127,284.311625 C1015.39104,283.630379 1015.62312,282.267885 1015.7429,281.586639 C1016.05732,280.793099 1016.33431,279.999559 1016.58884,279.191047 C1015.66804,278.592149 1014.328,278.240296 1014.17079,276.945179 C1014.328,275.717438 1015.58569,275.33564 1016.4466,274.766687 C1016.38671,274.040523 1016.32682,273.329332 1016.25196,272.61814 C1012.41153,272.663058 1008.49623,272.206398 1004.73066,273.172121 C1001.53404,274.010578 998.217643,274.062982 994.976107,274.66188 C993.664835,274.953843 992.409638,274.569447 991.172148,274.134473 L990.602116,273.932404 C990.222747,273.798334 989.844496,273.668592 989.466244,273.561405 C989.099419,272.640599 988.717622,271.734766 988.343311,270.828932 C988.904778,270.821446 990.012739,270.81396 990.56672,270.806474 C989.982794,269.414036 988.710136,268.044056 989.189254,266.427031 C989.743235,265.618519 990.431968,264.9223 991.068297,264.18865 C996.570673,263.222927 1002.14042,262.803698 1007.65029,261.972727 C1011.24368,261.396288 1014.89695,261.980213 1018.48286,261.306453 C1018.87963,260.550419 1019.26891,259.801796 1019.65819,259.060585 C1018.55023,259.127961 1017.44227,259.21031 1016.32682,259.300144 C1014.79215,259.068071 1013.25747,258.858457 1011.71531,258.678788 C1011.6105,257.533395 1011.98481,256.49281 1012.67354,255.601949 C1012.68103,255.287527 1012.70349,254.673657 1012.71098,254.359235 C1012.17197,254.351749 1011.09395,254.32929 1010.55494,254.321804 C1009.15502,251.649222 1007.17117,249.261116 1006.28031,246.341487 C1006.445,245.750076 1006.78188,244.567252 1006.94658,243.968354 C1005.71884,243.204759 1005.02262,241.977018 1006.69954,241.25834 C1006.64713,240.157865 1006.6097,239.05739 1006.6097,237.964401 C1005.51671,238.421135 1004.37132,238.885206 1003.17352,238.473464 C1002.57463,236.152809 1001.43672,233.959345 1001.33191,231.541294 C1000.26887,230.059021 999.527732,228.389593 999.467842,226.547981 C999.130962,226.33088 998.464688,225.896679 998.135294,225.679579 C998.307477,224.496755 998.457202,223.328904 998.591954,222.153566 C995.619922,222.333236 992.647891,221.973897 989.675859,222.003842 C986.681368,222.602815 983.731795,223.411327 980.729819,224.010225 C977.480797,225.312829 973.168731,226.241121 970.256589,223.755694 C970.302338,223.496448 970.327292,223.218975 970.347948,222.934732 L970.371729,222.591124 C970.451159,221.439821 970.567406,220.253526 971.776293,219.765535 C974.994719,218.260478 978.466743,217.63939 981.940342,217.047915 L983.242523,216.825831 C984.326915,216.639137 985.408385,216.444906 986.47924,216.217064 C990.372078,215.116589 994.190053,213.589399 997.491479,211.223751 C997.259406,209.958579 997.027333,208.693407 996.787773,207.435721 C998.105349,205.728862 999.011183,203.752498 998.329936,201.56652 C999.505273,201.641382 1000.67312,201.753676 1001.84098,201.858483 C1002.67943,198.953827 1001.96076,196.064144 1001.11481,193.271782 C1002.49976,192.276114 1003.39811,190.980997 1002.86659,189.236706 C1003.48046,188.869881 1004.09433,188.503056 1004.70071,188.143717 C1004.84295,186.609041 1005.3071,185.149227 1006.08567,183.831651 C1006.93161,182.521561 1006.63216,180.807216 1007.47062,179.519585 C1009.9785,177.004213 1013.33233,175.357243 1016.94069,175.454564 Z M666.443083,207.345961 C667.482041,207.869346 668.02988,208.841055 668.549101,209.853876 L668.808467,210.361827 C669.200364,211.123236 669.619522,211.869595 670.261059,212.429109 C671.930487,213.948813 671.952946,216.277029 672.634117,218.275851 C673.540025,220.431884 674.992353,222.325899 675.778407,224.541822 C676.115362,226.5107 675.681086,228.704164 676.774075,230.493372 C678.11411,233.143496 680.389997,235.569033 680.345005,238.713248 C680.262656,240.734529 680.427428,242.763296 681.078655,244.694742 C682.081884,247.644315 681.243352,250.796016 681.707573,253.827938 C682.126876,256.79997 680.554694,259.719598 681.348234,262.691629 C682.021919,265.401643 682.493627,268.785417 680.060603,270.799212 C681.191023,272.139246 681.954543,274.070693 683.668889,274.744453 C687.629028,275.013957 691.604289,274.699536 695.564502,274.894178 C697.031802,276.690872 698.843394,278.427676 699.195322,280.838241 C695.018008,281.047855 690.908144,282.238165 687.359673,284.491519 C684.806721,286.198379 681.677553,286.684983 679.147209,288.459219 C679.214585,289.35008 679.266988,290.248427 679.319467,291.15426 C681.766089,290.9218 681.911201,292.97216 681.798108,294.946125 L681.777218,295.274007 L681.777218,295.274007 L681.75365,295.598048 C681.709269,296.187117 681.661977,296.744579 681.670067,297.203131 C681.3257,297.547497 680.65194,298.23623 680.307499,298.580596 C679.633813,303.371781 676.74413,307.481719 673.300466,310.745713 C671.810707,310.775658 670.320948,310.843034 668.823703,310.947841 C663.590831,309.458083 658.200674,308.417572 653.342113,305.864694 C653.604131,303.641285 652.368979,301.784701 650.8492,300.309914 C651.687582,298.026616 649.845971,296.170032 649.262045,294.103833 C649.441715,292.726368 651.096245,292.292167 652.002004,291.498627 C651.897197,291.079398 651.680021,290.255913 651.567803,289.844171 C651.103175,289.844171 650.635394,289.832064 650.165988,289.817375 L649.225464,289.787375 C647.498857,289.73641 645.764106,289.736088 644.096549,290.255913 C638.070137,292.28468 631.594552,292.045121 625.313534,292.060094 C625.508176,291.483654 625.904946,290.338262 626.099587,289.761822 L625.691228,289.863705 C625.225547,289.979859 624.630378,290.128647 624.287996,290.218482 C624.28822,289.125418 624.280734,288.039915 624.265687,286.961899 C624.456557,286.989972 624.719036,287.029626 624.999421,287.072569 L625.568153,287.160386 C625.848545,287.204031 626.111041,287.24544 626.30194,287.27632 C626.309426,286.018634 626.189647,284.775921 626.279481,283.533207 C627.978855,283.375997 629.625824,283.016658 631.175473,282.320439 C633.833083,281.152588 636.797629,281.84132 639.567532,281.257395 C643.310645,280.478827 647.173538,280.269213 650.811844,279.033986 C651.496833,278.823922 652.190657,278.700175 652.889346,278.627259 C652.784165,277.549542 652.893539,276.449591 653.214323,275.42278 C652.610634,275.215337 652.006945,275.011636 651.403256,274.804268 C651.52296,273.516637 651.657787,272.236493 651.814923,270.963834 C651.64274,269.414185 651.829896,267.767216 651.058889,266.352319 C651.762519,264.750267 651.403256,262.893608 652.219179,261.366493 C651.051403,261.695886 651.478043,263.223077 650.864247,264.001644 C650.407513,263.365315 649.973312,262.714013 649.501679,262.092656 L650.414999,262.369647 C650.459916,261.669973 650.523571,260.971893 650.59244,260.274488 L650.733121,258.880306 C650.919278,257.021868 651.078394,255.163866 650.954007,253.288855 C651.246045,252.817223 651.822409,251.858986 652.114372,251.387353 C651.455584,250.953152 650.063146,249.935026 651.156135,249.134074 C652.084427,248.213268 653.117601,247.412242 654.098297,246.558813 C653.327216,246.648647 651.785053,246.828317 651.013972,246.918151 C650.924062,245.705383 650.849275,244.5001 650.789385,243.294818 C652.159439,243.197497 653.424537,242.868103 653.619178,241.310968 C652.937932,240.659667 652.219254,240.03831 651.582925,239.342091 C651.725088,238.428771 652.750701,238.189212 653.342188,237.672662 C653.41705,237.26092 653.574186,236.437435 653.65661,236.025693 C653.252353,236.085583 652.443766,236.220335 652.039585,236.280224 C651.964722,235.85351 651.807587,235.007566 651.732649,234.580851 C653.117676,232.724267 652.294116,230.163978 653.783875,228.37477 C654.487506,227.431505 654.495067,226.218737 654.697195,225.125748 C655.970359,224.301356 655.705186,223.189675 655.222289,222.09739 L655.092245,221.813087 C654.914583,221.435142 654.724474,221.062769 654.57749,220.708875 C654.682222,219.585941 654.869378,218.485465 655.138957,217.407449 C654.764646,217.310128 654.023509,217.122972 653.649198,217.033138 C654.337856,215.236443 655.565597,213.776629 657.227614,212.810906 C657.224807,212.625622 657.220947,212.370857 657.216823,212.09872 L657.20846,211.546728 C657.204337,211.274592 657.200477,211.019827 657.197669,210.834543 C657.833998,210.490176 658.470328,210.14581 659.091684,209.816416 C659.421003,209.225004 659.742911,208.633592 660.057333,208.049667 C662.14599,207.637924 664.31707,206.799467 666.443083,207.345961 Z M157.192567,163.371796 C158.308014,163.6413 159.40849,163.903318 160.493992,164.172822 C161.272485,164.846582 162.058614,165.50537 162.822209,166.171644 C163.346244,168.978979 165.382423,171.569213 164.259489,174.5113 C166.078717,178.231954 166.22088,182.349378 166.228367,186.399426 C166.782089,189.060651 166.600177,191.739927 166.377238,194.419048 L166.273959,195.655488 C166.037982,198.54018 165.87836,201.421442 166.662643,204.276534 C166.385652,204.628386 165.839083,205.317119 165.562092,205.668972 C164.835929,209.127608 163.361217,212.391603 162.672409,215.865212 C162.59422,216.252832 162.5445,216.649694 162.501724,217.049062 L162.440076,217.649151 C162.316431,218.84972 162.158405,220.042526 161.384778,221.04568 C161.541989,221.764358 161.684227,222.483035 161.81898,223.209199 C162.560191,223.920391 163.271382,224.654041 163.982499,225.380205 C164.940736,226.08391 165.741837,226.952312 165.94389,228.172567 C168.841059,228.209998 171.730817,228.060274 174.605528,228.202512 C176.282443,228.195026 177.016093,230.014178 177.929338,231.114654 C178.333594,231.286837 179.149592,231.638689 179.553849,231.818359 C179.396638,232.379826 179.231866,232.948704 179.052272,233.525218 C175.136975,233.981878 171.431368,235.36683 167.852878,236.991341 C165.861542,238.136734 163.847747,239.342016 161.57942,239.88851 C161.047898,240.659592 160.359166,241.468104 160.621183,242.508689 C160.87579,244.806961 160.50889,247.097746 160.05223,249.3511 C160.172974,249.480237 160.340017,249.656749 160.518632,249.845103 L160.880999,250.227076 C161.059606,250.415431 161.226632,250.591942 161.347347,250.721079 C161.220156,252.510287 161.429771,254.292009 161.766651,256.058758 C163.865857,259.059884 163.35272,262.640713 162.82434,266.151951 L162.72258,266.830502 C162.538228,268.072279 162.373054,269.30002 162.34309,270.484716 C162.358063,272.554657 161.989366,274.570323 161.5851,276.581311 L161.280671,278.089449 C160.980451,279.59826 160.709175,281.111413 160.613697,282.649833 C159.445921,284.191995 160.366652,286.32557 159.026617,287.79287 C159.07161,288.264502 159.153883,289.192794 159.1988,289.65694 C158.053483,290.263399 157.05774,291.019433 157.574364,292.531651 C157.474548,292.58655 157.341451,292.659749 157.197264,292.739047 L156.753619,292.983043 C156.60944,293.062341 156.47636,293.13554 156.376568,293.190439 C156.398952,294.365776 156.428897,295.533627 156.421411,296.723937 C154.415177,297.382725 152.69327,298.625439 151.061273,299.950501 C149.391845,299.299199 147.692471,298.655384 146.262677,297.53245 C145.843373,297.622285 145.012477,297.801954 144.593249,297.891789 C144.675597,297.390212 144.84778,296.372085 144.937615,295.863021 C144.614741,295.271368 144.249112,294.674371 143.88443,294.067978 L143.573096,293.545818 C142.439864,291.622102 141.439321,289.594152 141.928152,287.33621 C141.598182,287.00624 141.222365,286.700191 140.8352,286.397454 L140.44553,286.095057 C139.272838,285.1866 138.101516,284.246126 137.863057,282.717209 C137.264233,279.30349 137.234214,275.725074 135.766988,272.520969 C136.066437,272.288896 136.650288,271.82475 136.942251,271.600163 C136.627904,269.661231 136.268491,267.729785 135.886768,265.813311 C136.148786,263.956727 135.894179,262.100143 135.632161,260.266017 C135.280309,259.94411 134.576678,259.300294 134.224751,258.978386 C134.419393,253.670652 134.479357,248.370404 134.561706,243.070156 C132.435618,242.501203 130.67885,243.466095 128.952027,244.536348 L128.481563,244.829774 C127.776216,245.270612 127.070716,245.70735 126.34183,246.042188 C123.032918,247.666699 120.20305,251.072932 116.242836,250.863318 C114.176713,250.331796 114.580894,247.8838 114.326437,246.274261 C114.22163,244.215549 112.222733,243.100101 111.16725,241.520508 C110.366224,237.163524 112.537229,233.188338 113.158511,228.981079 C114.064419,227.835687 114.491059,226.48068 114.625886,225.065783 C116.894213,222.610301 121.820149,221.509826 123.422202,225.245453 C126.61882,226.196203 129.837823,227.379027 133.229158,227.229302 C133.150777,227.640296 133.111175,228.031826 133.123976,228.38555 C133.319891,227.826479 133.583855,227.295406 133.909281,226.804309 C133.797362,226.797347 133.685368,226.796524 133.573524,226.787615 C133.992828,224.95349 134.224826,223.081933 134.359578,221.217863 C135.100714,220.476727 136.261079,219.780508 135.939171,218.560253 C135.714086,216.572909 135.972111,214.605696 136.270395,212.646802 L136.434427,211.579069 C136.48866,211.223385 136.541563,210.867906 136.590473,210.51256 C136.979757,210.317918 137.765736,209.936121 138.162581,209.748965 C138.147608,208.161885 138.297408,206.589778 138.544378,205.032643 C139.090873,204.149268 139.974247,203.303324 139.659826,202.172904 C139.352928,200.076761 139.863863,198.096654 140.433742,196.120291 L140.698186,195.20798 C141.18054,193.534398 141.621505,191.851126 141.561327,190.090136 C143.380405,188.360818 141.860776,185.493593 144.099158,184.01132 C144.57079,180.664977 146.884034,178.112174 148.620763,175.372216 C148.775167,175.290803 148.987471,175.17886 149.214255,175.059286 L149.674263,174.816744 C149.901054,174.697169 150.113376,174.585226 150.267808,174.503813 C149.788689,170.940445 151.794998,168.028228 154.003435,165.50537 C154.512573,165.527829 155.515652,165.557774 156.017154,165.580232 C156.428897,164.839096 156.818256,164.105446 157.192567,163.371796 Z M348.083525,176.142904 C349.406105,175.612014 350.707496,175.137202 352.193779,175.768986 C352.62798,176.59247 353.069667,177.415955 353.489121,178.246852 C355.405669,179.789014 356.491172,182.004937 357.36706,184.250805 C357.704917,184.77419 358.09372,185.269045 358.488813,185.759824 L358.884349,186.250151 C359.870163,187.477099 360.802262,188.729521 360.982908,190.38951 C361.27487,190.569179 361.85131,190.93593 362.135786,191.115674 C362.367785,191.871783 362.58496,192.635378 362.794574,193.406459 C363.206317,193.541211 364.029876,193.818201 364.441544,193.952953 C364.104664,195.674785 363.648004,197.374159 362.876923,198.961239 C361.746503,201.37929 362.165656,204.134221 361.843824,206.724455 C362.345401,206.746914 363.341069,206.784345 363.842646,206.806803 C364.179451,207.128711 364.853212,207.772526 365.190092,208.094434 C368.461498,208.873002 371.807841,209.045185 375.146772,208.977809 C377.901703,208.700818 378.657812,211.770171 380.267351,213.349765 C378.478143,215.288697 375.573487,214.629909 373.634554,216.306824 C372.945747,216.411631 372.242116,216.523925 371.515953,216.636218 C369.868983,218.278197 367.812733,219.307969 365.730985,220.29116 L364.838366,220.711324 C364.09508,221.061834 363.355535,221.416708 362.637214,221.801714 C362.866922,222.42273 363.071488,223.057281 363.274116,223.693413 L363.517824,224.456766 C364.132197,226.363223 364.812667,228.240889 366.18576,229.767058 C366.208144,230.261149 366.260622,231.241845 366.290492,231.735936 C366.649906,231.930577 367.368509,232.334834 367.727847,232.536962 C368.04983,237.10356 368.701132,241.632726 368.731002,246.221783 C369.928873,251.7017 368.521387,257.19659 367.922489,262.639076 C368.551332,263.934193 368.918157,265.266741 368.177021,266.629234 C368.446525,268.530736 367.810196,270.289999 366.702234,271.817189 C366.717207,275.043752 364.291745,278.36015 360.788116,277.948408 C360.658979,277.810849 360.480362,277.620652 360.289375,277.417295 L359.901905,277.004734 C359.710918,276.801378 359.532302,276.611181 359.403164,276.473622 C358.909073,276.55597 357.905919,276.713181 357.411828,276.795529 C355.487943,275.358174 352.830258,274.048084 353.107248,271.195832 C352.426077,270.971245 351.737344,270.754145 351.033564,270.544531 C351.033564,269.211982 351.003694,267.88692 350.943729,266.569345 C348.11401,264.413312 346.691627,261.066969 346.175003,257.630791 C344.767593,254.688704 344.760106,251.222582 342.918495,248.505082 C342.873652,245.720206 342.334569,243.002706 341.877909,240.270233 C341.099417,239.334455 340.290829,238.421135 339.452372,237.522788 C339.886648,234.064152 337.678137,230.650508 339.145437,227.289117 C339.17515,227.030611 339.267622,226.741123 339.371313,226.442911 L339.506753,226.056438 C339.803435,225.194713 340.011369,224.339619 338.928411,224.010225 C335.881517,222.939695 332.527688,224.10006 329.825161,225.657195 C329.30278,225.909231 328.775872,226.173837 328.244415,226.442879 L327.604483,226.767338 C323.537734,228.82914 319.207799,230.959273 314.605663,229.587464 C314.71047,228.883758 314.927496,227.476348 315.032303,226.772643 C314.246324,226.3609 313.392895,226.121341 312.464603,226.046479 C313.205739,224.369564 313.467757,222.57287 313.377922,220.753717 C314.171387,220.005094 314.972488,219.256472 315.74357,218.530308 C315.77344,218.088621 315.840891,217.205246 315.870761,216.771045 C317.981876,215.573249 320.220258,214.345508 322.73563,214.674902 C328.485051,215.236369 333.949996,213.087822 339.647014,212.870721 C340.213585,211.176112 338.806902,211.18675 337.432014,211.229852 L337.158055,211.23841 C336.61336,211.254409 336.09514,211.257759 335.731718,211.141403 C335.769149,207.839977 334.945589,203.745012 338.269548,201.663841 C338.235411,201.182327 338.197069,200.699627 338.158208,200.216207 L338.080888,199.248545 C337.828137,196.020724 337.661607,192.774696 338.673805,189.648448 C338.988151,189.453807 339.616994,189.064448 339.92393,188.869881 C340.290755,185.763097 341.525982,182.8809 342.379412,179.908869 C343.187849,179.669309 343.981464,179.437236 344.759957,179.21265 C344.999516,178.456541 345.224177,177.700432 345.433717,176.959296 C346.194104,176.872669 346.911177,176.611243 347.615516,176.330896 Z M886.014089,99.1475384 C886.478235,100.068344 886.96484,100.981664 887.481389,101.880011 C888.020397,106.558902 887.51882,111.290122 887.758379,115.999033 C888.050342,118.447029 887.189426,120.752786 886.56807,123.073516 C885.624805,129.915927 884.441981,136.795843 881.859233,143.241484 C881.335198,143.570803 880.796189,143.900272 880.257181,144.237152 C878.640156,146.580341 876.940783,149.058206 877.142911,152.060258 C876.951984,152.158515 876.689492,152.29467 876.409111,152.440301 L875.840405,152.735773 C875.560032,152.881403 875.297556,153.017559 875.106658,153.115816 C876.7686,154.246236 878.378138,155.571298 880.361988,156.072875 C882.34494,156.675666 884.387314,156.678433 886.434268,156.621951 L887.550913,156.588517 C889.783793,156.522899 892.010256,156.503782 894.159103,157.23324 C895.282037,159.059879 897.505446,160.369969 897.542877,162.705746 C895.836017,163.334539 894.059286,163.673931 892.27701,163.987815 L890.940268,164.222568 C890.495011,164.301974 890.050412,164.383908 889.607477,164.472495 C884.995962,166.478804 880.646465,169.031607 876.124784,171.225071 C875.69807,173.149031 876.776086,174.444148 878.565294,174.990643 C878.63267,175.357468 878.774908,176.083632 878.849771,176.450457 C878.535349,176.727447 877.906506,177.281428 877.592085,177.565904 C877.629516,177.932729 877.696892,178.681352 877.734323,179.055663 C878.108634,179.033205 878.872229,178.988287 879.246541,178.965829 C881.597216,183.749527 883.633469,188.757812 884.427009,194.05806 C884.656986,195.021088 884.89942,195.983541 885.144376,196.946585 L885.512459,198.391738 C886.676183,202.970382 887.784731,207.575489 887.773352,212.331937 C889.570046,216.950939 888.716616,221.96671 888.866341,226.802812 C889.382891,230.471063 885.190604,232.963976 881.956554,232.716931 C878.378138,233.061297 875.540859,230.613301 872.306809,229.580202 C872.396644,229.086111 872.576313,228.112902 872.666148,227.626297 C871.796865,226.825711 871.025499,225.929074 870.26845,225.019655 L869.513077,224.10906 C868.377888,222.746029 867.212212,221.416693 865.733903,220.402089 C865.599151,220.065209 865.344619,219.383962 865.217353,219.039596 C864.386382,218.79255 863.57787,218.478129 862.78433,218.103818 C863.078923,217.268193 862.980164,216.305024 862.879812,215.358684 L862.837848,214.954562 C862.698629,213.546686 862.681748,212.223084 864.109392,211.471022 C863.166127,211.231462 862.215377,210.984417 861.264626,210.752344 C860.854018,210.112612 860.606333,209.369076 860.384292,208.615479 L860.253046,208.162863 C859.796769,206.579732 859.332499,205.034909 857.588889,204.396538 C856.95256,202.465092 856.623166,200.443811 856.084233,198.489906 C855.694949,197.359486 854.564529,196.65578 854.257593,195.495415 C854.070438,193.923308 854.122841,192.336228 853.958144,190.771607 C853.119687,190.322433 852.146478,190.240085 851.225672,190.015498 C851.001085,187.55253 850.611876,185.089561 850.836388,182.619107 C850.611801,180.762523 850.999422,178.962501 851.429186,177.172462 L851.644942,176.278058 C851.787601,175.682056 851.924386,175.0863 852.034184,174.489066 C850.551912,174.533983 849.024722,174.399231 847.557421,174.736111 C845.783186,175.664478 844.323372,177.116806 842.451815,177.902785 C839.876554,178.965829 838.311932,181.548577 835.684267,182.529272 C834.059756,183.203033 832.278034,183.218005 830.54123,183.18806 C830.623578,181.002082 830.915541,178.748728 829.957304,176.704988 C828.332793,175.626972 828.085748,173.890168 828.2205,172.085987 C828.224804,171.428465 828.04418,170.691615 827.857132,169.946907 L827.770996,169.602897 C827.344537,167.882663 827.030115,166.17913 829.021451,165.370618 C828.617195,164.958875 827.801196,164.127904 827.389454,163.716162 C829.058882,160.9238 830.45132,157.981713 831.394585,154.874929 C834.074654,154.073903 836.941878,154.021499 839.606975,154.889902 C839.824075,155.436396 840.258276,156.529385 840.475377,157.07588 C843.334366,158.194097 846.519905,157.742378 849.410337,158.49961 C849.651843,157.885739 849.973975,157.308926 850.376659,156.788633 C850.337581,156.777628 850.298952,156.764902 850.259874,156.753972 C849.937966,156.072725 849.616059,155.391479 849.286665,154.717718 C849.436389,153.954123 849.578627,153.183042 849.713379,152.419447 C850.072718,152.217319 850.798882,151.798165 851.165707,151.588551 C851.143249,149.529839 851.083359,147.486099 850.978552,145.434873 C851.420239,144.476636 851.787064,143.48838 852.086513,142.485225 C852.460824,142.492712 853.194475,142.492712 853.5613,142.500123 L853.597208,142.087708 L853.597208,142.087708 L853.631702,141.671881 C853.795361,139.727369 854.038546,137.754857 856.121589,136.922885 C856.106616,135.193641 855.410397,133.164799 856.937587,131.877168 C856.997477,130.739262 857.049881,129.608842 857.094798,128.478422 C857.491568,128.261396 858.270136,127.834681 858.659419,127.617581 C858.629475,127.086059 858.584557,126.023015 858.562098,125.483931 C859.295749,125.094648 860.029399,124.712925 860.748076,124.331127 C860.822939,123.290542 860.875342,122.257443 860.942718,121.224344 C862.170459,119.637264 863.023889,117.825597 863.705136,115.954041 C866.722085,113.970266 867.837532,110.406822 869.604282,107.449688 C870.427767,105.982388 872.082222,105.166464 872.718552,103.594282 C873.160239,102.411458 874.358035,101.857552 875.3013,101.153772 C875.338731,100.277959 875.376162,99.4094815 875.398621,98.5410793 C878.767422,96.714515 882.884846,96.9989916 886.014089,99.1475384 Z M989.371156,129.280318 C994.774421,127.023752 1000.20042,124.872733 1006.16801,125.266906 C1007.39576,125.985583 1006.51987,127.827195 1006.73697,129.024991 L1006.73697,129.024991 L1006.25528,129.181149 C1006.16392,129.210802 1006.06841,129.241828 1005.97083,129.273572 L1005.37702,129.467366 C1005.08427,129.563298 1004.8102,129.653834 1004.61088,129.72121 C1004.82798,130.799227 1005.28464,131.787408 1006.23539,132.431224 C1005.25469,133.636506 1004.274,134.87922 1003.86226,136.413896 C1004.17227,136.644648 1004.4711,136.900682 1004.76859,137.162299 L1005.21504,137.55645 C1006.03622,138.277707 1006.88449,138.966699 1007.96471,139.213745 C1010.12074,139.588056 1012.31421,139.311066 1014.43281,138.899323 C1017.75669,138.277966 1021.1779,138.487581 1024.47932,139.131396 C1025.04828,140.239358 1025.62472,141.354805 1026.18618,142.477739 C1026.59044,142.657408 1027.39895,143.016747 1027.80321,143.196417 C1027.44387,143.88515 1027.07704,144.573882 1026.71022,145.270101 C1024.10501,145.35245 1021.47735,145.614468 1018.99192,146.42298 C1015.32367,148.032519 1012.22437,150.697615 1008.44383,152.082567 C1006.04823,152.921024 1004.35635,154.889902 1002.38747,156.402119 C1003.60024,156.993531 1004.81301,157.584943 1006.0108,158.191327 C1006.08567,160.032939 1006.23539,161.882037 1006.52735,163.708676 C1006.48881,163.787142 1006.45039,163.865948 1006.41199,163.945002 L1006.18141,164.421592 C1005.25562,166.334123 1004.2582,168.286087 1002.09551,169.031382 C1001.6089,170.82059 1001.42175,172.841871 1000.00685,174.196878 C998.200943,175.947503 996.627506,177.899415 995.078931,179.874661 L993.918917,181.35769 C993.337996,182.098612 992.753274,182.836559 992.1538,183.562147 C990.140005,186.077519 987.190432,187.574764 985.034399,189.955384 C983.447319,191.677216 981.478441,192.95736 979.494592,194.170129 C979.307436,194.514495 978.933125,195.195742 978.745969,195.532622 C976.515074,197.04484 974.20183,198.669351 971.379523,198.669351 C970.398827,195.165797 970.795597,191.377767 970.840514,187.784378 C973.355886,183.966403 975.279846,179.624392 975.496947,174.967959 C975.612048,174.841629 975.772417,174.668978 975.944498,174.484747 L976.294332,174.111138 C976.467115,173.926906 976.629239,173.754255 976.747147,173.627925 C976.836981,172.86433 976.91933,172.108221 977.001678,171.352112 C978.753455,169.375749 979.232574,166.793001 979.277491,164.232712 C978.790886,164.030583 977.832649,163.618841 977.346045,163.416713 C977.413421,161.417891 977.510742,159.419068 977.563145,157.427732 C974.913021,157.337897 972.232952,157.07588 969.590315,157.435218 C968.682256,157.695011 967.775772,157.98571 966.868628,158.285418 L965.961181,158.587317 C961.573327,160.053166 957.152659,161.558915 952.446857,160.631837 C952.828655,159.568793 953.217939,158.513235 953.607222,157.465163 C952.940948,157.158228 952.267188,156.866265 951.585941,156.574302 C951.803042,155.136947 952.072546,153.714564 952.409426,152.31464 C954.864908,152.352071 955.149385,149.679488 955.733311,147.920225 C956.422043,147.598318 957.118262,147.306355 957.821968,147.044337 C960.00545,146.717438 962.241336,146.725756 964.481381,146.770396 L966.032254,146.803431 C969.994261,146.883907 973.934437,146.862172 977.585604,145.082946 C976.238083,141.916272 979.936279,140.321706 980.812167,137.641637 C978.858262,137.484426 976.904357,137.424537 974.950452,137.379619 C973.363373,138.165673 971.641541,138.584902 969.882278,138.772057 C969.814902,138.352829 969.680149,137.521858 969.612773,137.102629 C971.985907,134.370156 975.429571,133.097498 979.000501,133.075039 C981.97788,132.322139 984.868255,131.159763 987.750339,129.958014 Z M660.762731,32.8713667 L661.47343,33.1049445 C662.183832,33.3364261 662.892419,33.5464147 663.590906,33.5980696 C663.792959,33.9275384 664.197216,34.5788401 664.399269,34.9081592 C664.587672,34.9443488 664.777323,34.9802261 664.967615,35.0166703 L665.53981,35.1285838 C667.449492,35.5131627 669.362649,36.0423973 670.672801,37.5957891 C671.810707,38.9433098 673.622299,39.0255834 675.15705,39.6020228 C678.675576,43.4424567 683.152265,46.2124351 687.022718,49.6560991 C688.265432,51.1608305 689.418385,52.770369 691.147629,53.7510646 C692.120763,55.1285302 693.183882,56.4386197 694.351659,57.6514632 C695.841418,60.7131798 696.425343,64.1120013 696.148428,67.5107478 C693.850081,68.6037368 695.579475,70.2432203 697.091692,70.9245417 C697.376094,72.7886119 697.570736,74.6601684 697.50336,76.5541836 C698.716128,76.9359811 699.876493,77.4299971 700.92449,78.1486748 C702.781074,78.7326004 704.720081,79.3764159 706.688959,79.0470968 C709.548622,78.5829508 712.423408,79.0919393 715.283146,79.2267662 C715.612615,79.848123 715.941934,80.4769659 716.256281,81.1058089 C716.967547,81.4202304 717.671252,81.7421381 718.367471,82.063971 C718.44982,82.430796 718.599619,83.1794186 718.681818,83.5462437 C717.057382,84.3548309 715.402926,85.1932882 713.568875,85.4402588 C710.888732,85.7471941 708.942238,87.8209535 706.524187,88.8240329 C705.437643,89.3715969 704.269606,89.7594656 703.099954,90.1436636 L702.223661,90.4335618 C700.621144,90.972719 699.053329,91.5786824 697.727872,92.6570555 C694.381529,96.3327175 691.319737,100.435169 687.082458,103.160156 C686.738092,103.729109 686.386314,104.305548 686.019489,104.889399 C684.751847,105.777764 683.549068,106.757628 682.354602,107.750246 L681.160812,108.744199 C679.168799,110.398152 677.147513,112.014622 674.835143,113.229054 C671.398965,114.920942 668.075155,116.844902 664.900996,119.000935 C663.785548,119.150659 662.677512,119.292823 661.53968,119.442622 C661.80911,118.753889 662.108559,118.08769 662.445514,117.451286 C665.47736,113.925274 668.696512,110.129757 669.647188,105.450866 C669.991629,102.17946 673.075954,99.7763066 672.125204,96.2952115 C670.657903,96.4375247 669.025981,96.2278355 667.708405,97.0662928 C662.849845,99.8736275 657.369852,102.14944 651.635403,101.707753 C649.53926,98.5410044 649.53926,94.6032496 650.969054,91.174633 C651.912319,90.5982685 652.840611,90.0068566 653.746444,89.4078837 C659.713865,88.4562347 665.532234,86.7805927 671.460052,85.6925446 C671.392826,84.7274953 671.498981,83.7507674 671.77133,82.8290632 C671.721996,82.8246464 671.673335,82.8265179 671.623627,82.81993 C671.952946,81.128043 672.626781,79.5260655 672.978559,77.8491509 C672.387222,76.5166027 670.972175,75.6107694 670.777533,74.106038 C670.418194,71.6280223 669.430087,69.2325049 669.59471,66.7020857 C668.876032,65.2648052 668.142307,63.8424223 667.296513,62.4799292 C667.318972,62.311461 667.3488,62.0777328 667.380474,61.8276976 L667.444648,61.3203888 C667.476329,61.0703676 667.506174,60.8366745 667.528661,60.6682625 C665.552222,58.3850384 664.062464,55.7723456 662.602649,53.1596528 C662.505329,52.433414 662.400521,51.7222974 662.280817,51.0110311 C660.611313,49.6709966 659.885149,47.762009 660.034949,45.6509682 C656.860789,43.1131376 655.041486,39.4073809 653.477015,35.7541776 C654.457636,34.7284898 655.318627,33.5531523 656.576238,32.8719057 C657.923758,32.0454264 659.34135,32.4101553 660.762731,32.8713667 Z M491.752002,7.63568852 C494.926162,7.98005491 498.15265,8.05499203 501.222003,9.05058521 C501.57393,11.2141045 503.265817,12.5316803 505.107429,13.4375136 C505.152272,13.8717147 505.242256,14.7476031 505.287098,15.1818042 C505.87851,15.5262455 506.455025,15.870537 507.023828,16.2223896 C508.064413,18.1762946 509.591678,19.8383116 511.650391,20.7141252 C511.044081,20.7440701 509.831163,20.8039599 509.224853,20.8264185 C509.269696,21.2082161 509.35968,21.9717362 509.404523,22.3535338 C511.515564,22.1365081 511.807601,24.1952202 512.196885,25.7373079 C513.312333,26.3512533 514.435267,26.9501513 515.550714,27.5489745 C515.438496,28.6868809 515.318716,29.8247872 515.206348,30.977666 C517.751665,32.3251867 520.611403,35.1475687 518.724874,38.201874 C521.109872,39.4688761 521.128816,41.9586738 521.018758,44.3924853 L520.997156,44.8478567 C520.956785,45.6803566 520.917691,46.4967969 520.970742,47.2452349 C521.270191,47.5821899 521.87665,48.2634365 522.176099,48.6003166 C521.532209,50.7115072 523.276574,52.0290829 524.653965,53.2717216 C524.594075,54.649262 524.526699,56.0267276 524.391947,57.4116045 C526.136238,57.9506128 527.955391,58.7816587 529.811975,58.2425756 C532.589364,57.5688152 535.449103,57.6661362 538.27141,57.8008882 C540.479846,59.3729957 542.111844,61.6113772 542.718153,64.2689126 C540.150303,65.2271495 537.290639,65.3993327 534.917506,66.8517353 C532.83641,68.4537877 531.159495,70.647177 528.651535,71.6504061 C526.735136,72.406515 524.938367,73.4246417 523.231507,74.5849318 C522.408022,77.242542 523.897781,79.7280439 524.017561,82.3557092 C524.010075,86.1660484 518.807148,87.4014254 519.286191,91.3840227 C516.62117,94.0640916 512.638423,95.2769351 510.804297,98.7879002 C505.017445,100.285145 498.57929,100.345035 493.009538,97.9568542 C492.702678,96.9313161 492.388182,95.9056283 492.066274,94.8875765 C492.725062,94.5955388 493.376363,94.3036508 494.012767,94.0191743 C493.593464,93.083396 493.166824,92.1476178 492.740034,91.2192509 C493.159338,91.0246839 494.012767,90.6428864 494.439407,90.4482445 C494.102527,88.6889814 494.866047,87.1992225 496.281019,86.2110407 C496.004029,82.9395599 495.70458,79.3237128 498.609235,77.0254415 C495.128215,77.3248905 491.691963,78.0660269 488.300777,78.9419902 C485.740488,80.8285191 482.626143,82.3332505 479.362148,82.078644 C477.610372,79.6830517 475.955916,77.0329277 475.37199,74.0834296 C475.140067,71.2612721 476.000983,68.4988548 476.113276,65.6915201 C477.453236,64.7407694 478.666079,63.5878157 480.118407,62.8317069 C482.626293,61.8809562 485.119281,63.2135044 487.380046,64.1492827 C490.06019,63.3108254 492.889983,63.4680361 495.637353,63.1535398 C497.098215,63.0411715 498.518278,63.6989113 499.936618,64.1198618 C499.770648,63.3630044 499.729699,62.6329476 499.800069,61.9373275 C499.298941,61.9606097 498.808369,61.8909878 498.369826,61.6039659 C497.883221,60.6308314 497.748469,59.5303561 497.456506,58.4822097 C496.962415,57.8833865 496.498269,57.2620297 496.071554,56.6106532 C496.25871,53.4066234 493.645942,50.8088281 494.357209,47.5224498 C492.882422,45.4487652 493.728366,42.7162928 493.496293,40.3430843 C492.785101,39.3624636 492.081396,38.3742818 491.377691,37.3860251 C491.482498,36.8994204 491.699524,35.926211 491.811892,35.4396064 C490.73395,34.8855508 489.648373,34.3315701 488.56287,33.7701031 C489.124337,33.1787661 489.678317,32.5948405 490.224812,32.0109149 C488.413145,28.0806463 487.424964,23.6187808 487.911568,19.2992285 C487.671934,18.9922932 487.192816,18.3859089 486.953331,18.0864599 C486.9159,15.1743929 486.077443,12.0151307 487.82922,9.41741028 C489.146795,8.81851221 490.449399,8.21212791 491.752002,7.63568852 Z" id="Combined-Shape" fill="url(#linearGradient-1)" fill-rule="nonzero" transform="translate(520.592596, 298.000000) rotate(-5.000000) translate(-520.592596, -298.000000) "></path>
    </g>
</svg>