<svg height="596" viewBox="0 0 1087 596" width="1087" xmlns="http://www.w3.org/2000/svg" xmlns:xlink="http://www.w3.org/1999/xlink"><linearGradient id="a" x1="21.787351%" x2="100%" y1="63.056315%" y2="45.760141%"><stop offset="0" stop-color="#191919" stop-opacity=".05"/><stop offset="1" stop-color="#191919"/></linearGradient><path d="m950.245907 483.108504c1.175337.374311 2.358161.726163 3.563444.988181.973209 2.185978 1.631997 4.559112 1.145392 6.969752.284477.329393.868402.980695 1.160365 1.310089.269504 2.051226.344367 4.124911.561467 6.191109.067376 1.564546 1.399924 2.852252 1.227741 4.446743-.27699 2.867225-.2171 5.921605-1.414897 8.594188-1.557135 1.646969-1.729318 3.930268-2.739958 5.876687.516549.389284 1.033099.786054 1.549649 1.19031-1.594567.314421-3.11427.875888-4.604029 1.52719.531522.591412 1.055557 1.19031 1.579593 1.796694-.479118.314422-.965723.643815-1.452328.988182.845944.958237 1.377466 2.724986 2.927115 2.605206 3.578416-.02987 7.141859.209615 10.712789.164697.778567.628843 1.549649 1.257686 2.328216 1.894016.411743.771081.823485 1.534676 1.220255 2.328216-1.871556 1.557135-4.274635 2.058712-6.56542 2.695041-.988182.598898-2.036253 1.115448-3.129242 1.534676-2.193465 2.470455-5.023258 4.184801-8.100097 5.33768.11368.399265.20374.813164.287535 1.23195l.098656.504266c.326233 1.684547.663267 3.384917 2.121695 4.477351.493467 1.388695.770405 2.828338 1.013591 4.275835l.204441 1.241631c.102351.620771.208094 1.240724.331617 1.856467-.726164 2.987004-.85343 6.093862-.104808 9.095764.510366 1.572758.118648 3.109289-.293074 4.642353l-.153611.574801c-.125919.478972-.243024.958006-.324396 1.438101.149725 4.476763-.516549 9.260461-3.084325 13.063539.262018.247045.778568.748622 1.033099 1.003154-2.410565 5.15801-9.327837 6.74509-14.163939 4.259588-1.122934-1.64697-2.425537-3.151701-3.660765-4.693789-.052403-.793615-.104807-1.572182-.164697-2.343189-.12633-.126358-.297928-.300079-.480843-.486032l-.370861-.377806c-.182915-.186648-.354514-.362106-.480844-.491243-.05989-.771082-.134752-1.52719-.224587-2.275813-2.545316-2.492913-3.548471-6.468024-2.919628-9.911763-.434201-.359339-1.302603-1.070456-1.736804-1.429794.2171-1.197871.67376-2.388181.539008-3.608436-.786054-1.36998-2.013795-2.447996-2.665096-3.892838-.149725-.596316-.100054-1.246932-.04406-1.892607l.032811-.386337c.08636-1.090258.079399-2.131992-.969447-2.834148-.393918-2.478654.188446-4.849377.817767-7.203513l.222549-.830332c.073825-.276647.146786-.553213.21737-.829846-3.202803-.244767-6.311412.423417-9.406475 1.140116l-1.160171.269348c-.966543.223538-1.932747.441261-2.901074.626789-3.159188 2.32073-7.673382 3.48102-11.176936 1.227741.479119-2.395592 1.280145-4.76124 1.137907-7.231694 1.841537-3.241536 5.846742-4.461791 9.372755-4.394415 3.570929.142239 6.939731-1.242713 10.465743-1.489759 2.904656-.112293 5.547294-1.392438 8.107583-2.620179-.037431-.321907-.11978-.973209-.157211-1.295117-1.617024-.321908-3.234049-.658788-4.85856-.965723-.464146-1.931446-1.257686-4.087479.044917-5.884174 1.220255-2.695041 3.151701-4.963367 4.678891-7.463767.07146-.657426.054244-1.326222.036134-1.994087l-.013696-.571941c-.021278-1.237469.040855-2.459611.748644-3.587649.404256-.157211 1.227741-.479119 1.631997-.63633.898347-1.302603 1.557135-2.724986 1.444841-4.334524.688733-1.714346 1.946419-3.159188 2.710014-4.836102.546495-.209615 1.085503-.39677 1.617025-.568954.39677-4.035075 3.23405-7.321528 4.574084-11.0871.91332.172183 1.826639.351853 2.739959.546494.011229-.190898.027722-.453384.045926-.734161l.037636-.570153c.018905-.281479.037153-.545719.05119-.739425 1.80418-1.025613 3.526012-2.178492 5.180468-3.421205zm-283.758056-4.36447c2.762492-.05989 5.135626 1.497245 7.546191 2.627665.2171.27699.658713.830971.875813 1.115448 1.632072.763595 3.226638 1.609538 4.866047 2.358161.816073 1.347521 2.118677 2.096143 3.668251 2.230895 1.124661.010366 1.592705.881869 1.992852 1.787321l.131675.301939c.130776.300928.261275.595416.413303.852827.419304-.097321 1.265098-.284477 1.684401-.374311.793615 1.272658 1.617025 2.53783 2.470455 3.780544 1.070455.651376 1.983775 1.504731 2.11104 2.852252.411668-.127266 1.227741-.366825 1.639559-.486605.164697.329394.48653.995668.64374 1.325062 1.766824 1.100475 2.844766 2.889683 3.810564 4.671405.344367.17967 1.025613.539008 1.362568.718678 1.077942 1.639483 2.275738 3.234049 2.919553 5.113092.726164 3.683223.651377 7.456281.232148 11.169449 2.410565 1.2502 2.807335 4.072507 1.631923 6.355881 1.579668-.329394 3.024435.33688 4.446893.898347 1.976327.784101 4.052006.956892 6.137745 1.080175l1.138136.065712c1.896769.112591 3.788435.268684 5.607913.890366.57644 1.265173 2.126089 2.44051 1.908913 3.900324-.698673 1.576266-2.118288 1.768505-3.600282 1.897589l-.445812.038151c-1.04152.090763-2.081336.215302-2.893562.826677-.362548.253463-.723261.50998-1.083583.767262l-1.081226.771845c-1.804883 1.282589-3.635968 2.526984-5.673345 3.44672.681397 2.814821 1.115448 5.741935 2.320805 8.384573-.756109.329394-2.006234 1.340034-.950751 2.148547 1.257612.95075 2.433024 2.208436 3.952728 2.710013 4.020103-.112293 8.055179-1.235227 12.06031-.419228 2.388181.860916 4.214745 2.754931 5.914118 4.566598-.965723.681246-1.939007 1.362493-2.919628 2.058712-2.193539.306935-4.454379.651301-6.348394 1.916548-3.099223 1.961392-6.812391 2.507886-9.994037 4.326964-6.490558 3.458636-13.857004 5.577313-21.238498 5.172982-4.027515.209615-7.373858 2.672658-11.079539 3.982747-4.147369 1.452253-7.740758 4.356909-12.225007 4.843588 1.356293-2.204744 3.491665-3.489043 5.63889-4.758201l.677571-.401339c.78887-.470106 1.568387-.951091 2.300185-1.488228.591337-.553981 1.901426-1.789208.404181-2.058712-6.789932.187155-12.973629 5.689531-19.913361 3.031846.434276-1.886454.42679-4.229642 2.313244-5.307734 3.937755-3.413644 9.46259-2.642638 14.133995-4.207259 4.559186-.815998 8.691583-3.368801 13.377885-3.466122 2.739959-.149725 5.479843-.786054 7.838154-2.223409-.263979-.217378-.51185-.497655-.762139-.785125l-.215557-.246866c-.651041-.738086-1.353066-1.418501-2.421051-1.094098-3.518526.51655-6.969751 1.42987-10.488202 2.021281.561466-2.777389.958236-5.577238 1.369979-8.3696-1.385232-.337206-2.684506.049531-3.973798.522011l-.828203.30927c-.552216.205681-1.105588.401993-1.666098.538698-4.334525 1.901502-8.48938 4.439332-13.115868 5.569752 1.160365-2.859738 3.72814-4.738781 6.093863-6.535475.374311-1.340034.771006-2.687555 1.13042-4.005131-4.918451-.658863-9.769525 3.960139-14.35117.8833.091706-.267633.202133-.53199.315954-.795879l.227627-.527987c.26025-.617198.483354-1.242038.47462-1.910184-.741136-.441687-1.504731-.845943-2.29086-1.220254-.097246-4.042562 1.212844-8.294739 4.072433-11.236826 2.677929.102669 5.338772-.102668 7.99788-.345021l1.994245-.184471c1.3296-.121962 2.659725-.236242 3.992294-.308965.05974-.351852.172183-1.055558.231998-1.399924-2.208511-.351853-4.424359-.703705-6.655254-.890861-.142164-.351853-.434276-1.055558-.57644-1.40741.269504-.314422.808587-.935779 1.077942-1.2502-.928292-1.063044-1.115448-2.425537-1.287631-3.758086 1.355082-.815998 2.710089-1.617024 4.177389-2.193464.224587-.291963.673685-.883374.898347-1.175337 2.208437-.606385 4.851074-1.579594 5.150523-4.199773-1.497245-2.912142-3.540984-5.532321-4.97834-8.496866-.142163-2.477941-.39677-4.940909-.471557-7.41885-1.789283-1.699373-2.148622-4.177314-3.016949-6.370778-.494091-.733651-.965723-1.474787-1.444917-2.208437-.73365-.479119-1.467375-.973209-2.156033-1.519704-1.332548-1.235227-2.792362-2.335702-4.312066-3.33137.209614-1.317576-.30686-2.942087.703631-3.982673 1.86407-1.34752 4.065095-2.328216 6.378264-2.470454zm-643.9056666-32.939751c1.9530001-.851312 4.011375-1.576242 6.1392598-.950394.0701834.160018.1677383.380043.2721518.615464l.2118941.478154c.1044417.236123.2020667.457903.2723624.620728.9208058.591412 1.8115918 1.212769 2.7025275 1.826639.2581458.029687.5291965.044241.8033691.057513l.3298794.016199c1.2104604.063639 2.4055964.209732 2.7520279 1.618175-1.3175757.890861-2.5752617 1.886529-3.810489 2.927114.0823485 2.096144.501652 4.491736 2.5078857 5.61467 4.2596625 2.500399 9.440056 1.302603 13.9767838 2.837279.9507506 1.399925 2.0437396 2.702528 2.9046556 4.154856-.4962726 1.895084-2.0192032 2.162144-3.6231404 2.367044l-.4021247.050836c-1.0739142.136943-2.1488072.304254-2.9444861.965894-3.0468191 1.916474-6.4381542 3.151701-9.7320936 4.58157-1.0030794.583926-2.5378306 1.227741-2.5602144 2.605207.366825 1.534676 1.1154476 2.949573 1.4372805 4.506708 1.227741 2.185978 3.0619412 3.915296 4.4842493 5.959036.801101 2.627665 1.1229339 5.420027 1.3550817 8.159986.1871557 1.52719-1.3774655 2.897169-.6662741 4.416873.635096 1.977203.5868588 4.038447.4978553 6.095081l-.0416334.948566c-.0265656.631729-.0476315 1.26173-.0444794 1.887421-.9133945 4.476838-2.2833738 9.006004-1.7742356 13.610033-1.0182016 4.252176-.5390831 8.901048-2.7324724 12.868748-.0308807.16844-.0733522.400045-.1187213.647441l-.0920262.501811c-.0453692.247397-.0878406.479002-.1187213.647442-1.392438.351852-2.814821.583925-4.2821212.666274.0449922-.464146.1348269-1.377466.1871556-1.841612-2.2458678-.232073-4.4767631-.771081-6.4456405-1.92396-.531522-2.073684-1.1529536-4.139883-1.2801446-6.280943-.7187526-.224587-1.4598889-.434201-2.2159977-.636329.70378-1.849098.1497993-3.571005-1.3399596-4.791185-.2021281-1.714346-.4192287-3.436178-.6662741-5.135551-.5240358.149725-1.557135.441687-2.0811708.591412-.0225336-1.407411-.0598898-2.822307-.164697-4.214745-1.7069344-1.078017-2.2159977-2.874711-1.4598889-4.731295-3.5709298-2.747445-1.2951171-7.620978-3.0843251-11.221853-.598898-.366825-1.2052823-.726164-1.84161154-1.07053-.34429153-.91332-.72616392-1.80418-1.13790634-2.687555.0299449-.778568.03743113-1.542163.03743113-2.305758-.76359504-.374311-1.54972362-.741136-2.34318871-1.100475.39676998-2.253354-.62143161-4.267149-1.6320721-6.183622-.08983471-1.459815.07486225-2.919629.05247844-4.36447.35185262-.202128 1.06296921-.606384 1.41489669-.808513-2.42561205-1.437355-5.40512995-2.425537-8.15998622-1.280144-4.43940682 2.036253-9.31293985 2.919628-13.63997845 5.247844-1.4935021.864371-3.1509148.533394-4.7706558.15229l-.5100098-.12068c-.4235727-.099728-.8430672-.194579-1.2548096-.263683-1.092989-4.06502-.4566598-8.526811 1.7068595-12.157631 2.4779408-2.650124 6.4905579-3.129242 9.941708-3.001976 3.3163232.15721 6.46061294-1.107962 9.73957988-1.220255 2.72498623-.149725 5.47991736-.681247 7.85305096-2.058712-.6363292.007486-1.90150137.022458-2.53034435.029945-.79353994-.546495-1.60953857-1.078017-2.44050964-1.594566.38928375-1.362494 1.04807163-2.597721 1.86407025-3.720655 1.46730027-1.01064 2.86722452-2.096068 4.29709366-3.121756.03750599-.404256.11985448-1.220255.16469697-1.624511 2.20843667-2.687555 5.42002757-4.079993 8.16747247-6.078815 1.6618673-.651302 3.481095-.651302 5.0756611-1.429869.0874362-.039228.1751001-.07854.2629885-.117821zm555.0442396-87.416228c.336423.154991.689017.288853 1.045298.419428l.535627.195628c.981328.362309 1.943326.767227 2.626334 1.58582 2.01387 2.455482 4.888506 4.012617 6.617824 6.730191.441762.029945 1.332548.082349 1.77431.112294 1.010566 1.938932 1.908913 4.424359 4.424285 4.70135.82356.988182 1.639409 1.98385 2.455482 2.972031-.007486.351853-.029945 1.063044-.037431 1.422383 1.092989.73365 2.447996 1.489759 2.500474 2.987004.118582 2.156034-.768017 4.114143-1.726445 6.016833l-.320857.632373c-.267463.525593-.532466 1.048132-.775005 1.57067.381798.79354.756109 1.602053 1.115448 2.418051-.494091 1.70686-.471632 3.488582.067376 5.187955-.658788.366825-1.317576.741136-1.991336 1.122934 1.519704.711191 2.979518 1.564621 4.499222 2.268326 2.627665.351853 5.307809-.149724 7.913015.374312 1.968803.404256 3.9677.546494 5.959036.516549.157211.651302.314347 1.317576.449174 1.991336.157182.08422.373351.197917.604269.318984l.468398.245408c.230926.121066.447111.234763.604322.318983.17967 1.362493.291888 2.739959.359339 4.12491-3.720729-.2171-7.643512-.27699-10.907506 1.819153-3.241611 2.32073-7.007108 3.638306-10.570551 5.352652.494091 3.316398 3.286453 6.04887 2.485352 9.574883.748623 1.205282 1.317576 2.500399 1.781797 3.840434-.329469.389283-.980771 1.167851-1.31009 1.557135.404182.374311 1.212694 1.137906 1.61695 1.512217.089835 2.230896-.164697 4.491736-1.422308 6.400723-1.10218 1.680242-1.303218 3.584609-1.441334 5.512851l-.053877.772096c-.090825 1.287366-.203358 2.573477-.58596 3.799-.890935 1.34752-1.647044 2.784876-2.478015 4.1848.097321.509063.27699 1.512218.366825 2.021281-.321833 1.160365-.643816 2.32073-.988257 3.496067-1.789133 2.979518-2.657535 6.415696-4.484249 9.387728-1.077942 1.736804-1.886529 3.645792-2.238382 5.682045-1.16029 1.227741-2.238381 2.530345-3.211516 3.937755-1.572107-.022459-3.181646.134752-4.753753-.164697-1.182899-.479118-.434276-2.04374-.771082-2.934601-.965723.029945-1.939007.05989-2.919628.104808-.014972-1.347521-.02987-2.695042-.082348-4.02759-.24712-.254532-.741137-.771081-.988257-1.033099.037431-4.888506-1.377465-9.657231-1.452253-14.523278-2.051226-3.129243.786054-7.156832-1.048071-10.458258-1.684401-3.421205-.666275-7.209235-.11978-10.757707-.756109-.636329-1.886529-1.063044-2.148472-2.126088-1.175412-2.859738-1.669428-5.929091-1.392513-9.005929 1.272659-.778568 1.227741-2.253354 1.377541-3.533499-4.643053-.868123-8.976884.405198-13.302275 1.79196l-1.557296.50063c-3.289049 1.052436-6.594072 2.029829-10.047103 2.041935-.628918-1.497245-1.257761-2.994491-1.789208-4.536653-.613796-.381798-1.242714-.748623-1.879043-1.115448-.014972-2.006308-.239484-4.005131-.33688-6.003953.329379-.417746.703382-.817223 1.084875-1.214063l.491694-.509999c1.361043-1.419464 2.614627-2.890736 2.069148-5.12591 5.258325-1.293619 10.674712-.85283 16.02313-.352631l1.335558.125319 1.331941.121977c.44329.039457.885847.077387 1.327539.112822 1.613507-.121651 3.446584.395796 5.181666.577712.126143-.753339.364205-1.482423.702957-2.158129-1.104667-.078531-2.208586-.170986-3.309436-.306112l-.009823-.255407-.019579-.513549c-.06979-1.973572-.039989-3.988829 1.436813-5.511988.411667-.172183 1.227741-.516549 1.639558-.688733.785979-2.844765 1.422308-5.936652.134677-8.736425-.269504-2.111116.479119-4.274635.508989-6.40821.801101-.928292 1.587154-1.849097 2.373283-2.769903-.988257.097321-1.991486.187156-3.001977.277065.621357-.726164 1.257612-1.414897 1.901427-2.096143.172258-.568953.531597-1.70686.70378-2.275813-.905833-.591412-1.856584-1.512217-1.280145-2.695041.845869-2.373134 2.979518-3.892838 4.925787-5.315221-.531522-.456659-1.594491-1.377465-2.125938-1.834125 1.100475-.351852 2.193389-.688733 3.278892-1.018127.269579-.920805.531522-1.826639.778567-2.732472zm366.974869-163.117451c1.624511-.11978 3.263994-.449173 4.881019-.224587 2.156033 1.654456 1.841612 4.48425 2.148547 6.879842.471632 1.227666 1.392438 2.238307 1.886529 3.466048 1.085503 4.327038 2.7175 8.496866 3.039407 12.996088.306936.763595.91332 1.489759.696219 2.38062-.232073 2.979518.089835 5.974008.05989 8.961012-1.610829 3.432367-1.627065 7.254308-1.499914 10.999186l.033935.934345c.017622.466099.035594.930387.051083 1.391951l2.539494.046027c1.69355.032163 3.387101.078744 5.073997.208505 3.241536.39677 6.385751-1.040586 9.619801-.426715.778567 1.504731 1.774235 2.889683 3.039407 4.012617-.920805.778567-1.721832 1.759263-2.822307 2.298271-1.92396.359339-4.035076-.059889-5.794339 1.010641-2.987004 1.369979-5.180468 3.922782-7.995289 5.577238-1.13042.51655-1.579594 1.70686-2.223409 2.687555.176862.098257.418995.232307.67705.375306l.52272.289974c.257354.142999.497732.277049.671786.375306-.007486.479118-.029944 1.444841-.037431 1.931446 1.661942 1.115448 2.178492 3.046894 2.627666 4.881019.49409 1.018127.815998 2.10363 1.107961 3.204105 1.856584 2.560289 2.904656 5.674559 2.590234 8.863691.344367.157211 1.033099.464146 1.384952.621357-.299449 1.489759.149724 2.822307 1.197796 3.900324.044917.85343.082349 1.706859.112294 2.575261 2.680068.786054 3.496067 4.005131 6.228539 4.836102 0 .344367-.007486 1.048072-.007486 1.392438 1.115448 1.115448 2.185978 2.268327 3.263995 3.421206-1.736805 1.661942-3.660765 3.189132-5.944064 4.035075.23956.583926.711192 1.751777.950751 2.343189 3.118501.53315 6.241786.33446 9.365798.10416l1.441889-.105987c1.922548-.13751 3.845136-.246195 5.766817-.16287.262018.14965.79354.464071 1.063044.613796 2.028767.771081 3.256509 2.53783 4.192287 4.409387-2.927115 2.208437-6.80498.741136-9.941708 2.373133-3.518526 1.669429-6.760062 3.922783-9.687177 6.483072.037432.329394.11978.988182.164697 1.325062 1.594567.434201 3.63082.658788 4.401901 2.365647 1.010641 1.871557 1.64697 4.409388 4.050048 4.873534-.013611 1.810305.452267 3.53554.939941 5.253744l.291558 1.030703c.478083 1.718514.886423 3.445604.767324 5.259313.127266 2.043665 1.519704 3.90781.778567 6.018925-.823485 2.844766 1.399925 5.33768 1.092989 8.167473-.006417.712261-.080057 1.429411-.161379 2.147608l-.081679.718405c-.172962 1.556683-.28882 3.112273.258031 4.627699.442155 1.448585.465052 2.944543.451087 4.446571l-.010575 1.001799c-.00637.834825.002111 1.668691.09101 2.494516-4.36447 1.639483-9.028389 1.018126-13.332969-.479119-.321907-.239559-.980695-.726164-1.310089-.973209-.801026-.209614-2.126088.411742-2.418051-.726164-1.040585-1.594566-1.991336-3.263994-2.537831-5.09812-1.377465-.883449-3.353829-1.325062-3.698195-3.181646-2.987004-1.729243-3.615847-5.322706-2.904656-8.459435-.389284.074862-1.034763.206287-1.592625.318858l-.515923.103492-.212182.041796c-.068936-1.840052-.99802-3.34581-2.03165-4.780672l-.367921-.503907c-.308168-.418184-.61769-.832915-.909341-1.250896.061762-.17967.145631-.42461.235027-.685472l.181248-.528335c.089396-.260161.173266-.503346.235027-.680208-.868402-.613871-1.774236-1.175338-2.560289-1.886529-.247046-1.302604.224586-2.605207.33688-3.877865-.718678.501577-1.437356 1.003154-2.171006 1.504731-.464146-.681247-1.399924-2.051226-1.86407-2.739959l2.253354.187156c-.621357-1.010641-1.654456-1.414897-2.799848-1.52719.15721-.658788.479118-1.976364.636329-2.635152-.107303-.027449-.249541-.064048-.403425-.103698l-.473295-.121997c-.153884-.03965-.296122-.076249-.403425-.103699.139975-.599594.39364-1.29189.629042-2.009852l.115568-.36081c.545317-1.751252.855527-3.587155-.931766-4.561583-4.379442-.390947-8.192796 1.424694-12.013852 3.2352l-.917495.433291c-2.754691 1.292781-5.537172 2.491176-8.561607 2.769664-2.807335.501577-4.319552-2.133575-5.786853-4.005131 1.137907-1.085503 2.185978-2.253354 3.219077-3.428692.082349-1.811666.479119-3.585902 1.42987-5.143037 1.617024-.479118 3.166673-1.175337 4.813643-1.534676.675962-.052822 1.357105-.041538 2.039048-.018717l.818435.02956c1.363764.047282 2.723718.056608 4.044817-.392566.741577-.213137 1.494344-.400163 2.249915-.582045l1.134411-.271586c2.079764-.500443 4.149019-1.041265 6.033346-2.058511.823485-.299449.621357-1.340034.898347-1.991336-.361834-.099816-.768585-.109798-1.180051-.113402l-.411547-.00457c-.683567-.014377-1.343002-.088315-1.792176-.608192-.164697-1.2502 0-2.500399.029945-3.735627.404256-.104807 1.212769-.314421 1.617025-.419228.359339-1.357502.542335-2.74495.695387-4.133506l.148492-1.387858.076927-.692204c-1.227741-.007411-2.470455 0-3.713168-.007411-.830971-1.115523-1.70686-2.193539-2.635152-3.226563-.067376-1.36998-.119779-2.732473-.157211-4.08748-.188091-.011229-.445664-.024564-.720607-.03803l-.557607-.026524c-.274943-.012764-.532516-.024345-.720608-.032767-.022459-1.512217-.029945-3.024435-.044917-4.52168.771081-.27699 1.542162-.546495 2.305757-.815999-1.137906-.441687-2.290785-.860916-3.443664-1.265172-.172183-.272499-.351852-.541404-.533797-.809351l-.547453-.803601c-.543859-.805997-1.061307-1.627086-1.411663-2.534417-.321907-1.699373-.269504-3.51104-1.272658-4.993313.149724-.389209.441687-1.16029.583925-1.549574-1.420511-1.493689-.997048-3.096284-.507189-4.759396l.128126-.435196c.318238-1.091264.598971-2.206478.349119-3.332219-5.105906-.473429-9.398328 2.064761-13.651703 4.625105l-.750348.451447c-1.750602 1.051074-3.502307 2.076088-5.309182 2.866334-1.025288.62689-2.078086.231294-3.068686-.232281l-.327773-.155733c-.162612-.077816-.323219-.154575-.481406-.225857-.359339-1.272658-.778568-2.530344-1.212769-3.765571.748623-2.133575 1.13042-4.36447 1.07053-6.610338 1.617025-1.092989 3.263995-2.26084 5.247845-2.500399 2.272069-.34811 4.478634-.958237 6.678649-1.592695l1.885498-.544235c1.572203-.449256 3.149657-.876276 4.753849-1.194441 2.455482-.778567 5.554779-1.998822 5.607183-5.023257-1.676915.164697-4.087479 1.235227-4.970854-.905834-.905833-2.373133-.79354-4.97834-1.025613-7.471253-.211918-2.059288.503216-3.92863 1.283555-5.784232l.294001-.695552c.391587-.92746.772543-1.856993 1.035137-2.810623-.524036-.628917-1.931447-.913394-1.736805-1.864145 1.167852-3.196618 1.063044-6.610337 2.058712-9.859359.898348-1.085503 1.332549-2.350675 1.130421-3.750599.12633-.129138.300033-.307754.485976-.498741l.377791-.387471c.186644-.190986.362102-.369603.491239-.49874-.396769-1.961391.875889-3.533499 1.557135-5.240358.778568-3.316398 1.864071-6.632796 3.930269-9.387728-.464146-.389283-.928292-.763595-1.399924-1.137906.204935-.036495.484616-.085624.782588-.137515l.603606-.104544c.297271-.05119.575197-.098564.777325-.132252.943265-.583926 1.901501-1.107962 2.89717-1.557135.202128-.291963.606384-.868402.801026-1.152879zm71.979437-19.81999.35996.00395c.40426 1.205283.88338 2.373134 1.42987 3.518377.87589 1.721832 1.72183 3.458636 2.56029 5.202927 1.6844.79354 2.37314 2.350675 2.05871 4.162341.86092.748623 1.71435 1.504732 2.57527 2.253354.00748.434201.02994 1.31009.03743 1.744291.63633.913319 1.98385 1.789208 1.355 3.106784-.47085 1.771912-1.84184 2.867019-3.24543 3.952933l-.52619.408091c-.96126.752157-1.88667 1.539412-2.49435 2.578707-.816 1.953905 1.2502 3.458636 2.97952 3.675737 3.27148.359339 6.6328-.149725 9.63477-1.489759 3.63082-.606384 6.20608 3.099297 6.6328 6.333347-2.38811.973209-4.95588 1.31009-7.39639 2.088657-3.56345 1.287631-6.58788 3.645792-9.68718 5.764394 2.49292.79354 5.11309.464146 7.67338.524036.45666 1.310089.84595 2.867224 2.31325 3.39126 2.7175 1.160365 4.37195 4.005131 7.36644 4.604029.23956.703705.47912 1.422383.71868 2.141061 2.32073.539008 3.18165 3.009462 4.41687 4.768726-.09732.39677-.29944 1.197796-.39677 1.602052.41923.05989 1.26518.187156 1.68441.247045-.11978.479119-.35186 1.437356-.47164 1.916474.22459 1.280145.26202 2.590234-.05989 3.870379-1.72718 1.133272-2.77243 2.914128-3.75531 4.691246l-.34531.626003c-.11492.207908-.22998.414705-.34619.619328 1.72183 2.979518 2.1186 6.737603 4.22223 9.4027 3.78054.434201 7.74075.576439 11.31168-.920806 3.33137.778568 6.83493 3.488581 6.55794 7.261639-3.15919.426715-6.42318.531522-9.48505 1.429869-3.93027 2.088657-8.12256 3.615847-12.09026 5.61467-.60638 3.353829 2.42554 5.420027 2.62767 8.586701 3.78054 3.398746 5.08315 9.118223 2.81482 13.722252-1.22774 1.998822-1.02561 4.36447-1.26517 6.602851-1.01813 2.275813-2.22341 4.461791-3.42121 6.655255-.13475.696219-.2695 1.392438-.41174 2.103629-.62136.988182-1.16036 2.036254-1.62451 3.121757-.23207.351852-.68873 1.048071-.92081 1.392438-.19464 1.414896-.67376 2.747445-1.56462 3.885351-.1048.703705-.20961 1.414897-.3219 2.133574-1.52719 1.437356-2.50789 3.308912-3.12176 5.300248-.71868.905834-1.44484 1.819153-2.15603 2.747445-.93578.666274-1.87156 1.347521-2.80734 2.028767-.09304-.15721-.22321-.383172-.35868-.619545l-.26859-.46934c-.0856-.14955-.16413-.286441-.22616-.393387-.74113-.217101-1.48227-.426715-2.22341-.628843-.24704-.509064-.72616-1.52719-.97321-2.036254-1.07053.344367-2.14854.696219-3.22656 1.055558.76359-2.073685 1.9539-4.020103 2.14106-6.258485-.69622.014973-2.09614.037431-2.79985.052404.22459-2.560289.15721-5.143037.61387-7.673382-.49409.711192-.99567 1.422383-1.50473 2.133575-.92829-.890861-1.47479-2.036254-1.80418-3.256509 2.69504-1.227741 2.26833-4.274635 1.6844-6.62531-.50906-.112293-1.53467-.329394-2.05122-.441687.02879-.209614.06254-.419583.09796-.629824l.10794-.63146c.1595-.948171.28588-1.900207.07857-2.848654-.75611-3.930269-.47163-7.942886-.4342-11.918072-.1909.05334-.45444.125629-.73613.202655l-.57147.156158c-.2817.077026-.54524.149315-.73614.202654.19464-1.295117.3818-2.590234.5465-3.885351h-2.08117c.11977-.681246.35185-2.04374.47163-2.724986.31442-.79354.59141-1.58708.84594-2.395592-.9208-.598898-2.26084-.950751-2.41805-2.245868.15721-1.227741 1.4149-1.609539 2.27581-2.178492-.05989-.726164-.11978-1.437355-.19464-2.148547-3.84043.044918-7.75573-.411742-11.5213.553981-3.19662.838457-6.513017.890861-9.754553 1.489759-1.311272.291963-2.566469-.092433-3.803959-.527407l-.570032-.202069c-.379369-.13407-.75762-.263812-1.135872-.370999-.366825-.920806-.748622-1.826639-1.122933-2.732473.561467-.007486 1.669428-.014972 2.223409-.022458-.583926-1.392438-1.856584-2.762418-1.377466-4.379443.553981-.808512 1.242714-1.504731 1.879043-2.238381 5.502376-.965723 11.072123-1.384952 16.581993-2.215923 3.59339-.576439 7.24666.007486 10.83257-.666274.39677-.756034.78605-1.504657 1.17533-2.245868-1.10796.067376-2.21592.149725-3.33137.239559-1.53467-.232073-3.06935-.441687-4.61151-.621356-.10481-1.145393.2695-2.185978.95823-3.076839.00749-.314422.02995-.928292.03744-1.242714-.53901-.007486-1.61703-.029945-2.15604-.037431-1.39992-2.672582-3.38377-5.060688-4.27463-7.980317.16469-.591411.50157-1.774235.66627-2.373133-1.22774-.763595-1.92396-1.991336-.24704-2.710014-.05241-1.100475-.08984-2.20095-.08984-3.293939-1.09299.456734-2.23838.920805-3.43618.509063-.59889-2.320655-1.7368-4.514119-1.84161-6.93217-1.06304-1.482273-1.804178-3.151701-1.864068-4.993313-.33688-.217101-1.003154-.651302-1.332548-.868402.172183-1.182824.321908-2.350675.45666-3.526013-2.972032.17967-5.944063-.179669-8.916095-.149724-2.994491.598973-5.944064 1.407485-8.94604 2.006383-3.249022 1.302604-7.561088 2.230896-10.47323-.254531.045749-.259246.070703-.536719.091359-.820962l.023781-.343608c.07943-1.151303.195677-2.337598 1.404564-2.825589 3.218426-1.505057 6.69045-2.126145 10.164049-2.71762l1.302181-.222084c1.084392-.186694 2.165862-.380925 3.236717-.608767 3.892838-1.100475 7.710813-2.627665 11.012239-4.993313-.232073-1.265172-.464146-2.530344-.703706-3.78803 1.317576-1.706859 2.22341-3.683223 1.542163-5.869201 1.175337.074862 2.343184.187156 3.511044.291963.83845-2.904656.11978-5.794339-.72617-8.586701 1.38495-.995668 2.2833-2.290785 1.75178-4.035076.61387-.366825 1.22774-.73365 1.83412-1.092989.14224-1.534676.60639-2.99449 1.38496-4.312066.84594-1.31009.54649-3.024435 1.38495-4.312066 2.50788-2.515372 5.86171-4.162342 9.47007-4.065021zm-350.137647 31.895347c1.038958.523385 1.586797 1.495094 2.106018 2.507915l.259366.507951c.391897.761409.811055 1.507768 1.452592 2.067282 1.669428 1.519704 1.691887 3.84792 2.373058 5.846742.905908 2.156033 2.358236 4.050048 3.14429 6.265971.336955 1.968878-.097321 4.162342.995668 5.95155 1.340035 2.650124 3.615922 5.075661 3.57093 8.219876-.082349 2.021281.082423 4.050048.73365 5.981494 1.003229 2.949573.164697 6.101274.628918 9.133196.419303 2.972032-1.152879 5.89166-.359339 8.863691.673685 2.710014 1.145393 6.093788-1.287631 8.107583 1.13042 1.340034 1.89394 3.271481 3.608286 3.945241 3.960139.269504 7.9354-.044917 11.895613.149725 1.4673 1.796694 3.278892 3.533498 3.63082 5.944063-4.177314.209614-8.287178 1.399924-11.835649 3.653278-2.552952 1.70686-5.68212 2.193464-8.212464 3.9677.067376.890861.119779 1.789208.172258 2.695041 2.446622-.23246 2.591734 1.8179 2.478641 3.791865l-.02089.327882-.023568.324041c-.044381.589069-.091673 1.146531-.083583 1.605083-.344367.344366-1.018127 1.033099-1.362568 1.377465-.673686 4.791185-3.563369 8.901123-7.007033 12.165117-1.489759.029945-2.979518.097321-4.476763.202128-5.232872-1.489758-10.623029-2.530269-15.48159-5.083147.262018-2.223409-.973134-4.079993-2.492913-5.55478.838382-2.283298-1.003229-4.139882-1.587155-6.206081.17967-1.377465 1.8342-1.811666 2.739959-2.605206-.104807-.419229-.321983-1.242714-.434201-1.654456-.464628 0-.932409-.012107-1.401815-.026796l-.940524-.03c-1.726607-.050965-3.461358-.051287-5.128915.468538-6.026412 2.028767-12.501997 1.789208-18.783015 1.804181.194642-.57644.591412-1.721832.786053-2.298272l-.408359.101883c-.465681.116154-1.06085.264942-1.403232.354777.000224-1.093064-.007262-2.178567-.022309-3.256583.19087.028073.453349.067727.733734.11067l.568732.087817c.280392.043645.542888.085054.733787.115934.007486-1.257686-.112293-2.500399-.022459-3.743113 1.699374-.15721 3.346343-.516549 4.895992-1.212768 2.65761-1.167851 5.622156-.479119 8.392059-1.063044 3.743113-.778568 7.606006-.988182 11.244312-2.223409.684989-.210064 1.378813-.333811 2.077502-.406727-.105181-1.077717.004193-2.177668.324977-3.204479-.603689-.207443-1.207378-.411144-1.811067-.618512.119704-1.287631.254531-2.567775.411667-3.840434-.172183-1.549649.014973-3.196618-.756034-4.611515.70363-1.602052.344367-3.458711 1.16029-4.985826-1.167776.329393-.741136 1.856584-1.354932 2.635151-.456734-.636329-.890935-1.287631-1.362568-1.908988l.91332.276991c.044917-.699674.108572-1.397754.177441-2.095159l.140681-1.394182c.186157-1.858438.345273-3.71644.220886-5.591451.292038-.471632.868402-1.429869 1.160365-1.901502-.658788-.434201-2.051226-1.452327-.958237-2.253279.928292-.920806 1.961466-1.721832 2.942162-2.575261-.771081.089834-2.313244.269504-3.084325.359338-.08991-1.212768-.164697-2.418051-.224587-3.623333 1.370054-.097321 2.635152-.426715 2.829793-1.98385-.681246-.651301-1.399924-1.272658-2.036253-1.968877.142163-.91332 1.167776-1.152879 1.759263-1.669429.074862-.411742.231998-1.235227.314422-1.646969-.404257.05989-1.212844.194642-1.617025.254531-.074863-.426714-.231998-1.272658-.306936-1.699373 1.385027-1.856584.561467-4.416873 2.051226-6.206081.703631-.943265.711192-2.156033.91332-3.249022 1.273164-.824392 1.007991-1.936073.525094-3.028358l-.130044-.284303c-.177662-.377945-.367771-.750318-.514755-1.104212.104732-1.122934.291888-2.22341.561467-3.301426-.374311-.097321-1.115448-.284477-1.489759-.374311.688658-1.796695 1.916399-3.256509 3.578416-4.222232-.002807-.185284-.006667-.440049-.010791-.712186l-.008363-.551992c-.004123-.272136-.007983-.526901-.010791-.712185.636329-.344367 1.272659-.688733 1.894015-1.018127.329319-.591412.651227-1.182824.965649-1.766749 2.088657-.411743 4.259737-1.2502 6.38575-.703706zm-509.250516-43.974165c1.115447.269504 2.215923.531522 3.301425.801026.778493.67376 1.564622 1.332548 2.328217 1.998822.524035 2.807335 2.560214 5.397569 1.43728 8.339656 1.819228 3.720654 1.961391 7.838078 1.968878 11.888126.553722 2.661225.37181 5.340501.148871 8.019622l-.103279 1.23644c-.235977 2.884692-.395599 5.765954.388684 8.621046-.276991.351852-.82356 1.040585-1.100551 1.392438-.726163 3.458636-2.200875 6.722631-2.889683 10.19624-.078189.38762-.127909.784482-.170685 1.18385l-.061648.600089c-.123645 1.200569-.281671 2.393375-1.055298 3.396529.157211.718678.299449 1.437355.434202 2.163519.741211.711192 1.452402 1.444842 2.163519 2.171006.958237.703705 1.759338 1.572107 1.961391 2.792362 2.897169.037431 5.786927-.112293 8.661638.029945 1.676915-.007486 2.410565 1.811666 3.32381 2.912142.404256.172183 1.220254.524035 1.624511.703705-.157211.561467-.321983 1.130345-.501577 1.706859-3.915297.45666-7.620904 1.841612-11.199394 3.466123-1.991336 1.145393-4.005131 2.350675-6.273458 2.897169-.531522.771082-1.220254 1.579594-.958237 2.620179.254607 2.298272-.112293 4.589057-.568953 6.842411.120744.129137.287787.305649.466402.494003l.362367.381973c.178607.188355.345633.364866.466348.494003-.127191 1.789208.082424 3.57093.419304 5.337679 2.099206 3.001126 1.586069 6.581955 1.057689 10.093193l-.10176.678551c-.184352 1.241777-.349526 2.469518-.37949 3.654214.014973 2.069941-.353724 4.085607-.75799 6.096595l-.304429 1.508138c-.30022 1.508811-.571496 3.021964-.666974 4.560384-1.167776 1.542162-.247045 3.675737-1.58708 5.143037.044993.471632.127266 1.399924.172183 1.86407-1.145317.606459-2.14106 1.362493-1.624436 2.874711-.099816.054899-.232913.128098-.3771.207396l-.443645.243996c-.144179.079298-.277259.152497-.377051.207396.022384 1.175337.052329 2.343188.044843 3.533498-2.006234.658788-3.728141 1.901502-5.360138 3.226564-1.669428-.651302-3.368802-1.295117-4.798596-2.418051-.419304.089835-1.2502.269504-1.669428.359339.082348-.501577.254531-1.519704.344366-2.028768-.322874-.591653-.688503-1.18865-1.053185-1.795043l-.311334-.52216c-1.133232-1.923716-2.133775-3.951666-1.644944-6.209608-.32997-.32997-.705787-.636019-1.092952-.938756l-.38967-.302397c-1.172692-.908457-2.344014-1.848931-2.582473-3.377848-.598824-3.413719-.628843-6.992135-2.096069-10.19624.299449-.232073.8833-.696219 1.175263-.920806-.314347-1.938932-.67376-3.870378-1.055483-5.786852.262018-1.856584.007411-3.713168-.254607-5.547294-.351852-.321907-1.055483-.965723-1.40741-1.287631.194642-5.307734.254606-10.607982.336955-15.90823-2.126088-.568953-3.882856.395939-5.609679 1.466192l-.470464.293426c-.705347.440838-1.410847.877576-2.139733 1.212414-3.308912 1.624511-6.13878 5.030744-10.098994 4.82113-2.066123-.531522-1.661942-2.979518-1.916399-4.589057-.104807-2.058712-2.103704-3.17416-3.159187-4.753753-.801026-4.356984 1.369979-8.33217 1.991261-12.539429.905908-1.145392 1.332548-2.500399 1.467375-3.915296 2.268327-2.455482 7.194263-3.555957 8.796316.17967 3.196618.95075 6.415621 2.133574 9.806956 1.983849-.078381.410994-.117983.802524-.105182 1.156248.195915-.559071.459879-1.090144.785305-1.581241-.111919-.006962-.223913-.007785-.335757-.016694.419304-1.834125.651302-3.705682.786054-5.569752.741136-.741136 1.901501-1.437355 1.579593-2.65761-.225085-1.987344.03294-3.954557.331224-5.913451l.164032-1.067733c.054233-.355684.107136-.711163.156046-1.066509.389284-.194642 1.175263-.576439 1.572108-.763595-.014973-1.58708.134827-3.159187.381797-4.716322.546495-.883375 1.429869-1.729319 1.115448-2.859739-.306898-2.096143.204037-4.07625.773916-6.052613l.264444-.912311c.482354-1.673582.923319-3.356854.863141-5.117844 1.819078-1.729318.299449-4.596543 2.537831-6.078816.471632-3.346343 2.784876-5.899146 4.521605-8.639104.154404-.081413.366708-.193356.593492-.31293l.460008-.242542c.226791-.119575.439113-.231518.593545-.312931-.479119-3.563368 1.52719-6.475585 3.735627-8.998443.509138.022459 1.512217.052404 2.013719.074862.411743-.741136.801102-1.474786 1.175413-2.208436zm190.890958 12.771108c1.32258-.53089 2.623971-1.005702 4.110254-.373918.434201.823484.875888 1.646969 1.295342 2.477866 1.916548 1.542162 3.002051 3.758085 3.877939 6.003953.337857.523385.72666 1.01824 1.121753 1.509019l.395536.490327c.985814 1.226948 1.917913 2.47937 2.098559 4.139359.291962.179669.868402.54642 1.152878.726164.231999.756109.449174 1.519704.658788 2.290785.411743.134752 1.235302.411742 1.64697.546494-.33688 1.721832-.79354 3.421206-1.564621 5.008286-1.13042 2.418051-.711267 5.172982-1.033099 7.763216.501577.022459 1.497245.05989 1.998822.082348.336805.321908 1.010566.965723 1.347446 1.287631 3.271406.778568 6.617749.950751 9.95668.883375 2.754931-.276991 3.51104 2.792362 5.120579 4.371956-1.789208 1.938932-4.693864 1.280144-6.632797 2.957059-.688807.104807-1.392438.217101-2.118601.329394-1.64697 1.641979-3.70322 2.671751-5.784968 3.654942l-.892619.420164c-.743286.35051-1.482831.705384-2.201152 1.09039.229708.621016.434274 1.255567.636902 1.891699l.243708.763353c.614373 1.906457 1.294843 3.784123 2.667936 5.310292.022384.494091.074862 1.474787.104732 1.968878.359414.194641 1.078017.598898 1.437355.801026.321983 4.566598.973285 9.095764 1.003155 13.684821 1.197871 5.479917-.209615 10.974807-.808513 16.417293.628843 1.295117.995668 2.627665.254532 3.990158.269504 1.901502-.366825 3.660765-1.474787 5.187955.014973 3.226563-2.410489 6.542961-5.914118 6.131219-.129137-.137559-.307754-.327756-.498741-.531113l-.38747-.412561c-.190987-.203356-.369603-.393553-.498741-.531112-.494091.082348-1.497245.239559-1.991336.321907-1.923885-1.437355-4.58157-2.747445-4.30458-5.599697-.681171-.224587-1.369904-.441687-2.073684-.651301 0-1.332549-.02987-2.657611-.089835-3.975186-2.829719-2.156033-4.252102-5.502376-4.768726-8.938554-1.40741-2.942087-1.414897-6.408209-3.256508-9.125709-.044843-2.784876-.583926-5.502376-1.040586-8.234849-.778492-.935778-1.58708-1.849098-2.425537-2.747445.434276-3.458636-1.774235-6.87228-.306935-10.233671.029713-.258506.122185-.547994.225876-.846206l.13544-.386473c.296682-.861725.504616-1.716819-.578342-2.046213-3.046894-1.07053-6.400723.089835-9.10325 1.64697-.522381.252036-1.049289.516642-1.580746.785684l-.639932.324459c-4.066749 2.061802-8.396684 4.191935-12.99882 2.820126.104807-.703706.321833-2.111116.42664-2.814821-.785979-.411743-1.639408-.651302-2.5677-.726164.741136-1.676915 1.003154-3.473609.913319-5.292762.793465-.748623 1.594566-1.497245 2.365648-2.223409.02987-.441687.097321-1.325062.127191-1.759263 2.111115-1.197796 4.349497-2.425537 6.864869-2.096143 5.749421.561467 11.214366-1.58708 16.911384-1.804181.566571-1.694609-.840112-1.683971-2.215-1.640869l-.273959.008558c-.544695.015999-1.062915.019349-1.426337-.097007.037431-3.301426-.786129-7.396391 2.53783-9.477562-.034137-.481514-.072479-.964214-.11134-1.447634l-.07732-.967662c-.252751-3.227821-.419281-6.473849.592917-9.600097.314346-.194641.943189-.584 1.250125-.778567.366825-3.106784 1.602052-5.988981 2.455482-8.961012.808437-.23956 1.602052-.471633 2.380545-.696219.239559-.756109.46422-1.512218.67376-2.253354.760387-.086627 1.47746-.348053 2.181799-.6284zm537.930564-76.9953656c.464146.9208056.950751 1.8341256 1.4673 2.7324726.539008 4.678891.037431 9.410111.27699 14.119022.291963 2.447996-.568953 4.753753-1.190309 7.074483-.943265 6.842411-2.126089 13.722327-4.708837 20.167968-.524035.329319-1.063044.658788-1.602052.995668-1.617025 2.343189-3.316398 4.821054-3.11427 7.823106-.190927.098257-.453419.234412-.7338.380043l-.568706.295472c-.280373.14563-.542849.281786-.733747.380043 1.661942 1.13042 3.27148 2.455482 5.25533 2.957059 1.982952.602791 4.025326.605558 6.07228.549076l1.116645-.033434c2.23288-.065618 4.459343-.084735 6.60819.644723 1.122934 1.826639 3.346343 3.136729 3.383774 5.472506-1.70686.628793-3.483591.968185-5.265867 1.282069l-1.336742.234753c-.445257.079406-.889856.16134-1.332791.249927-4.611515 2.006309-8.961012 4.559112-13.482693 6.752576-.426714 1.92396.651302 3.219077 2.44051 3.765572.067376.366825.209614 1.092989.284477 1.459814-.314422.27699-.943265.830971-1.257686 1.115447.037431.366825.104807 1.115448.142238 1.489759.374311-.022458 1.137906-.067376 1.512218-.089834 2.350675 4.783698 4.386928 9.791983 5.180468 15.092231.229977.963028.472411 1.925481.717367 2.888525l.368083 1.445153c1.163724 4.578644 2.272272 9.183751 2.260893 13.940199 1.796694 4.619002.943264 9.634773 1.092989 14.470875.51655 3.668251-3.675737 6.161164-6.909787 5.914119-3.578416.344366-6.415695-2.10363-9.649745-3.136729.089835-.494091.269504-1.4673.359339-1.953905-.869283-.800586-1.640649-1.697223-2.397698-2.606642l-.755373-.910595c-1.135189-1.363031-2.300865-2.692367-3.779174-3.706971-.134752-.33688-.389284-1.018127-.51655-1.362493-.830971-.247046-1.639483-.561467-2.433023-.935778.294593-.835625.195834-1.798794.095482-2.745134l-.041964-.404122c-.139219-1.407876-.1561-2.731478 1.271544-3.48354-.943265-.23956-1.894015-.486605-2.844766-.718678-.410608-.639732-.658293-1.383268-.880334-2.136865l-.131246-.452616c-.456277-1.583131-.920547-3.127954-2.664157-3.766325-.636329-1.931446-.965723-3.952727-1.504656-5.906632-.389284-1.13042-1.519704-1.834126-1.82664-2.994491-.187155-1.572107-.134752-3.159187-.299449-4.723808-.838457-.449174-1.811666-.531522-2.732472-.756109-.224587-2.462968-.613796-4.925937-.389284-7.396391-.224587-1.856584.163034-3.656606.592798-5.446645l.215756-.894404c.142659-.596002.279444-1.191758.389242-1.788992-1.482272.044917-3.009462-.089835-4.476763.247045-1.774235.928367-3.234049 2.380695-5.105606 3.166674-2.575261 1.063044-4.139883 3.645792-6.767548 4.626487-1.624511.673761-3.406233.688733-5.143037.658788.082348-2.185978.374311-4.439332-.583926-6.483072-1.624511-1.078016-1.871556-2.81482-1.736804-4.619001.004304-.657522-.17632-1.394372-.363368-2.13908l-.086136-.34401c-.426459-1.720234-.740881-3.423767 1.250455-4.232279-.404256-.411743-1.220255-1.242714-1.631997-1.654456 1.669428-2.792362 3.061866-5.734449 4.005131-8.841233 2.680069-.801026 5.547293-.85343 8.21239.014973.2171.546494.651301 1.639483.868402 2.185978 2.858989 1.118217 6.044528.666498 8.93496 1.42373.241506-.613871.563638-1.190684.966322-1.710977-.039078-.011005-.077707-.023731-.116785-.034661-.321908-.681247-.643815-1.362493-.973209-2.036254.149724-.763595.291962-1.534676.426714-2.298271.359339-.202128 1.085503-.621282 1.452328-.830896-.022458-2.058712-.082348-4.102452-.187155-6.153678.441687-.958237.808512-1.946493 1.107961-2.949648.374311.007487 1.107962.007487 1.474787.014898l.035908-.412415.034494-.415827c.163659-1.944512.406844-3.917024 2.489887-4.748996-.014973-1.729244-.711192-3.758086.815998-5.045717.05989-1.137906.112294-2.268326.157211-3.398746.39677-.217026 1.175338-.643741 1.564621-.860841-.029944-.531522-.074862-1.594566-.097321-2.13365.733651-.389283 1.467301-.771006 2.185978-1.152804.074863-1.040585.127266-2.073684.194642-3.106783 1.227741-1.58708 2.081171-3.398747 2.762418-5.270303 3.016949-1.983775 4.132396-5.547219 5.899146-8.504353.823485-1.4673 2.47794-2.283224 3.11427-3.855406.441687-1.182824 1.639483-1.73673 2.582748-2.44051.037431-.875813.074862-1.7442905.097321-2.6126927 3.368801-1.8265643 7.486225-1.5420877 10.615468.6064591zm103.357067 30.1327796c5.403265-2.256566 10.829264-4.407585 16.796854-4.013412 1.22775.718677.35186 2.560289.56896 3.758085l-.48169.156158c-.09136.029653-.18687.060679-.28445.092423l-.59381.193794c-.29275.095932-.56682.186468-.76614.253844.2171 1.078017.67376 2.066198 1.62451 2.710014-.9807 1.205282-1.96139 2.447996-2.37313 3.982672.31001.230752.60884.486786.90633.748403l.44645.394151c.82118.721257 1.66945 1.410249 2.74967 1.657295 2.15603.374311 4.3495.097321 6.4681-.314422 3.32388-.621357 6.74509-.411742 10.04651.232073.56896 1.107962 1.1454 2.223409 1.70686 3.346343.40426.179669 1.21277.539008 1.61703.718678-.35934.688733-.72617 1.377465-1.09299 2.073684-2.60521.082349-5.23287.344367-7.7183 1.152879-3.66825 1.609539-6.76755 4.274635-10.54809 5.659587-2.3956.838457-4.08748 2.807335-6.05636 4.319552 1.21277.591412 2.42554 1.182824 3.62333 1.789208.07487 1.841612.22459 3.69071.51655 5.517349-.03854.078466-.07696.157272-.11536.236326l-.23058.47659c-.92579 1.912531-1.92321 3.864495-4.0859 4.60979-.48661 1.789208-.67376 3.810489-2.08866 5.165496-1.805907 1.750625-3.379344 3.702537-4.927919 5.677783l-1.160014 1.483029c-.580921.740922-1.165643 1.478869-1.765117 2.204457-2.013795 2.515372-4.963368 4.012617-7.119401 6.393237-1.58708 1.721832-3.555958 3.001976-5.539807 4.214745-.187156.344366-.561467 1.025613-.748623 1.362493-2.230895 1.512218-4.544139 3.136729-7.366446 3.136729-.980696-3.503554-.583926-7.291584-.539009-10.884973 2.515372-3.817975 4.439332-8.159986 4.656433-12.816419.115101-.12633.27547-.298981.447551-.483212l.349834-.373609c.172783-.184232.334907-.356883.452815-.483213.089834-.763595.172183-1.519704.254531-2.275813 1.751777-1.976363 2.230896-4.559111 2.275813-7.1194-.486605-.202129-1.444842-.613871-1.931446-.815999.067376-1.998822.164697-3.997645.2171-5.988981-2.650124-.089835-5.330193-.351852-7.97283.007486-.908059.259793-1.814543.550492-2.721687.8502l-.907447.301899c-4.387854 1.465849-8.808522 2.971598-13.514324 2.04452.381798-1.063044.771082-2.118602 1.160365-3.166674-.666274-.306935-1.340034-.598898-2.021281-.890861.217101-1.437355.486605-2.859738.823485-4.259662 2.455482.037431 2.739959-2.635152 3.323885-4.394415.688732-.321907 1.384951-.61387 2.088657-.875888 2.183482-.326899 4.419368-.318581 6.659413-.273941l1.550873.033035c3.962007.080476 7.902183.058741 11.55335-1.720485-1.347521-3.166674 2.350675-4.76124 3.226563-7.441309-1.953905-.157211-3.90781-.2171-5.861715-.262018-1.587079.786054-3.308911 1.205283-5.068174 1.392438-.067376-.419228-.202129-1.250199-.269505-1.669428 2.373134-2.732473 5.816798-4.005131 9.387728-4.02759 2.977379-.7529 5.867754-1.915276 8.749838-3.117025zm-328.608425-96.4089513.710699.2335778c.710402.2314816 1.418989.4414702 2.117476.4931251.202053.3294688.60631.9807705.808363 1.3100896.188403.0361896.378054.0720669.568346.1085111l.572195.1119135c1.909682.3845789 3.822839.9138135 5.132991 2.4672053 1.137906 1.3475207 2.949498 1.4297943 4.484249 2.0062337 3.518526 3.8404339 7.995215 6.6104123 11.865668 10.0540763 1.242714 1.5047314 2.395667 3.1142699 4.124911 4.0949655.973134 1.3774656 2.036253 2.6875551 3.20403 3.9003986 1.489759 3.0617166 2.073684 6.4605381 1.796769 9.8592846-2.298347 1.092989-.568953 2.7324725.943264 3.4137939.284402 1.8640702.479044 3.7356267.411668 5.6296419 1.212768.3817975 2.373133.8758135 3.42113 1.5944912 1.856584.5839256 3.795591 1.2277411 5.764469.898422 2.859663-.464146 5.734449.0448425 8.594187.1796694.329469.6213568.658788 1.2501997.973135 1.8790427.711266.3144215 1.414971.6363292 2.11119.9581621.082349.366825.232148 1.1154476.314347 1.4822727-1.624436.8085872-3.278892 1.6470445-5.112943 1.8940151-2.680143.3069353-4.626637 2.3806947-7.044688 3.3837741-1.086544.547564-2.254581.9354327-3.424233 1.3196307l-.876293.2898982c-1.602517.5391572-3.170332 1.1451206-4.495789 2.2234937-3.346343 3.675662-6.408135 7.7781135-10.645414 10.5031005-.344366.568953-.696144 1.145392-1.062969 1.729243-1.267642.888365-2.470421 1.868229-3.664887 2.860847l-1.19379.993953c-1.992013 1.653953-4.013299 3.270423-6.325669 4.484855-3.436178 1.691888-6.759988 3.615848-9.934147 5.771881-1.115448.149724-2.223484.291888-3.361316.441687.26943-.688733.568879-1.354932.905834-1.991336 3.031846-3.526012 6.250998-7.321529 7.201674-12.00042.344441-3.271406 3.428766-5.6745594 2.478016-9.1556545-1.467301.1423132-3.099223-.067376-4.416799.7710813-4.85856 2.8073347-10.338553 5.0831472-16.073002 4.6414602-2.096143-3.1667486-2.096143-7.1045034-.666349-10.53312.943265-.5763645 1.871557-1.1677764 2.77739-1.7667493 5.967421-.951649 11.78579-2.627291 17.713608-3.7153391-.067226-.9650493.038929-1.9417772.311278-2.8634814-.049334-.0044168-.097995-.0025453-.147703-.0091332.329319-1.691887 1.003154-3.2938645 1.354932-4.9707791-.591337-1.3325482-2.006384-2.2383815-2.201026-3.7431129-.359339-2.4780157-1.347446-4.8735331-1.182823-7.4039523-.718678-1.4372805-1.452403-2.8596634-2.298197-4.2221565.022459-.1684682.052287-.4021964.083961-.6522316l.064174-.5073088c.031681-.2500212.061526-.4837143.084013-.6521263-1.976439-2.2832241-3.466197-4.8959169-4.926012-7.5086097-.09732-.7262388-.202128-1.4373554-.321832-2.1486217-1.669504-1.3400345-2.395668-3.2490221-2.245868-5.3600629-3.17416-2.5378306-4.993463-6.2435873-6.557934-9.8967906.980621-1.0256878 1.841612-2.2010253 3.099223-2.8822719 1.34752-.8264793 2.765112-.4617504 4.186493-.000539zm-169.010729-25.23567818c3.17416.34436639 6.400648.41930351 9.470001 1.41489669.351927 2.16351929 2.043814 3.48109509 3.885426 4.38692839.044843.4342011.134827 1.3100895.179669 1.7442906.591412.3444413 1.167927.6887328 1.73673 1.0405854 1.040585 1.953905 2.56785 3.615922 4.626563 4.4917356-.60631.0299449-1.819228.0898347-2.425538.1122933.044843.3817976.134827 1.1453177.17967 1.5271153 2.111041-.2170257 2.403078 1.8416864 2.792362 3.3837741 1.115448.6139454 2.238382 1.2128434 3.353829 1.8116666-.112218 1.1379064-.231998 2.2758127-.344366 3.4286915 2.545317 1.3475207 5.405055 4.1699027 3.518526 7.224208 2.384998 1.2670021 2.403942 3.7567998 2.293884 6.1906113l-.021602.4553714c-.040371.8324999-.079465 1.6489402-.026414 2.3973782.299449.336955.905908 1.0182016 1.205357 1.3550817-.64389 2.1111906 1.100475 3.4287663 2.477866 4.671405-.05989 1.3775404-.127266 2.755006-.262018 4.1398829 1.744291.5390083 3.563444 1.3700542 5.420028.8309711 2.777389-.6737604 5.637128-.5764394 8.459435-.4416874 2.208436 1.5721075 3.840434 3.810489 4.446743 6.4680244-2.56785.9582369-5.427514 1.1304201-7.800647 2.5828227-2.081096 1.6020524-3.758011 3.7954417-6.265971 4.7986708-1.916399.7561089-3.713168 1.7742356-5.420028 2.9345257-.823485 2.6576102.666274 5.1431121.786054 7.7707774-.007486 3.8103392-5.210413 5.0457162-4.73137 9.0283135-2.665021 2.6800689-6.647768 3.8929124-8.481894 7.4038775-5.786852 1.4972448-12.225007 1.5571348-17.794759-.831046-.30686-1.0255381-.621356-2.0512259-.943264-3.0692777.658788-.2920377 1.310089-.5839257 1.946493-.8684022-.419303-.9357783-.845943-1.8715565-1.272733-2.7999234.419304-.194567 1.272733-.5763645 1.699373-.7710064-.33688-1.7592631.42664-3.249022 1.841612-4.2372038-.27699-3.2714808-.576439-6.8873279 2.328216-9.1855992-3.48102.299449-6.917272 1.0405854-10.308458 1.9165487-2.560289 1.8865289-5.674634 3.3912603-8.938629 3.1366538-1.751776-2.3955923-3.406232-5.0457163-3.990158-7.9952144-.231923-2.8221575.628993-5.5845748.741286-8.3919095 1.33996-.9507507 2.552803-2.1037044 4.005131-2.8598132 2.507886-.9507507 5.000874.3817975 7.261639 1.3175758 2.680144-.8384573 5.509937-.6812466 8.257307-.9957429 1.460862-.1123683 2.880925.5453715 4.299265.966322-.16597-.7568574-.206919-1.4869142-.136549-2.1825343-.501128.0232822-.9917-.0463397-1.430243-.3333616-.486605-.9731345-.621357-2.0736098-.91332-3.1217562-.494091-.5988232-.958237-1.22018-1.384952-1.8715565.187156-3.2040298-2.425612-5.8018251-1.714345-9.0882034-1.474787-2.0736846-.628843-4.806157-.860916-7.1793655-.711192-.9806207-1.414897-1.9688025-2.118602-2.9570592.104807-.4866047.321833-1.4598141.434201-1.9464187-1.077942-.5540556-2.163519-1.1080363-3.249022-1.6695033.561467-.591337 1.115447-1.1752626 1.661942-1.7591882-1.811667-3.9302686-2.799848-8.3921341-2.313244-12.7116864-.239634-.3069353-.718752-.9133196-.958237-1.2127686-.037431-2.912067-.875888-6.0713292.875889-8.66904962 1.317575-.59889807 2.620179-1.20528237 3.922782-1.78172176z" fill="url(#a)" transform="matrix(.9961947 -.08715574 .08715574 .9961947 -23.991399 46.506614)"/></svg>