<?xml version="1.0" encoding="UTF-8"?>
<svg width="980px" height="980px" viewBox="0 0 980 980" version="1.1" xmlns="http://www.w3.org/2000/svg" xmlns:xlink="http://www.w3.org/1999/xlink">
    <title>Group 2</title>
    <g id="Page-1" stroke="none" stroke-width="1" fill="none" fill-rule="evenodd">
        <g id="Group-2" fill="#5F5F5F" fill-rule="nonzero">
            <path d="M490,0 C219.8,0 0,219.8 0,490 C0,760.1 219.8,980 490,980 C760.1,980 980,760.1 980,490 C980,219.8 760.1,0 490,0 M490,70 C721.9,70 910,258.1 910,490 C910,721.9 721.9,910 490,910 C258.1,910 70,721.9 70,490 C70,258.1 258.1,70 490,70" id="Shape"></path>
            <polygon id="Path" points="455 411.3 525 411.3 525 761.3 455 761.3"></polygon>
            <path d="M437.5,299.6 C437.5,313.3 443.2,327 452.9,336.7 C462.6,346.4 476.3,352.1 490,352.1 C503.7,352.1 517.4,346.4 527.1,336.7 C536.8,327 542.5,313.3 542.5,299.6 C542.5,285.9 536.8,272.2 527.1,262.5 C517.4,252.8 503.7,247.1 490,247.1 C476.3,247.1 462.6,252.8 452.9,262.5 C443.2,272.2 437.5,285.9 437.5,299.6" id="Path"></path>
        </g>
    </g>
</svg>