<svg height="980" viewBox="0 0 980 980" width="980" xmlns="http://www.w3.org/2000/svg"><g fill="#5f5f5f"><path d="m490 0c-270.2 0-490 219.8-490 490 0 270.1 219.8 490 490 490 270.1 0 490-219.9 490-490 0-270.2-219.9-490-490-490m0 70c231.9 0 420 188.1 420 420s-188.1 420-420 420-420-188.1-420-420 188.1-420 420-420"/><path d="m455 411.3h70v350h-70z"/><path d="m437.5 299.6c0 13.7 5.7 27.4 15.4 37.1s23.4 15.4 37.1 15.4 27.4-5.7 37.1-15.4 15.4-23.4 15.4-37.1-5.7-27.4-15.4-37.1-23.4-15.4-37.1-15.4-27.4 5.7-37.1 15.4-15.4 23.4-15.4 37.1"/></g></svg>