<svg xmlns="http://www.w3.org/2000/svg" width="179" height="178" viewBox="0 0 179 178">
    <g fill="none" fill-rule="evenodd">
        <path fill="#000" fill-rule="nonzero" d="M12.527 35c0 .552-.448 1-1 1-.553 0-1-.448-1-1s.447-1 1-1c.552 0 1 .448 1 1zM25.527 45c0 .552-.448 1-1 1-.553 0-1-.448-1-1s.447-1 1-1c.552 0 1 .448 1 1zM34.527 30c0 .552-.448 1-1 1-.553 0-1-.448-1-1s.447-1 1-1c.552 0 1 .448 1 1zM53.527 68c0 .552-.448 1-1 1-.553 0-1-.448-1-1s.447-1 1-1c.552 0 1 .448 1 1zM88.527 47c0 .552-.448 1-1 1-.553 0-1-.448-1-1s.447-1 1-1c.552 0 1 .448 1 1zM78.527 33c0 .552-.448 1-1 1-.553 0-1-.448-1-1s.447-1 1-1c.552 0 1 .448 1 1zM22.527 110c0 .552-.448 1-1 1-.553 0-1-.448-1-1s.447-1 1-1c.552 0 1 .448 1 1zM69.527 132c0 .552-.448 1-1 1-.553 0-1-.448-1-1s.447-1 1-1c.552 0 1 .448 1 1zM15.527 159c0 .552-.448 1-1 1-.553 0-1-.448-1-1s.447-1 1-1c.552 0 1 .448 1 1zM79.527 160c0 .552-.448 1-1 1-.553 0-1-.448-1-1s.447-1 1-1c.552 0 1 .448 1 1zM30.527 134c0 .552-.448 1-1 1-.553 0-1-.448-1-1s.447-1 1-1c.552 0 1 .448 1 1zM47.527 171c0 .552-.448 1-1 1-.553 0-1-.448-1-1s.447-1 1-1c.552 0 1 .448 1 1zM7.527 177c0 .552-.448 1-1 1-.553 0-1-.448-1-1s.447-1 1-1c.552 0 1 .448 1 1zM8.527 87c0 .552-.448 1-1 1-.553 0-1-.448-1-1s.447-1 1-1c.552 0 1 .448 1 1zM11.527 58c0 .552-.448 1-1 1-.553 0-1-.448-1-1s.447-1 1-1c.552 0 1 .448 1 1zM73.527 79c0 .552-.448 1-1 1-.553 0-1-.448-1-1s.447-1 1-1c.552 0 1 .448 1 1zM60.527 98c0 .552-.448 1-1 1-.553 0-1-.448-1-1s.447-1 1-1c.552 0 1 .448 1 1zM137.527 119c0 .552-.448 1-1 1-.553 0-1-.448-1-1s.447-1 1-1c.552 0 1 .448 1 1zM109.527 101c0 .552-.448 1-1 1-.553 0-1-.448-1-1s.447-1 1-1c.552 0 1 .448 1 1zM137.527 65c0 .552-.448 1-1 1-.553 0-1-.448-1-1s.447-1 1-1c.552 0 1 .448 1 1zM159.527 48c0 .552-.448 1-1 1-.553 0-1-.448-1-1s.447-1 1-1c.552 0 1 .448 1 1zM120.527 40c0 .552-.448 1-1 1-.553 0-1-.448-1-1s.447-1 1-1c.552 0 1 .448 1 1zM153.527 15c0 .552-.448 1-1 1-.553 0-1-.448-1-1s.447-1 1-1c.552 0 1 .448 1 1zM92.527 9c0 .552-.448 1-1 1-.553 0-1-.448-1-1s.447-1 1-1c.552 0 1 .448 1 1zM52.527 15c0 .552-.448 1-1 1-.553 0-1-.448-1-1s.447-1 1-1c.552 0 1 .448 1 1zM127.527 176c0 .552-.448 1-1 1-.553 0-1-.448-1-1s.447-1 1-1c.552 0 1 .448 1 1zM150.527 161c0 .552-.448 1-1 1-.553 0-1-.448-1-1s.447-1 1-1c.552 0 1 .448 1 1zM116.527 147c0 .552-.448 1-1 1-.553 0-1-.448-1-1s.447-1 1-1c.552 0 1 .448 1 1zM175.527 141c0 .552-.448 1-1 1-.553 0-1-.448-1-1s.447-1 1-1c.552 0 1 .448 1 1zM158.527 96c0 .552-.448 1-1 1-.553 0-1-.448-1-1s.447-1 1-1c.552 0 1 .448 1 1zM178.527 77c0 .552-.448 1-1 1-.553 0-1-.448-1-1s.447-1 1-1c.552 0 1 .448 1 1zM97.527 68c0 .552-.448 1-1 1-.553 0-1-.448-1-1s.447-1 1-1c.552 0 1 .448 1 1zM91.527 119c0 .552-.448 1-1 1-.553 0-1-.448-1-1s.447-1 1-1c.552 0 1 .448 1 1zM36.527 83c0 .552-.448 1-1 1-.553 0-1-.448-1-1s.447-1 1-1c.552 0 1 .448 1 1zM60.527 46c0 .552-.448 1-1 1-.553 0-1-.448-1-1s.447-1 1-1c.552 0 1 .448 1 1zM17.527 15c0 .552-.448 1-1 1-.553 0-1-.448-1-1s.447-1 1-1c.552 0 1 .448 1 1zM131.527 4c0 .552-.448 1-1 1-.553 0-1-.448-1-1s.447-1 1-1c.552 0 1 .448 1 1zM111.527 32c0 .552-.448 1-1 1-.553 0-1-.448-1-1s.447-1 1-1c.552 0 1 .448 1 1zM161.527 34c0 .552-.448 1-1 1-.553 0-1-.448-1-1s.447-1 1-1c.552 0 1 .448 1 1zM133.527 91c0 .552-.448 1-1 1-.553 0-1-.448-1-1s.447-1 1-1c.552 0 1 .448 1 1zM86.527 91c0 1.105-.896 2-2 2-1.105 0-2-.895-2-2s.895-2 2-2c1.104 0 2 .895 2 2zM124.527 70c0 1.105-.896 2-2 2-1.105 0-2-.895-2-2s.895-2 2-2c1.104 0 2 .895 2 2zM75.527 62c0 1.105-.896 2-2 2-1.105 0-2-.895-2-2s.895-2 2-2c1.104 0 2 .895 2 2zM48.527 84c0 1.105-.896 2-2 2-1.105 0-2-.895-2-2s.895-2 2-2c1.104 0 2 .895 2 2zM50.527 112c0 1.105-.896 2-2 2-1.105 0-2-.895-2-2s.895-2 2-2c1.104 0 2 .895 2 2zM107.527 131c0 1.105-.896 2-2 2-1.105 0-2-.895-2-2s.895-2 2-2c1.104 0 2 .895 2 2zM50.527 150c0 1.105-.896 2-2 2-1.105 0-2-.895-2-2s.895-2 2-2c1.104 0 2 .895 2 2zM4.527 134c0 1.105-.896 2-2 2-1.105 0-2-.895-2-2s.895-2 2-2c1.104 0 2 .895 2 2zM107.527 161c0 1.105-.896 2-2 2-1.105 0-2-.895-2-2s.895-2 2-2c1.104 0 2 .895 2 2zM148.527 142c0 1.105-.896 2-2 2-1.105 0-2-.895-2-2s.895-2 2-2c1.104 0 2 .895 2 2zM159.527 116c0 1.105-.896 2-2 2-1.105 0-2-.895-2-2s.895-2 2-2c1.104 0 2 .895 2 2zM159.527 74c0 1.105-.896 2-2 2-1.105 0-2-.895-2-2s.895-2 2-2c1.104 0 2 .895 2 2zM69.527 9c0 1.105-.896 2-2 2-1.105 0-2-.895-2-2s.895-2 2-2c1.104 0 2 .895 2 2zM43.527 51c0 1.105-.896 2-2 2-1.105 0-2-.895-2-2s.895-2 2-2c1.104 0 2 .895 2 2zM23.527 70c0 1.105-.896 2-2 2-1.105 0-2-.895-2-2s.895-2 2-2c1.104 0 2 .895 2 2zM76.527 104c0 1.105-.896 2-2 2-1.105 0-2-.895-2-2s.895-2 2-2c1.104 0 2 .895 2 2zM118.527 116c0 1.105-.896 2-2 2-1.105 0-2-.895-2-2s.895-2 2-2c1.104 0 2 .895 2 2zM140.527 40c0 1.105-.896 2-2 2-1.105 0-2-.895-2-2s.895-2 2-2c1.104 0 2 .895 2 2zM133.527 21c0 1.105-.896 2-2 2-1.105 0-2-.895-2-2s.895-2 2-2c1.104 0 2 .895 2 2zM96.527 25c0 1.105-.896 2-2 2-1.105 0-2-.895-2-2s.895-2 2-2c1.104 0 2 .895 2 2zM31.527 9c0 1.105-.896 2-2 2-1.105 0-2-.895-2-2s.895-2 2-2c1.104 0 2 .895 2 2zM110.527 85c0 1.105-.896 2-2 2-1.105 0-2-.895-2-2s.895-2 2-2c1.104 0 2 .895 2 2zM87.527 146c0 1.105-.896 2-2 2-1.105 0-2-.895-2-2s.895-2 2-2c1.104 0 2 .895 2 2zM31.527 164c0 1.105-.896 2-2 2-1.105 0-2-.895-2-2s.895-2 2-2c1.104 0 2 .895 2 2zM8.527 111c0 1.105-.896 2-2 2-1.105 0-2-.895-2-2s.895-2 2-2c1.104 0 2 .895 2 2zM31.527 97c0 1.105-.896 2-2 2-1.105 0-2-.895-2-2s.895-2 2-2c1.104 0 2 .895 2 2zM168.527 169c0 1.105-.896 2-2 2-1.105 0-2-.895-2-2s.895-2 2-2c1.104 0 2 .895 2 2zM137.527 104c0 1.105-.896 2-2 2-1.105 0-2-.895-2-2s.895-2 2-2c1.104 0 2 .895 2 2zM57.527 28c0 1.105-.896 2-2 2-1.105 0-2-.895-2-2s.895-2 2-2c1.104 0 2 .895 2 2zM114.527 55c0 1.105-.896 2-2 2-1.105 0-2-.895-2-2s.895-2 2-2c1.104 0 2 .895 2 2zM171.527 58c0 1.105-.896 2-2 2-1.105 0-2-.895-2-2s.895-2 2-2c1.104 0 2 .895 2 2zM114.527 5c0 1.105-.896 2-2 2-1.105 0-2-.895-2-2s.895-2 2-2c1.104 0 2 .895 2 2zM48.527 131c0 1.105-.896 2-2 2-1.105 0-2-.895-2-2s.895-2 2-2c1.104 0 2 .895 2 2zM78.527 173c0 1.105-.896 2-2 2-1.105 0-2-.895-2-2s.895-2 2-2c1.104 0 2 .895 2 2zM88.527 73.5c0 .893-.477 1.718-1.25 2.165-.774.447-1.727.447-2.5 0-.774-.447-1.25-1.272-1.25-2.165 0-1.38 1.119-2.5 2.5-2.5 1.38 0 2.5 1.12 2.5 2.5zM82.527 127.5c0 .893-.477 1.718-1.25 2.165-.774.447-1.727.447-2.5 0-.774-.447-1.25-1.272-1.25-2.165 0-1.38 1.119-2.5 2.5-2.5 1.38 0 2.5 1.12 2.5 2.5zM65.527 116.5c0 .893-.477 1.718-1.25 2.165-.774.447-1.727.447-2.5 0-.774-.447-1.25-1.272-1.25-2.165 0-1.38 1.119-2.5 2.5-2.5 1.38 0 2.5 1.12 2.5 2.5zM63.527 156.5c0 .893-.477 1.718-1.25 2.165-.774.447-1.727.447-2.5 0-.774-.447-1.25-1.272-1.25-2.165 0-1.38 1.119-2.5 2.5-2.5 1.38 0 2.5 1.12 2.5 2.5zM130.527 159.5c0 .893-.477 1.718-1.25 2.165-.774.447-1.727.447-2.5 0-.774-.447-1.25-1.272-1.25-2.165 0-1.38 1.119-2.5 2.5-2.5 1.38 0 2.5 1.12 2.5 2.5zM130.527 131.5c0 .893-.477 1.718-1.25 2.165-.774.447-1.727.447-2.5 0-.774-.447-1.25-1.272-1.25-2.165 0-1.38 1.119-2.5 2.5-2.5 1.38 0 2.5 1.12 2.5 2.5zM168.527 148.5c0 .893-.477 1.718-1.25 2.165-.774.447-1.727.447-2.5 0-.774-.447-1.25-1.272-1.25-2.165 0-1.38 1.119-2.5 2.5-2.5 1.38 0 2.5 1.12 2.5 2.5zM170.527 97.5c0 .893-.477 1.718-1.25 2.165-.774.447-1.727.447-2.5 0-.774-.447-1.25-1.272-1.25-2.165 0-1.38 1.119-2.5 2.5-2.5 1.38 0 2.5 1.12 2.5 2.5zM102.527 41.5c0 .893-.477 1.718-1.25 2.165-.774.447-1.727.447-2.5 0-.774-.447-1.25-1.272-1.25-2.165 0-1.38 1.119-2.5 2.5-2.5 1.38 0 2.5 1.12 2.5 2.5zM20.527 25.5c0 .893-.477 1.718-1.25 2.165-.774.447-1.727.447-2.5 0-.774-.447-1.25-1.272-1.25-2.165 0-1.38 1.119-2.5 2.5-2.5 1.38 0 2.5 1.12 2.5 2.5zM50.527 2.5c0 .893-.477 1.718-1.25 2.165-.774.447-1.727.447-2.5 0-.774-.447-1.25-1.272-1.25-2.165 0-1.38 1.119-2.5 2.5-2.5 1.38 0 2.5 1.12 2.5 2.5zM114.527 20.5c0 .893-.477 1.718-1.25 2.165-.774.447-1.727.447-2.5 0-.774-.447-1.25-1.272-1.25-2.165 0-1.38 1.119-2.5 2.5-2.5 1.38 0 2.5 1.12 2.5 2.5zM170.527 6.5c0 .893-.477 1.718-1.25 2.165-.774.447-1.727.447-2.5 0-.774-.447-1.25-1.272-1.25-2.165 0-1.38 1.119-2.5 2.5-2.5 1.38 0 2.5 1.12 2.5 2.5zM149.527 25.5c0 .893-.477 1.718-1.25 2.165-.774.447-1.727.447-2.5 0-.774-.447-1.25-1.272-1.25-2.165 0-1.38 1.119-2.5 2.5-2.5 1.38 0 2.5 1.12 2.5 2.5zM174.527 39.5c0 .893-.477 1.718-1.25 2.165-.774.447-1.727.447-2.5 0-.774-.447-1.25-1.272-1.25-2.165 0-1.38 1.119-2.5 2.5-2.5 1.38 0 2.5 1.12 2.5 2.5zM147.527 59.5c0 .893-.477 1.718-1.25 2.165-.774.447-1.727.447-2.5 0-.774-.447-1.25-1.272-1.25-2.165 0-1.38 1.119-2.5 2.5-2.5 1.38 0 2.5 1.12 2.5 2.5zM128.527 53.5c0 .893-.477 1.718-1.25 2.165-.774.447-1.727.447-2.5 0-.774-.447-1.25-1.272-1.25-2.165 0-1.38 1.119-2.5 2.5-2.5 1.38 0 2.5 1.12 2.5 2.5zM145.527 83.5c0 .893-.477 1.718-1.25 2.165-.774.447-1.727.447-2.5 0-.774-.447-1.25-1.272-1.25-2.165 0-1.38 1.119-2.5 2.5-2.5 1.38 0 2.5 1.12 2.5 2.5zM158.527 129.5c0 .893-.477 1.718-1.25 2.165-.774.447-1.727.447-2.5 0-.774-.447-1.25-1.272-1.25-2.165 0-1.38 1.119-2.5 2.5-2.5 1.38 0 2.5 1.12 2.5 2.5zM35.527 120.5c0 .893-.477 1.718-1.25 2.165-.774.447-1.727.447-2.5 0-.774-.447-1.25-1.272-1.25-2.165 0-1.38 1.119-2.5 2.5-2.5 1.38 0 2.5 1.12 2.5 2.5zM17.527 145.5c0 .893-.477 1.718-1.25 2.165-.774.447-1.727.447-2.5 0-.774-.447-1.25-1.272-1.25-2.165 0-1.38 1.119-2.5 2.5-2.5 1.38 0 2.5 1.12 2.5 2.5zM102.527 108.5c0 .893-.477 1.718-1.25 2.165-.774.447-1.727.447-2.5 0-.774-.447-1.25-1.272-1.25-2.165 0-1.38 1.119-2.5 2.5-2.5 1.38 0 2.5 1.12 2.5 2.5zM35.527 65.5c0 .893-.477 1.718-1.25 2.165-.774.447-1.727.447-2.5 0-.774-.447-1.25-1.272-1.25-2.165 0-1.38 1.119-2.5 2.5-2.5 1.38 0 2.5 1.12 2.5 2.5zM77.527 48.5c0 .893-.477 1.718-1.25 2.165-.774.447-1.727.447-2.5 0-.774-.447-1.25-1.272-1.25-2.165 0-1.38 1.119-2.5 2.5-2.5 1.38 0 2.5 1.12 2.5 2.5z"/>
        <path stroke="#000" d="M33.527 65.429L74.908 48.393 86.193 73 99.36 40.821 112.527 20M18.527 25L41.527 51 34.818 29.815 18.527 25"/>
        <path stroke="#000" d="M12.243 34.683L10.356 57.512 24.504 44.195 12.243 34.683 17.902 25.171 16.015 13.756 29.22 9 33.936 29.927 24.504 44.195 21.674 69.878 10.356 57.512 7.527 87 21.674 69.878 32.993 65.122 24.504 44.195 40.538 50.854 59.402 45.146 77.322 32.78 66.947 9 90.527 9M125.527 176L104.969 160.787 78.805 159.836 68.527 132.262 86.281 145.574 90.018 118"/>
        <path stroke="#000" d="M61.727 156L80.527 127.429 63.607 116 33.527 119.81 61.727 156M127.527 160L165.894 148.658 156.302 129.753 158.22 115.575 167.812 97.616 135.2 104.233 127.527 131.644 146.71 142.041 174.527 140.151 167.812 97.616 158.22 95.726 136.159 118.411 146.71 142.041 156.302 129.753 136.159 118.411 158.22 115.575 132.323 91"/>
        <path stroke="#000" d="M48.336 113.127L59.622 98l15.047 6.618-11.285 12.291-16.929 14.182L48.336 150l-18.81-15.127 3.763-14.182 13.166 10.4 21.631 1.89 12.226-4.726-5.643-23.637c4.934 4.815 9.95 9.543 15.048 14.182 4.941 4.497 9.958 8.91 15.048 13.236l-5.643-22.69 9.405-7.564M6.527 177L14.193 159 29.527 164.684 6.527 177"/>
        <path stroke="#000" d="M2.527 134L6.321 177 46.168 170.311 61.347 155.978 76.527 172.222 46.168 170.311 48.065 149.289 13.911 144.511 2.527 134M14.527 159L14.527 144"/>
        <path stroke="#000" d="M29.527 134L29.527 164 13.527 144.313 29.527 134M48.527 150L29.527 165.273 46.627 171M3.527 134L29.527 134 7.241 111 3.527 134"/>
        <path stroke="#000" d="M2.527 134L21.693 109.95 33.193 120.125 29.36 97 48.527 112.725 46.61 130.3 29.36 134M48.527 149.395L61.935 155.988 63.851 116.43 48.527 112.663 68.639 132.442 75.343 104.186 85.879 91 100.245 108.895 90.667 118.314 81.09 127.733 86.836 145.628 79.174 159.756 77.259 172 105.991 160.698 116.527 146.57 105.991 131.5 86.836 145.628"/>
        <path stroke="#000" d="M76.841 172.235L126.612 176 128.527 160 116.084 146.824 86.412 145.882 61.527 156.235 78.755 160 116.084 146.824 128.527 131.765 105.555 131.765 80.669 128"/>
        <path stroke="#000" d="M86.027 146.171L104.955 161.39 127.669 160.439 149.437 161.39 165.527 169 165.527 149.024 146.598 142.366 115.366 147.122 116.312 115.732 99.277 109.073 135.241 104.317 136.187 118.585 127.669 131.902 116.312 115.732 89.812 118.585 85.08 91 80.348 128.098 59.527 97.659 85.08 91"/>
        <path stroke="#000" d="M126.527 176L166.527 168.444 128.431 159.944 147.479 142 150.336 160.889 126.527 176"/>
        <path stroke="#000" d="M149.588 161L165.894 148.788 174.527 140.333 156.302 130 127.527 131.879 127.527 160.061"/>
        <path stroke="#000" d="M166.005 169L174.527 140.698 158.431 116.17 158.431 96.358 135.707 104.849 116.771 116.17 136.654 119 109.197 102.019 116.771 116.17 132.867 91.642 109.197 85.981 109.197 102.019 85.527 91.642 86.473 73.717 96.888 69 109.197 85.981 122.452 70.887 143.282 85.038 132.867 91.642M72.574 78.141L73.527 62l-20 4.747c2.334 10.103 4.557 20.232 6.666 30.384 1.314 6.321 2.584 12.652 3.81 18.99l4.762 16.142L62.098 156M171.527 39.073L169.636 59.049 145.054 60 126.145 54.293 119.527 40.024 139.381 40.024 146.945 25.756 131.818 21M113.527 5.818L131.56 4 169.527 6.727 153.391 14"/>
        <path stroke="#000" d="M29.078 9.618L48.044 3l2.845 11.345 4.741 14.182 3.793 17.018L32.871 65.4l19.914 1.89 21.81-18.908 13.276-1.891L112.527 55 96.406 68.236l-11.38 22.691-38.879-6.618L32.871 65.4l7.587-14.182-18.966 18.91 14.224 13.236c-2.09 4.471-4.305 8.885-6.638 13.236-2.403 4.482-4.933 8.896-7.586 13.236L6.32 111.727l.948-24.582 21.81 9.455 17.07-12.29 1.896 28.363c-5.036 2.564-10.094 5.085-15.173 7.563-10.034 4.897-20.15 9.625-30.344 14.182L13.906 159l32.241-28.364 15.173 25.528"/>
        <path stroke="#000" d="M18.527 25.707L48.842 3 67.79 9.623 56.421 28.545 75.369 48.413 100 40.844 126.527 54.09 122.737 70.174 117.053 115.587 105.684 131.671 105.684 161 81.053 127.886"/>
        <path stroke="#000" d="M168.03 97.898l9.497-20.75-18.995-2.83v21.693l-15.195-11.318-34.19.943-23.743 5.66-13.296-12.262 14.245-5.659L73.057 63 46.465 84.693l13.296 13.205-26.592 22.636 13.296-35.84-10.447-.944-28.491 3.773 14.245 22.636L33.17 65.83l38.939 13.205 37.039 6.602c-3.278 7.815-6.444 15.676-9.497 23.58-4.7 12.164-9.134 24.429-13.297 36.784"/>
        <path stroke="#000" d="M15.991 15L55.741 29.161 40.598 51.818 72.777 63.147 87.919 47.098 93.598 25.385 99.277 41.434 77.509 33.881 86.027 73.531 108.741 85.804 112.527 55.594 85.08 91.469 29.241 97.133 21.669 70.699 6.527 112.238 33.027 120.734 48.169 150 68.044 133.007"/>
        <path stroke="#000" d="M21.638 109.167L48.082 112 74.527 103.5 71.693 78 59.415 96.889 29.193 95.944 6.527 111.056M10.527 58L33.527 65M15.353 14L33.527 30.227 11.527 35 15.353 14M135.527 64L144.18 59.313 158.604 48.063 160.527 34M99.527 40L110.527 32"/>
        <path stroke="#000" d="M143.193 84.65L158.527 74.2 145.11 59.95 139.36 40 125.943 54.25 112.527 55.2 122.11 70.4 132.652 91.3 135.527 104.6 158.527 116"/>
        <path stroke="#000" d="M109.478 101L133.106 90.677 158.624 95.369 177.527 76.6 169.966 58.769 158.624 73.785 168.075 97.246 143.502 84.108 136.886 64.4 122.71 70.031 158.624 73.785 143.502 84.108 145.392 59.708 119.874 40 122.71 70.031 86.795 72.846 53.716 67.215 47.1 84.108 22.527 70.031"/>
        <path stroke="#000" d="M134.527 104L157.567 73.627 158.527 48 142.207 84.068"/>
        <path stroke="#000" d="M132.027 91.05L135.787 64.45 125.447 54 108.527 85.35 134.847 104.35 155.527 130"/>
        <path stroke="#000" d="M159.236 47.718l12.29-9.514-10.4-4.757-21.745 5.708-28.363-7.611 8.509 7.611-6.619 15.224c-4.34-4.824-8.754-9.582-13.236-14.272C89.32 29.273 78.596 18.799 67.527 8.709l26.472 15.223-2.836-15.223 21.745-3.806v14.272L130.872 3l.946 17.126-12.291 19.03-33.091 33.3L109.126 101"/>
        <path stroke="#000" d="M167.68 6L171.527 38 152.296 13.529 146.527 24.824 160.95 33.294 167.68 6"/>
        <path stroke="#000" d="M152.427 14.523l-20.9 6.63-19-.948-19 4.735 19-18.94 19 15.152 7.6 18.94 19.95 8.524 10.45 10.417c-.7 12.94-1.333 25.882-1.9 38.828-.748 17.042-1.381 34.089-1.9 51.139l-50.35-1.894"/>
        <path stroke="#000" d="M171.86 38.45L139.749 39.4 113.304 19.45 91.582 9 111.415 31.8 113.304 54.6 75.527 47.95 78.36 32.75 94.415 24.2 119.915 39.4 159.582 47.95 177.527 76.45 143.527 84.05 135.971 104 109.527 101.15 136.915 64.1 97.249 67.9 88.749 46.05 86.86 72.65"/>
        <path stroke="#000" d="M79.908 127.71l28.397-42.735-45.435 31.34 8.52-37.988-25.558 5.698-5.68-33.239 34.077-2.849L66.656 9l-16.091 4.748-17.038 16.145 25.557 15.195 13.252 17.094 39.755-7.597c7.936 3.044 15.826 6.21 23.665 9.497 7.301 3.061 14.56 6.227 21.77 9.497l-21.77 44.635-8.52 41.786-11.358-44.635"/>
        <path stroke="#000" d="M152.527 13.385L130.631 2.949 146.815 24.769 119.207 39 112.543 19.077 110.639 31.41 77.319 32.359 55.423 27.615 33.527 29.513 47.807 2 90.647 8.641 77.319 32.359M59.527 46L75.527 48.833 73.527 63"/>
        <path stroke="#000" d="M24.527 45c10.578-5.263 21.108-10.624 31.585-16.081C67.984 22.736 79.79 16.429 91.527 10"/>
    </g>
</svg>
