<svg height="178" viewBox="0 0 179 178" width="179" xmlns="http://www.w3.org/2000/svg"><g fill="none" fill-rule="evenodd"><path d="m12.527 35c0 .552-.448 1-1 1-.553 0-1-.448-1-1s.447-1 1-1c.552 0 1 .448 1 1zm13 10c0 .552-.448 1-1 1-.553 0-1-.448-1-1s.447-1 1-1c.552 0 1 .448 1 1zm9-15c0 .552-.448 1-1 1-.553 0-1-.448-1-1s.447-1 1-1c.552 0 1 .448 1 1zm19 38c0 .552-.448 1-1 1-.553 0-1-.448-1-1s.447-1 1-1c.552 0 1 .448 1 1zm35-21c0 .552-.448 1-1 1-.553 0-1-.448-1-1s.447-1 1-1c.552 0 1 .448 1 1zm-10-14c0 .552-.448 1-1 1-.553 0-1-.448-1-1s.447-1 1-1c.552 0 1 .448 1 1zm-56 77c0 .552-.448 1-1 1-.553 0-1-.448-1-1s.447-1 1-1c.552 0 1 .448 1 1zm47 22c0 .552-.448 1-1 1-.553 0-1-.448-1-1s.447-1 1-1c.552 0 1 .448 1 1zm-54 27c0 .552-.448 1-1 1-.553 0-1-.448-1-1s.447-1 1-1c.552 0 1 .448 1 1zm64 1c0 .552-.448 1-1 1-.553 0-1-.448-1-1s.447-1 1-1c.552 0 1 .448 1 1zm-49-26c0 .552-.448 1-1 1-.553 0-1-.448-1-1s.447-1 1-1c.552 0 1 .448 1 1zm17 37c0 .552-.448 1-1 1-.553 0-1-.448-1-1s.447-1 1-1c.552 0 1 .448 1 1zm-40 6c0 .552-.448 1-1 1-.553 0-1-.448-1-1s.447-1 1-1c.552 0 1 .448 1 1zm1-90c0 .552-.448 1-1 1-.553 0-1-.448-1-1s.447-1 1-1c.552 0 1 .448 1 1zm3-29c0 .552-.448 1-1 1-.553 0-1-.448-1-1s.447-1 1-1c.552 0 1 .448 1 1zm62 21c0 .552-.448 1-1 1-.553 0-1-.448-1-1s.447-1 1-1c.552 0 1 .448 1 1zm-13 19c0 .552-.448 1-1 1-.553 0-1-.448-1-1s.447-1 1-1c.552 0 1 .448 1 1zm77 21c0 .552-.448 1-1 1-.553 0-1-.448-1-1s.447-1 1-1c.552 0 1 .448 1 1zm-28-18c0 .552-.448 1-1 1-.553 0-1-.448-1-1s.447-1 1-1c.552 0 1 .448 1 1zm28-36c0 .552-.448 1-1 1-.553 0-1-.448-1-1s.447-1 1-1c.552 0 1 .448 1 1zm22-17c0 .552-.448 1-1 1-.553 0-1-.448-1-1s.447-1 1-1c.552 0 1 .448 1 1zm-39-8c0 .552-.448 1-1 1-.553 0-1-.448-1-1s.447-1 1-1c.552 0 1 .448 1 1zm33-25c0 .552-.448 1-1 1-.553 0-1-.448-1-1s.447-1 1-1c.552 0 1 .448 1 1zm-61-6c0 .552-.448 1-1 1-.553 0-1-.448-1-1s.447-1 1-1c.552 0 1 .448 1 1zm-40 6c0 .552-.448 1-1 1-.553 0-1-.448-1-1s.447-1 1-1c.552 0 1 .448 1 1zm75 161c0 .552-.448 1-1 1-.553 0-1-.448-1-1s.447-1 1-1c.552 0 1 .448 1 1zm23-15c0 .552-.448 1-1 1-.553 0-1-.448-1-1s.447-1 1-1c.552 0 1 .448 1 1zm-34-14c0 .552-.448 1-1 1-.553 0-1-.448-1-1s.447-1 1-1c.552 0 1 .448 1 1zm59-6c0 .552-.448 1-1 1-.553 0-1-.448-1-1s.447-1 1-1c.552 0 1 .448 1 1zm-17-45c0 .552-.448 1-1 1-.553 0-1-.448-1-1s.447-1 1-1c.552 0 1 .448 1 1zm20-19c0 .552-.448 1-1 1-.553 0-1-.448-1-1s.447-1 1-1c.552 0 1 .448 1 1zm-81-9c0 .552-.448 1-1 1-.553 0-1-.448-1-1s.447-1 1-1c.552 0 1 .448 1 1zm-6 51c0 .552-.448 1-1 1-.553 0-1-.448-1-1s.447-1 1-1c.552 0 1 .448 1 1zm-55-36c0 .552-.448 1-1 1-.553 0-1-.448-1-1s.447-1 1-1c.552 0 1 .448 1 1zm24-37c0 .552-.448 1-1 1-.553 0-1-.448-1-1s.447-1 1-1c.552 0 1 .448 1 1zm-43-31c0 .552-.448 1-1 1-.553 0-1-.448-1-1s.447-1 1-1c.552 0 1 .448 1 1zm114-11c0 .552-.448 1-1 1-.553 0-1-.448-1-1s.447-1 1-1c.552 0 1 .448 1 1zm-20 28c0 .552-.448 1-1 1-.553 0-1-.448-1-1s.447-1 1-1c.552 0 1 .448 1 1zm50 2c0 .552-.448 1-1 1-.553 0-1-.448-1-1s.447-1 1-1c.552 0 1 .448 1 1zm-28 57c0 .552-.448 1-1 1-.553 0-1-.448-1-1s.447-1 1-1c.552 0 1 .448 1 1zm-47 0c0 1.105-.896 2-2 2-1.105 0-2-.895-2-2s.895-2 2-2c1.104 0 2 .895 2 2zm38-21c0 1.105-.896 2-2 2-1.105 0-2-.895-2-2s.895-2 2-2c1.104 0 2 .895 2 2zm-49-8c0 1.105-.896 2-2 2-1.105 0-2-.895-2-2s.895-2 2-2c1.104 0 2 .895 2 2zm-27 22c0 1.105-.896 2-2 2-1.105 0-2-.895-2-2s.895-2 2-2c1.104 0 2 .895 2 2zm2 28c0 1.105-.896 2-2 2-1.105 0-2-.895-2-2s.895-2 2-2c1.104 0 2 .895 2 2zm57 19c0 1.105-.896 2-2 2-1.105 0-2-.895-2-2s.895-2 2-2c1.104 0 2 .895 2 2zm-57 19c0 1.105-.896 2-2 2-1.105 0-2-.895-2-2s.895-2 2-2c1.104 0 2 .895 2 2zm-46-16c0 1.105-.896 2-2 2-1.105 0-2-.895-2-2s.895-2 2-2c1.104 0 2 .895 2 2zm103 27c0 1.105-.896 2-2 2-1.105 0-2-.895-2-2s.895-2 2-2c1.104 0 2 .895 2 2zm41-19c0 1.105-.896 2-2 2-1.105 0-2-.895-2-2s.895-2 2-2c1.104 0 2 .895 2 2zm11-26c0 1.105-.896 2-2 2-1.105 0-2-.895-2-2s.895-2 2-2c1.104 0 2 .895 2 2zm0-42c0 1.105-.896 2-2 2-1.105 0-2-.895-2-2s.895-2 2-2c1.104 0 2 .895 2 2zm-90-65c0 1.105-.896 2-2 2-1.105 0-2-.895-2-2s.895-2 2-2c1.104 0 2 .895 2 2zm-26 42c0 1.105-.896 2-2 2-1.105 0-2-.895-2-2s.895-2 2-2c1.104 0 2 .895 2 2zm-20 19c0 1.105-.896 2-2 2-1.105 0-2-.895-2-2s.895-2 2-2c1.104 0 2 .895 2 2zm53 34c0 1.105-.896 2-2 2-1.105 0-2-.895-2-2s.895-2 2-2c1.104 0 2 .895 2 2zm42 12c0 1.105-.896 2-2 2-1.105 0-2-.895-2-2s.895-2 2-2c1.104 0 2 .895 2 2zm22-76c0 1.105-.896 2-2 2-1.105 0-2-.895-2-2s.895-2 2-2c1.104 0 2 .895 2 2zm-7-19c0 1.105-.896 2-2 2-1.105 0-2-.895-2-2s.895-2 2-2c1.104 0 2 .895 2 2zm-37 4c0 1.105-.896 2-2 2-1.105 0-2-.895-2-2s.895-2 2-2c1.104 0 2 .895 2 2zm-65-16c0 1.105-.896 2-2 2-1.105 0-2-.895-2-2s.895-2 2-2c1.104 0 2 .895 2 2zm79 76c0 1.105-.896 2-2 2-1.105 0-2-.895-2-2s.895-2 2-2c1.104 0 2 .895 2 2zm-23 61c0 1.105-.896 2-2 2-1.105 0-2-.895-2-2s.895-2 2-2c1.104 0 2 .895 2 2zm-56 18c0 1.105-.896 2-2 2-1.105 0-2-.895-2-2s.895-2 2-2c1.104 0 2 .895 2 2zm-23-53c0 1.105-.896 2-2 2-1.105 0-2-.895-2-2s.895-2 2-2c1.104 0 2 .895 2 2zm23-14c0 1.105-.896 2-2 2-1.105 0-2-.895-2-2s.895-2 2-2c1.104 0 2 .895 2 2zm137 72c0 1.105-.896 2-2 2-1.105 0-2-.895-2-2s.895-2 2-2c1.104 0 2 .895 2 2zm-31-65c0 1.105-.896 2-2 2-1.105 0-2-.895-2-2s.895-2 2-2c1.104 0 2 .895 2 2zm-80-76c0 1.105-.896 2-2 2-1.105 0-2-.895-2-2s.895-2 2-2c1.104 0 2 .895 2 2zm57 27c0 1.105-.896 2-2 2-1.105 0-2-.895-2-2s.895-2 2-2c1.104 0 2 .895 2 2zm57 3c0 1.105-.896 2-2 2-1.105 0-2-.895-2-2s.895-2 2-2c1.104 0 2 .895 2 2zm-57-53c0 1.105-.896 2-2 2-1.105 0-2-.895-2-2s.895-2 2-2c1.104 0 2 .895 2 2zm-66 126c0 1.105-.896 2-2 2-1.105 0-2-.895-2-2s.895-2 2-2c1.104 0 2 .895 2 2zm30 42c0 1.105-.896 2-2 2-1.105 0-2-.895-2-2s.895-2 2-2c1.104 0 2 .895 2 2zm10-99.5c0 .893-.477 1.718-1.25 2.165-.774.447-1.727.447-2.5 0-.774-.447-1.25-1.272-1.25-2.165 0-1.38 1.119-2.5 2.5-2.5 1.38 0 2.5 1.12 2.5 2.5zm-6 54c0 .893-.477 1.718-1.25 2.165-.774.447-1.727.447-2.5 0-.774-.447-1.25-1.272-1.25-2.165 0-1.38 1.119-2.5 2.5-2.5 1.38 0 2.5 1.12 2.5 2.5zm-17-11c0 .893-.477 1.718-1.25 2.165-.774.447-1.727.447-2.5 0-.774-.447-1.25-1.272-1.25-2.165 0-1.38 1.119-2.5 2.5-2.5 1.38 0 2.5 1.12 2.5 2.5zm-2 40c0 .893-.477 1.718-1.25 2.165-.774.447-1.727.447-2.5 0-.774-.447-1.25-1.272-1.25-2.165 0-1.38 1.119-2.5 2.5-2.5 1.38 0 2.5 1.12 2.5 2.5zm67 3c0 .893-.477 1.718-1.25 2.165-.774.447-1.727.447-2.5 0-.774-.447-1.25-1.272-1.25-2.165 0-1.38 1.119-2.5 2.5-2.5 1.38 0 2.5 1.12 2.5 2.5zm0-28c0 .893-.477 1.718-1.25 2.165-.774.447-1.727.447-2.5 0-.774-.447-1.25-1.272-1.25-2.165 0-1.38 1.119-2.5 2.5-2.5 1.38 0 2.5 1.12 2.5 2.5zm38 17c0 .893-.477 1.718-1.25 2.165-.774.447-1.727.447-2.5 0-.774-.447-1.25-1.272-1.25-2.165 0-1.38 1.119-2.5 2.5-2.5 1.38 0 2.5 1.12 2.5 2.5zm2-51c0 .893-.477 1.718-1.25 2.165-.774.447-1.727.447-2.5 0-.774-.447-1.25-1.272-1.25-2.165 0-1.38 1.119-2.5 2.5-2.5 1.38 0 2.5 1.12 2.5 2.5zm-68-56c0 .893-.477 1.718-1.25 2.165-.774.447-1.727.447-2.5 0-.774-.447-1.25-1.272-1.25-2.165 0-1.38 1.119-2.5 2.5-2.5 1.38 0 2.5 1.12 2.5 2.5zm-82-16c0 .893-.477 1.718-1.25 2.165-.774.447-1.727.447-2.5 0-.774-.447-1.25-1.272-1.25-2.165 0-1.38 1.119-2.5 2.5-2.5 1.38 0 2.5 1.12 2.5 2.5zm30-23c0 .893-.477 1.718-1.25 2.165-.774.447-1.727.447-2.5 0-.774-.447-1.25-1.272-1.25-2.165 0-1.38 1.119-2.5 2.5-2.5 1.38 0 2.5 1.12 2.5 2.5zm64 18c0 .893-.477 1.718-1.25 2.165-.774.447-1.727.447-2.5 0-.774-.447-1.25-1.272-1.25-2.165 0-1.38 1.119-2.5 2.5-2.5 1.38 0 2.5 1.12 2.5 2.5zm56-14c0 .893-.477 1.718-1.25 2.165-.774.447-1.727.447-2.5 0-.774-.447-1.25-1.272-1.25-2.165 0-1.38 1.119-2.5 2.5-2.5 1.38 0 2.5 1.12 2.5 2.5zm-21 19c0 .893-.477 1.718-1.25 2.165-.774.447-1.727.447-2.5 0-.774-.447-1.25-1.272-1.25-2.165 0-1.38 1.119-2.5 2.5-2.5 1.38 0 2.5 1.12 2.5 2.5zm25 14c0 .893-.477 1.718-1.25 2.165-.774.447-1.727.447-2.5 0-.774-.447-1.25-1.272-1.25-2.165 0-1.38 1.119-2.5 2.5-2.5 1.38 0 2.5 1.12 2.5 2.5zm-27 20c0 .893-.477 1.718-1.25 2.165-.774.447-1.727.447-2.5 0-.774-.447-1.25-1.272-1.25-2.165 0-1.38 1.119-2.5 2.5-2.5 1.38 0 2.5 1.12 2.5 2.5zm-19-6c0 .893-.477 1.718-1.25 2.165-.774.447-1.727.447-2.5 0-.774-.447-1.25-1.272-1.25-2.165 0-1.38 1.119-2.5 2.5-2.5 1.38 0 2.5 1.12 2.5 2.5zm17 30c0 .893-.477 1.718-1.25 2.165-.774.447-1.727.447-2.5 0-.774-.447-1.25-1.272-1.25-2.165 0-1.38 1.119-2.5 2.5-2.5 1.38 0 2.5 1.12 2.5 2.5zm13 46c0 .893-.477 1.718-1.25 2.165-.774.447-1.727.447-2.5 0-.774-.447-1.25-1.272-1.25-2.165 0-1.38 1.119-2.5 2.5-2.5 1.38 0 2.5 1.12 2.5 2.5zm-123-9c0 .893-.477 1.718-1.25 2.165-.774.447-1.727.447-2.5 0-.774-.447-1.25-1.272-1.25-2.165 0-1.38 1.119-2.5 2.5-2.5 1.38 0 2.5 1.12 2.5 2.5zm-18 25c0 .893-.477 1.718-1.25 2.165-.774.447-1.727.447-2.5 0-.774-.447-1.25-1.272-1.25-2.165 0-1.38 1.119-2.5 2.5-2.5 1.38 0 2.5 1.12 2.5 2.5zm85-37c0 .893-.477 1.718-1.25 2.165-.774.447-1.727.447-2.5 0-.774-.447-1.25-1.272-1.25-2.165 0-1.38 1.119-2.5 2.5-2.5 1.38 0 2.5 1.12 2.5 2.5zm-67-43c0 .893-.477 1.718-1.25 2.165-.774.447-1.727.447-2.5 0-.774-.447-1.25-1.272-1.25-2.165 0-1.38 1.119-2.5 2.5-2.5 1.38 0 2.5 1.12 2.5 2.5zm42-17c0 .893-.477 1.718-1.25 2.165-.774.447-1.727.447-2.5 0-.774-.447-1.25-1.272-1.25-2.165 0-1.38 1.119-2.5 2.5-2.5 1.38 0 2.5 1.12 2.5 2.5z" fill="#000" fill-rule="nonzero"/><g stroke="#000"><path d="m33.527 65.429 41.381-17.036 11.285 24.607 13.167-32.179 13.167-20.821m-94 5 23 26-6.709-21.185z"/><path d="m12.243 34.683-1.887 22.829 14.148-13.317-12.261-9.512 5.659-9.512-1.887-11.415 13.205-4.756 4.716 20.927-9.432 14.268-2.83 25.683-11.318-12.366-2.829 29.488 14.147-17.122 11.319-4.756-8.489-20.927 16.034 6.659 18.864-5.708 17.92-12.366-10.375-23.78h23.58m35 167-20.558-15.213-26.164-.951-10.278-27.574 17.754 13.312 3.737-27.574"/><path d="m61.727 156 18.8-28.571-16.92-11.429-30.08 3.81zm65.8 4 38.367-11.342-9.592-18.905 1.918-14.178 9.592-17.959-32.612 6.617-7.673 27.411 19.183 10.397 27.817-1.89-6.715-42.535-9.592-1.89-22.061 22.685 10.551 23.63 9.592-12.288-20.143-11.342 22.061-2.836-25.897-24.575"/><path d="m48.336 113.127 11.286-15.127 15.047 6.618-11.285 12.291-16.929 14.182 1.881 18.909-18.81-15.127 3.763-14.182 13.166 10.4 21.631 1.89 12.226-4.726-5.643-23.637c4.934 4.815 9.95 9.543 15.048 14.182 4.941 4.497 9.958 8.91 15.048 13.236l-5.643-22.69 9.405-7.564m-102 75.218 7.666-18 15.334 5.684z"/><path d="m2.527 134 3.794 43 39.847-6.689 15.179-14.333 15.18 16.244-30.359-1.911 1.897-21.022-34.154-4.778zm12 25v-15"/><path d="m29.527 134v30l-16-19.687zm19 16-19 15.273 17.1 5.727m-43.1-37h26l-22.286-23z"/><path d="m2.527 134 19.166-24.05 11.5 10.175-3.833-23.125 19.167 15.725-1.917 17.575-17.25 3.7m19.167 15.395 13.408 6.593 1.916-39.558-15.324-3.767 20.112 19.779 6.704-28.256 10.536-13.186 14.366 17.895-9.578 9.419-9.577 9.419 5.746 17.895-7.662 14.128-1.915 12.244 28.732-11.302 10.536-14.128-10.536-15.07-19.155 14.128"/><path d="m76.841 172.235 49.771 3.765 1.915-16-12.443-13.176-29.672-.942-24.885 10.353 17.228 3.765 37.329-13.176 12.443-15.059h-22.972l-24.886-3.765"/><path d="m86.027 146.171 18.928 15.219 22.714-.951 21.768.951 16.09 7.61v-19.976l-18.929-6.658-31.232 4.756.946-31.39-17.035-6.659 35.964-4.756.946 14.268-8.518 13.317-11.357-16.17-26.5 2.853-4.732-27.585-4.732 37.098-20.821-30.439 25.553-6.659"/><path d="m126.527 176 40-7.556-38.096-8.5 19.048-17.944 2.857 18.889z"/><path d="m149.588 161 16.306-12.212 8.633-8.455-18.225-10.333-28.775 1.879v28.182"/><path d="m166.005 169 8.522-28.302-16.096-24.528v-19.812l-22.724 8.491-18.936 11.321 19.883 2.83-27.457-16.981 7.574 14.151 16.096-24.528-23.67-5.661v16.038l-23.67-10.377.946-17.925 10.415-4.717 12.309 16.981 13.255-15.094 20.83 14.151-10.415 6.604m-60.293-13.501.953-16.141-20 4.747c2.334 10.103 4.557 20.232 6.666 30.384 1.314 6.321 2.584 12.652 3.81 18.99l4.762 16.142-6.667 23.737m109.429-116.927-1.891 19.976-24.582.951-18.909-5.707-6.618-14.269h19.854l7.564-14.268-15.127-4.756m-18.291-15.182 18.033-1.818 37.967 2.727-16.136 7.273"/><path d="m29.078 9.618 18.966-6.618 2.845 11.345 4.741 14.182 3.793 17.018-26.552 19.855 19.914 1.89 21.81-18.908 13.276-1.891 24.656 8.509-16.121 13.236-11.38 22.691-38.879-6.618-13.276-18.909 7.587-14.182-18.966 18.91 14.224 13.236c-2.09 4.471-4.305 8.885-6.638 13.236-2.403 4.482-4.933 8.896-7.586 13.236l-15.172 1.891.948-24.582 21.81 9.455 17.07-12.29 1.896 28.363c-5.036 2.564-10.094 5.085-15.173 7.563-10.034 4.897-20.15 9.625-30.344 14.182l11.379 24.582 32.241-28.364 15.173 25.528"/><path d="m18.527 25.707 30.315-22.707 18.948 6.623-11.369 18.922 18.948 19.868 24.631-7.569 26.527 13.246-3.79 16.084-5.684 45.413-11.369 16.084v29.329l-24.631-33.114"/><path d="m168.03 97.898 9.497-20.75-18.995-2.83v21.693l-15.195-11.318-34.19.943-23.743 5.66-13.296-12.262 14.245-5.659-13.296-10.375-26.592 21.693 13.296 13.205-26.592 22.636 13.296-35.84-10.447-.944-28.491 3.773 14.245 22.636 11.398-44.329 38.939 13.205 37.039 6.602c-3.278 7.815-6.444 15.676-9.497 23.58-4.7 12.164-9.134 24.429-13.297 36.784"/><path d="m15.991 15 39.75 14.161-15.143 22.657 32.179 11.329 15.142-16.049 5.679-21.713 5.679 16.049-21.768-7.553 8.518 39.65 22.714 12.273 3.786-30.21-27.447 35.875-55.839 5.664-7.572-26.434-15.142 41.539 26.5 8.496 15.142 29.266 19.875-16.993"/><path d="m21.638 109.167 26.444 2.833 26.445-8.5-2.834-25.5-12.278 18.889-30.222-.945-22.666 15.112m4-53.056 23 7m-18.174-51 18.174 16.227-22 4.773zm120.174 50 8.653-4.687 14.424-11.25 1.923-14.063m-61 6 11-8"/><path d="m143.193 84.65 15.334-10.45-13.417-14.25-5.75-19.95-13.417 14.25-13.416.95 9.583 15.2 10.542 20.9 2.875 13.3 23 11.4"/><path d="m109.478 101 23.628-10.323 25.518 4.692 18.903-18.769-7.561-17.831-11.342 15.016 9.451 23.461-24.573-13.138-6.616-19.708-14.176 5.631 35.914 3.754-15.122 10.323 1.89-24.4-25.518-19.708 2.836 30.031-35.915 2.815-33.079-5.631-6.616 16.893-24.573-14.077"/><path d="m134.527 104 23.04-30.373.96-25.627-16.32 36.068"/><path d="m132.027 91.05 3.76-26.6-10.34-10.45-16.92 31.35 26.32 19 20.68 25.65"/><path d="m159.236 47.718 12.29-9.514-10.4-4.757-21.745 5.708-28.363-7.611 8.509 7.611-6.619 15.224c-4.34-4.824-8.754-9.582-13.236-14.272-10.352-10.834-21.076-21.308-32.145-31.398l26.472 15.223-2.836-15.223 21.745-3.806v14.272l17.964-16.175.946 17.126-12.291 19.03-33.091 33.3 22.69 28.544"/><path d="m167.68 6 3.847 32-19.231-24.471-5.769 11.295 14.423 8.47z"/><path d="m152.427 14.523-20.9 6.63-19-.948-19 4.735 19-18.94 19 15.152 7.6 18.94 19.95 8.524 10.45 10.417c-.7 12.94-1.333 25.882-1.9 38.828-.748 17.042-1.381 34.089-1.9 51.139l-50.35-1.894"/><path d="m171.86 38.45-32.111.95-26.445-19.95-21.722-10.45 19.833 22.8 1.889 22.8-37.777-6.65 2.833-15.2 16.055-8.55 25.5 15.2 39.667 8.55 17.945 28.5-34 7.6-7.556 19.95-26.444-2.85 27.388-37.05-39.666 3.8-8.5-21.85-1.889 26.6"/><path d="m79.908 127.71 28.397-42.735-45.435 31.34 8.52-37.988-25.558 5.698-5.68-33.239 34.077-2.849-7.573-38.937-16.091 4.748-17.038 16.145 25.557 15.195 13.252 17.094 39.755-7.597c7.936 3.044 15.826 6.21 23.665 9.497 7.301 3.061 14.56 6.227 21.77 9.497l-21.77 44.635-8.52 41.786-11.358-44.635"/><path d="m152.527 13.385-21.896-10.436 16.184 21.82-27.608 14.231-6.664-19.923-1.904 12.333-33.32.949-21.896-4.744-21.896 1.898 14.28-27.513 42.84 6.641-13.328 23.718m-17.792 13.641 16 2.833-2 14.167"/><path d="m24.527 45c10.578-5.263 21.108-10.624 31.585-16.081 11.872-6.183 23.678-12.49 35.415-18.919"/></g></g></svg>