<svg height="319" viewBox="0 0 848 319" width="848" xmlns="http://www.w3.org/2000/svg" xmlns:xlink="http://www.w3.org/1999/xlink"><mask id="a" fill="#fff"><path d="m0 0h46.8817365v51.5506721h-46.8817365z" fill="#fff" fill-rule="evenodd"/></mask><mask id="b" fill="#fff"><path d="m0 0h52.3275948v51.5506721h-52.3275948z" fill="#fff" fill-rule="evenodd"/></mask><g fill="none" fill-rule="nonzero"><g fill="#125f97"><path d="m303.554921 216.92377-14.735349 63.345099-15.472999-63.345099h-21.281991l-15.726851 62.625662-14.293671-62.625662h-23.258163l25.738055 98.923036h22.887631l15.10019-62.584682 15.351766 62.584682h22.478394l.225962-.845223 25.912792-98.077813zm-213.2741076 63.205651-53.828507-63.217035h-22.8073775v98.949219h22.2131596v-63.074741l53.6799526 63.074741h22.9513789v-98.949219h-22.2086066z"/><g transform="translate(349 266.16676)"><path d="m.23122712 25.9529184v-.1350365c0-13.9383636 10.66233938-25.73279036 25.65602278-25.73279036 8.6867359 0 14.0105063 2.41031035 19.1391213 6.755528l-5.5466734 6.60569306c-3.8448425-3.2769491-7.6129176-5.32932002-13.9346638-5.32932002-9.167688 0-16.13964464 8.02450182-16.13964464 17.54920442v.1516849c0 10.2313322 6.74812874 17.7702573 16.91471744 17.7702573 4.6957581 0 8.9642083-1.4918765 12.0210294-3.7791742v-9.307349h-12.7313587v-7.6119929h21.1951916v20.8973714c-4.9121862 4.200932-11.9507362 7.7636776-20.7651092 7.7636776-15.5662017 0-25.80863278-11.0998208-25.80863278-25.5977537" mask="url(#a)"/><path d="m43.1016375 25.9529184v-.1350365c0-9.6763875-7.0477989-17.70088932-16.9332156-17.70088932-9.8798671 0-16.76210746 7.87744132-16.76210746 17.54920442v.1516849c0 9.6726877 7.03392526 17.6971895 16.91471746 17.6971895 9.8798671 0 16.7806056-7.8922399 16.7806056-17.562153m-42.8750351 0v-.1350365c0-14.0095814 10.8140243-25.73279036 26.0944295-25.73279036 15.2933535 0 25.9418195 11.57614846 25.9418195 25.58110546v.1516849c0 13.9910831-10.7955262 25.7327902-26.0944295 25.7327902-15.2739305 0-25.9418195-11.5872474-25.9418195-25.5977537" mask="url(#b)" transform="translate(51.854042)"/><path d="m103.493505.92583285h9.663439l15.001083 38.25326985 14.931714-38.25326985h9.453485l-20.687417 50.13001345h-7.682286z"/><path d="m158.439515.92583285h36.901979v7.82749643h-28.153275v12.94223752h24.958643v7.821022h-24.958643v13.3612211h28.515839v7.8089982h-37.264543z"/><path d="m225.725646 25.6023782c6.253303 0 10.240582-3.2787988 10.240582-8.3250968v-.1396612c0-5.3293197-3.842068-8.24647969-10.318274-8.24647969h-12.71841v16.71123769zm-21.538332-24.6793199h22.173744c6.264402 0 11.171039 1.86183974 14.364746 4.9824792 2.637838 2.69888165 4.117691 6.3901895 4.117691 10.7307827v.1535346c0 8.1687874-4.899238 13.0744994-11.867495 15.070451l13.437064 18.8265023h-10.30625l-12.230059-17.3411002h-10.947211v17.3411002h-8.74223z"/><path d="m252.564627.92583285h8.080921l26.668797 34.39917825v-34.39917825h8.609044v49.76097525h-7.333596l-27.439246-35.4101028v35.4101028h-8.58592z"/><path d="m304.797881.92583285h9.314748l15.141669 23.53983345 15.146294-23.53983345h9.314748v49.76097525h-8.741306v-35.6820256l-15.719736 23.4639909h-.279322l-15.560652-23.3243297v35.5423644h-8.616443z"/><path d="m362.052461.92583285h36.88718v7.82749643h-28.14495v12.94223752h24.958642v7.821022h-24.958642v13.3612211h28.514913v7.8089982h-37.257143z"/><path d="m407.911249.92583285h8.109593l26.653999 34.39917825v-34.39917825h8.607194v49.76097525h-7.316947l-27.442021-35.4101028v35.4101028h-8.611818z"/><path d="m473.991301 9.04005088h-15.777081v-8.11699258h40.377783v8.11699258h-15.776155v41.64675722h-8.824547z"/></g><path d="m118.605765 302.083037 13.0671-15.650582c9.047593 7.463581 18.524911 12.20594 30.008569 12.20594 9.052715 0 14.513941-3.593196 14.513941-9.47675v-.294263c0-5.594982-3.447488-8.468742-20.252355-12.77739-20.250647-5.165255-33.313763-10.763083-33.313763-30.725159v-.288571c0-18.236909 14.647128-30.298848 35.185208-30.298848 14.640297 0 27.141069 4.598927 37.337824 12.781375l-11.488211 16.65745c-8.909852-6.173262-17.668304-9.909322-26.145584-9.909322-8.46988 0-12.918545 3.875507-12.918545 8.76016v.288002c0 6.603558 4.299541 8.759021 21.681551 13.208824 20.394648 5.309257 31.880582 12.637374 31.880582 30.15257v.285726c0 19.962076-15.21744 31.164561-36.90639 31.164561-15.22484 0-30.587988-5.314379-42.649927-16.083723"/></g><g transform="translate(.354713 .903396)"><path d="m166.974067 192.975081c-.425173.058056 6.319541 1.563521 6.319541 2.991579 35.118614-3.12875 47.967152 6.935387 74.07517 6.935387 16.651759 0 24.504086-3.745735 25.821155-11.429017 2.0883-16.605086-23.656017.559499-74.13778-5.165255-.947105-2.771878 3.257953-2.416144 9.782966-2.525426 60.604525-1.008007 76.56986-4.707639 102.610716-15.918662 8.882532-4.01837 12.491665-7.345193 15.968181-10.278147 1.723459-1.423505 2.912464-2.651783 3.60458-3.465132.355733-.418343.625522-.687563.762124-.890189.077407-.064317.132617-.129772.132617-.19978h.0831c.832132-1.298286 1.243076-2.791799 1.243076-4.285312 0-2.38484 0-4.765695-1.946576-6.193753 0 0-.829286-.618123-2.424681-1.704677-4.65243-3.268767-14.858292-10.749423-29.71146-18.232925-.067163-.067162-.145709-.135463 1.238523-2.310847 18.612564-23.6747985 20.347976-37.4920702 20.555155-39.6663154v-.2737728c0-1.5009123-.41379-2.9955636-1.24763-4.2272564-1.318207-2.0279676-3.537417-3.3979698-5.970637-3.5305873 0 0-4.160093-.2066103-11.170042-.1354634-5.838589.0660242-13.682378.405252-25.274748 1.3569112-2.573236-2.0387819-2.49469-4.1526946-2.49469-6.1243139 0-10.2753011-.554945-19.115714-1.189005-25.3749221-.55096-6.2597773-1.105905-9.8689107-1.105905-9.8689107-.554945-3.0655719-2.366057-4.4936298-4.723576-4.5590848-.762125 0-1.524249.1366018-2.364919.4763987 0 0-1.033051.4063904-2.910187 1.2208785-5.277383 2.3097088-15.756449 7.8301289-30.199243 13.5463448-3.957468-20.1442116-9.298029-31.7804079-9.298029-31.8475704-1.044434-2.91986347-3.055326-4.01381611-5.490253-3.60742584-.687563.07683854-1.381386.34093535-2.154894.82018006 0 .06431664-3.878922 2.37800958-9.994129 6.80447688-4.371257 3.1355805-9.794348 7.2797375-15.82418 12.3123752l-2.782692 1.8372942c-4.719592-6.1226063-7.578554-11.9378586-10.444346-16.5811814-2.09513-3.40252299-3.779885-6.06910385-4.898881-7.91095141-1.107613-1.76728585-1.654021-2.71723747-1.654021-2.71723747-1.188435-1.77639249-2.298894-2.25279122-2.7844-2.25279122l-.155953.01593688c-.480383 0-1.590842.47810628-2.772448 2.24425357 0 0-.562344.95848927-1.668249 2.72634426-1.110459 1.83274077-2.960844 4.54997809-4.993934 7.92461179-2.772447 4.7036551-5.631409 10.4443456-10.353847 16.5629678l-2.773016-1.8333101c-6.039507-5.0326378-11.462599-9.1853324-15.830441-12.3135135-6.107808-4.4253291-9.998113-6.74072952-9.998113-6.80732286-.762125-.47696801-1.45424-.75074074-2.150909-.81619581-2.431512-.40809783-4.444681.68016315-5.480578 3.60913337 0 .065455-5.350237 11.7016513-9.309982 31.8458629-14.4325488-5.723046-24.9264128-11.2292368-30.1975346-13.5474831-1.8691679-.8133498-2.9096182-1.2197402-2.9096182-1.2197402-.8395319-.3409354-1.6022253-.4855056-2.3643494-.4855056-2.3580885.0745619-4.1680623 1.5054656-4.7235763 4.5664843 0 0-.5549448 3.6097024-1.1024903 9.8615113-.6300758 6.2643308-1.1850207 15.1087278-1.1850207 25.3840289 0 1.9773109.0700085 4.085532-2.5026587 6.1226063-11.5855399-.9499516-19.4361589-1.290887-25.2656406-1.3608954-7.0110872-.0654551-11.1791495.1371709-11.1791495.1371709-2.4280969.1371711-4.6490145 1.493513-5.9706368 3.5419708-.8327018 1.2242936-1.2470606 2.7178066-1.2470606 4.2124578v.274342c.2071794 2.1810754 1.9386071 15.9898095 20.5511711 39.6657467 1.3876465 2.181645 1.3170689 2.248807 1.2510447 2.318246-14.8622754 7.479518-25.06756787 14.96302-29.71259823 18.232925-1.60222513 1.086553-2.43549609 1.697277-2.43549609 1.697277-1.94372976 1.435458-1.94372976 3.81176-1.94372976 6.192615 0 1.502051.41891218 2.994425 1.25104471 4.289866h.06659349c0 .065455.07114673.132617.14115519.202626.13660179.203764.41435878.473553.76269336.891326.69154649.810504 1.87258289 2.037075 3.61254823 3.463425 3.46399396 2.921571 7.0805264 6.261485 15.9607816 10.272455 26.0368716 11.218423 42.0050524 14.918055 102.6101474 15.928908 6.53355.106436 10.728932-.248729 9.78638 2.52258-50.4777789 5.7202-76.2294942-11.444385-74.1417634 5.165255 1.3182073 7.690681 9.158012 11.429586 25.8222929 11.429586 26.1068795 0 38.9468795-10.073244 74.0820005-6.949047 0-1.417813 6.737883-2.919863 6.314987-2.987026z" fill="#fff"/><g fill="#db3e5b"><path d="m221.952875 56.0443019c-.464446 0-.968734.215148-1.544169.6522737-.014799.0119526-.574297.4359873-1.602794 1.3261757-1.040451.833271-2.525426 2.1156203-4.579576 3.9324242-2.743988 2.4451721-8.327587 7.6104276-14.837801 14.7695001-10.31002 11.4830884-23.971907 29.5714434-30.466184 50.5210364-3.746305 12.217892-5.611488 22.802255-5.54831 31.455978-.070009 6.474926.961335 11.943551 3.053619 16.281227 1.986418 4.23864 5.015563 7.245018 9.274693 9.202977 1.786068.795705 4.057643 1.200957 6.752113 1.200957h.129772c12.507602 0 33.367265-10.435808 40.569595-33.637054 3.866969-12.504756 5.834035-27.260596 5.834035-43.862837 0-20.6149183-2.995564-38.5763469-4.285312-45.3398434-.496889-2.4918444-.782615-3.8527398-.782615-3.8527398-.3102-1.1844514-.903279-2.6500749-1.967066-2.6500749"/><path d="m111.912729 56.0443019c-1.098506 0-1.755902 1.4508249-2.118466 2.6893479-.047241.2316539-.325568 1.5606756-.779199 3.8248503-.343212 1.7280127-1.035897 5.4071544-1.782085 10.6236356-1.173637 8.1437438-2.568683 20.776564-2.568683 34.7048243 0 16.864631 1.986418 31.592581 5.89949 43.779738 7.343485 23.261009 28.735327 33.720153 41.578741 33.720153h.125219c2.705854 0 5.083863-.43428 7.069712-1.282349 1.047849-.429727 2.06041-.977841 3.194205-1.739966-.945967-1.286333-1.786637-2.7013-2.552746-4.301249-2.499244-5.19599-3.750858-11.526914-3.829404-19.342814.071716-9.653194 2.089439-20.941055 5.999096-33.57103.336382-1.152577.742772-2.334183 1.142332-3.472531.155954-.457616.311339-.906126.464447-1.359188-13.637982-33.9005818-44.980695-59.4565012-48.519251-62.2670832-1.121842-.9106786-1.692724-1.3421126-1.700692-1.3449584-.620969-.4297265-1.180467-.6613805-1.622716-.6613805"/><path d="m166.824375.55665225c-.754725 0-1.536201.59763293-2.327353 1.77923847-.011384.0233361-.64829.94539823-1.691586 2.68536357-1.569213 2.61250943-3.06728 5.16127121-4.579575 7.79711671-3.37748 5.9899888-8.515415 15.6705028-13.789952 27.7176428-3.621086 8.2154598-6.921157 16.7655938-9.806301 25.4233019 10.150083 10.1460985 23.768143 25.9771083 32.831103 45.1958423 7.000273-15.0586402 17.630739-30.0489798 31.636407-44.6101622-9.551311-29.002838-22.97073-52.6588541-28.322675-61.52374151-1.133795-1.77468493-1.717767-2.71325321-1.717767-2.71325321-1.079724-1.62328468-1.981865-1.75134883-2.232301-1.75134883"/><path d="m267.314917 28.2281919c-.40639.0045534-1.063786.0785461-1.89535.4268807l-.025044.0119527-.018782.0039842c-.011953.0028458-.996624.3602872-2.787246 1.1878665-1.751918.7154519-4.071303 1.7991595-7.000273 3.1748533l-1.022806.4781063c-9.029379 4.3712575-17.818566 9.2496492-26.131355 14.4934506-.947105.539008-1.892504 1.1377792-2.826518 1.7513489 2.566975 1.2982863 4.547132 4.0041402 5.274537 7.3759278.018782.0842378.037565.1792899.070008.3352436 1.215187 5.7480898 5.184038 26.3641467 5.184038 50.4151695 0 17.326231-2.064394 32.790123-6.13399 45.957967-4.367273 13.852561-12.484265 22.686713-19.303541 27.984586 17.66432-.826441 33.492484-11.940705 44.730827-31.494683 14.821864-25.939543 17.931263-59.776946 17.931263-83.5963151 0-8.4306075-.383624-16.8919505-1.142333-25.1421299-.562913-6.0668271-1.063786-9.6691305-1.06834-9.70385-.445663-2.3768713-1.698984-3.5931964-3.835095-3.6603591"/><path d="m218.293086 8.08967218c-.230516 0-.465016.01935185-.704069.055779l-.027889.00284598-.027321.00398411c-.539008.05407158-1.103059.28572549-1.677356.68357826l-.023336.02049027-.02732.01479846c-.039843.02447452-3.918195 2.40077664-9.9042 6.69804144-3.323408 2.3808555-8.589407 6.307588-15.045549 11.644734 4.684303 9.7391389 8.88367 19.6666744 12.492803 29.5629054 7.702065-6.0685349 16.144625-11.8462216 25.735209-17.6335843-2.717806-13.7478326-5.822651-23.9804454-7.046376-27.7808213-.046672-.1326176-.072854-.2271004-.097898-.2971089-.746187-1.97446505-1.972757-2.97564242-3.646698-2.97564242"/><path d="m115.284517 8.08967218c-1.669957 0-2.897666 1.00117737-3.647268 2.97564242-.024475.0700085-.051795.1644913-.094483.2971089-1.223725 3.8003759-4.336538 14.0329887-7.049791 27.7808213 9.590584 5.7873627 18.032575 11.5650494 25.732363 17.6296001 3.428705-9.5996912 7.627503-19.5295035 12.49565-29.5589212-5.098093-4.2266873-10.158051-8.1403288-15.04555-11.644734-5.986574-4.2972648-9.864357-6.67356692-9.904199-6.69804144l-.023336-.01479846-.027321-.02049027c-.570881-.39785277-1.133795-.62950668-1.677356-.68357826l-.02732-.00398411-.023906-.00284598c-.241899-.03642715-.481521-.055779-.707483-.055779"/><path d="m28.7985045 72.4461934c-5.1925758 0-8.2074913.153108-8.2382267.1576614-2.0410585.1206649-3.9295784 1.2396612-5.1766388 3.0775245-.7313889 1.0939528-1.1064746 2.450864-1.0484189 3.8117594.3637023 3.5783978 2.748542 16.527679 18.2084503 36.0264473 7.9263192-3.932994 15.7928753-7.390727 23.4095637-10.287254-1.5828733-9.7243402-2.5254257-20.3348848-2.7952143-31.5692441-9.458536-.8873426-16.9107331-1.1451784-21.547795-1.2003883-.9971931-.0119528-1.9357612-.0165062-2.8117203-.0165062"/><path d="m304.757469 72.4461934c-.872544 0-1.803712.0045534-2.787245.0165062-4.642185.0552099-12.094951.3130457-21.548934 1.2003883-.26182 10.8262615-1.204941 21.4379443-2.803182 31.5692441 7.620672 2.893682 15.490074 6.35426 23.416962 10.287254 15.502028-19.5499939 17.860685-32.5191962 18.211866-36.0543369.121234-1.2077875-.539008-3.0422358-1.04785-3.7770397-1.249906-1.8446934-3.13558-2.9636897-5.188591-3.0843546-.023337-.0045534-3.091754-.1576614-8.253026-.1576614"/><path d="m276.328359 112.453445c-3.1703 15.948259-8.121546 29.887904-14.727951 41.445554-6.886438 12.098366-15.500319 21.273453-25.643572 27.339142 73.57885-3.996741 94.345169-27.675524 96.512015-30.40756l.011384-.017644c.731389-1.113305 1.098506-2.33703 1.098506-3.647268 0-2.113913-.997762-4.171478-2.60511-5.363328-.002846 0-.866852-.571451-2.411591-1.623285l-.015937-.02049-.018783-.01423c-1.165668-.880512-2.854408-1.987556-4.986534-3.38374-.562345-.367117-1.156562-.757571-1.770132-1.163961-5.265999-3.37748-13.740433-8.509723-24.129569-13.704006-7.17444-3.62507-14.337497-6.79594-21.312726-9.439184"/><path d="m57.250382 112.453445c-24.8171314 9.402757-44.7928675 22.478394-52.2997053 27.717073-1.49408211 1.067771-2.35012004 1.639222-2.38199379 1.662558-1.5714898 1.161115-2.56868291 3.21868-2.56868291 5.332593 0 1.307393.36370217 2.52258 1.08712256 3.628485.05862497.071147.10188221.141155.13261754.195227.15310795.164491.30109323.344919.48095227.563482.08594518.105297.18441242.22767.28914046.352888.50485737.557791 1.68190951 1.777531 3.52774132 3.31487 3.10370662 2.650644 8.66852245 6.647385 17.62561595 10.681691 18.5260495 8.398734 44.2145864 13.701161 74.4821295 15.401284-10.0294177-6.045199-18.835111-15.436003-25.6504024-27.409151-6.6029893-11.55765-11.5542352-25.497294-14.7245352-41.441"/><path d="m267.103753 186.616267c-3.76964 0-9.345839.766678-17.782138 1.930639-1.251614.173598-2.5573.352888-3.938686.545269-3.69394.520225-8.1944.762124-14.161622.762124-3.655805 0-7.445367-.085945-11.459752-.176444l-.356872-.007399c-3.814605-.085945-8.140898-.184982-12.476867-.184982-9.016857 0-20.674682.368825-30.947137 3.230064-.516241.153107-.890188.708621-.836686 1.06834.051226.332389.684717.445663 1.21974.445663.153108 0 .3102-.008538.476399-.02049 4.074149-.362564 8.016818-.542993 11.731249-.542993 13.406328 0 22.559786 2.314832 31.416136 4.547133 8.328726 2.104237 16.195281 4.090085 27.127979 4.090085 11.654979 0 20.886983-2.478184 24.689067-6.638278 1.273242-1.396184 1.848677-2.921571 1.702969-4.535749-.304508-3.115659-1.301132-4.512982-6.403779-4.512982"/><path d="m66.444252 186.616267c-5.075895 0-6.0685347 1.397323-6.373612 4.519812-.1599381 1.604502.3950068 3.121351 1.6500357 4.50103 3.7258141 4.113421 13.2076863 6.666167 24.7425696 6.666167 10.9281437 0 18.7986837-1.985848 27.1274097-4.090085 8.856349-2.236286 18.009239-4.547133 31.416705-4.547133 3.711016 0 7.659946.180429 11.726695.542993.175875.011952.331829.02049.480383.02049.536731 0 1.173068-.113274 1.224294-.445663.049518-.359719-.320445-.915233-.856607-1.06834-10.252534-2.861239-21.915482-3.230064-30.927785-3.230064h-.003984c-4.332554 0-8.661124.099037-12.476867.184982l-.364272.007399c-4.011539.090499-7.795978.176444-11.451784.176444-5.9706363 0-10.4716655-.241899-14.1695899-.762124-1.4041527-.195227-2.7496804-.380208-4.0274763-.555514-8.4067023-1.158269-13.9624112-1.920394-17.7161148-1.920394"/></g></g><path d="m66.5473897 29.1315883c-2.0843158.0717161-3.3194237 1.2834878-3.7690713 3.702478 0 0-.5008733 3.601734-1.0637865 9.7334471-.519656 5.6023813-1.1417634 14.498004-1.1417634 25.0704139 0 23.8193691 3.1088293 57.6567727 17.9312625 83.5991607 11.3743762 19.788478 27.447854 30.932339 45.379117 31.515173-6.986613-5.341699-15.311354-14.205448-19.733837-27.994831-4.1674934-13.079052-6.2870979-28.547498-6.2870979-45.971057 0-24.0510234 4.0274759-44.6716337 5.2637229-50.4197235.030735-.1514003.054071-.2492982.057486-.2885712.727974-3.3558508 2.663166-6.0178784 5.247786-7.3742203-18.2869964-11.7380786-34.0132782-18.6347617-37.0549448-19.9302021-1.8185115-.8389628-2.8077362-1.1964042-2.8157046-1.19925l-.0267512-.0039842-.0239053-.0119527c-.6682105-.2783261-1.3290216-.4223273-1.9625124-.4268807" fill="#db3e5b"/></g></svg>