<?xml version="1.0" encoding="UTF-8"?>
<svg width="848px" height="319px" viewBox="0 0 848 319" version="1.1" xmlns="http://www.w3.org/2000/svg" xmlns:xlink="http://www.w3.org/1999/xlink">
    <title>NSW Gov</title>
    <defs>
        <polygon id="path-1" points="0 0 46.8817365 0 46.8817365 51.5506721 0 51.5506721"></polygon>
        <polygon id="path-3" points="0 0 52.3275948 0 52.3275948 51.5506721 0 51.5506721"></polygon>
    </defs>
    <g id="ðŸ—-Builder:-Front-page" stroke="none" stroke-width="1" fill="none" fill-rule="evenodd">
        <g id="Artboard" transform="translate(-833.000000, -3.000000)">
            <g id="NSW-Gov" transform="translate(833.000000, 3.000000)">
                <path d="M303.554921,216.92377 L288.819572,280.268869 L273.346573,216.92377 L252.064582,216.92377 L236.337731,279.549432 L222.04406,216.92377 L198.785897,216.92377 L224.523952,315.846806 L247.411583,315.846806 L262.511773,253.262124 L277.863539,315.846806 L300.341933,315.846806 L300.567895,315.001583 L326.480687,216.92377 L303.554921,216.92377 Z M90.2808134,280.129421 L36.4523064,216.912386 L13.6449289,216.912386 L13.6449289,315.861605 L35.8580885,315.861605 L35.8580885,252.786864 L89.5380411,315.861605 L112.48942,315.861605 L112.48942,216.912386 L90.2808134,216.912386 L90.2808134,280.129421" id="Shape" fill="#125F97" fill-rule="nonzero"></path>
                <g id="Group-6" transform="translate(349.000000, 266.166760)">
                    <g id="Clipped">
                        <mask id="mask-2" fill="white">
                            <use xlink:href="#path-1"></use>
                        </mask>
                        <g id="Path"></g>
                        <path d="M0.231227118,25.9529184 L0.231227118,25.8178819 C0.231227118,11.8795183 10.8935665,0.0850915357 25.8872499,0.0850915357 C34.5739858,0.0850915357 39.8977562,2.49540189 45.0263712,6.84061954 L39.4796978,13.4463126 C35.6348553,10.1693635 31.8667802,8.11699258 25.545034,8.11699258 C16.377346,8.11699258 9.40538936,16.1414944 9.40538936,25.666197 L9.40538936,25.8178819 C9.40538936,36.0492141 16.1535181,43.5881392 26.3201068,43.5881392 C31.0158649,43.5881392 35.2843151,42.0962627 38.3411362,39.808965 L38.3411362,30.501616 L25.6097775,30.501616 L25.6097775,22.8896231 L46.8049691,22.8896231 L46.8049691,43.7869945 C41.8927829,47.9879265 34.8542329,51.5506721 26.0398599,51.5506721 C10.4736582,51.5506721 0.231227118,40.4508513 0.231227118,25.9529184" id="Path" fill="#125F97" fill-rule="nonzero" mask="url(#mask-2)"></path>
                    </g>
                    <g id="Clipped" transform="translate(51.854042, 0.000000)">
                        <mask id="mask-4" fill="white">
                            <use xlink:href="#path-3"></use>
                        </mask>
                        <g id="Path"></g>
                        <path d="M43.1016375,25.9529184 L43.1016375,25.8178819 C43.1016375,16.1414944 36.0538386,8.11699258 26.1684219,8.11699258 C16.2885548,8.11699258 9.40631444,15.9944339 9.40631444,25.666197 L9.40631444,25.8178819 C9.40631444,35.4905696 16.4402397,43.5150714 26.3210319,43.5150714 C36.200899,43.5150714 43.1016375,35.6228315 43.1016375,25.9529184 M0.2266024,25.9529184 L0.2266024,25.8178819 C0.2266024,11.8083005 11.0406267,0.0850915357 26.3210319,0.0850915357 C41.6143854,0.0850915357 52.2628514,11.66124 52.2628514,25.666197 L52.2628514,25.8178819 C52.2628514,39.808965 41.4673252,51.5506721 26.1684219,51.5506721 C10.8944914,51.5506721 0.2266024,39.9634247 0.2266024,25.9529184" id="Shape" fill="#125F97" fill-rule="nonzero" mask="url(#mask-4)"></path>
                    </g>
                    <polyline id="Path" fill="#125F97" fill-rule="nonzero" points="103.493505 0.925832845 113.156944 0.925832845 128.158027 39.1791027 143.089741 0.925832845 152.543226 0.925832845 131.855809 51.0558463 124.173523 51.0558463 103.493505 0.925832845"></polyline>
                    <polyline id="Path" fill="#125F97" fill-rule="nonzero" points="158.439515 0.925832845 195.341494 0.925832845 195.341494 8.75332928 167.188219 8.75332928 167.188219 21.6955668 192.146862 21.6955668 192.146862 29.5165888 167.188219 29.5165888 167.188219 42.8778099 195.704058 42.8778099 195.704058 50.6868081 158.439515 50.6868081 158.439515 0.925832845"></polyline>
                    <path d="M225.725646,25.6023782 C231.978949,25.6023782 235.966228,22.3235794 235.966228,17.2772814 L235.966228,17.1376202 C235.966228,11.8083005 232.12416,8.89114051 225.647954,8.89114051 L212.929544,8.89114051 L212.929544,25.6023782 L225.725646,25.6023782 Z M204.187314,0.923058299 L226.361058,0.923058299 C232.62546,0.923058299 237.532097,2.78489804 240.725804,5.9055375 C243.363642,8.60441915 244.843495,12.295727 244.843495,16.6363202 L244.843495,16.7898548 C244.843495,24.9586422 239.944257,29.8643542 232.976,31.8603058 L246.413064,50.6868081 L236.106814,50.6868081 L223.876755,33.3457079 L212.929544,33.3457079 L212.929544,50.6868081 L204.187314,50.6868081 L204.187314,0.923058299" id="Shape" fill="#125F97" fill-rule="nonzero"></path>
                    <polyline id="Path" fill="#125F97" fill-rule="nonzero" points="252.564627 0.925832845 260.645548 0.925832845 287.314345 35.3250111 287.314345 0.925832845 295.923389 0.925832845 295.923389 50.6868081 288.589793 50.6868081 261.150547 15.2767053 261.150547 50.6868081 252.564627 50.6868081 252.564627 0.925832845"></polyline>
                    <polyline id="Path" fill="#125F97" fill-rule="nonzero" points="304.797881 0.925832845 314.112629 0.925832845 329.254298 24.4656663 344.400592 0.925832845 353.71534 0.925832845 353.71534 50.6868081 344.974034 50.6868081 344.974034 15.0047825 329.254298 38.4687734 328.974976 38.4687734 313.414324 15.1444437 313.414324 50.6868081 304.797881 50.6868081 304.797881 0.925832845"></polyline>
                    <polyline id="Path" fill="#125F97" fill-rule="nonzero" points="362.052461 0.925832845 398.939641 0.925832845 398.939641 8.75332928 370.794691 8.75332928 370.794691 21.6955668 395.753333 21.6955668 395.753333 29.5165888 370.794691 29.5165888 370.794691 42.8778099 399.309604 42.8778099 399.309604 50.6868081 362.052461 50.6868081 362.052461 0.925832845"></polyline>
                    <polyline id="Path" fill="#125F97" fill-rule="nonzero" points="407.911249 0.925832845 416.020842 0.925832845 442.674841 35.3250111 442.674841 0.925832845 451.282035 0.925832845 451.282035 50.6868081 443.965088 50.6868081 416.523067 15.2767053 416.523067 50.6868081 407.911249 50.6868081 407.911249 0.925832845"></polyline>
                    <polyline id="Path" fill="#125F97" fill-rule="nonzero" points="473.991301 9.04005088 458.21422 9.04005088 458.21422 0.923058299 498.592003 0.923058299 498.592003 9.04005088 482.815848 9.04005088 482.815848 50.6868081 473.991301 50.6868081 473.991301 9.04005088"></polyline>
                </g>
                <path d="M118.605765,302.083037 L131.672865,286.432455 C140.720458,293.896036 150.197776,298.638395 161.681434,298.638395 C170.734149,298.638395 176.195375,295.045199 176.195375,289.161645 L176.195375,288.867382 C176.195375,283.2724 172.747887,280.39864 155.94302,276.089992 C135.692373,270.924737 122.629257,265.326909 122.629257,245.364833 L122.629257,245.076262 C122.629257,226.839353 137.276385,214.777414 157.814465,214.777414 C172.454762,214.777414 184.955534,219.376341 195.152289,227.558789 L183.664078,244.216239 C174.754226,238.042977 165.995774,234.306917 157.518494,234.306917 C149.048614,234.306917 144.599949,238.182424 144.599949,243.067077 L144.599949,243.355079 C144.599949,249.958637 148.89949,252.1141 166.2815,256.563903 C186.676148,261.87316 198.162082,269.201277 198.162082,286.716473 L198.162082,287.002199 C198.162082,306.964275 182.944642,318.16676 161.255692,318.16676 C146.030852,318.16676 130.667704,312.852381 118.605765,302.083037" id="Path" fill="#125F97" fill-rule="nonzero"></path>
                <g id="Group-5" transform="translate(0.354713, 0.903396)" fill-rule="nonzero">
                    <path d="M166.974067,192.975081 C166.548894,193.033137 173.293608,194.538602 173.293608,195.96666 C208.412222,192.83791 221.26076,202.902047 247.368778,202.902047 C264.020537,202.902047 271.872864,199.156312 273.189933,191.47303 C275.278233,174.867944 249.533916,192.032529 199.052153,186.307775 C198.105048,183.535897 202.310106,183.891631 208.835119,183.782349 C269.439644,182.774342 285.404979,179.07471 311.445835,167.863687 C320.328367,163.845317 323.9375,160.518494 327.414016,157.58554 C329.137475,156.162035 330.32648,154.933757 331.018596,154.120408 C331.374329,153.702065 331.644118,153.432845 331.78072,153.230219 C331.858127,153.165902 331.913337,153.100447 331.913337,153.030439 L331.996437,153.030439 C332.828569,151.732153 333.239513,150.23864 333.239513,148.745127 C333.239513,146.360287 333.239513,143.979432 331.292937,142.551374 C331.292937,142.551374 330.463651,141.933251 328.868256,140.846697 C324.215826,137.57793 314.009964,130.097274 299.156796,122.613772 C299.089633,122.54661 299.011087,122.478309 300.395319,120.302925 C319.007883,96.6281265 320.743295,82.8108548 320.950474,80.6366096 L320.950474,80.3628368 C320.950474,78.8619245 320.536684,77.3672732 319.702844,76.1355804 C318.384637,74.1076128 316.165427,72.7376106 313.732207,72.6049931 C313.732207,72.6049931 309.572114,72.3983828 302.562165,72.4695297 C296.723576,72.5355539 288.879787,72.8747817 277.287417,73.8264409 C274.714181,71.787659 274.792727,69.6737463 274.792727,67.702127 C274.792727,57.4268259 274.237782,48.586413 273.603722,42.3272049 C273.052762,36.0674276 272.497817,32.4582942 272.497817,32.4582942 C271.942872,29.3927223 270.13176,27.9646644 267.774241,27.8992094 C267.012116,27.8992094 266.249992,28.0358112 265.409322,28.3756081 C265.409322,28.3756081 264.376271,28.7819985 262.499135,29.5964866 C257.221752,31.9061954 246.742686,37.4266155 232.299892,43.1428314 C228.342424,22.9986198 223.001863,11.3624235 223.001863,11.295261 C221.957429,8.37539753 219.946537,7.28144489 217.51161,7.68783516 C216.824047,7.7646737 216.130224,8.02877051 215.356716,8.50801522 C215.356716,8.57233186 211.477794,10.8860248 205.362587,15.3124921 C200.99133,18.4480726 195.568239,22.5922296 189.538407,27.6248673 L186.755715,29.4621615 C182.036123,23.3395552 179.177161,17.5243029 176.311369,12.8809801 C174.216239,9.47845711 172.531484,6.81187625 171.412488,4.97002869 C170.304875,3.20274284 169.758467,2.25279122 169.758467,2.25279122 C168.570032,0.476398729 167.459573,4.26325641e-14 166.974067,4.26325641e-14 L166.818114,0.0159368762 C166.337731,0.0159368762 165.227272,0.494043164 164.045666,2.26019045 C164.045666,2.26019045 163.483322,3.21867972 162.377417,4.98653471 C161.266958,6.81927548 159.416573,9.5365128 157.383483,12.9111465 C154.611036,17.6148016 151.752074,23.3554921 147.029636,29.4741143 L144.25662,27.6408042 C138.217113,22.6081664 132.794021,18.4554718 128.426179,15.3272907 C122.318371,10.9019616 118.428066,8.58656118 118.428066,8.51996784 C117.665941,8.04299983 116.973826,7.7692271 116.277157,7.70377203 C113.845645,7.2956742 111.832476,8.38393518 110.796579,11.3129054 C110.796579,11.3783604 105.446342,23.0145567 101.486597,43.1587683 C87.0540482,37.4357223 76.5601842,31.9295315 71.2890624,29.6112852 C69.4198945,28.7979354 68.3794442,28.391545 68.3794442,28.391545 C67.5399123,28.0506096 66.7772189,27.9060394 66.0150948,27.9060394 C63.6570063,27.9806013 61.8470325,29.411505 61.2915185,32.4725237 C61.2915185,32.4725237 60.7365737,36.0822261 60.1890282,42.334035 C59.5589524,48.5983658 59.0040075,57.4427628 59.0040075,67.7180639 C59.0040075,69.6953748 59.074016,71.8035959 56.5013488,73.8406702 C44.9158089,72.8907186 37.0651899,72.5497832 31.2357082,72.4797748 C24.224621,72.4143197 20.0565587,72.6169457 20.0565587,72.6169457 C17.6284618,72.7541168 15.4075442,74.1104587 14.0859219,76.1589165 C13.2532201,77.3832101 12.8388613,78.8767231 12.8388613,80.3713743 L12.8388613,80.6457163 C13.0460407,82.8267917 14.7774684,96.6355258 33.3900324,120.311463 C34.7776789,122.493108 34.7071013,122.56027 34.6410771,122.629709 C19.7788017,130.109227 9.57350923,137.592729 4.92847887,140.862634 C3.32625374,141.949187 2.49298278,142.559911 2.49298278,142.559911 C0.54925302,143.995369 0.54925302,146.371671 0.54925302,148.752526 C0.54925302,150.254577 0.968165196,151.746951 1.80029773,153.042392 L1.86689122,153.042392 C1.86689122,153.107847 1.93803795,153.175009 2.00804641,153.245018 C2.1446482,153.448782 2.42240519,153.718571 2.77073977,154.136344 C3.46228626,154.946848 4.64332266,156.173419 6.383288,157.599769 C9.84728196,160.52134 13.4638144,163.861254 22.3440696,167.872224 C48.3809412,179.090647 64.349122,182.790279 124.954217,183.801132 C131.487767,183.907568 135.683149,183.552403 134.740597,186.323712 C84.2628181,192.043912 58.5111028,174.879327 60.5988336,191.488967 C61.9170409,199.179648 69.7568456,202.918553 86.4211265,202.918553 C112.528006,202.918553 125.368006,192.845309 160.503127,195.969506 C160.503127,194.551693 167.24101,193.049643 166.818114,192.98248 L166.974067,192.975081" id="Path" fill="#FFFFFF"></path>
                    <path d="M221.952875,56.0443019 C221.488429,56.0443019 220.984141,56.2594499 220.408706,56.6965756 C220.393907,56.7085282 219.834409,57.1325629 218.805912,58.0227513 C217.765461,58.8560223 216.280486,60.1383716 214.226336,61.9551755 C211.482348,64.4003476 205.898749,69.5656031 199.388535,76.7246756 C189.078515,88.207764 175.416628,106.296119 168.922351,127.245712 C165.176046,139.463604 163.310863,150.047967 163.374041,158.70169 C163.304032,165.176616 164.335376,170.645241 166.42766,174.982917 C168.414078,179.221557 171.443223,182.227935 175.702353,184.185894 C177.488421,184.981599 179.759996,185.386851 182.454466,185.386851 L182.584238,185.386851 C195.09184,185.386851 215.951503,174.951043 223.153833,151.749797 C227.020802,139.245041 228.987868,124.489201 228.987868,107.88696 C228.987868,87.2720417 225.992304,69.3106131 224.702556,62.5471166 C224.205667,60.0552722 223.919941,58.6943768 223.919941,58.6943768 C223.609741,57.5099254 223.016662,56.0443019 221.952875,56.0443019" id="Path" fill="#DB3E5B"></path>
                    <path d="M111.912729,56.0443019 C110.814223,56.0443019 110.156827,57.4951268 109.794263,58.7336498 C109.747022,58.9653037 109.468695,60.2943254 109.015064,62.5585001 C108.671852,64.2865128 107.979167,67.9656545 107.232979,73.1821357 C106.059342,81.3258795 104.664296,93.9586997 104.664296,107.88696 C104.664296,124.751591 106.650714,139.479541 110.563786,151.666698 C117.907271,174.927707 139.299113,185.386851 152.142527,185.386851 L152.267746,185.386851 C154.9736,185.386851 157.351609,184.952571 159.337458,184.104502 C160.385307,183.674775 161.397868,183.126661 162.531663,182.364536 C161.585696,181.078203 160.745026,179.663236 159.978917,178.063287 C157.479673,172.867297 156.228059,166.536373 156.149513,158.720473 C156.221229,149.067279 158.238952,137.779418 162.148609,125.149443 C162.484991,123.996866 162.891381,122.81526 163.290941,121.676912 C163.446895,121.219296 163.60228,120.770786 163.755388,120.317724 C150.117406,86.4171422 118.774693,60.8612228 115.236137,58.0506408 C114.114295,57.1399622 113.543413,56.7085282 113.535445,56.7056824 C112.914476,56.2759559 112.354978,56.0443019 111.912729,56.0443019" id="Path" fill="#DB3E5B"></path>
                    <path d="M166.824375,0.556652248 C166.06965,0.556652248 165.288174,1.15428518 164.497022,2.33589072 C164.485638,2.35922682 163.848732,3.28128895 162.805436,5.02125429 C161.236223,7.63376372 159.738156,10.1825255 158.225861,12.818371 C154.848381,18.8083598 149.710446,28.4888738 144.435909,40.5360138 C140.814823,48.7514736 137.514752,57.3016076 134.629608,65.9593157 C144.779691,76.1054142 158.397751,91.936424 167.460711,111.155158 C174.460984,96.0965178 185.09145,81.1061782 199.097118,66.5449958 C189.545807,37.5421578 176.126388,13.8861417 170.774443,5.02125429 C169.640648,3.24656936 169.056676,2.30800108 169.056676,2.30800108 C167.976952,0.684716395 167.074811,0.556652248 166.824375,0.556652248" id="Path" fill="#DB3E5B"></path>
                    <path d="M267.314917,28.2281919 C266.908527,28.2327453 266.251131,28.306738 265.419567,28.6550726 L265.394523,28.6670253 L265.375741,28.6710095 C265.363788,28.6738553 264.379117,29.0312967 262.588495,29.858876 C260.836577,30.5743279 258.517192,31.6580355 255.588222,33.0337293 L254.565416,33.5118356 C245.536037,37.8830931 236.74685,42.7614848 228.434061,48.0052862 C227.486956,48.5442942 226.541557,49.1430654 225.607543,49.7566351 C228.174518,51.0549214 230.154675,53.7607753 230.88208,57.1325629 C230.900862,57.2168007 230.919645,57.3118528 230.952088,57.4678065 C232.167275,63.2158963 236.136126,83.8319532 236.136126,107.882976 C236.136126,125.209207 234.071732,140.673099 230.002136,153.840943 C225.634863,167.693504 217.517871,176.527656 210.698595,181.825529 C228.362915,180.999088 244.191079,169.884824 255.429422,150.330846 C270.251286,124.391303 273.360685,90.5539 273.360685,66.7345309 C273.360685,58.3039234 272.977061,49.8425804 272.218352,41.592401 C271.655439,35.5255739 271.154566,31.9232705 271.150012,31.888551 C270.704349,29.5116797 269.451028,28.2953546 267.314917,28.2281919" id="Path" fill="#DB3E5B"></path>
                    <path d="M218.293086,8.08967218 C218.06257,8.08967218 217.82807,8.10902403 217.589017,8.14545118 L217.561128,8.14829716 L217.533807,8.15228127 C216.994799,8.20635285 216.430748,8.43800676 215.856451,8.83585953 L215.833115,8.8563498 L215.805795,8.87114826 C215.765952,8.89562278 211.8876,11.2719249 205.901595,15.5691897 C202.578187,17.9500452 197.312188,21.8767777 190.856046,27.2139237 C195.540349,36.9530626 199.739716,46.8805981 203.348849,56.7768291 C211.050914,50.7082942 219.493474,44.9306075 229.084058,39.1432448 C226.366252,25.3954122 223.261407,15.1627994 222.037682,11.3624235 C221.99101,11.2298059 221.964828,11.1353231 221.939784,11.0653146 C221.193597,9.09084955 219.967027,8.08967218 218.293086,8.08967218" id="Path" fill="#DB3E5B"></path>
                    <path d="M115.284517,8.08967218 C113.61456,8.08967218 112.386851,9.09084955 111.637249,11.0653146 C111.612774,11.1353231 111.585454,11.2298059 111.542766,11.3624235 C110.319041,15.1627994 107.206228,25.3954122 104.492975,39.1432448 C114.083559,44.9306075 122.52555,50.7082942 130.225338,56.7728449 C133.654043,47.1731537 137.852841,37.2433414 142.720988,27.2139237 C137.622895,22.9872364 132.562937,19.0735949 127.675438,15.5691897 C121.688864,11.2719249 117.811081,8.89562278 117.771239,8.87114826 L117.747903,8.8563498 L117.720582,8.83585953 C117.149701,8.43800676 116.586787,8.20635285 116.043226,8.15228127 L116.015906,8.14829716 L115.992,8.14545118 C115.750101,8.10902403 115.510479,8.08967218 115.284517,8.08967218" id="Path" fill="#DB3E5B"></path>
                    <path d="M28.7985045,72.4461934 C23.6059287,72.4461934 20.5910132,72.5993014 20.5602778,72.6038548 C18.5192193,72.7245197 16.6306994,73.843516 15.383639,75.6813793 C14.6522501,76.7753321 14.2771644,78.1322433 14.3352201,79.4931387 C14.6989224,83.0715365 17.0837621,96.0208177 32.5436704,115.519586 C40.4699896,111.586592 48.3365457,108.128859 55.9532341,105.232332 C54.3703608,95.5079918 53.4278084,84.8974472 53.1580198,73.6630879 C43.6994838,72.7757453 36.2472867,72.5179095 31.6102248,72.4626996 C30.6130317,72.4507468 29.6744636,72.4461934 28.7985045,72.4461934" id="Path" fill="#DB3E5B"></path>
                    <path d="M304.757469,72.4461934 C303.884925,72.4461934 302.953757,72.4507468 301.970224,72.4626996 C297.328039,72.5179095 289.875273,72.7757453 280.42129,73.6630879 C280.15947,84.4893494 279.216349,95.1010322 277.618108,105.232332 C285.23878,108.126014 293.108182,111.586592 301.03507,115.519586 C316.537098,95.9695921 318.895755,83.0003898 319.246936,79.4652491 C319.36817,78.2574616 318.707928,76.4230133 318.199086,75.6882094 C316.94918,73.843516 315.063506,72.7245197 313.010495,72.6038548 C312.987158,72.5993014 309.918741,72.4461934 304.757469,72.4461934" id="Path" fill="#DB3E5B"></path>
                    <path d="M276.328359,112.453445 C273.158059,128.401704 268.206813,142.341349 261.600408,153.898999 C254.71397,165.997365 246.100089,175.172452 235.956836,181.238141 C309.535686,177.2414 330.302005,153.562617 332.468851,150.830581 L332.480235,150.812937 C333.211624,149.699632 333.578741,148.475907 333.578741,147.165669 C333.578741,145.051756 332.580979,142.994191 330.973631,141.802341 C330.970785,141.802341 330.106779,141.23089 328.56204,140.179056 L328.546103,140.158566 L328.52732,140.144336 C327.361652,139.263824 325.672912,138.15678 323.540786,136.760596 C322.978441,136.393479 322.384224,136.003025 321.770654,135.596635 C316.504655,132.219155 308.030221,127.086912 297.641085,121.892629 C290.466645,118.267559 283.303588,115.096689 276.328359,112.453445" id="Path" fill="#DB3E5B"></path>
                    <path d="M57.250382,112.453445 C32.4332506,121.856202 12.4575145,134.931839 4.9506767,140.170518 C3.45659459,141.238289 2.60055666,141.80974 2.56868291,141.833076 C0.997193114,142.994191 -7.10542736e-15,145.051756 -7.10542736e-15,147.165669 C-7.10542736e-15,148.473062 0.363702174,149.688249 1.08712256,150.794154 C1.14574753,150.865301 1.18900477,150.935309 1.2197401,150.989381 C1.37284805,151.153872 1.52083333,151.3343 1.70069237,151.552863 C1.78663755,151.65816 1.88510479,151.780533 1.98983283,151.905751 C2.4946902,152.463542 3.67174234,153.683282 5.51757415,155.220621 C8.62128077,157.871265 14.1860966,161.868006 23.1431901,165.902312 C41.6692396,174.301046 67.3577765,179.603473 97.6253196,181.303596 C87.5959019,175.258397 78.7902086,165.867593 71.9749172,153.894445 C65.3719279,142.336795 60.420682,128.397151 57.250382,112.453445" id="Path" fill="#DB3E5B"></path>
                    <path d="M267.103753,186.616267 C263.334113,186.616267 257.757914,187.382945 249.321615,188.546906 C248.070001,188.720504 246.764315,188.899794 245.382929,189.092175 C241.688989,189.6124 237.188529,189.854299 231.221307,189.854299 C227.565502,189.854299 223.77594,189.768354 219.761555,189.677855 L219.404683,189.670456 C215.590078,189.584511 211.263785,189.485474 206.927816,189.485474 C197.910959,189.485474 186.253134,189.854299 175.980679,192.715538 C175.464438,192.868645 175.090491,193.424159 175.143993,193.783878 C175.195219,194.116267 175.82871,194.229541 176.363733,194.229541 C176.516841,194.229541 176.673933,194.221003 176.840132,194.209051 C180.914281,193.846487 184.85695,193.666058 188.571381,193.666058 C201.977709,193.666058 211.131167,195.98089 219.987517,198.213191 C228.316243,200.317428 236.182798,202.303276 247.115496,202.303276 C258.770475,202.303276 268.002479,199.825092 271.804563,195.664998 C273.077805,194.268814 273.65324,192.743427 273.507532,191.129249 C273.203024,188.01359 272.2064,186.616267 267.103753,186.616267" id="Path" fill="#DB3E5B"></path>
                    <path d="M66.444252,186.616267 C61.368357,186.616267 60.3757173,188.01359 60.07064,191.136079 C59.9107019,192.740581 60.4656468,194.25743 61.7206757,195.637109 C65.4464898,199.75053 74.928362,202.303276 86.4632453,202.303276 C97.391389,202.303276 105.261929,200.317428 113.590655,198.213191 C122.447004,195.976905 131.599894,193.666058 145.00736,193.666058 C148.718376,193.666058 152.667306,193.846487 156.734055,194.209051 C156.90993,194.221003 157.065884,194.229541 157.214438,194.229541 C157.751169,194.229541 158.387506,194.116267 158.438732,193.783878 C158.48825,193.424159 158.118287,192.868645 157.582125,192.715538 C147.329591,189.854299 135.666643,189.485474 126.65434,189.485474 L126.650356,189.485474 C122.317802,189.485474 117.989232,189.584511 114.173489,189.670456 L113.809217,189.677855 C109.797678,189.768354 106.013239,189.854299 102.357433,189.854299 C96.3867967,189.854299 91.8857675,189.6124 88.1878431,189.092175 C86.7836904,188.896948 85.4381627,188.711967 84.1603668,188.536661 C75.7536645,187.378392 70.1979556,186.616267 66.444252,186.616267" id="Path" fill="#DB3E5B"></path>
                </g>
                <path d="M66.5473897,29.1315883 C64.4630739,29.2033044 63.227966,30.4150761 62.7783184,32.8340663 C62.7783184,32.8340663 62.2774451,36.4358003 61.7145319,42.5675134 C61.1948759,48.1698947 60.5727685,57.0655174 60.5727685,67.6379273 C60.5727685,91.4572964 63.6815978,125.2947 78.504031,151.237088 C89.8784072,171.025566 105.951885,182.169427 123.883148,182.752261 C116.896535,177.410562 108.571794,168.546813 104.149311,154.75743 C99.9818176,141.678378 97.8622131,126.209932 97.8622131,108.786373 C97.8622131,84.7353496 101.889689,64.1147393 103.125936,58.3666495 C103.156671,58.2152492 103.180007,58.1173513 103.183422,58.0780783 C103.911396,54.7222275 105.846588,52.0601999 108.431208,50.703858 C90.1442116,38.9657794 74.4179298,32.0690963 71.3762632,30.7736559 C69.5577517,29.9346931 68.568527,29.5772517 68.5605586,29.5744059 L68.5338074,29.5704217 L68.5099021,29.558469 C67.8416916,29.2801429 67.1808805,29.1361417 66.5473897,29.1315883" id="Path" fill="#DB3E5B" fill-rule="nonzero"></path>
            </g>
        </g>
    </g>
</svg>