<svg height="62" viewBox="0 0 62 62" width="62" xmlns="http://www.w3.org/2000/svg"><g fill="none" fill-rule="evenodd"><circle cx="31" cy="31" fill="#def8e9" r="28.5" stroke="#18ce69" stroke-width="5"/><path d="m21.1413161 41c1.6828479 0 3.1109313-.2345972 4.2842502-.7037915 1.173319-.4691943 2.0918735-1.0829384 2.7556635-1.8412322 1.1032003-1.2511848 1.8230852-2.6848341 2.1596548-4.3009479.3365696-1.6161137.5048543-3.2251184.5048543-4.8270142v-.9526066c0-1.1279621-.154261-2.2582939-.4627831-3.3909953s-.7713053-2.078199-1.3883495-2.8364929c-.5235527-.6445497-1.1709817-1.1635071-1.942287-1.556872s-1.6805106-.5900474-2.727616-.5900474c-1.0471053 0-1.9656598.1919431-2.7556634.5758294-.7900036.3838862-1.4467817.8981042-1.9703344 1.542654-.5329018.6540284-.9325782 1.414692-1.1990291 2.2819905-.2664509.8672986-.3996764 1.7890996-.3996764 2.7654029 0 .8341232.1121899 1.6635071.3365696 2.4881516.2243797.8246446.574973 1.5639811 1.0517799 2.2180095.4768069.6540285 1.0821647 1.1824645 1.8160734 1.5853081.7339086.4028436 1.6057173.6042654 2.6154261.6042654.5235527 0 1.0073714-.0545024 1.4514563-.1635071.4440848-.1090048.8484358-.2582939 1.2130528-.4478673.3646171-.1895735.6918375-.4099526.9816613-.6611375.2898238-.2511848.5469256-.5189573.7713053-.8033175v.028436c-.0467458.8720379-.1823085 1.7156398-.4066882 2.5308057-.2243798.8151659-.6591155 1.578199-1.3042072 2.2890995-.5329018.5781991-1.2364257 1.0260664-2.1105717 1.3436019-.874146.3175356-1.9656598.4763033-3.2745415.4763033h-.2664509v2.3459716zm3.0992448-9.1137441c-.6263933 0-1.1709816-.1398104-1.6337648-.4194313-.4627832-.2796208-.8437612-.6469194-1.1429342-1.1018957-.3085221-.4549763-.5375764-.9739336-.6871629-1.556872s-.2243797-1.1777251-.2243797-1.7843602c0-.6824645.0841424-1.3199052.2524272-1.9123223s.4160374-1.1066351.7432578-1.542654c.3178713-.4265403.7105358-.7630332 1.1779935-1.0094787.4674578-.2464455 1.0050342-.3696682 1.6127293-.3696682.5329018 0 1.0354189.1327014 1.5075512.3981042.4721323.2654029.890507.6445498 1.2551241 1.1374408.3552679.5023697.6380798 1.1137441.8484358 1.8341232.210356.7203792.315534 1.5402844.315534 2.4597156v.8530806c-.1589357.4454976-.3763035.8507109-.6521036 1.2156398s-.5866595.6800948-.9325782.9454977c-.3552679.2748815-.7409205.4857819-1.1569579.6327014-.4160374.1469194-.8437613.2203791-1.2831716.2203791zm19.7594391 9.0995261v-20.7014218h-.210356l-7.7270766 3.014218v2.4028436l5.3430421-2.0616114v17.3459716z" fill="#00d45a" fill-rule="nonzero"/></g></svg>