<svg xmlns="http://www.w3.org/2000/svg" width="30" height="30" viewBox="0 0 30 30">
    <g>
        <path d="M15.195 21.384l4.073-4.073c.346-.346.346-.907 0-1.253-.346-.346-.907-.346-1.253 0l-4.073 4.073-4.073-4.073 4.073-4.073c.346-.346.346-.907 0-1.253-.346-.346-.907-.346-1.253 0l-4.073 4.073-1.41-1.41-2.507 2.507c-2.273 2.273-2.555 5.784-.845 8.364L0 28.12 1.88 30l3.854-3.854c2.58 1.71 6.09 1.428 8.364-.845l2.507-2.507-1.41-1.41zM22.794 16.605l2.507-2.507c2.273-2.273 2.555-5.784.845-8.364L30 1.88 28.12 0l-3.854 3.854c-2.58-1.71-6.09-1.428-8.364.845l-2.507 2.507 9.4 9.399z"/>
    </g>
</svg>
