<svg height="30" viewBox="0 0 30 30" width="30" xmlns="http://www.w3.org/2000/svg"><path d="m15.195 21.384 4.073-4.073c.346-.346.346-.907 0-1.253s-.907-.346-1.253 0l-4.073 4.073-4.073-4.073 4.073-4.073c.346-.346.346-.907 0-1.253s-.907-.346-1.253 0l-4.073 4.073-1.41-1.41-2.507 2.507c-2.273 2.273-2.555 5.784-.845 8.364l-3.854 3.854 1.88 1.88 3.854-3.854c2.58 1.71 6.09 1.428 8.364-.845l2.507-2.507zm7.599-4.779 2.507-2.507c2.273-2.273 2.555-5.784.845-8.364l3.854-3.854-1.88-1.88-3.854 3.854c-2.58-1.71-6.09-1.428-8.364.845l-2.507 2.507 9.4 9.399z"/></svg>