<svg height="169" viewBox="0 0 181 169" width="181" xmlns="http://www.w3.org/2000/svg"><g fill="none" stroke="#000"><path d="m115.285 85.012v66.988l-88.285-89 88.285-89v66.988h36.715v44.024z" transform="matrix(0 1 -1 0 153.5 -25.5)"/><path d="m115.285 104.012v61.988l-88.285-89 88.285-89v61.988h36.715v54.024z" transform="matrix(0 1 -1 0 167.5 -11.5)"/><path d="m115.285 123.012v56.988l-88.285-89 88.285-89v56.988h36.715v64.024z" transform="matrix(0 1 -1 0 181.5 2.5)"/><path d="m115.285 142.012v51.988l-88.285-89 88.285-89v51.988h36.715v74.024z" transform="matrix(0 1 -1 0 195.5 16.5)"/></g></svg>