<svg xmlns="http://www.w3.org/2000/svg" width="181" height="169" viewBox="0 0 181 169">
    <g fill="none" stroke="#000">
        <path d="M115.285 85.012L115.285 152 27 63 115.285 -26 115.285 40.988 152 40.988 152 85.012z" transform="translate(1 1) rotate(90 89.5 63)"/>
        <path d="M115.285 104.012L115.285 166 27 77 115.285 -12 115.285 49.988 152 49.988 152 104.012z" transform="translate(1 1) rotate(90 89.5 77)"/>
        <path d="M115.285 123.012L115.285 180 27 91 115.285 2 115.285 58.988 152 58.988 152 123.012z" transform="translate(1 1) rotate(90 89.5 91)"/>
        <path d="M115.285 142.012L115.285 194 27 105 115.285 16 115.285 67.988 152 67.988 152 142.012z" transform="translate(1 1) rotate(90 89.5 105)"/>
    </g>
</svg>
