<svg height="32" viewBox="0 0 32 32" width="32" xmlns="http://www.w3.org/2000/svg"><g fill="none" fill-rule="evenodd" stroke="#000" stroke-width="2" transform="translate(1 1)"><path d="m15 0c-8.284 0-15 6.716-15 15s6.716 15 15 15 15-6.716 15-15c0-3.978-1.58-7.794-4.393-10.607s-6.629-4.393-10.607-4.393z"/><path d="m12.712 6.61c-3.37 0-6.102 2.732-6.102 6.102s2.732 6.102 6.102 6.102 6.102-2.732 6.102-6.102c0-1.618-.643-3.17-1.788-4.315-1.144-1.144-2.696-1.787-4.314-1.787z"/><path d="m17.288 17.288 4.576 4.576" stroke-linecap="round"/></g></svg>