<svg height="30" viewBox="0 0 30 30" width="30" xmlns="http://www.w3.org/2000/svg"><g fill="none" fill-rule="evenodd"><path d="m0 0h30v29.992h-30z"/><g fill-rule="nonzero"><path d="m11.313 0c-1.706.001-3.086 1.383-3.085 3.085-.001 1.702 1.38 3.084 3.086 3.085h3.086v-3.084c.001-1.702-1.38-3.083-3.087-3.086.001 0 .001 0 0 0m0 8.229h-8.227c-1.706 0-3.087 1.381-3.086 3.085-.003 1.702 1.38 3.083 3.085 3.086h8.228c1.705-.001 3.087-1.383 3.086-3.085.001-1.704-1.38-3.085-3.086-3.086z" fill="#36c5f0"/><path d="m30 11.314c.001-1.703-1.38-3.084-3.086-3.085-1.706 0-3.088 1.382-3.087 3.085v3.086h3.087c1.706-.001 3.086-1.383 3.086-3.086zm-8.229 0v-8.229c.002-1.701-1.379-3.082-3.085-3.085-1.706.001-3.086 1.383-3.086 3.085v8.229c-.003 1.702 1.38 3.083 3.085 3.086 1.706-.001 3.088-1.383 3.086-3.086z" fill="#2eb67d"/><path d="m18.686 30c1.706-.001 3.087-1.383 3.086-3.085.001-1.702-1.38-3.083-3.086-3.085h-3.086v3.085c-.001 1.701 1.38 3.082 3.086 3.085zm0-8.23h8.228c1.706 0 3.087-1.382 3.086-3.084.003-1.702-1.38-3.083-3.085-3.086h-8.228c-1.705.001-3.087 1.383-3.086 3.085-.001 1.703 1.38 3.085 3.085 3.086z" fill="#ecb22e"/><path d="m0 18.685c-.001 1.702 1.38 3.084 3.086 3.085 1.706-.001 3.088-1.383 3.087-3.085v-3.085h-3.087c-1.706.001-3.086 1.383-3.086 3.085zm8.229 0v8.229c-.003 1.702 1.379 3.083 3.085 3.086 1.706-.001 3.087-1.383 3.086-3.085v-8.227c.003-1.703-1.38-3.084-3.085-3.087-1.707 0-3.088 1.382-3.086 3.084 0 0 0 .001 0 0" fill="#e01e5a"/></g></g></svg>