<svg height="384" viewBox="0 0 383 384" width="383" xmlns="http://www.w3.org/2000/svg" xmlns:xlink="http://www.w3.org/1999/xlink"><linearGradient id="a" x1="-8.84842%" x2="68.953421%" y1="100%" y2="51.657477%"><stop offset="0" stop-color="#191919" stop-opacity=".05"/><stop offset="1" stop-color="#191919"/></linearGradient><path d="m313.5 106.5c105.594841 0 191.5 85.905159 191.5 191.5s-85.905159 191.5-191.5 191.5-191.5-85.905159-191.5-191.5 85.905159-191.5 191.5-191.5zm0 17.409091c-95.993727 0-174.090909 78.097182-174.090909 174.090909s78.097182 174.090909 174.090909 174.090909 174.090909-78.097182 174.090909-174.090909-78.097182-174.090909-174.090909-174.090909zm-82.951392 224.208846c8.296115 23.094883 24.564947 40.970842 45.796928 50.337355 20.763386 9.152247 44.232744 8.838499 64.369136-.887676 3.372565-1.629957 7.233525.221919 8.632711 4.116981 1.405786 3.902714-.184798 8.387008-3.550763 10.009313-12.005277 5.800504-25.020342 8.708408-38.088208 8.708408-12.229673 0-24.505547-2.54059-36.055428-7.637075-24.650745-10.874032-43.57935-31.742072-53.28125-58.754973-1.405786-3.902714.178198-8.387009 3.544163-10.009313 3.379165-1.645262 7.233526.221919 8.632711 4.11698zm30.632391-131.117937c12.311536 0 22.524444 10.939407 23.844649 25.495488.193049 1.402664.423462 4.806188-.703694 9.887408-1.700076 7.680275-5.59219 14.638591-11.265336 20.118608l-24.006561 22.834551c-1.170748 1.107005-2.621728 1.663945-4.066481 1.663945-1.463435 0-2.933097-.570692-4.103845-1.7052l-23.570645-22.807048c-5.666918-5.466265-9.559032-12.424581-11.259108-20.104856-1.127156-5.08122-.896743-8.484744-.703694-9.887408 1.320205-14.556081 11.533113-25.495488 23.844649-25.495488 6.053016 0 11.626524 2.516545 15.861144 6.917061 4.321804-4.366137 10.038541-6.917061 16.128922-6.917061zm136.628068 0c12.311536 0 22.518217 10.939407 23.844649 25.488612.193049 1.402664.423462 4.813064-.703694 9.90116-1.700076 7.673399-5.59219 14.631715-11.265336 20.111732l-24.006561 22.834551c-1.170748 1.107005-2.621728 1.663945-4.066481 1.663945-1.463435 0-2.933097-.570692-4.103845-1.7052l-23.570645-22.807048c-5.666918-5.466265-9.559032-12.424581-11.259108-20.104856-1.127156-5.08122-.896743-8.484744-.703694-9.887408 1.320205-14.549205 11.533113-25.495488 23.844649-25.495488 6.059244 0 11.626524 2.516545 15.861144 6.917061 4.321804-4.366137 10.038542-6.917061 16.128922-6.917061z" fill="url(#a)" transform="translate(-122 -106)"/></svg>