<svg height="204" viewBox="0 0 154 204" width="154" xmlns="http://www.w3.org/2000/svg"><g fill="none" fill-rule="evenodd" transform="translate(.600588 .5)"><path d="m81.6155679 175.344974c5.1799801 0 8.8899658 3.954984 8.8899658 9.519963 0 5.634978-3.5349864 9.589963-8.6799666 9.589963-3.7027798 0-5.5261941-2.143136-6.1742775-3.293254l-.0556985-.101733h-.2099992v10.989958h-2.7649893v-26.249899h2.6599897v2.869989h.2099992c.4549983-.664998 2.1699917-3.324987 6.1249764-3.324987zm-74.47559541 0c3.14998791 0 6.19497611 1.819993 6.61497451 5.10998l-2.4149907.699997c-.244999-2.134992-1.9949923-3.429987-4.37498313-3.429987-2.27499124 0-3.74498557 1.119996-3.74498557 2.69499 0 4.619982 10.9199579.769997 10.9199579 8.294968 0 3.429987-2.8349891 5.739978-7.06997274 5.739978-4.09498422 0-6.64997438-2.239991-7.06997276-5.494979l2.51999029-.629997c.20999919 2.44999 1.92499259 3.709985 4.68998193 3.709985 2.72998949 0 4.23498368-1.329995 4.23498368-3.184987 0-2.400143-2.40138766-2.815859-4.94831398-3.328912l-.49416504-.101075c-2.72123952-.568748-5.44247904-1.399995-5.44247904-5.004981 0-3.079988 2.76498935-5.07498 6.57997465-5.07498zm31.54723141 0c5.4949788 0 9.4849635 4.094984 9.4849635 9.554963s-4.0599844 9.554963-9.5199634 9.554963c-5.4599789 0-9.4849634-4.024985-9.4849634-9.554963 0-5.494979 4.0949842-9.554963 9.5199633-9.554963zm72.9706011 0c5.396854 0 8.531719 3.713713 8.641958 9.019018l.003009.290946v1.014996h-14.629944c.035 4.059984 2.414991 6.334975 6.194976 6.334975 2.475147 0 4.753214-1.379555 5.434118-3.756824l.060861-.23316 2.69499.629997c-1.014996 3.394987-4.024985 5.809978-8.224969 5.809978-5.529978 0-8.994965-3.884985-8.994965-9.484964 0-5.809977 3.989985-9.624962 8.819966-9.624962zm17.576109 0c3.149988 0 6.194976 1.819993 6.614974 5.10998l-2.41499.699997c-.244999-2.134992-1.994993-3.429987-4.374983-3.429987-2.274992 0-3.744986 1.119996-3.744986 2.69499 0 4.619982 10.919958.769997 10.919958 8.294968 0 3.429987-2.834989 5.739978-7.069973 5.739978-4.094984 0-6.649974-2.239991-7.069973-5.494979l2.519991-.629997c.209999 2.44999 1.924992 3.709985 4.689982 3.709985 2.729989 0 4.234983-1.329995 4.234983-3.184987 0-2.350591-2.303257-2.797848-4.790775-3.297242l-.325329-.065595c-2.825561-.573836-5.768854-1.322945-5.768854-5.072131 0-3.079988 2.76499-5.07498 6.579975-5.07498zm16.456113 0c3.149988 0 6.194976 1.819993 6.614974 5.10998l-2.41499.699997c-.244999-2.134992-1.994993-3.429987-4.374983-3.429987-2.274992 0-3.744986 1.119996-3.744986 2.69499 0 4.619982 10.919958.769997 10.919958 8.294968 0 3.429987-2.834989 5.739978-7.069973 5.739978-4.094984 0-6.649974-2.239991-7.069973-5.494979l2.519991-.629997c.209999 2.44999 1.924992 3.709985 4.689982 3.709985 2.729989 0 4.234983-1.329995 4.234983-3.184987 0-2.400143-2.401387-2.815859-4.948314-3.328912l-.494165-.101075c-2.721239-.568748-5.442479-1.399995-5.442479-5.004981 0-3.079988 2.76499-5.07498 6.579975-5.07498zm-123.7389351-4.829982v5.28498h5.5999784v2.344991h-5.5999784v10.639959c0 1.959992.8049969 2.799989 2.7299895 2.799989h2.6249899v2.414991h-2.58999c-3.3249872 0-5.5299787-1.504994-5.5299787-5.17998v-10.674959h-3.4299868v-2.344991h3.6049861v-5.28498zm38.1622059 4.829982v2.764989h-1.6449936c-3.3249872 0-4.689982 2.69499-4.689982 6.159976v9.729963h-2.7649893v-18.19993h2.7299895v3.044988h.2099992c.5249979-1.539994 2.3099911-3.499986 4.9699808-3.499986zm7.6361471.454998v18.19993h-2.7649894v-15.854939h-3.4299868v-2.344991zm34.6972191-.454998v2.764989h-1.644994c-3.3249867 0-4.6899814 2.69499-4.6899814 6.159976v9.729963h-2.7649894v-18.19993h2.7299895v3.044988h.2099992c.524998-1.539994 2.3099911-3.499986 4.9699811-3.499986zm-70.2172457 7.829293c-1.0598599 3.955451.8499897 7.510894 4.6025971 8.516402 3.7864146 1.014567 7.2271729-1.143419 8.2779742-5.065063 1.0417426-3.887836-.8499897-7.510894-4.6364043-8.525461-3.7864147-1.014566-7.211483 1.220093-8.244167 5.074122zm43.3976814.615455c-.7779409 4.411922 1.5297632 7.448777 4.9076407 8.044388 3.5157502.619922 6.5708384-1.791187 7.2940803-5.892895.7414749-4.205113-1.4729822-7.367685-4.9197961-7.975452-3.722559-.656387-6.6194597 2.066932-7.2819249 5.823959zm30.6137433-1.127421-.041431.246038 11.680338 1.021897c.155114-3.780853-2.301265-5.822704-5.299799-6.085042-2.891383-.252963-5.730474 1.571968-6.339108 4.817107zm-39.8913927-14.177301c1.1899954 0 2.0299922.874997 2.0299922 1.994992 0 1.154996-.8399968 2.029992-2.0299922 2.029992-1.1549956 0-1.9949923-.874996-1.9949923-2.029992 0-1.119995.8399967-1.994992 1.9949923-1.994992z" fill="#fff" fill-rule="nonzero"/><g transform="translate(6.844706)"><path d="m47.3827151 2.38263195c-4.963815 30.43845395 9.6470308 53.79772445 43.8325449 70.07781315 33.425841 15.9183088 48.156744 41.1947999 44.192715 75.8294729l-.299241 2.375957h-45.7390508c1.4954664-11.425604-.1910221-19.509976-5.059473-24.253118-18.0532661-17.588597-35.8491787-17.981077-54.0487235-37.4795073-23.26923531-24.9299492-32.98394629-52.8136034-29.14413294-83.65096193l.39969878-2.89965582z" fill="#ff4c4c" fill-rule="nonzero"/><path d="m69.9335903 16.3058941c7.1970569-.3016851 13.0330152.1673283 17.4966523 1.4777417 3.8130595 1.1194199 6.5690989 2.8233613 8.0596119 5.348047 1.4897714 2.5234295 1.6485942 5.7552583.7839967 9.6272579-1.0124627 4.5341968-3.4263247 9.8600975-7.1739604 16.0022408-5.5046977 9.358824-10.7986575 16.4379807-15.9478668 21.2441751-24.0375771 22.4363124-50.9221975 31.8260724-80.68690772 28.0545119v-39.3525069c11.39840262 1.3825465 21.89619242-.1229988 31.50018752-4.4698573 10.488093-4.7470095 19.93206-12.9079616 28.2723739-24.5597859.873635-1.1628495 9.9860476-13.0486433 17.6959126-13.3718243z" fill="#2e53c2" stroke="#ff4c4c" stroke-width="6" transform="matrix(0 1 -1 0 102.177251 12.917515)"/><path d="m138.220559 0v55.3961948h-55.3961929v-55.3961948z" fill="#ffb500" fill-rule="nonzero"/></g></g></svg>