<svg id="svg" xmlns="http://www.w3.org/2000/svg" xmlns:xlink="http://www.w3.org/1999/xlink" width="400" height="176.10619469026548" viewBox="0, 0, 400,176.10619469026548"><g id="svgg"><path id="path0" d="M149.554 4.256 C 146.983 6.924,143.696 12.045,140.750 17.973 C 138.164 23.176,135.911 27.434,135.742 27.434 C 135.573 27.434,132.360 26.401,128.602 25.140 C 113.709 20.140,99.830 21.545,95.602 28.480 C 92.057 34.294,93.846 38.325,98.784 35.650 C 100.183 34.892,102.522 33.629,103.982 32.844 C 108.887 30.206,127.657 31.195,132.528 34.348 C 133.403 34.914,133.249 36.568,131.805 42.091 C 130.796 45.954,129.739 53.012,129.456 57.776 C 128.955 66.223,128.875 66.484,126.197 68.353 C 122.818 70.710,122.158 71.627,122.743 73.150 C 123.332 74.684,125.657 74.620,127.782 73.011 C 129.313 71.852,129.580 71.989,130.879 74.587 C 133.754 80.339,139.877 80.695,146.087 75.470 L 148.765 73.216 148.220 75.390 C 146.494 82.267,155.469 79.917,157.928 72.848 C 160.718 64.830,163.119 60.987,168.385 56.112 C 174.680 50.284,175.048 50.382,172.076 57.102 C 163.584 76.306,169.548 85.830,183.536 75.400 L 186.909 72.886 189.332 75.309 C 196.466 82.442,213.329 78.652,221.075 68.175 C 225.549 62.122,222.306 60.526,216.453 65.899 C 209.327 72.441,200.625 74.369,197.213 70.161 C 196.372 69.123,196.346 68.884,197.126 69.353 C 203.001 72.882,218.886 54.041,215.971 47.003 C 210.653 34.165,185.841 48.625,185.841 64.561 C 185.841 66.464,184.969 67.798,182.395 69.837 C 175.606 75.214,175.447 73.353,181.427 58.524 C 186.095 46.948,186.478 45.239,184.779 43.540 C 182.373 41.134,173.820 43.940,168.225 48.971 C 166.735 50.311,167.163 49.292,169.654 45.575 C 182.061 27.056,188.666 -0.000,180.780 -0.000 C 176.337 0.000,165.503 16.789,160.238 31.833 L 157.857 38.635 154.980 37.273 C 153.117 36.390,152.246 35.431,152.509 34.548 C 161.246 5.191,160.089 -6.673,149.554 4.256 M173.471 23.740 C 172.208 28.755,166.120 42.166,165.691 40.878 C 165.222 39.470,169.550 23.728,171.888 18.341 L 173.894 13.717 174.182 16.743 C 174.341 18.407,174.021 21.556,173.471 23.740 M147.356 25.298 C 145.867 31.995,145.592 32.403,143.481 31.065 C 142.130 30.209,142.820 27.309,146.346 19.027 C 148.870 13.099,149.374 16.230,147.356 25.298 M226.549 23.451 L 226.549 27.434 238.496 27.434 L 250.442 27.434 250.442 70.970 L 250.442 114.506 247.566 111.777 C 234.801 99.663,213.908 105.263,207.005 122.650 C 202.087 135.034,204.351 157.581,211.455 166.974 C 220.383 178.781,240.462 178.986,249.328 167.361 L 252.212 163.579 252.212 168.958 L 252.212 174.336 290.265 174.336 L 328.319 174.336 328.319 167.699 L 328.319 161.062 323.009 161.062 L 317.699 161.062 317.699 134.071 L 317.699 107.080 300.442 107.080 L 283.186 107.080 283.186 113.717 L 283.186 120.354 288.053 120.354 L 292.920 120.354 292.920 140.708 L 292.920 161.062 284.071 161.062 L 275.221 161.062 275.221 90.265 L 275.221 19.469 250.885 19.469 L 226.549 19.469 226.549 23.451 M142.050 44.736 C 138.137 55.133,137.491 55.402,138.978 46.018 C 140.338 37.438,140.529 37.010,142.521 38.076 C 144.172 38.960,144.160 39.132,142.050 44.736 M153.417 43.040 L 156.451 44.487 154.009 53.588 C 151.518 62.875,150.147 65.386,145.371 69.404 C 139.421 74.411,135.656 67.840,140.149 60.293 C 141.491 58.039,144.176 52.909,146.116 48.894 C 148.056 44.878,149.809 41.593,150.013 41.593 C 150.216 41.593,151.748 42.244,153.417 43.040 M207.080 50.486 C 207.080 54.114,205.308 57.259,200.872 61.504 C 198.837 63.451,196.839 65.841,196.430 66.814 C 195.889 68.104,195.677 67.384,195.651 64.159 C 195.590 56.833,200.905 47.788,205.270 47.788 C 206.697 47.788,207.080 48.358,207.080 50.486 M299.924 73.412 C 291.462 75.976,287.470 86.112,291.996 93.536 C 296.771 101.366,309.560 102.252,315.767 95.182 C 325.171 84.471,314.015 69.142,299.924 73.412 M87.832 90.945 L 76.991 92.264 76.991 99.672 L 76.991 107.080 70.796 107.080 L 64.602 107.080 64.602 113.717 L 64.602 120.354 70.354 120.354 L 76.106 120.354 76.106 138.777 C 76.106 169.527,79.987 175.625,99.558 175.625 C 114.569 175.625,121.677 169.249,124.292 153.438 L 124.894 149.797 120.905 148.792 C 115.016 147.309,114.368 147.477,113.669 150.660 C 112.064 157.966,108.905 161.157,104.623 159.797 C 101.438 158.786,100.885 155.500,100.885 137.569 L 100.885 120.354 114.972 120.354 L 129.059 120.354 129.355 140.487 C 129.623 158.639,129.833 161.011,131.492 164.602 C 139.088 181.035,163.479 179.717,172.430 162.389 L 174.258 158.850 174.297 166.593 L 174.336 174.336 190.265 174.336 L 206.195 174.336 206.195 167.699 L 206.195 161.062 201.770 161.062 L 197.345 161.062 197.345 134.071 L 197.345 107.080 180.088 107.080 L 162.832 107.080 162.832 113.717 L 162.832 120.354 167.787 120.354 L 172.742 120.354 172.415 135.619 C 172.078 151.365,171.720 153.081,167.889 157.287 C 165.711 159.680,161.046 160.704,158.509 159.347 C 154.349 157.120,153.982 154.753,153.982 130.132 L 153.982 107.080 127.434 107.080 L 100.885 107.080 100.885 98.230 C 100.885 91.675,100.598 89.412,99.779 89.503 C 99.170 89.571,93.794 90.220,87.832 90.945 M18.334 106.276 C 5.150 109.380,-2.762 124.189,2.535 135.848 C 5.744 142.912,12.087 146.583,27.960 150.564 C 37.812 153.035,41.150 155.246,41.150 159.301 C 41.150 167.761,27.600 165.446,17.096 155.191 L 12.232 150.442 6.116 150.442 L 0.000 150.442 0.000 163.274 L 0.000 176.106 6.549 176.106 L 13.098 176.106 14.153 171.706 L 15.209 167.306 18.445 169.896 C 35.856 183.832,63.770 173.817,63.697 153.660 C 63.652 141.040,57.643 135.580,38.053 130.359 C 26.298 127.226,23.009 125.432,23.009 122.156 C 23.009 114.056,34.760 115.466,44.568 124.742 L 49.286 129.204 55.616 129.204 L 61.947 129.204 61.947 117.257 L 61.947 105.310 55.345 105.310 L 48.744 105.310 47.683 108.850 C 46.428 113.039,46.875 112.918,42.830 110.173 C 36.450 105.843,26.735 104.298,18.334 106.276 M353.097 106.281 C 320.539 112.640,314.197 158.683,343.999 172.327 C 362.850 180.957,386.612 174.204,395.398 157.721 C 410.577 129.241,386.355 99.786,353.097 106.281 M368.760 120.041 C 372.969 125.320,374.191 152.138,370.536 159.017 C 367.419 164.885,361.505 166.350,356.827 162.413 C 349.585 156.320,349.664 123.336,356.932 118.080 C 359.986 115.871,366.265 116.913,368.760 120.041 M246.832 122.643 C 254.531 129.121,253.857 154.055,245.833 159.676 C 237.137 165.767,230.454 157.440,230.609 140.708 C 230.771 123.103,237.920 115.144,246.832 122.643 " stroke="none" fill="#000000" fill-rule="evenodd"></path></g></svg>