<svg height="176.106195" viewBox="0 0 400 176.10619469" width="400" xmlns="http://www.w3.org/2000/svg"><path d="m149.554 4.256c-2.571 2.668-5.858 7.789-8.804 13.717-2.586 5.203-4.839 9.461-5.008 9.461s-3.382-1.033-7.14-2.294c-14.893-5-28.772-3.595-33 3.34-3.545 5.814-1.756 9.845 3.182 7.17 1.399-.758 3.738-2.021 5.198-2.806 4.905-2.638 23.675-1.649 28.546 1.504.875.566.721 2.22-.723 7.743-1.009 3.863-2.066 10.921-2.349 15.685-.501 8.447-.581 8.708-3.259 10.577-3.379 2.357-4.039 3.274-3.454 4.797.589 1.534 2.914 1.47 5.039-.139 1.531-1.159 1.798-1.022 3.097 1.576 2.875 5.752 8.998 6.108 15.208.883l2.678-2.254-.545 2.174c-1.726 6.877 7.249 4.527 9.708-2.542 2.79-8.018 5.191-11.861 10.457-16.736 6.295-5.828 6.663-5.73 3.691.99-8.492 19.204-2.528 28.728 11.46 18.298l3.373-2.514 2.423 2.423c7.134 7.133 23.997 3.343 31.743-7.134 4.474-6.053 1.231-7.649-4.622-2.276-7.126 6.542-15.828 8.47-19.24 4.262-.841-1.038-.867-1.277-.087-.808 5.875 3.529 21.76-15.312 18.845-22.35-5.318-12.838-30.13 1.622-30.13 17.558 0 1.903-.872 3.237-3.446 5.276-6.789 5.377-6.948 3.516-.968-11.313 4.668-11.576 5.051-13.285 3.352-14.984-2.406-2.406-10.959.4-16.554 5.431-1.49 1.34-1.062.321 1.429-3.396 12.407-18.519 19.012-45.575 11.126-45.575-4.443 0-15.277 16.789-20.542 31.833l-2.381 6.802-2.877-1.362c-1.863-.883-2.734-1.842-2.471-2.725 8.737-29.357 7.58-41.221-2.955-30.292m23.917 19.484c-1.263 5.015-7.351 18.426-7.78 17.138-.469-1.408 3.859-17.15 6.197-22.537l2.006-4.624.288 3.026c.159 1.664-.161 4.813-.711 6.997m-26.115 1.558c-1.489 6.697-1.764 7.105-3.875 5.767-1.351-.856-.661-3.756 2.865-12.038 2.524-5.928 3.028-2.797 1.01 6.271m79.193-1.847v3.983h11.947 11.946v43.536 43.536l-2.876-2.729c-12.765-12.114-33.658-6.514-40.561 10.873-4.918 12.384-2.654 34.931 4.45 44.324 8.928 11.807 29.007 12.012 37.873.387l2.884-3.782v5.379 5.378h38.053 38.054v-6.637-6.637h-5.31-5.31v-26.991-26.991h-17.257-17.256v6.637 6.637h4.867 4.867v20.354 20.354h-8.849-8.85v-70.797-70.796h-24.336-24.336zm-84.499 21.285c-3.913 10.397-4.559 10.666-3.072 1.282 1.36-8.58 1.551-9.008 3.543-7.942 1.651.884 1.639 1.056-.471 6.66m11.367-1.696 3.034 1.447-2.442 9.101c-2.491 9.287-3.862 11.798-8.638 15.816-5.95 5.007-9.715-1.564-5.222-9.111 1.342-2.254 4.027-7.384 5.967-11.399 1.94-4.016 3.693-7.301 3.897-7.301.203 0 1.735.651 3.404 1.447m53.663 7.446c0 3.628-1.772 6.773-6.208 11.018-2.035 1.947-4.033 4.337-4.442 5.31-.541 1.29-.753.57-.779-2.655-.061-7.326 5.254-16.371 9.619-16.371 1.427 0 1.81.57 1.81 2.698m92.844 22.926c-8.462 2.564-12.454 12.7-7.928 20.124 4.775 7.83 17.564 8.716 23.771 1.646 9.404-10.711-1.752-26.04-15.843-21.77m-212.092 17.533-10.841 1.319v7.408 7.408h-6.195-6.194v6.637 6.637h5.752 5.752v18.423c0 30.75 3.881 36.848 23.452 36.848 15.011 0 22.119-6.376 24.734-22.187l.602-3.641-3.989-1.005c-5.889-1.483-6.537-1.315-7.236 1.868-1.605 7.306-4.764 10.497-9.046 9.137-3.185-1.011-3.738-4.297-3.738-22.228v-17.215h14.087 14.087l.296 20.133c.268 18.152.478 20.524 2.137 24.115 7.596 16.433 31.987 15.115 40.938-2.213l1.828-3.539.039 7.743.039 7.743h15.929 15.93v-6.637-6.637h-4.425-4.425v-26.991-26.991h-17.257-17.256v6.637 6.637h4.955 4.955l-.327 15.265c-.337 15.746-.695 17.462-4.526 21.668-2.178 2.393-6.843 3.417-9.38 2.06-4.16-2.227-4.527-4.594-4.527-29.215v-23.052h-26.548-26.549v-8.85c0-6.555-.287-8.818-1.106-8.727-.609.068-5.985.717-11.947 1.442m-69.498 15.331c-13.184 3.104-21.096 17.913-15.799 29.572 3.209 7.064 9.552 10.735 25.425 14.716 9.852 2.471 13.19 4.682 13.19 8.737 0 8.46-13.55 6.145-24.054-4.11l-4.864-4.749h-6.116-6.116v12.832 12.832h6.549 6.549l1.055-4.4 1.056-4.4 3.236 2.59c17.411 13.936 45.325 3.921 45.252-16.236-.045-12.62-6.054-18.08-25.644-23.301-11.755-3.133-15.044-4.927-15.044-8.203 0-8.1 11.751-6.69 21.559 2.586l4.718 4.462h6.33 6.331v-11.947-11.947h-6.602-6.601l-1.061 3.54c-1.255 4.189-.808 4.068-4.853 1.323-6.38-4.33-16.095-5.875-24.496-3.897m334.763.005c-32.558 6.359-38.9 52.402-9.098 66.046 18.851 8.63 42.613 1.877 51.399-14.606 15.179-28.48-9.043-57.935-42.301-51.44m15.663 13.76c4.209 5.279 5.431 32.097 1.776 38.976-3.117 5.868-9.031 7.333-13.709 3.396-7.242-6.093-7.163-39.077.105-44.333 3.054-2.209 9.333-1.167 11.828 1.961m-121.928 2.602c7.699 6.478 7.025 31.412-.999 37.033-8.696 6.091-15.379-2.236-15.224-18.968.162-17.605 7.311-25.564 16.223-18.065" fill-rule="evenodd"/></svg>