<svg height="30" viewBox="0 0 31 30" width="31" xmlns="http://www.w3.org/2000/svg"><path d="m15.5 11.25c-2.071 0-3.75 1.679-3.75 3.75s1.679 3.75 3.75 3.75 3.75-1.679 3.75-3.75-1.679-3.75-3.75-3.75m0 5.25c-.828 0-1.5-.672-1.5-1.5s.672-1.5 1.5-1.5 1.5.672 1.5 1.5-.672 1.5-1.5 1.5m0-5.25c-2.071 0-3.75 1.679-3.75 3.75s1.679 3.75 3.75 3.75 3.75-1.679 3.75-3.75-1.679-3.75-3.75-3.75m0 5.25c-.828 0-1.5-.672-1.5-1.5s.672-1.5 1.5-1.5 1.5.672 1.5 1.5-.672 1.5-1.5 1.5m0-16.5c-8.284 0-15 6.716-15 15 0 3.978 1.58 7.794 4.393 10.607s6.629 4.393 10.607 4.393 7.794-1.58 10.607-4.393 4.393-6.629 4.393-10.607-1.58-7.794-4.393-10.607-6.629-4.393-10.607-4.393m0 21c-3.945 0-7.5-2.355-9-6 2.07-4.965 7.785-7.32 12.75-5.25 2.37.99 4.26 2.88 5.25 5.25-1.5 3.645-5.055 6-9 6m0-9.75c-2.071 0-3.75 1.679-3.75 3.75s1.679 3.75 3.75 3.75 3.75-1.679 3.75-3.75-1.679-3.75-3.75-3.75m0 5.25c-.828 0-1.5-.672-1.5-1.5s.672-1.5 1.5-1.5 1.5.672 1.5 1.5-.672 1.5-1.5 1.5z" fill="#191919"/></svg>