<svg xmlns="http://www.w3.org/2000/svg" width="31" height="30" viewBox="0 0 31 30">
    <path fill="#191919" d="M15.5 11.25c-2.071 0-3.75 1.679-3.75 3.75 0 2.071 1.679 3.75 3.75 3.75 2.071 0 3.75-1.679 3.75-3.75 0-2.071-1.679-3.75-3.75-3.75m0 5.25c-.828 0-1.5-.672-1.5-1.5s.672-1.5 1.5-1.5 1.5.672 1.5 1.5-.672 1.5-1.5 1.5m0-5.25c-2.071 0-3.75 1.679-3.75 3.75 0 2.071 1.679 3.75 3.75 3.75 2.071 0 3.75-1.679 3.75-3.75 0-2.071-1.679-3.75-3.75-3.75m0 5.25c-.828 0-1.5-.672-1.5-1.5s.672-1.5 1.5-1.5 1.5.672 1.5 1.5-.672 1.5-1.5 1.5m0-16.5C7.216 0 .5 6.716.5 15c0 3.978 1.58 7.794 4.393 10.607C7.706 28.42 11.522 30 15.5 30c3.978 0 7.794-1.58 10.607-4.393C28.92 22.794 30.5 18.978 30.5 15c0-3.978-1.58-7.794-4.393-10.607C23.294 1.58 19.478 0 15.5 0m0 21c-3.945 0-7.5-2.355-9-6 2.07-4.965 7.785-7.32 12.75-5.25 2.37.99 4.26 2.88 5.25 5.25-1.5 3.645-5.055 6-9 6m0-9.75c-2.071 0-3.75 1.679-3.75 3.75 0 2.071 1.679 3.75 3.75 3.75 2.071 0 3.75-1.679 3.75-3.75 0-2.071-1.679-3.75-3.75-3.75m0 5.25c-.828 0-1.5-.672-1.5-1.5s.672-1.5 1.5-1.5 1.5.672 1.5 1.5-.672 1.5-1.5 1.5z"/>
</svg>
