<svg height="25" viewBox="0 0 65 25" width="65" xmlns="http://www.w3.org/2000/svg"><g fill="none"><path d="m36.777.475c-1.24.62-1.777 1.777-1.777 4.918 0 0 .62-.62 1.612-.992.723-.269 1.24-.62 1.611-.889 1.075-.805 1.24-1.776 1.24-3.47-.02 0-1.715-.104-2.686.433z" fill="#fbbd71"/><path d="m29.194 1.198c-1.074.889-1.343 2.418-1.343 2.418l-3.47 13.305-2.852-10.888c-.269-1.157-.806-2.583-1.612-3.574-.991-1.26-3.057-1.343-3.305-1.343-.186 0-2.232.082-3.306 1.343-.806.991-1.343 2.417-1.612 3.574l-2.686 10.888-3.47-13.305s-.27-1.426-1.344-2.418c-1.694-1.528-4.194-1.157-4.194-1.157l6.612 24.897s2.148.186 3.223-.351c1.425-.723 2.148-1.24 2.954-4.649.806-3.037 2.955-11.88 3.12-12.5.083-.269.269-1.074.806-1.074s.723.723.806 1.074c.186.62 2.314 9.463 3.12 12.5.888 3.388 1.508 3.926 2.954 4.649 1.074.537 3.223.351 3.223.351l6.57-24.897s-2.5-.35-4.194 1.157zm10.248 2.852s-.454.62-1.343 1.157c-.62.35-1.157.537-1.777.888-1.074.537-1.343 1.074-1.343 1.88v16.88s1.695.186 2.769-.35c1.426-.724 1.694-1.426 1.694-4.464zm16.426 8.491 8.388-12.417s-3.47-.62-5.268.992c-1.157.991-2.314 2.85-2.314 2.85l-3.038 4.464c-.186.268-.35.454-.62.454-.268 0-.537-.268-.62-.454l-3.036-4.463s-1.24-1.777-2.315-2.851c-1.775-1.612-5.268-.992-5.268-.992l8.12 12.397-8.306 12.396s3.657.455 5.454-1.157c1.157-.991 2.232-2.686 2.232-2.686l3.037-4.462c.186-.269.351-.455.62-.455.268 0 .537.269.62.455l3.037 4.462s1.157 1.695 2.231 2.686c1.777 1.612 5.352 1.157 5.352 1.157z" fill="#000"/></g></svg>