<svg xmlns="http://www.w3.org/2000/svg" width="35" height="35" viewBox="0 0 35 35">
    <path d="M17.5 0C7.836 0 0 7.836 0 17.5S7.836 35 17.5 35 35 27.164 35 17.5 27.164 0 17.5 0zm-15 17.5c0-2.118.468-4.129 1.3-5.946l7.154 19.092C5.95 28.28 2.5 23.282 2.5 17.5zm15 14.61c-1.471 0-2.893-.21-4.236-.596l4.5-12.739 4.611 12.304c.032.071.068.139.107.203-1.557.536-3.236.829-4.982.829zm2.064-21.46c.904-.046 1.718-.14 1.718-.14.81-.092.714-1.25-.093-1.203 0 0-2.428.186-3.996.186-1.472 0-3.95-.186-3.95-.186-.81-.046-.904 1.157-.097 1.204 0 0 .765.093 1.572.139l2.336 6.236-3.283 9.589L8.307 10.65c.907-.046 1.718-.14 1.718-.14.807-.092.714-1.25-.093-1.203 0 0-2.428.186-3.996.186-.279 0-.611-.007-.965-.018C7.65 5.511 12.261 2.889 17.5 2.889c3.904 0 7.46 1.454 10.129 3.836-.065-.004-.129-.014-.197-.014-1.475 0-2.521 1.25-2.521 2.593 0 1.203.714 2.221 1.471 3.428.572.975 1.24 2.225 1.24 4.029 0 1.25-.493 2.7-1.14 4.725l-1.5 4.868-5.418-15.704zM32.5 17.5c0 5.39-3 10.096-7.46 12.625l4.581-12.9c.854-2.086 1.14-3.75 1.14-5.232 0-.54-.036-1.036-.1-1.504 1.171 2.082 1.839 4.472 1.839 7.011z"/>
</svg>
