<svg height="30" viewBox="0 0 34 30" width="34" xmlns="http://www.w3.org/2000/svg" xmlns:xlink="http://www.w3.org/1999/xlink"><linearGradient id="a" x1="64.345002%" x2="0%" y1="15.39894%" y2="90.710323%"><stop offset="0" stop-color="#fff"/><stop offset="1" stop-color="#fff" stop-opacity="0"/></linearGradient><path d="m59.942 32.334v3.333h-10v-6.667h10zm-13.333.833v.834h-1.395c-3.958.02-6.291 3.333-4.375 6.23.521.791 1.792 1.686 2.813 1.999.417.125.458.062.458-.709v-.854l2.396 1.188c1.312.667 2.396 1.25 2.396 1.312 0 .061-1.084.646-2.396 1.312l-2.396 1.188v-.813c0-.75-.062-.834-.667-.959-3.5-.77-5.791-4.5-4.645-7.541.959-2.48 3.354-3.979 6.416-4l1.395-.02zm13.333 10.833v3.333h-10v-6.667h10zm7.895 1.187c2.855.917 4.542 4.083 3.688 6.98-.583 2.04-2.687 3.832-4.958 4.249-.75.125-.792.166-.792.938v.812l-2.396-1.188c-1.312-.666-2.395-1.25-2.395-1.312 0-.061 1.083-.646 2.395-1.312l2.396-1.187v.854c0 .854 0 .854.688.709 1.708-.376 3.062-1.542 3.48-2.98.312-1.146.25-1.708-.293-2.875-.812-1.729-2.083-2.375-4.728-2.375h-1.647v-1.667h1.75c1.042 0 2.166.146 2.812.354zm-7.895 10.48v3.333h-10v-6.667h10v3.333z" fill="url(#a)" transform="translate(-38 -29)"/></svg>